  0
SECTION
  2
HEADER
  9
$ANGBASE
  50
0.0
  9
$ANGDIR
  70
  1
  9
$MEASUREMENT
  70
0
  0
ENDSEC
  0
SECTION
  2
TABLES
  0
TABLE
  2
LTYPE
  70
4
  0
LTYPE
  5
40F
  2
CONTINUOUS
  70
0
  3
Solid line
  72
65
  73
0
  40
0.0
  0
LTYPE
  5
410
  2
DASHDOT
 70
0
  3
Dash Dot ____ _ ____ _
 72
65
 73
4
 40
2.0
 49
1.25
 49
-0.25
 49
0.25
 49
-0.25
  0
LTYPE
  5
411
  2
DASHED
 70
0
  3
Dashed __ __ __ __ __
 72
65
 73
2
 40
0.75
 49
0.5
 49
-0.25
  0
LTYPE
  5
43B
  2
DOTTED
 70
0
  3
Dotted .  .  .  .
 72
65
 73
2
 40
0.2
 49
0.0
 49
-0.2
  0
ENDTAB
  0
TABLE
  2
STYLE
  70
4
  0
STYLE
  2
KICAD
  70
0
  40
0
  41
1
  42
1
  50
0
  71
0
  3
isocp.shx
  0
STYLE
  2
KICADB
  70
0
  40
0
  41
1
  42
1
  50
0
  71
0
  3
isocp.shx
  0
STYLE
  2
KICADI
  70
0
  40
0
  41
1
  42
1
  50
15
  71
0
  3
isocp.shx
  0
STYLE
  2
KICADBI
  70
0
  40
0
  41
1
  42
1
  50
15
  71
0
  3
isocp.shx
  0
ENDTAB
  0
TABLE
  2
LAYER
  70
30
  0
LAYER
  2
BLACK
  70
0
  62
7
  6
CONTINUOUS
  0
LAYER
  2
GRAY1
  70
0
  62
251
  6
CONTINUOUS
  0
LAYER
  2
GRAY2
  70
0
  62
8
  6
CONTINUOUS
  0
LAYER
  2
GRAY3
  70
0
  62
9
  6
CONTINUOUS
  0
LAYER
  2
WHITE
  70
0
  62
7
  6
CONTINUOUS
  0
LAYER
  2
LYELLOW
  70
0
  62
51
  6
CONTINUOUS
  0
LAYER
  2
BLUE1
  70
0
  62
178
  6
CONTINUOUS
  0
LAYER
  2
GREEN1
  70
0
  62
98
  6
CONTINUOUS
  0
LAYER
  2
CYAN1
  70
0
  62
138
  6
CONTINUOUS
  0
LAYER
  2
RED1
  70
0
  62
18
  6
CONTINUOUS
  0
LAYER
  2
MAGENTA1
  70
0
  62
228
  6
CONTINUOUS
  0
LAYER
  2
BROWN1
  70
0
  62
58
  6
CONTINUOUS
  0
LAYER
  2
BLUE2
  70
0
  62
5
  6
CONTINUOUS
  0
LAYER
  2
GREEN2
  70
0
  62
3
  6
CONTINUOUS
  0
LAYER
  2
CYAN2
  70
0
  62
4
  6
CONTINUOUS
  0
LAYER
  2
RED2
  70
0
  62
1
  6
CONTINUOUS
  0
LAYER
  2
MAGENTA2
  70
0
  62
6
  6
CONTINUOUS
  0
LAYER
  2
BROWN2
  70
0
  62
54
  6
CONTINUOUS
  0
LAYER
  2
BLUE3
  70
0
  62
171
  6
CONTINUOUS
  0
LAYER
  2
GREEN3
  70
0
  62
91
  6
CONTINUOUS
  0
LAYER
  2
CYAN3
  70
0
  62
131
  6
CONTINUOUS
  0
LAYER
  2
RED3
  70
0
  62
11
  6
CONTINUOUS
  0
LAYER
  2
MAGENTA3
  70
0
  62
221
  6
CONTINUOUS
  0
LAYER
  2
YELLOW3
  70
0
  62
2
  6
CONTINUOUS
  0
LAYER
  2
BLUE4
  70
0
  62
5
  6
CONTINUOUS
  0
LAYER
  2
GREEN4
  70
0
  62
3
  6
CONTINUOUS
  0
LAYER
  2
CYAN4
  70
0
  62
4
  6
CONTINUOUS
  0
LAYER
  2
RED4
  70
0
  62
1
  6
CONTINUOUS
  0
LAYER
  2
MAGENTA4
  70
0
  62
6
  6
CONTINUOUS
  0
LAYER
  2
YELLOW4
  70
0
  62
2
  6
CONTINUOUS
  0
ENDTAB
  0
ENDSEC
  0
SECTION
  2
ENTITIES
0
LINE
8
BLACK
6
CONTINUOUS
10
119.102
20
-120.763
11
119.114
21
-120.765
0
LINE
8
BLACK
6
CONTINUOUS
10
119.114
20
-120.765
11
119.257
21
-120.813
0
LINE
8
BLACK
6
CONTINUOUS
10
119.257
20
-120.813
11
119.261
21
-120.815
0
LINE
8
BLACK
6
CONTINUOUS
10
119.261
20
-120.815
11
119.265
21
-120.816
0
LINE
8
BLACK
6
CONTINUOUS
10
119.265
20
-120.816
11
119.272
21
-120.821
0
LINE
8
BLACK
6
CONTINUOUS
10
119.272
20
-120.821
11
119.28
21
-120.825
0
LINE
8
BLACK
6
CONTINUOUS
10
119.28
20
-120.825
11
119.283
21
-120.828
0
LINE
8
BLACK
6
CONTINUOUS
10
119.283
20
-120.828
11
119.286
21
-120.831
0
LINE
8
BLACK
6
CONTINUOUS
10
119.286
20
-120.831
11
119.382
21
-120.926
0
LINE
8
BLACK
6
CONTINUOUS
10
119.382
20
-120.926
11
119.388
21
-120.936
0
LINE
8
BLACK
6
CONTINUOUS
10
119.388
20
-120.936
11
119.396
21
-120.946
0
LINE
8
BLACK
6
CONTINUOUS
10
119.396
20
-120.946
11
119.443
21
-121.041
0
LINE
8
BLACK
6
CONTINUOUS
10
119.443
20
-121.041
11
119.446
21
-121.049
0
LINE
8
BLACK
6
CONTINUOUS
10
119.446
20
-121.049
11
119.449
21
-121.056
0
LINE
8
BLACK
6
CONTINUOUS
10
119.449
20
-121.056
11
119.496
21
-121.247
0
LINE
8
BLACK
6
CONTINUOUS
10
119.496
20
-121.247
11
119.497
21
-121.256
0
LINE
8
BLACK
6
CONTINUOUS
10
119.497
20
-121.256
11
119.499
21
-121.265
0
LINE
8
BLACK
6
CONTINUOUS
10
119.499
20
-121.265
11
119.499
21
-121.408
0
LINE
8
BLACK
6
CONTINUOUS
10
119.499
20
-121.408
11
119.497
21
-121.417
0
LINE
8
BLACK
6
CONTINUOUS
10
119.497
20
-121.417
11
119.496
21
-121.426
0
LINE
8
BLACK
6
CONTINUOUS
10
119.496
20
-121.426
11
119.449
21
-121.616
0
LINE
8
BLACK
6
CONTINUOUS
10
119.449
20
-121.616
11
119.446
21
-121.624
0
LINE
8
BLACK
6
CONTINUOUS
10
119.446
20
-121.624
11
119.443
21
-121.632
0
LINE
8
BLACK
6
CONTINUOUS
10
119.443
20
-121.632
11
119.396
21
-121.727
0
LINE
8
BLACK
6
CONTINUOUS
10
119.396
20
-121.727
11
119.388
21
-121.737
0
LINE
8
BLACK
6
CONTINUOUS
10
119.388
20
-121.737
11
119.382
21
-121.747
0
LINE
8
BLACK
6
CONTINUOUS
10
119.382
20
-121.747
11
119.286
21
-121.842
0
LINE
8
BLACK
6
CONTINUOUS
10
119.286
20
-121.842
11
119.283
21
-121.844
0
LINE
8
BLACK
6
CONTINUOUS
10
119.283
20
-121.844
11
119.28
21
-121.848
0
LINE
8
BLACK
6
CONTINUOUS
10
119.28
20
-121.848
11
119.272
21
-121.852
0
LINE
8
BLACK
6
CONTINUOUS
10
119.272
20
-121.852
11
119.265
21
-121.857
0
LINE
8
BLACK
6
CONTINUOUS
10
119.265
20
-121.857
11
119.261
21
-121.858
0
LINE
8
BLACK
6
CONTINUOUS
10
119.261
20
-121.858
11
119.257
21
-121.86
0
LINE
8
BLACK
6
CONTINUOUS
10
119.257
20
-121.86
11
119.114
21
-121.908
0
LINE
8
BLACK
6
CONTINUOUS
10
119.114
20
-121.908
11
119.102
21
-121.909
0
LINE
8
BLACK
6
CONTINUOUS
10
119.102
20
-121.909
11
119.09
21
-121.911
0
LINE
8
BLACK
6
CONTINUOUS
10
119.09
20
-121.911
11
118.995
21
-121.911
0
LINE
8
BLACK
6
CONTINUOUS
10
118.995
20
-121.911
11
118.983
21
-121.909
0
LINE
8
BLACK
6
CONTINUOUS
10
118.983
20
-121.909
11
118.971
21
-121.908
0
LINE
8
BLACK
6
CONTINUOUS
10
118.971
20
-121.908
11
118.829
21
-121.86
0
LINE
8
BLACK
6
CONTINUOUS
10
118.829
20
-121.86
11
118.825
21
-121.858
0
LINE
8
BLACK
6
CONTINUOUS
10
118.825
20
-121.858
11
118.821
21
-121.857
0
LINE
8
BLACK
6
CONTINUOUS
10
118.821
20
-121.857
11
118.813
21
-121.852
0
LINE
8
BLACK
6
CONTINUOUS
10
118.813
20
-121.852
11
118.806
21
-121.848
0
LINE
8
BLACK
6
CONTINUOUS
10
118.806
20
-121.848
11
118.803
21
-121.844
0
LINE
8
BLACK
6
CONTINUOUS
10
118.803
20
-121.844
11
118.799
21
-121.842
0
LINE
8
BLACK
6
CONTINUOUS
10
118.799
20
-121.842
11
118.752
21
-121.794
0
LINE
8
BLACK
6
CONTINUOUS
10
118.752
20
-121.794
11
118.737
21
-121.773
0
LINE
8
BLACK
6
CONTINUOUS
10
118.737
20
-121.773
11
118.73
21
-121.748
0
LINE
8
BLACK
6
CONTINUOUS
10
118.73
20
-121.748
11
118.732
21
-121.722
0
LINE
8
BLACK
6
CONTINUOUS
10
118.732
20
-121.722
11
118.743
21
-121.698
0
LINE
8
BLACK
6
CONTINUOUS
10
118.743
20
-121.698
11
118.762
21
-121.68
0
LINE
8
BLACK
6
CONTINUOUS
10
118.762
20
-121.68
11
118.785
21
-121.669
0
LINE
8
BLACK
6
CONTINUOUS
10
118.785
20
-121.669
11
118.811
21
-121.666
0
LINE
8
BLACK
6
CONTINUOUS
10
118.811
20
-121.666
11
118.836
21
-121.673
0
LINE
8
BLACK
6
CONTINUOUS
10
118.836
20
-121.673
11
118.858
21
-121.688
0
LINE
8
BLACK
6
CONTINUOUS
10
118.858
20
-121.688
11
118.893
21
-121.723
0
LINE
8
BLACK
6
CONTINUOUS
10
118.893
20
-121.723
11
119.007
21
-121.761
0
LINE
8
BLACK
6
CONTINUOUS
10
119.007
20
-121.761
11
119.078
21
-121.761
0
LINE
8
BLACK
6
CONTINUOUS
10
119.078
20
-121.761
11
119.193
21
-121.723
0
LINE
8
BLACK
6
CONTINUOUS
10
119.193
20
-121.723
11
119.267
21
-121.649
0
LINE
8
BLACK
6
CONTINUOUS
10
119.267
20
-121.649
11
119.305
21
-121.572
0
LINE
8
BLACK
6
CONTINUOUS
10
119.305
20
-121.572
11
119.349
21
-121.399
0
LINE
8
BLACK
6
CONTINUOUS
10
119.349
20
-121.399
11
119.349
21
-121.274
0
LINE
8
BLACK
6
CONTINUOUS
10
119.349
20
-121.274
11
119.305
21
-121.101
0
LINE
8
BLACK
6
CONTINUOUS
10
119.305
20
-121.101
11
119.267
21
-121.024
0
LINE
8
BLACK
6
CONTINUOUS
10
119.267
20
-121.024
11
119.193
21
-120.95
0
LINE
8
BLACK
6
CONTINUOUS
10
119.193
20
-120.95
11
119.078
21
-120.911
0
LINE
8
BLACK
6
CONTINUOUS
10
119.078
20
-120.911
11
119.007
21
-120.911
0
LINE
8
BLACK
6
CONTINUOUS
10
119.007
20
-120.911
11
118.893
21
-120.95
0
LINE
8
BLACK
6
CONTINUOUS
10
118.893
20
-120.95
11
118.858
21
-120.985
0
LINE
8
BLACK
6
CONTINUOUS
10
118.858
20
-120.985
11
118.836
21
-121
0
LINE
8
BLACK
6
CONTINUOUS
10
118.836
20
-121
11
118.811
21
-121.006
0
LINE
8
BLACK
6
CONTINUOUS
10
118.811
20
-121.006
11
118.785
21
-121.004
0
LINE
8
BLACK
6
CONTINUOUS
10
118.785
20
-121.004
11
118.762
21
-120.993
0
LINE
8
BLACK
6
CONTINUOUS
10
118.762
20
-120.993
11
118.743
21
-120.975
0
LINE
8
BLACK
6
CONTINUOUS
10
118.743
20
-120.975
11
118.732
21
-120.951
0
LINE
8
BLACK
6
CONTINUOUS
10
118.732
20
-120.951
11
118.73
21
-120.925
0
LINE
8
BLACK
6
CONTINUOUS
10
118.73
20
-120.925
11
118.737
21
-120.9
0
LINE
8
BLACK
6
CONTINUOUS
10
118.737
20
-120.9
11
118.752
21
-120.879
0
LINE
8
BLACK
6
CONTINUOUS
10
118.752
20
-120.879
11
118.799
21
-120.831
0
LINE
8
BLACK
6
CONTINUOUS
10
118.799
20
-120.831
11
118.803
21
-120.828
0
LINE
8
BLACK
6
CONTINUOUS
10
118.803
20
-120.828
11
118.806
21
-120.825
0
LINE
8
BLACK
6
CONTINUOUS
10
118.806
20
-120.825
11
118.813
21
-120.821
0
LINE
8
BLACK
6
CONTINUOUS
10
118.813
20
-120.821
11
118.821
21
-120.816
0
LINE
8
BLACK
6
CONTINUOUS
10
118.821
20
-120.816
11
118.825
21
-120.815
0
LINE
8
BLACK
6
CONTINUOUS
10
118.825
20
-120.815
11
118.829
21
-120.813
0
LINE
8
BLACK
6
CONTINUOUS
10
118.829
20
-120.813
11
118.971
21
-120.765
0
LINE
8
BLACK
6
CONTINUOUS
10
118.971
20
-120.765
11
118.983
21
-120.763
0
LINE
8
BLACK
6
CONTINUOUS
10
118.983
20
-120.763
11
118.995
21
-120.761
0
LINE
8
BLACK
6
CONTINUOUS
10
118.995
20
-120.761
11
119.09
21
-120.761
0
LINE
8
BLACK
6
CONTINUOUS
10
119.09
20
-120.761
11
119.102
21
-120.763
0
LINE
8
BLACK
6
CONTINUOUS
10
118.142
20
-120.763
11
118.151
21
-120.763
0
LINE
8
BLACK
6
CONTINUOUS
10
118.151
20
-120.763
11
118.155
21
-120.764
0
LINE
8
BLACK
6
CONTINUOUS
10
118.155
20
-120.764
11
118.159
21
-120.764
0
LINE
8
BLACK
6
CONTINUOUS
10
118.159
20
-120.764
11
118.167
21
-120.768
0
LINE
8
BLACK
6
CONTINUOUS
10
118.167
20
-120.768
11
118.175
21
-120.771
0
LINE
8
BLACK
6
CONTINUOUS
10
118.175
20
-120.771
11
118.179
21
-120.774
0
LINE
8
BLACK
6
CONTINUOUS
10
118.179
20
-120.774
11
118.182
21
-120.776
0
LINE
8
BLACK
6
CONTINUOUS
10
118.182
20
-120.776
11
118.189
21
-120.782
0
LINE
8
BLACK
6
CONTINUOUS
10
118.189
20
-120.782
11
118.195
21
-120.788
0
LINE
8
BLACK
6
CONTINUOUS
10
118.195
20
-120.788
11
118.198
21
-120.792
0
LINE
8
BLACK
6
CONTINUOUS
10
118.198
20
-120.792
11
118.2
21
-120.795
0
LINE
8
BLACK
6
CONTINUOUS
10
118.2
20
-120.795
11
118.292
21
-120.931
0
LINE
8
BLACK
6
CONTINUOUS
10
118.292
20
-120.931
11
118.373
21
-121.013
0
LINE
8
BLACK
6
CONTINUOUS
10
118.373
20
-121.013
11
118.457
21
-121.055
0
LINE
8
BLACK
6
CONTINUOUS
10
118.457
20
-121.055
11
118.478
21
-121.071
0
LINE
8
BLACK
6
CONTINUOUS
10
118.478
20
-121.071
11
118.493
21
-121.092
0
LINE
8
BLACK
6
CONTINUOUS
10
118.493
20
-121.092
11
118.499
21
-121.118
0
LINE
8
BLACK
6
CONTINUOUS
10
118.499
20
-121.118
11
118.496
21
-121.143
0
LINE
8
BLACK
6
CONTINUOUS
10
118.496
20
-121.143
11
118.484
21
-121.167
0
LINE
8
BLACK
6
CONTINUOUS
10
118.484
20
-121.167
11
118.465
21
-121.185
0
LINE
8
BLACK
6
CONTINUOUS
10
118.465
20
-121.185
11
118.441
21
-121.195
0
LINE
8
BLACK
6
CONTINUOUS
10
118.441
20
-121.195
11
118.415
21
-121.197
0
LINE
8
BLACK
6
CONTINUOUS
10
118.415
20
-121.197
11
118.39
21
-121.189
0
LINE
8
BLACK
6
CONTINUOUS
10
118.39
20
-121.189
11
118.295
21
-121.142
0
LINE
8
BLACK
6
CONTINUOUS
10
118.295
20
-121.142
11
118.285
21
-121.134
0
LINE
8
BLACK
6
CONTINUOUS
10
118.285
20
-121.134
11
118.275
21
-121.128
0
LINE
8
BLACK
6
CONTINUOUS
10
118.275
20
-121.128
11
118.213
21
-121.065
0
LINE
8
BLACK
6
CONTINUOUS
10
118.213
20
-121.065
11
118.213
21
-121.761
0
LINE
8
BLACK
6
CONTINUOUS
10
118.213
20
-121.761
11
118.424
21
-121.761
0
LINE
8
BLACK
6
CONTINUOUS
10
118.424
20
-121.761
11
118.449
21
-121.766
0
LINE
8
BLACK
6
CONTINUOUS
10
118.449
20
-121.766
11
118.472
21
-121.779
0
LINE
8
BLACK
6
CONTINUOUS
10
118.472
20
-121.779
11
118.489
21
-121.799
0
LINE
8
BLACK
6
CONTINUOUS
10
118.489
20
-121.799
11
118.498
21
-121.823
0
LINE
8
BLACK
6
CONTINUOUS
10
118.498
20
-121.823
11
118.498
21
-121.849
0
LINE
8
BLACK
6
CONTINUOUS
10
118.498
20
-121.849
11
118.489
21
-121.874
0
LINE
8
BLACK
6
CONTINUOUS
10
118.489
20
-121.874
11
118.472
21
-121.894
0
LINE
8
BLACK
6
CONTINUOUS
10
118.472
20
-121.894
11
118.449
21
-121.907
0
LINE
8
BLACK
6
CONTINUOUS
10
118.449
20
-121.907
11
118.424
21
-121.911
0
LINE
8
BLACK
6
CONTINUOUS
10
118.424
20
-121.911
11
117.852
21
-121.911
0
LINE
8
BLACK
6
CONTINUOUS
10
117.852
20
-121.911
11
117.827
21
-121.907
0
LINE
8
BLACK
6
CONTINUOUS
10
117.827
20
-121.907
11
117.804
21
-121.894
0
LINE
8
BLACK
6
CONTINUOUS
10
117.804
20
-121.894
11
117.787
21
-121.874
0
LINE
8
BLACK
6
CONTINUOUS
10
117.787
20
-121.874
11
117.778
21
-121.849
0
LINE
8
BLACK
6
CONTINUOUS
10
117.778
20
-121.849
11
117.778
21
-121.823
0
LINE
8
BLACK
6
CONTINUOUS
10
117.778
20
-121.823
11
117.787
21
-121.799
0
LINE
8
BLACK
6
CONTINUOUS
10
117.787
20
-121.799
11
117.804
21
-121.779
0
LINE
8
BLACK
6
CONTINUOUS
10
117.804
20
-121.779
11
117.827
21
-121.766
0
LINE
8
BLACK
6
CONTINUOUS
10
117.827
20
-121.766
11
117.852
21
-121.761
0
LINE
8
BLACK
6
CONTINUOUS
10
117.852
20
-121.761
11
118.063
21
-121.761
0
LINE
8
BLACK
6
CONTINUOUS
10
118.063
20
-121.761
11
118.063
21
-120.836
0
LINE
8
BLACK
6
CONTINUOUS
10
118.063
20
-120.836
11
118.064
21
-120.832
0
LINE
8
BLACK
6
CONTINUOUS
10
118.064
20
-120.832
11
118.063
21
-120.828
0
LINE
8
BLACK
6
CONTINUOUS
10
118.063
20
-120.828
11
118.066
21
-120.82
0
LINE
8
BLACK
6
CONTINUOUS
10
118.066
20
-120.82
11
118.068
21
-120.811
0
LINE
8
BLACK
6
CONTINUOUS
10
118.068
20
-120.811
11
118.07
21
-120.807
0
LINE
8
BLACK
6
CONTINUOUS
10
118.07
20
-120.807
11
118.071
21
-120.803
0
LINE
8
BLACK
6
CONTINUOUS
10
118.071
20
-120.803
11
118.076
21
-120.796
0
LINE
8
BLACK
6
CONTINUOUS
10
118.076
20
-120.796
11
118.081
21
-120.788
0
LINE
8
BLACK
6
CONTINUOUS
10
118.081
20
-120.788
11
118.084
21
-120.785
0
LINE
8
BLACK
6
CONTINUOUS
10
118.084
20
-120.785
11
118.086
21
-120.782
0
LINE
8
BLACK
6
CONTINUOUS
10
118.086
20
-120.782
11
118.094
21
-120.777
0
LINE
8
BLACK
6
CONTINUOUS
10
118.094
20
-120.777
11
118.1
21
-120.771
0
LINE
8
BLACK
6
CONTINUOUS
10
118.1
20
-120.771
11
118.104
21
-120.77
0
LINE
8
BLACK
6
CONTINUOUS
10
118.104
20
-120.77
11
118.108
21
-120.768
0
LINE
8
BLACK
6
CONTINUOUS
10
118.108
20
-120.768
11
118.117
21
-120.766
0
LINE
8
BLACK
6
CONTINUOUS
10
118.117
20
-120.766
11
118.125
21
-120.763
0
LINE
8
BLACK
6
CONTINUOUS
10
118.125
20
-120.763
11
118.129
21
-120.763
0
LINE
8
BLACK
6
CONTINUOUS
10
118.129
20
-120.763
11
118.133
21
-120.762
0
LINE
8
BLACK
6
CONTINUOUS
10
118.133
20
-120.762
11
118.142
21
-120.763
0
LINE
8
BLACK
6
CONTINUOUS
10
119.159
20
-120.427
11
119.177
21
-120.437
0
LINE
8
BLACK
6
CONTINUOUS
10
119.177
20
-120.437
11
119.191
21
-120.454
0
LINE
8
BLACK
6
CONTINUOUS
10
119.191
20
-120.454
11
119.198
21
-120.473
0
LINE
8
BLACK
6
CONTINUOUS
10
119.198
20
-120.473
11
119.198
21
-120.495
0
LINE
8
BLACK
6
CONTINUOUS
10
119.198
20
-120.495
11
119.191
21
-120.514
0
LINE
8
BLACK
6
CONTINUOUS
10
119.191
20
-120.514
11
119.177
21
-120.531
0
LINE
8
BLACK
6
CONTINUOUS
10
119.177
20
-120.531
11
119.159
21
-120.541
0
LINE
8
BLACK
6
CONTINUOUS
10
119.159
20
-120.541
11
119.143
21
-120.544
0
LINE
8
BLACK
6
CONTINUOUS
10
119.143
20
-120.544
11
118.133
21
-120.544
0
LINE
8
BLACK
6
CONTINUOUS
10
118.133
20
-120.544
11
118.117
21
-120.541
0
LINE
8
BLACK
6
CONTINUOUS
10
118.117
20
-120.541
11
118.099
21
-120.531
0
LINE
8
BLACK
6
CONTINUOUS
10
118.099
20
-120.531
11
118.085
21
-120.514
0
LINE
8
BLACK
6
CONTINUOUS
10
118.085
20
-120.514
11
118.078
21
-120.495
0
LINE
8
BLACK
6
CONTINUOUS
10
118.078
20
-120.495
11
118.078
21
-120.473
0
LINE
8
BLACK
6
CONTINUOUS
10
118.078
20
-120.473
11
118.085
21
-120.454
0
LINE
8
BLACK
6
CONTINUOUS
10
118.085
20
-120.454
11
118.099
21
-120.437
0
LINE
8
BLACK
6
CONTINUOUS
10
118.099
20
-120.437
11
118.117
21
-120.427
0
LINE
8
BLACK
6
CONTINUOUS
10
118.117
20
-120.427
11
118.133
21
-120.424
0
LINE
8
BLACK
6
CONTINUOUS
10
118.133
20
-120.424
11
119.143
21
-120.424
0
LINE
8
BLACK
6
CONTINUOUS
10
119.143
20
-120.424
11
119.159
21
-120.427
0
LINE
8
BLACK
6
CONTINUOUS
10
141.652
20
-119.727
11
141.661
21
-119.727
0
LINE
8
BLACK
6
CONTINUOUS
10
141.661
20
-119.727
11
141.665
21
-119.728
0
LINE
8
BLACK
6
CONTINUOUS
10
141.665
20
-119.728
11
141.668
21
-119.728
0
LINE
8
BLACK
6
CONTINUOUS
10
141.668
20
-119.728
11
141.677
21
-119.732
0
LINE
8
BLACK
6
CONTINUOUS
10
141.677
20
-119.732
11
141.686
21
-119.736
0
LINE
8
BLACK
6
CONTINUOUS
10
141.686
20
-119.736
11
141.688
21
-119.738
0
LINE
8
BLACK
6
CONTINUOUS
10
141.688
20
-119.738
11
141.691
21
-119.739
0
LINE
8
BLACK
6
CONTINUOUS
10
141.691
20
-119.739
11
141.698
21
-119.746
0
LINE
8
BLACK
6
CONTINUOUS
10
141.698
20
-119.746
11
141.706
21
-119.752
0
LINE
8
BLACK
6
CONTINUOUS
10
141.706
20
-119.752
11
141.707
21
-119.755
0
LINE
8
BLACK
6
CONTINUOUS
10
141.707
20
-119.755
11
141.71
21
-119.758
0
LINE
8
BLACK
6
CONTINUOUS
10
141.71
20
-119.758
11
141.714
21
-119.767
0
LINE
8
BLACK
6
CONTINUOUS
10
141.714
20
-119.767
11
141.719
21
-119.775
0
LINE
8
BLACK
6
CONTINUOUS
10
141.719
20
-119.775
11
141.719
21
-119.778
0
LINE
8
BLACK
6
CONTINUOUS
10
141.719
20
-119.778
11
141.721
21
-119.781
0
LINE
8
BLACK
6
CONTINUOUS
10
141.721
20
-119.781
11
141.722
21
-119.791
0
LINE
8
BLACK
6
CONTINUOUS
10
141.722
20
-119.791
11
141.723
21
-119.801
0
LINE
8
BLACK
6
CONTINUOUS
10
141.723
20
-119.801
11
141.723
21
-120.42
0
LINE
8
BLACK
6
CONTINUOUS
10
141.723
20
-120.42
11
141.719
21
-120.445
0
LINE
8
BLACK
6
CONTINUOUS
10
141.719
20
-120.445
11
141.706
21
-120.468
0
LINE
8
BLACK
6
CONTINUOUS
10
141.706
20
-120.468
11
141.686
21
-120.485
0
LINE
8
BLACK
6
CONTINUOUS
10
141.686
20
-120.485
11
141.661
21
-120.494
0
LINE
8
BLACK
6
CONTINUOUS
10
141.661
20
-120.494
11
141.635
21
-120.494
0
LINE
8
BLACK
6
CONTINUOUS
10
141.635
20
-120.494
11
141.611
21
-120.485
0
LINE
8
BLACK
6
CONTINUOUS
10
141.611
20
-120.485
11
141.591
21
-120.468
0
LINE
8
BLACK
6
CONTINUOUS
10
141.591
20
-120.468
11
141.578
21
-120.445
0
LINE
8
BLACK
6
CONTINUOUS
10
141.578
20
-120.445
11
141.573
21
-120.42
0
LINE
8
BLACK
6
CONTINUOUS
10
141.573
20
-120.42
11
141.573
21
-119.982
0
LINE
8
BLACK
6
CONTINUOUS
10
141.573
20
-119.982
11
141.13
21
-120.425
0
LINE
8
BLACK
6
CONTINUOUS
10
141.13
20
-120.425
11
141.126
21
-120.428
0
LINE
8
BLACK
6
CONTINUOUS
10
141.126
20
-120.428
11
141.124
21
-120.431
0
LINE
8
BLACK
6
CONTINUOUS
10
141.124
20
-120.431
11
141.116
21
-120.435
0
LINE
8
BLACK
6
CONTINUOUS
10
141.116
20
-120.435
11
141.109
21
-120.44
0
LINE
8
BLACK
6
CONTINUOUS
10
141.109
20
-120.44
11
141.104
21
-120.441
0
LINE
8
BLACK
6
CONTINUOUS
10
141.104
20
-120.441
11
141.101
21
-120.443
0
LINE
8
BLACK
6
CONTINUOUS
10
141.101
20
-120.443
11
140.958
21
-120.491
0
LINE
8
BLACK
6
CONTINUOUS
10
140.958
20
-120.491
11
140.946
21
-120.493
0
LINE
8
BLACK
6
CONTINUOUS
10
140.946
20
-120.493
11
140.934
21
-120.495
0
LINE
8
BLACK
6
CONTINUOUS
10
140.934
20
-120.495
11
140.839
21
-120.495
0
LINE
8
BLACK
6
CONTINUOUS
10
140.839
20
-120.495
11
140.835
21
-120.494
0
LINE
8
BLACK
6
CONTINUOUS
10
140.835
20
-120.494
11
140.83
21
-120.494
0
LINE
8
BLACK
6
CONTINUOUS
10
140.83
20
-120.494
11
140.822
21
-120.492
0
LINE
8
BLACK
6
CONTINUOUS
10
140.822
20
-120.492
11
140.813
21
-120.49
0
LINE
8
BLACK
6
CONTINUOUS
10
140.813
20
-120.49
11
140.809
21
-120.488
0
LINE
8
BLACK
6
CONTINUOUS
10
140.809
20
-120.488
11
140.805
21
-120.487
0
LINE
8
BLACK
6
CONTINUOUS
10
140.805
20
-120.487
11
140.71
21
-120.439
0
LINE
8
BLACK
6
CONTINUOUS
10
140.71
20
-120.439
11
140.7
21
-120.432
0
LINE
8
BLACK
6
CONTINUOUS
10
140.7
20
-120.432
11
140.691
21
-120.425
0
LINE
8
BLACK
6
CONTINUOUS
10
140.691
20
-120.425
11
140.643
21
-120.378
0
LINE
8
BLACK
6
CONTINUOUS
10
140.643
20
-120.378
11
140.636
21
-120.368
0
LINE
8
BLACK
6
CONTINUOUS
10
140.636
20
-120.368
11
140.629
21
-120.358
0
LINE
8
BLACK
6
CONTINUOUS
10
140.629
20
-120.358
11
140.581
21
-120.263
0
LINE
8
BLACK
6
CONTINUOUS
10
140.581
20
-120.263
11
140.58
21
-120.259
0
LINE
8
BLACK
6
CONTINUOUS
10
140.58
20
-120.259
11
140.578
21
-120.255
0
LINE
8
BLACK
6
CONTINUOUS
10
140.578
20
-120.255
11
140.576
21
-120.246
0
LINE
8
BLACK
6
CONTINUOUS
10
140.576
20
-120.246
11
140.574
21
-120.238
0
LINE
8
BLACK
6
CONTINUOUS
10
140.574
20
-120.238
11
140.574
21
-120.233
0
LINE
8
BLACK
6
CONTINUOUS
10
140.574
20
-120.233
11
140.573
21
-120.229
0
LINE
8
BLACK
6
CONTINUOUS
10
140.573
20
-120.229
11
140.573
21
-119.991
0
LINE
8
BLACK
6
CONTINUOUS
10
140.573
20
-119.991
11
140.574
21
-119.987
0
LINE
8
BLACK
6
CONTINUOUS
10
140.574
20
-119.987
11
140.574
21
-119.983
0
LINE
8
BLACK
6
CONTINUOUS
10
140.574
20
-119.983
11
140.576
21
-119.974
0
LINE
8
BLACK
6
CONTINUOUS
10
140.576
20
-119.974
11
140.578
21
-119.965
0
LINE
8
BLACK
6
CONTINUOUS
10
140.578
20
-119.965
11
140.58
21
-119.962
0
LINE
8
BLACK
6
CONTINUOUS
10
140.58
20
-119.962
11
140.581
21
-119.958
0
LINE
8
BLACK
6
CONTINUOUS
10
140.581
20
-119.958
11
140.629
21
-119.862
0
LINE
8
BLACK
6
CONTINUOUS
10
140.629
20
-119.862
11
140.636
21
-119.853
0
LINE
8
BLACK
6
CONTINUOUS
10
140.636
20
-119.853
11
140.643
21
-119.843
0
LINE
8
BLACK
6
CONTINUOUS
10
140.643
20
-119.843
11
140.691
21
-119.795
0
LINE
8
BLACK
6
CONTINUOUS
10
140.691
20
-119.795
11
140.712
21
-119.78
0
LINE
8
BLACK
6
CONTINUOUS
10
140.712
20
-119.78
11
140.737
21
-119.774
0
LINE
8
BLACK
6
CONTINUOUS
10
140.737
20
-119.774
11
140.763
21
-119.776
0
LINE
8
BLACK
6
CONTINUOUS
10
140.763
20
-119.776
11
140.787
21
-119.787
0
LINE
8
BLACK
6
CONTINUOUS
10
140.787
20
-119.787
11
140.805
21
-119.805
0
LINE
8
BLACK
6
CONTINUOUS
10
140.805
20
-119.805
11
140.816
21
-119.829
0
LINE
8
BLACK
6
CONTINUOUS
10
140.816
20
-119.829
11
140.818
21
-119.855
0
LINE
8
BLACK
6
CONTINUOUS
10
140.818
20
-119.855
11
140.812
21
-119.88
0
LINE
8
BLACK
6
CONTINUOUS
10
140.812
20
-119.88
11
140.797
21
-119.901
0
LINE
8
BLACK
6
CONTINUOUS
10
140.797
20
-119.901
11
140.758
21
-119.94
0
LINE
8
BLACK
6
CONTINUOUS
10
140.758
20
-119.94
11
140.723
21
-120.009
0
LINE
8
BLACK
6
CONTINUOUS
10
140.723
20
-120.009
11
140.723
21
-120.212
0
LINE
8
BLACK
6
CONTINUOUS
10
140.723
20
-120.212
11
140.758
21
-120.28
0
LINE
8
BLACK
6
CONTINUOUS
10
140.758
20
-120.28
11
140.788
21
-120.31
0
LINE
8
BLACK
6
CONTINUOUS
10
140.788
20
-120.31
11
140.857
21
-120.345
0
LINE
8
BLACK
6
CONTINUOUS
10
140.857
20
-120.345
11
140.922
21
-120.345
0
LINE
8
BLACK
6
CONTINUOUS
10
140.922
20
-120.345
11
141.036
21
-120.307
0
LINE
8
BLACK
6
CONTINUOUS
10
141.036
20
-120.307
11
141.595
21
-119.748
0
LINE
8
BLACK
6
CONTINUOUS
10
141.595
20
-119.748
11
141.603
21
-119.742
0
LINE
8
BLACK
6
CONTINUOUS
10
141.603
20
-119.742
11
141.611
21
-119.736
0
LINE
8
BLACK
6
CONTINUOUS
10
141.611
20
-119.736
11
141.614
21
-119.735
0
LINE
8
BLACK
6
CONTINUOUS
10
141.614
20
-119.735
11
141.617
21
-119.733
0
LINE
8
BLACK
6
CONTINUOUS
10
141.617
20
-119.733
11
141.626
21
-119.73
0
LINE
8
BLACK
6
CONTINUOUS
10
141.626
20
-119.73
11
141.635
21
-119.727
0
LINE
8
BLACK
6
CONTINUOUS
10
141.635
20
-119.727
11
141.639
21
-119.727
0
LINE
8
BLACK
6
CONTINUOUS
10
141.639
20
-119.727
11
141.642
21
-119.726
0
LINE
8
BLACK
6
CONTINUOUS
10
141.642
20
-119.726
11
141.652
21
-119.727
0
LINE
8
BLACK
6
CONTINUOUS
10
140.326
20
-119.081
11
140.343
21
-119.095
0
LINE
8
BLACK
6
CONTINUOUS
10
140.343
20
-119.095
11
140.353
21
-119.113
0
LINE
8
BLACK
6
CONTINUOUS
10
140.353
20
-119.113
11
140.356
21
-119.129
0
LINE
8
BLACK
6
CONTINUOUS
10
140.356
20
-119.129
11
140.356
21
-120.139
0
LINE
8
BLACK
6
CONTINUOUS
10
140.356
20
-120.139
11
140.353
21
-120.155
0
LINE
8
BLACK
6
CONTINUOUS
10
140.353
20
-120.155
11
140.343
21
-120.173
0
LINE
8
BLACK
6
CONTINUOUS
10
140.343
20
-120.173
11
140.326
21
-120.187
0
LINE
8
BLACK
6
CONTINUOUS
10
140.326
20
-120.187
11
140.307
21
-120.194
0
LINE
8
BLACK
6
CONTINUOUS
10
140.307
20
-120.194
11
140.285
21
-120.194
0
LINE
8
BLACK
6
CONTINUOUS
10
140.285
20
-120.194
11
140.266
21
-120.187
0
LINE
8
BLACK
6
CONTINUOUS
10
140.266
20
-120.187
11
140.249
21
-120.173
0
LINE
8
BLACK
6
CONTINUOUS
10
140.249
20
-120.173
11
140.239
21
-120.155
0
LINE
8
BLACK
6
CONTINUOUS
10
140.239
20
-120.155
11
140.236
21
-120.139
0
LINE
8
BLACK
6
CONTINUOUS
10
140.236
20
-120.139
11
140.236
21
-119.129
0
LINE
8
BLACK
6
CONTINUOUS
10
140.236
20
-119.129
11
140.239
21
-119.113
0
LINE
8
BLACK
6
CONTINUOUS
10
140.239
20
-119.113
11
140.249
21
-119.095
0
LINE
8
BLACK
6
CONTINUOUS
10
140.249
20
-119.095
11
140.266
21
-119.081
0
LINE
8
BLACK
6
CONTINUOUS
10
140.266
20
-119.081
11
140.285
21
-119.074
0
LINE
8
BLACK
6
CONTINUOUS
10
140.285
20
-119.074
11
140.307
21
-119.074
0
LINE
8
BLACK
6
CONTINUOUS
10
140.307
20
-119.074
11
140.326
21
-119.081
0
LINE
8
BLACK
6
CONTINUOUS
10
138.626
20
-119.081
11
138.643
21
-119.095
0
LINE
8
BLACK
6
CONTINUOUS
10
138.643
20
-119.095
11
138.653
21
-119.113
0
LINE
8
BLACK
6
CONTINUOUS
10
138.653
20
-119.113
11
138.656
21
-119.129
0
LINE
8
BLACK
6
CONTINUOUS
10
138.656
20
-119.129
11
138.656
21
-120.139
0
LINE
8
BLACK
6
CONTINUOUS
10
138.656
20
-120.139
11
138.653
21
-120.155
0
LINE
8
BLACK
6
CONTINUOUS
10
138.653
20
-120.155
11
138.643
21
-120.173
0
LINE
8
BLACK
6
CONTINUOUS
10
138.643
20
-120.173
11
138.626
21
-120.187
0
LINE
8
BLACK
6
CONTINUOUS
10
138.626
20
-120.187
11
138.607
21
-120.194
0
LINE
8
BLACK
6
CONTINUOUS
10
138.607
20
-120.194
11
138.585
21
-120.194
0
LINE
8
BLACK
6
CONTINUOUS
10
138.585
20
-120.194
11
138.566
21
-120.187
0
LINE
8
BLACK
6
CONTINUOUS
10
138.566
20
-120.187
11
138.549
21
-120.173
0
LINE
8
BLACK
6
CONTINUOUS
10
138.549
20
-120.173
11
138.539
21
-120.155
0
LINE
8
BLACK
6
CONTINUOUS
10
138.539
20
-120.155
11
138.536
21
-120.139
0
LINE
8
BLACK
6
CONTINUOUS
10
138.536
20
-120.139
11
138.536
21
-119.129
0
LINE
8
BLACK
6
CONTINUOUS
10
138.536
20
-119.129
11
138.539
21
-119.113
0
LINE
8
BLACK
6
CONTINUOUS
10
138.539
20
-119.113
11
138.549
21
-119.095
0
LINE
8
BLACK
6
CONTINUOUS
10
138.549
20
-119.095
11
138.566
21
-119.081
0
LINE
8
BLACK
6
CONTINUOUS
10
138.566
20
-119.081
11
138.585
21
-119.074
0
LINE
8
BLACK
6
CONTINUOUS
10
138.585
20
-119.074
11
138.607
21
-119.074
0
LINE
8
BLACK
6
CONTINUOUS
10
138.607
20
-119.074
11
138.626
21
-119.081
0
LINE
8
BLACK
6
CONTINUOUS
10
141.229
20
-118.775
11
141.238
21
-118.776
0
LINE
8
BLACK
6
CONTINUOUS
10
141.238
20
-118.776
11
141.428
21
-118.823
0
LINE
8
BLACK
6
CONTINUOUS
10
141.428
20
-118.823
11
141.436
21
-118.826
0
LINE
8
BLACK
6
CONTINUOUS
10
141.436
20
-118.826
11
141.444
21
-118.829
0
LINE
8
BLACK
6
CONTINUOUS
10
141.444
20
-118.829
11
141.539
21
-118.876
0
LINE
8
BLACK
6
CONTINUOUS
10
141.539
20
-118.876
11
141.549
21
-118.884
0
LINE
8
BLACK
6
CONTINUOUS
10
141.549
20
-118.884
11
141.559
21
-118.89
0
LINE
8
BLACK
6
CONTINUOUS
10
141.559
20
-118.89
11
141.654
21
-118.986
0
LINE
8
BLACK
6
CONTINUOUS
10
141.654
20
-118.986
11
141.656
21
-118.989
0
LINE
8
BLACK
6
CONTINUOUS
10
141.656
20
-118.989
11
141.66
21
-118.992
0
LINE
8
BLACK
6
CONTINUOUS
10
141.66
20
-118.992
11
141.664
21
-119
0
LINE
8
BLACK
6
CONTINUOUS
10
141.664
20
-119
11
141.669
21
-119.007
0
LINE
8
BLACK
6
CONTINUOUS
10
141.669
20
-119.007
11
141.67
21
-119.011
0
LINE
8
BLACK
6
CONTINUOUS
10
141.67
20
-119.011
11
141.672
21
-119.015
0
LINE
8
BLACK
6
CONTINUOUS
10
141.672
20
-119.015
11
141.72
21
-119.158
0
LINE
8
BLACK
6
CONTINUOUS
10
141.72
20
-119.158
11
141.721
21
-119.17
0
LINE
8
BLACK
6
CONTINUOUS
10
141.721
20
-119.17
11
141.723
21
-119.182
0
LINE
8
BLACK
6
CONTINUOUS
10
141.723
20
-119.182
11
141.723
21
-119.277
0
LINE
8
BLACK
6
CONTINUOUS
10
141.723
20
-119.277
11
141.721
21
-119.289
0
LINE
8
BLACK
6
CONTINUOUS
10
141.721
20
-119.289
11
141.72
21
-119.301
0
LINE
8
BLACK
6
CONTINUOUS
10
141.72
20
-119.301
11
141.672
21
-119.443
0
LINE
8
BLACK
6
CONTINUOUS
10
141.672
20
-119.443
11
141.67
21
-119.447
0
LINE
8
BLACK
6
CONTINUOUS
10
141.67
20
-119.447
11
141.669
21
-119.451
0
LINE
8
BLACK
6
CONTINUOUS
10
141.669
20
-119.451
11
141.664
21
-119.459
0
LINE
8
BLACK
6
CONTINUOUS
10
141.664
20
-119.459
11
141.66
21
-119.466
0
LINE
8
BLACK
6
CONTINUOUS
10
141.66
20
-119.466
11
141.656
21
-119.469
0
LINE
8
BLACK
6
CONTINUOUS
10
141.656
20
-119.469
11
141.654
21
-119.473
0
LINE
8
BLACK
6
CONTINUOUS
10
141.654
20
-119.473
11
141.606
21
-119.52
0
LINE
8
BLACK
6
CONTINUOUS
10
141.606
20
-119.52
11
141.585
21
-119.535
0
LINE
8
BLACK
6
CONTINUOUS
10
141.585
20
-119.535
11
141.56
21
-119.542
0
LINE
8
BLACK
6
CONTINUOUS
10
141.56
20
-119.542
11
141.534
21
-119.54
0
LINE
8
BLACK
6
CONTINUOUS
10
141.534
20
-119.54
11
141.51
21
-119.529
0
LINE
8
BLACK
6
CONTINUOUS
10
141.51
20
-119.529
11
141.492
21
-119.51
0
LINE
8
BLACK
6
CONTINUOUS
10
141.492
20
-119.51
11
141.481
21
-119.487
0
LINE
8
BLACK
6
CONTINUOUS
10
141.481
20
-119.487
11
141.478
21
-119.461
0
LINE
8
BLACK
6
CONTINUOUS
10
141.478
20
-119.461
11
141.485
21
-119.436
0
LINE
8
BLACK
6
CONTINUOUS
10
141.485
20
-119.436
11
141.5
21
-119.414
0
LINE
8
BLACK
6
CONTINUOUS
10
141.5
20
-119.414
11
141.535
21
-119.379
0
LINE
8
BLACK
6
CONTINUOUS
10
141.535
20
-119.379
11
141.573
21
-119.265
0
LINE
8
BLACK
6
CONTINUOUS
10
141.573
20
-119.265
11
141.573
21
-119.194
0
LINE
8
BLACK
6
CONTINUOUS
10
141.573
20
-119.194
11
141.535
21
-119.079
0
LINE
8
BLACK
6
CONTINUOUS
10
141.535
20
-119.079
11
141.461
21
-119.005
0
LINE
8
BLACK
6
CONTINUOUS
10
141.461
20
-119.005
11
141.384
21
-118.967
0
LINE
8
BLACK
6
CONTINUOUS
10
141.384
20
-118.967
11
141.211
21
-118.923
0
LINE
8
BLACK
6
CONTINUOUS
10
141.211
20
-118.923
11
141.086
21
-118.923
0
LINE
8
BLACK
6
CONTINUOUS
10
141.086
20
-118.923
11
140.913
21
-118.967
0
LINE
8
BLACK
6
CONTINUOUS
10
140.913
20
-118.967
11
140.836
21
-119.005
0
LINE
8
BLACK
6
CONTINUOUS
10
140.836
20
-119.005
11
140.762
21
-119.079
0
LINE
8
BLACK
6
CONTINUOUS
10
140.762
20
-119.079
11
140.723
21
-119.194
0
LINE
8
BLACK
6
CONTINUOUS
10
140.723
20
-119.194
11
140.723
21
-119.265
0
LINE
8
BLACK
6
CONTINUOUS
10
140.723
20
-119.265
11
140.762
21
-119.379
0
LINE
8
BLACK
6
CONTINUOUS
10
140.762
20
-119.379
11
140.797
21
-119.414
0
LINE
8
BLACK
6
CONTINUOUS
10
140.797
20
-119.414
11
140.812
21
-119.436
0
LINE
8
BLACK
6
CONTINUOUS
10
140.812
20
-119.436
11
140.818
21
-119.461
0
LINE
8
BLACK
6
CONTINUOUS
10
140.818
20
-119.461
11
140.816
21
-119.487
0
LINE
8
BLACK
6
CONTINUOUS
10
140.816
20
-119.487
11
140.805
21
-119.51
0
LINE
8
BLACK
6
CONTINUOUS
10
140.805
20
-119.51
11
140.787
21
-119.529
0
LINE
8
BLACK
6
CONTINUOUS
10
140.787
20
-119.529
11
140.763
21
-119.54
0
LINE
8
BLACK
6
CONTINUOUS
10
140.763
20
-119.54
11
140.737
21
-119.542
0
LINE
8
BLACK
6
CONTINUOUS
10
140.737
20
-119.542
11
140.712
21
-119.535
0
LINE
8
BLACK
6
CONTINUOUS
10
140.712
20
-119.535
11
140.691
21
-119.52
0
LINE
8
BLACK
6
CONTINUOUS
10
140.691
20
-119.52
11
140.643
21
-119.473
0
LINE
8
BLACK
6
CONTINUOUS
10
140.643
20
-119.473
11
140.64
21
-119.469
0
LINE
8
BLACK
6
CONTINUOUS
10
140.64
20
-119.469
11
140.637
21
-119.466
0
LINE
8
BLACK
6
CONTINUOUS
10
140.637
20
-119.466
11
140.633
21
-119.459
0
LINE
8
BLACK
6
CONTINUOUS
10
140.633
20
-119.459
11
140.628
21
-119.451
0
LINE
8
BLACK
6
CONTINUOUS
10
140.628
20
-119.451
11
140.627
21
-119.447
0
LINE
8
BLACK
6
CONTINUOUS
10
140.627
20
-119.447
11
140.625
21
-119.443
0
LINE
8
BLACK
6
CONTINUOUS
10
140.625
20
-119.443
11
140.577
21
-119.301
0
LINE
8
BLACK
6
CONTINUOUS
10
140.577
20
-119.301
11
140.575
21
-119.289
0
LINE
8
BLACK
6
CONTINUOUS
10
140.575
20
-119.289
11
140.573
21
-119.277
0
LINE
8
BLACK
6
CONTINUOUS
10
140.573
20
-119.277
11
140.573
21
-119.182
0
LINE
8
BLACK
6
CONTINUOUS
10
140.573
20
-119.182
11
140.575
21
-119.17
0
LINE
8
BLACK
6
CONTINUOUS
10
140.575
20
-119.17
11
140.577
21
-119.158
0
LINE
8
BLACK
6
CONTINUOUS
10
140.577
20
-119.158
11
140.625
21
-119.015
0
LINE
8
BLACK
6
CONTINUOUS
10
140.625
20
-119.015
11
140.627
21
-119.011
0
LINE
8
BLACK
6
CONTINUOUS
10
140.627
20
-119.011
11
140.628
21
-119.007
0
LINE
8
BLACK
6
CONTINUOUS
10
140.628
20
-119.007
11
140.633
21
-119
0
LINE
8
BLACK
6
CONTINUOUS
10
140.633
20
-119
11
140.637
21
-118.992
0
LINE
8
BLACK
6
CONTINUOUS
10
140.637
20
-118.992
11
140.64
21
-118.989
0
LINE
8
BLACK
6
CONTINUOUS
10
140.64
20
-118.989
11
140.643
21
-118.986
0
LINE
8
BLACK
6
CONTINUOUS
10
140.643
20
-118.986
11
140.738
21
-118.89
0
LINE
8
BLACK
6
CONTINUOUS
10
140.738
20
-118.89
11
140.748
21
-118.884
0
LINE
8
BLACK
6
CONTINUOUS
10
140.748
20
-118.884
11
140.758
21
-118.876
0
LINE
8
BLACK
6
CONTINUOUS
10
140.758
20
-118.876
11
140.853
21
-118.829
0
LINE
8
BLACK
6
CONTINUOUS
10
140.853
20
-118.829
11
140.861
21
-118.826
0
LINE
8
BLACK
6
CONTINUOUS
10
140.861
20
-118.826
11
140.868
21
-118.823
0
LINE
8
BLACK
6
CONTINUOUS
10
140.868
20
-118.823
11
141.059
21
-118.776
0
LINE
8
BLACK
6
CONTINUOUS
10
141.059
20
-118.776
11
141.068
21
-118.775
0
LINE
8
BLACK
6
CONTINUOUS
10
141.068
20
-118.775
11
141.077
21
-118.773
0
LINE
8
BLACK
6
CONTINUOUS
10
141.077
20
-118.773
11
141.22
21
-118.773
0
LINE
8
BLACK
6
CONTINUOUS
10
141.22
20
-118.773
11
141.229
21
-118.775
0
LINE
8
BLACK
6
CONTINUOUS
10
119.159
20
-118.727
11
119.177
21
-118.737
0
LINE
8
BLACK
6
CONTINUOUS
10
119.177
20
-118.737
11
119.191
21
-118.754
0
LINE
8
BLACK
6
CONTINUOUS
10
119.191
20
-118.754
11
119.198
21
-118.773
0
LINE
8
BLACK
6
CONTINUOUS
10
119.198
20
-118.773
11
119.198
21
-118.795
0
LINE
8
BLACK
6
CONTINUOUS
10
119.198
20
-118.795
11
119.191
21
-118.814
0
LINE
8
BLACK
6
CONTINUOUS
10
119.191
20
-118.814
11
119.177
21
-118.831
0
LINE
8
BLACK
6
CONTINUOUS
10
119.177
20
-118.831
11
119.159
21
-118.841
0
LINE
8
BLACK
6
CONTINUOUS
10
119.159
20
-118.841
11
119.143
21
-118.844
0
LINE
8
BLACK
6
CONTINUOUS
10
119.143
20
-118.844
11
118.133
21
-118.844
0
LINE
8
BLACK
6
CONTINUOUS
10
118.133
20
-118.844
11
118.117
21
-118.841
0
LINE
8
BLACK
6
CONTINUOUS
10
118.117
20
-118.841
11
118.099
21
-118.831
0
LINE
8
BLACK
6
CONTINUOUS
10
118.099
20
-118.831
11
118.085
21
-118.814
0
LINE
8
BLACK
6
CONTINUOUS
10
118.085
20
-118.814
11
118.078
21
-118.795
0
LINE
8
BLACK
6
CONTINUOUS
10
118.078
20
-118.795
11
118.078
21
-118.773
0
LINE
8
BLACK
6
CONTINUOUS
10
118.078
20
-118.773
11
118.085
21
-118.754
0
LINE
8
BLACK
6
CONTINUOUS
10
118.085
20
-118.754
11
118.099
21
-118.737
0
LINE
8
BLACK
6
CONTINUOUS
10
118.099
20
-118.737
11
118.117
21
-118.727
0
LINE
8
BLACK
6
CONTINUOUS
10
118.117
20
-118.727
11
118.133
21
-118.724
0
LINE
8
BLACK
6
CONTINUOUS
10
118.133
20
-118.724
11
119.143
21
-118.724
0
LINE
8
BLACK
6
CONTINUOUS
10
119.143
20
-118.724
11
119.159
21
-118.727
  0
ENDSEC
  0
EOF
