  0
SECTION
  2
HEADER
  9
$ANGBASE
  50
0.0
  9
$ANGDIR
  70
  1
  9
$MEASUREMENT
  70
0
  0
ENDSEC
  0
SECTION
  2
TABLES
  0
TABLE
  2
LTYPE
  70
4
  0
LTYPE
  5
40F
  2
CONTINUOUS
  70
0
  3
Solid line
  72
65
  73
0
  40
0.0
  0
LTYPE
  5
410
  2
DASHDOT
 70
0
  3
Dash Dot ____ _ ____ _
 72
65
 73
4
 40
2.0
 49
1.25
 49
-0.25
 49
0.25
 49
-0.25
  0
LTYPE
  5
411
  2
DASHED
 70
0
  3
Dashed __ __ __ __ __
 72
65
 73
2
 40
0.75
 49
0.5
 49
-0.25
  0
LTYPE
  5
43B
  2
DOTTED
 70
0
  3
Dotted .  .  .  .
 72
65
 73
2
 40
0.2
 49
0.0
 49
-0.2
  0
ENDTAB
  0
TABLE
  2
STYLE
  70
4
  0
STYLE
  2
KICAD
  70
0
  40
0
  41
1
  42
1
  50
0
  71
0
  3
isocp.shx
  0
STYLE
  2
KICADB
  70
0
  40
0
  41
1
  42
1
  50
0
  71
0
  3
isocp.shx
  0
STYLE
  2
KICADI
  70
0
  40
0
  41
1
  42
1
  50
15
  71
0
  3
isocp.shx
  0
STYLE
  2
KICADBI
  70
0
  40
0
  41
1
  42
1
  50
15
  71
0
  3
isocp.shx
  0
ENDTAB
  0
TABLE
  2
LAYER
  70
30
  0
LAYER
  2
BLACK
  70
0
  62
7
  6
CONTINUOUS
  0
LAYER
  2
GRAY1
  70
0
  62
251
  6
CONTINUOUS
  0
LAYER
  2
GRAY2
  70
0
  62
8
  6
CONTINUOUS
  0
LAYER
  2
GRAY3
  70
0
  62
9
  6
CONTINUOUS
  0
LAYER
  2
WHITE
  70
0
  62
7
  6
CONTINUOUS
  0
LAYER
  2
LYELLOW
  70
0
  62
51
  6
CONTINUOUS
  0
LAYER
  2
BLUE1
  70
0
  62
178
  6
CONTINUOUS
  0
LAYER
  2
GREEN1
  70
0
  62
98
  6
CONTINUOUS
  0
LAYER
  2
CYAN1
  70
0
  62
138
  6
CONTINUOUS
  0
LAYER
  2
RED1
  70
0
  62
18
  6
CONTINUOUS
  0
LAYER
  2
MAGENTA1
  70
0
  62
228
  6
CONTINUOUS
  0
LAYER
  2
BROWN1
  70
0
  62
58
  6
CONTINUOUS
  0
LAYER
  2
BLUE2
  70
0
  62
5
  6
CONTINUOUS
  0
LAYER
  2
GREEN2
  70
0
  62
3
  6
CONTINUOUS
  0
LAYER
  2
CYAN2
  70
0
  62
4
  6
CONTINUOUS
  0
LAYER
  2
RED2
  70
0
  62
1
  6
CONTINUOUS
  0
LAYER
  2
MAGENTA2
  70
0
  62
6
  6
CONTINUOUS
  0
LAYER
  2
BROWN2
  70
0
  62
54
  6
CONTINUOUS
  0
LAYER
  2
BLUE3
  70
0
  62
171
  6
CONTINUOUS
  0
LAYER
  2
GREEN3
  70
0
  62
91
  6
CONTINUOUS
  0
LAYER
  2
CYAN3
  70
0
  62
131
  6
CONTINUOUS
  0
LAYER
  2
RED3
  70
0
  62
11
  6
CONTINUOUS
  0
LAYER
  2
MAGENTA3
  70
0
  62
221
  6
CONTINUOUS
  0
LAYER
  2
YELLOW3
  70
0
  62
2
  6
CONTINUOUS
  0
LAYER
  2
BLUE4
  70
0
  62
5
  6
CONTINUOUS
  0
LAYER
  2
GREEN4
  70
0
  62
3
  6
CONTINUOUS
  0
LAYER
  2
CYAN4
  70
0
  62
4
  6
CONTINUOUS
  0
LAYER
  2
RED4
  70
0
  62
1
  6
CONTINUOUS
  0
LAYER
  2
MAGENTA4
  70
0
  62
6
  6
CONTINUOUS
  0
LAYER
  2
YELLOW4
  70
0
  62
2
  6
CONTINUOUS
  0
ENDTAB
  0
ENDSEC
  0
SECTION
  2
ENTITIES
0
LINE
8
BLACK
6
CONTINUOUS
10
189.007
20
-94.925
11
189.013
21
-94.925
0
LINE
8
BLACK
6
CONTINUOUS
10
189.013
20
-94.925
11
189.019
21
-94.9273
0
LINE
8
BLACK
6
CONTINUOUS
10
189.019
20
-94.9273
11
189.026
21
-94.9284
0
LINE
8
BLACK
6
CONTINUOUS
10
189.026
20
-94.9284
11
189.032
21
-94.9318
0
LINE
8
BLACK
6
CONTINUOUS
10
189.032
20
-94.9318
11
189.038
21
-94.934
0
LINE
8
BLACK
6
CONTINUOUS
10
189.038
20
-94.934
11
189.043
21
-94.9383
0
LINE
8
BLACK
6
CONTINUOUS
10
189.043
20
-94.9383
11
189.049
21
-94.9417
0
LINE
8
BLACK
6
CONTINUOUS
10
189.049
20
-94.9417
11
189.053
21
-94.9468
0
LINE
8
BLACK
6
CONTINUOUS
10
189.053
20
-94.9468
11
189.058
21
-94.951
0
LINE
8
BLACK
6
CONTINUOUS
10
189.058
20
-94.951
11
189.062
21
-94.9568
0
LINE
8
BLACK
6
CONTINUOUS
10
189.062
20
-94.9568
11
189.066
21
-94.9619
0
LINE
8
BLACK
6
CONTINUOUS
10
189.066
20
-94.9619
11
189.068
21
-94.9682
0
LINE
8
BLACK
6
CONTINUOUS
10
189.068
20
-94.9682
11
189.072
21
-94.974
0
LINE
8
BLACK
6
CONTINUOUS
10
189.072
20
-94.974
11
189.073
21
-94.9805
0
LINE
8
BLACK
6
CONTINUOUS
10
189.073
20
-94.9805
11
189.075
21
-94.9868
0
LINE
8
BLACK
6
CONTINUOUS
10
189.075
20
-94.9868
11
189.075
21
-94.9934
0
LINE
8
BLACK
6
CONTINUOUS
10
189.075
20
-94.9934
11
189.075
21
-94.9934
0
LINE
8
BLACK
6
CONTINUOUS
10
189.075
20
-94.9934
11
189.075
21
-145.007
0
LINE
8
BLACK
6
CONTINUOUS
10
189.075
20
-145.007
11
189.075
21
-145.007
0
LINE
8
BLACK
6
CONTINUOUS
10
189.075
20
-145.007
11
189.075
21
-145.013
0
LINE
8
BLACK
6
CONTINUOUS
10
189.075
20
-145.013
11
189.073
21
-145.019
0
LINE
8
BLACK
6
CONTINUOUS
10
189.073
20
-145.019
11
189.072
21
-145.026
0
LINE
8
BLACK
6
CONTINUOUS
10
189.072
20
-145.026
11
189.068
21
-145.032
0
LINE
8
BLACK
6
CONTINUOUS
10
189.068
20
-145.032
11
189.066
21
-145.038
0
LINE
8
BLACK
6
CONTINUOUS
10
189.066
20
-145.038
11
189.062
21
-145.043
0
LINE
8
BLACK
6
CONTINUOUS
10
189.062
20
-145.043
11
189.058
21
-145.049
0
LINE
8
BLACK
6
CONTINUOUS
10
189.058
20
-145.049
11
189.053
21
-145.053
0
LINE
8
BLACK
6
CONTINUOUS
10
189.053
20
-145.053
11
189.049
21
-145.058
0
LINE
8
BLACK
6
CONTINUOUS
10
189.049
20
-145.058
11
189.043
21
-145.062
0
LINE
8
BLACK
6
CONTINUOUS
10
189.043
20
-145.062
11
189.038
21
-145.066
0
LINE
8
BLACK
6
CONTINUOUS
10
189.038
20
-145.066
11
189.032
21
-145.068
0
LINE
8
BLACK
6
CONTINUOUS
10
189.032
20
-145.068
11
189.026
21
-145.072
0
LINE
8
BLACK
6
CONTINUOUS
10
189.026
20
-145.072
11
189.019
21
-145.073
0
LINE
8
BLACK
6
CONTINUOUS
10
189.019
20
-145.073
11
189.013
21
-145.075
0
LINE
8
BLACK
6
CONTINUOUS
10
189.013
20
-145.075
11
189.007
21
-145.075
0
LINE
8
BLACK
6
CONTINUOUS
10
189.007
20
-145.075
11
189.007
21
-145.075
0
LINE
8
BLACK
6
CONTINUOUS
10
189.007
20
-145.075
11
108.993
21
-145.075
0
LINE
8
BLACK
6
CONTINUOUS
10
108.993
20
-145.075
11
108.993
21
-145.075
0
LINE
8
BLACK
6
CONTINUOUS
10
108.993
20
-145.075
11
108.987
21
-145.075
0
LINE
8
BLACK
6
CONTINUOUS
10
108.987
20
-145.075
11
108.981
21
-145.073
0
LINE
8
BLACK
6
CONTINUOUS
10
108.981
20
-145.073
11
108.974
21
-145.072
0
LINE
8
BLACK
6
CONTINUOUS
10
108.974
20
-145.072
11
108.968
21
-145.068
0
LINE
8
BLACK
6
CONTINUOUS
10
108.968
20
-145.068
11
108.962
21
-145.066
0
LINE
8
BLACK
6
CONTINUOUS
10
108.962
20
-145.066
11
108.957
21
-145.062
0
LINE
8
BLACK
6
CONTINUOUS
10
108.957
20
-145.062
11
108.951
21
-145.058
0
LINE
8
BLACK
6
CONTINUOUS
10
108.951
20
-145.058
11
108.947
21
-145.053
0
LINE
8
BLACK
6
CONTINUOUS
10
108.947
20
-145.053
11
108.942
21
-145.049
0
LINE
8
BLACK
6
CONTINUOUS
10
108.942
20
-145.049
11
108.938
21
-145.043
0
LINE
8
BLACK
6
CONTINUOUS
10
108.938
20
-145.043
11
108.934
21
-145.038
0
LINE
8
BLACK
6
CONTINUOUS
10
108.934
20
-145.038
11
108.932
21
-145.032
0
LINE
8
BLACK
6
CONTINUOUS
10
108.932
20
-145.032
11
108.928
21
-145.026
0
LINE
8
BLACK
6
CONTINUOUS
10
108.928
20
-145.026
11
108.927
21
-145.019
0
LINE
8
BLACK
6
CONTINUOUS
10
108.927
20
-145.019
11
108.925
21
-145.013
0
LINE
8
BLACK
6
CONTINUOUS
10
108.925
20
-145.013
11
108.925
21
-144.987
0
LINE
8
BLACK
6
CONTINUOUS
10
108.925
20
-144.987
11
108.925
21
-94.9934
0
LINE
8
BLACK
6
CONTINUOUS
10
108.925
20
-94.9934
11
108.925
21
-94.9934
0
LINE
8
BLACK
6
CONTINUOUS
10
108.925
20
-94.9934
11
108.925
21
-94.9868
0
LINE
8
BLACK
6
CONTINUOUS
10
108.925
20
-94.9868
11
108.927
21
-94.9805
0
LINE
8
BLACK
6
CONTINUOUS
10
108.927
20
-94.9805
11
108.928
21
-94.974
0
LINE
8
BLACK
6
CONTINUOUS
10
108.928
20
-94.974
11
108.932
21
-94.9682
0
LINE
8
BLACK
6
CONTINUOUS
10
108.932
20
-94.9682
11
108.934
21
-94.9619
0
LINE
8
BLACK
6
CONTINUOUS
10
108.934
20
-94.9619
11
108.938
21
-94.9568
0
LINE
8
BLACK
6
CONTINUOUS
10
108.938
20
-94.9568
11
108.942
21
-94.951
0
LINE
8
BLACK
6
CONTINUOUS
10
108.942
20
-94.951
11
108.947
21
-94.9468
0
LINE
8
BLACK
6
CONTINUOUS
10
108.947
20
-94.9468
11
108.951
21
-94.9417
0
LINE
8
BLACK
6
CONTINUOUS
10
108.951
20
-94.9417
11
108.957
21
-94.9383
0
LINE
8
BLACK
6
CONTINUOUS
10
108.957
20
-94.9383
11
108.962
21
-94.934
0
LINE
8
BLACK
6
CONTINUOUS
10
108.962
20
-94.934
11
108.968
21
-94.9318
0
LINE
8
BLACK
6
CONTINUOUS
10
108.968
20
-94.9318
11
108.974
21
-94.9284
0
LINE
8
BLACK
6
CONTINUOUS
10
108.974
20
-94.9284
11
108.981
21
-94.9273
0
LINE
8
BLACK
6
CONTINUOUS
10
108.981
20
-94.9273
11
108.987
21
-94.925
0
LINE
8
BLACK
6
CONTINUOUS
10
108.987
20
-94.925
11
108.993
21
-94.925
0
LINE
8
BLACK
6
CONTINUOUS
10
108.993
20
-94.925
11
108.993
21
-94.925
0
LINE
8
BLACK
6
CONTINUOUS
10
108.993
20
-94.925
11
189.007
21
-94.925
0
LINE
8
BLACK
6
CONTINUOUS
10
189.007
20
-94.925
11
189.007
21
-94.925
0
LINE
8
BLACK
6
CONTINUOUS
10
109.075
20
-95.075
11
109.075
21
-144.925
0
LINE
8
BLACK
6
CONTINUOUS
10
109.075
20
-144.925
11
188.925
21
-144.925
0
LINE
8
BLACK
6
CONTINUOUS
10
188.925
20
-144.925
11
188.925
21
-95.075
0
LINE
8
BLACK
6
CONTINUOUS
10
188.925
20
-95.075
11
109.075
21
-95.075
  0
ENDSEC
  0
EOF
