  0
SECTION
  2
HEADER
  9
$ANGBASE
  50
0.0
  9
$ANGDIR
  70
  1
  9
$MEASUREMENT
  70
0
  0
ENDSEC
  0
SECTION
  2
TABLES
  0
TABLE
  2
LTYPE
  70
4
  0
LTYPE
  5
40F
  2
CONTINUOUS
  70
0
  3
Solid line
  72
65
  73
0
  40
0.0
  0
LTYPE
  5
410
  2
DASHDOT
 70
0
  3
Dash Dot ____ _ ____ _
 72
65
 73
4
 40
2.0
 49
1.25
 49
-0.25
 49
0.25
 49
-0.25
  0
LTYPE
  5
411
  2
DASHED
 70
0
  3
Dashed __ __ __ __ __
 72
65
 73
2
 40
0.75
 49
0.5
 49
-0.25
  0
LTYPE
  5
43B
  2
DOTTED
 70
0
  3
Dotted .  .  .  .
 72
65
 73
2
 40
0.2
 49
0.0
 49
-0.2
  0
ENDTAB
  0
TABLE
  2
STYLE
  70
4
  0
STYLE
  2
KICAD
  70
0
  40
0
  41
1
  42
1
  50
0
  71
0
  3
isocp.shx
  0
STYLE
  2
KICADB
  70
0
  40
0
  41
1
  42
1
  50
0
  71
0
  3
isocp.shx
  0
STYLE
  2
KICADI
  70
0
  40
0
  41
1
  42
1
  50
15
  71
0
  3
isocp.shx
  0
STYLE
  2
KICADBI
  70
0
  40
0
  41
1
  42
1
  50
15
  71
0
  3
isocp.shx
  0
ENDTAB
  0
TABLE
  2
LAYER
  70
30
  0
LAYER
  2
BLACK
  70
0
  62
7
  6
CONTINUOUS
  0
LAYER
  2
GRAY1
  70
0
  62
251
  6
CONTINUOUS
  0
LAYER
  2
GRAY2
  70
0
  62
8
  6
CONTINUOUS
  0
LAYER
  2
GRAY3
  70
0
  62
9
  6
CONTINUOUS
  0
LAYER
  2
WHITE
  70
0
  62
7
  6
CONTINUOUS
  0
LAYER
  2
LYELLOW
  70
0
  62
51
  6
CONTINUOUS
  0
LAYER
  2
BLUE1
  70
0
  62
178
  6
CONTINUOUS
  0
LAYER
  2
GREEN1
  70
0
  62
98
  6
CONTINUOUS
  0
LAYER
  2
CYAN1
  70
0
  62
138
  6
CONTINUOUS
  0
LAYER
  2
RED1
  70
0
  62
18
  6
CONTINUOUS
  0
LAYER
  2
MAGENTA1
  70
0
  62
228
  6
CONTINUOUS
  0
LAYER
  2
BROWN1
  70
0
  62
58
  6
CONTINUOUS
  0
LAYER
  2
BLUE2
  70
0
  62
5
  6
CONTINUOUS
  0
LAYER
  2
GREEN2
  70
0
  62
3
  6
CONTINUOUS
  0
LAYER
  2
CYAN2
  70
0
  62
4
  6
CONTINUOUS
  0
LAYER
  2
RED2
  70
0
  62
1
  6
CONTINUOUS
  0
LAYER
  2
MAGENTA2
  70
0
  62
6
  6
CONTINUOUS
  0
LAYER
  2
BROWN2
  70
0
  62
54
  6
CONTINUOUS
  0
LAYER
  2
BLUE3
  70
0
  62
171
  6
CONTINUOUS
  0
LAYER
  2
GREEN3
  70
0
  62
91
  6
CONTINUOUS
  0
LAYER
  2
CYAN3
  70
0
  62
131
  6
CONTINUOUS
  0
LAYER
  2
RED3
  70
0
  62
11
  6
CONTINUOUS
  0
LAYER
  2
MAGENTA3
  70
0
  62
221
  6
CONTINUOUS
  0
LAYER
  2
YELLOW3
  70
0
  62
2
  6
CONTINUOUS
  0
LAYER
  2
BLUE4
  70
0
  62
5
  6
CONTINUOUS
  0
LAYER
  2
GREEN4
  70
0
  62
3
  6
CONTINUOUS
  0
LAYER
  2
CYAN4
  70
0
  62
4
  6
CONTINUOUS
  0
LAYER
  2
RED4
  70
0
  62
1
  6
CONTINUOUS
  0
LAYER
  2
MAGENTA4
  70
0
  62
6
  6
CONTINUOUS
  0
LAYER
  2
YELLOW4
  70
0
  62
2
  6
CONTINUOUS
  0
ENDTAB
  0
ENDSEC
  0
SECTION
  2
ENTITIES
0
LINE
8
BLACK
6
CONTINUOUS
10
182.056
20
-136.473
11
182.544
21
-136.755
0
LINE
8
BLACK
6
CONTINUOUS
10
182.544
20
-136.755
11
182.907
21
-137.188
0
LINE
8
BLACK
6
CONTINUOUS
10
182.907
20
-137.188
11
183.1
21
-137.718
0
LINE
8
BLACK
6
CONTINUOUS
10
183.1
20
-137.718
11
183.1
21
-138.282
0
LINE
8
BLACK
6
CONTINUOUS
10
183.1
20
-138.282
11
182.907
21
-138.812
0
LINE
8
BLACK
6
CONTINUOUS
10
182.907
20
-138.812
11
182.544
21
-139.245
0
LINE
8
BLACK
6
CONTINUOUS
10
182.544
20
-139.245
11
182.056
21
-139.527
0
LINE
8
BLACK
6
CONTINUOUS
10
182.056
20
-139.527
11
181.5
21
-139.625
0
LINE
8
BLACK
6
CONTINUOUS
10
181.5
20
-139.625
11
180.944
21
-139.527
0
LINE
8
BLACK
6
CONTINUOUS
10
180.944
20
-139.527
11
180.456
21
-139.245
0
LINE
8
BLACK
6
CONTINUOUS
10
180.456
20
-139.245
11
180.093
21
-138.812
0
LINE
8
BLACK
6
CONTINUOUS
10
180.093
20
-138.812
11
179.9
21
-138.282
0
LINE
8
BLACK
6
CONTINUOUS
10
179.9
20
-138.282
11
179.9
21
-137.718
0
LINE
8
BLACK
6
CONTINUOUS
10
179.9
20
-137.718
11
180.093
21
-137.188
0
LINE
8
BLACK
6
CONTINUOUS
10
180.093
20
-137.188
11
180.456
21
-136.755
0
LINE
8
BLACK
6
CONTINUOUS
10
180.456
20
-136.755
11
180.944
21
-136.473
0
LINE
8
BLACK
6
CONTINUOUS
10
180.944
20
-136.473
11
181.5
21
-136.375
0
LINE
8
BLACK
6
CONTINUOUS
10
181.5
20
-136.375
11
182.056
21
-136.473
0
LINE
8
BLACK
6
CONTINUOUS
10
117.056
20
-135.973
11
117.544
21
-136.255
0
LINE
8
BLACK
6
CONTINUOUS
10
117.544
20
-136.255
11
117.907
21
-136.688
0
LINE
8
BLACK
6
CONTINUOUS
10
117.907
20
-136.688
11
118.1
21
-137.218
0
LINE
8
BLACK
6
CONTINUOUS
10
118.1
20
-137.218
11
118.1
21
-137.782
0
LINE
8
BLACK
6
CONTINUOUS
10
118.1
20
-137.782
11
117.907
21
-138.312
0
LINE
8
BLACK
6
CONTINUOUS
10
117.907
20
-138.312
11
117.544
21
-138.745
0
LINE
8
BLACK
6
CONTINUOUS
10
117.544
20
-138.745
11
117.056
21
-139.027
0
LINE
8
BLACK
6
CONTINUOUS
10
117.056
20
-139.027
11
116.5
21
-139.125
0
LINE
8
BLACK
6
CONTINUOUS
10
116.5
20
-139.125
11
115.944
21
-139.027
0
LINE
8
BLACK
6
CONTINUOUS
10
115.944
20
-139.027
11
115.456
21
-138.745
0
LINE
8
BLACK
6
CONTINUOUS
10
115.456
20
-138.745
11
115.093
21
-138.312
0
LINE
8
BLACK
6
CONTINUOUS
10
115.093
20
-138.312
11
114.9
21
-137.782
0
LINE
8
BLACK
6
CONTINUOUS
10
114.9
20
-137.782
11
114.9
21
-137.218
0
LINE
8
BLACK
6
CONTINUOUS
10
114.9
20
-137.218
11
115.093
21
-136.688
0
LINE
8
BLACK
6
CONTINUOUS
10
115.093
20
-136.688
11
115.456
21
-136.255
0
LINE
8
BLACK
6
CONTINUOUS
10
115.456
20
-136.255
11
115.944
21
-135.973
0
LINE
8
BLACK
6
CONTINUOUS
10
115.944
20
-135.973
11
116.5
21
-135.875
0
LINE
8
BLACK
6
CONTINUOUS
10
116.5
20
-135.875
11
117.056
21
-135.973
0
LINE
8
BLACK
6
CONTINUOUS
10
132.069
20
-128.872
11
132.283
21
-128.995
0
LINE
8
BLACK
6
CONTINUOUS
10
132.283
20
-128.995
11
132.442
21
-129.185
0
LINE
8
BLACK
6
CONTINUOUS
10
132.442
20
-129.185
11
132.526
21
-129.417
0
LINE
8
BLACK
6
CONTINUOUS
10
132.526
20
-129.417
11
132.526
21
-129.663
0
LINE
8
BLACK
6
CONTINUOUS
10
132.526
20
-129.663
11
132.442
21
-129.895
0
LINE
8
BLACK
6
CONTINUOUS
10
132.442
20
-129.895
11
132.283
21
-130.085
0
LINE
8
BLACK
6
CONTINUOUS
10
132.283
20
-130.085
11
132.069
21
-130.208
0
LINE
8
BLACK
6
CONTINUOUS
10
132.069
20
-130.208
11
131.826
21
-130.251
0
LINE
8
BLACK
6
CONTINUOUS
10
131.826
20
-130.251
11
131.583
21
-130.208
0
LINE
8
BLACK
6
CONTINUOUS
10
131.583
20
-130.208
11
131.369
21
-130.085
0
LINE
8
BLACK
6
CONTINUOUS
10
131.369
20
-130.085
11
131.21
21
-129.895
0
LINE
8
BLACK
6
CONTINUOUS
10
131.21
20
-129.895
11
131.126
21
-129.663
0
LINE
8
BLACK
6
CONTINUOUS
10
131.126
20
-129.663
11
131.126
21
-129.417
0
LINE
8
BLACK
6
CONTINUOUS
10
131.126
20
-129.417
11
131.21
21
-129.185
0
LINE
8
BLACK
6
CONTINUOUS
10
131.21
20
-129.185
11
131.369
21
-128.995
0
LINE
8
BLACK
6
CONTINUOUS
10
131.369
20
-128.995
11
131.583
21
-128.872
0
LINE
8
BLACK
6
CONTINUOUS
10
131.583
20
-128.872
11
131.826
21
-128.829
0
LINE
8
BLACK
6
CONTINUOUS
10
131.826
20
-128.829
11
132.069
21
-128.872
0
LINE
8
BLACK
6
CONTINUOUS
10
121.505
20
-128.078
11
121.811
21
-128.254
0
LINE
8
BLACK
6
CONTINUOUS
10
121.811
20
-128.254
11
122.037
21
-128.524
0
LINE
8
BLACK
6
CONTINUOUS
10
122.037
20
-128.524
11
122.158
21
-128.856
0
LINE
8
BLACK
6
CONTINUOUS
10
122.158
20
-128.856
11
122.158
21
-129.208
0
LINE
8
BLACK
6
CONTINUOUS
10
122.158
20
-129.208
11
122.037
21
-129.54
0
LINE
8
BLACK
6
CONTINUOUS
10
122.037
20
-129.54
11
121.811
21
-129.81
0
LINE
8
BLACK
6
CONTINUOUS
10
121.811
20
-129.81
11
121.505
21
-129.986
0
LINE
8
BLACK
6
CONTINUOUS
10
121.505
20
-129.986
11
121.158
21
-130.047
0
LINE
8
BLACK
6
CONTINUOUS
10
121.158
20
-130.047
11
120.811
21
-129.986
0
LINE
8
BLACK
6
CONTINUOUS
10
120.811
20
-129.986
11
120.505
21
-129.81
0
LINE
8
BLACK
6
CONTINUOUS
10
120.505
20
-129.81
11
120.279
21
-129.54
0
LINE
8
BLACK
6
CONTINUOUS
10
120.279
20
-129.54
11
120.158
21
-129.208
0
LINE
8
BLACK
6
CONTINUOUS
10
120.158
20
-129.208
11
120.158
21
-128.856
0
LINE
8
BLACK
6
CONTINUOUS
10
120.158
20
-128.856
11
120.279
21
-128.524
0
LINE
8
BLACK
6
CONTINUOUS
10
120.279
20
-128.524
11
120.505
21
-128.254
0
LINE
8
BLACK
6
CONTINUOUS
10
120.505
20
-128.254
11
120.811
21
-128.078
0
LINE
8
BLACK
6
CONTINUOUS
10
120.811
20
-128.078
11
121.158
21
-128.017
0
LINE
8
BLACK
6
CONTINUOUS
10
121.158
20
-128.017
11
121.505
21
-128.078
0
LINE
8
BLACK
6
CONTINUOUS
10
118.965
20
-128.078
11
119.271
21
-128.254
0
LINE
8
BLACK
6
CONTINUOUS
10
119.271
20
-128.254
11
119.497
21
-128.524
0
LINE
8
BLACK
6
CONTINUOUS
10
119.497
20
-128.524
11
119.618
21
-128.856
0
LINE
8
BLACK
6
CONTINUOUS
10
119.618
20
-128.856
11
119.618
21
-129.208
0
LINE
8
BLACK
6
CONTINUOUS
10
119.618
20
-129.208
11
119.497
21
-129.54
0
LINE
8
BLACK
6
CONTINUOUS
10
119.497
20
-129.54
11
119.271
21
-129.81
0
LINE
8
BLACK
6
CONTINUOUS
10
119.271
20
-129.81
11
118.965
21
-129.986
0
LINE
8
BLACK
6
CONTINUOUS
10
118.965
20
-129.986
11
118.618
21
-130.047
0
LINE
8
BLACK
6
CONTINUOUS
10
118.618
20
-130.047
11
118.271
21
-129.986
0
LINE
8
BLACK
6
CONTINUOUS
10
118.271
20
-129.986
11
117.965
21
-129.81
0
LINE
8
BLACK
6
CONTINUOUS
10
117.965
20
-129.81
11
117.739
21
-129.54
0
LINE
8
BLACK
6
CONTINUOUS
10
117.739
20
-129.54
11
117.618
21
-129.208
0
LINE
8
BLACK
6
CONTINUOUS
10
117.618
20
-129.208
11
117.618
21
-128.856
0
LINE
8
BLACK
6
CONTINUOUS
10
117.618
20
-128.856
11
117.739
21
-128.524
0
LINE
8
BLACK
6
CONTINUOUS
10
117.739
20
-128.524
11
117.965
21
-128.254
0
LINE
8
BLACK
6
CONTINUOUS
10
117.965
20
-128.254
11
118.271
21
-128.078
0
LINE
8
BLACK
6
CONTINUOUS
10
118.271
20
-128.078
11
118.618
21
-128.017
0
LINE
8
BLACK
6
CONTINUOUS
10
118.618
20
-128.017
11
118.965
21
-128.078
0
LINE
8
BLACK
6
CONTINUOUS
10
124.698
20
-130.032
11
122.698
21
-130.032
0
LINE
8
BLACK
6
CONTINUOUS
10
122.698
20
-130.032
11
122.698
21
-128.032
0
LINE
8
BLACK
6
CONTINUOUS
10
122.698
20
-128.032
11
124.698
21
-128.032
0
LINE
8
BLACK
6
CONTINUOUS
10
124.698
20
-128.032
11
124.698
21
-130.032
0
LINE
8
BLACK
6
CONTINUOUS
10
159.963
20
-126.808
11
160.269
21
-126.984
0
LINE
8
BLACK
6
CONTINUOUS
10
160.269
20
-126.984
11
160.495
21
-127.254
0
LINE
8
BLACK
6
CONTINUOUS
10
160.495
20
-127.254
11
160.616
21
-127.586
0
LINE
8
BLACK
6
CONTINUOUS
10
160.616
20
-127.586
11
160.616
21
-127.938
0
LINE
8
BLACK
6
CONTINUOUS
10
160.616
20
-127.938
11
160.495
21
-128.27
0
LINE
8
BLACK
6
CONTINUOUS
10
160.495
20
-128.27
11
160.269
21
-128.54
0
LINE
8
BLACK
6
CONTINUOUS
10
160.269
20
-128.54
11
159.963
21
-128.716
0
LINE
8
BLACK
6
CONTINUOUS
10
159.963
20
-128.716
11
159.616
21
-128.777
0
LINE
8
BLACK
6
CONTINUOUS
10
159.616
20
-128.777
11
159.269
21
-128.716
0
LINE
8
BLACK
6
CONTINUOUS
10
159.269
20
-128.716
11
158.963
21
-128.54
0
LINE
8
BLACK
6
CONTINUOUS
10
158.963
20
-128.54
11
158.737
21
-128.27
0
LINE
8
BLACK
6
CONTINUOUS
10
158.737
20
-128.27
11
158.616
21
-127.938
0
LINE
8
BLACK
6
CONTINUOUS
10
158.616
20
-127.938
11
158.616
21
-127.586
0
LINE
8
BLACK
6
CONTINUOUS
10
158.616
20
-127.586
11
158.737
21
-127.254
0
LINE
8
BLACK
6
CONTINUOUS
10
158.737
20
-127.254
11
158.963
21
-126.984
0
LINE
8
BLACK
6
CONTINUOUS
10
158.963
20
-126.984
11
159.269
21
-126.808
0
LINE
8
BLACK
6
CONTINUOUS
10
159.269
20
-126.808
11
159.616
21
-126.747
0
LINE
8
BLACK
6
CONTINUOUS
10
159.616
20
-126.747
11
159.963
21
-126.808
0
LINE
8
BLACK
6
CONTINUOUS
10
166.463
20
-126.808
11
166.769
21
-126.984
0
LINE
8
BLACK
6
CONTINUOUS
10
166.769
20
-126.984
11
166.995
21
-127.254
0
LINE
8
BLACK
6
CONTINUOUS
10
166.995
20
-127.254
11
167.116
21
-127.586
0
LINE
8
BLACK
6
CONTINUOUS
10
167.116
20
-127.586
11
167.116
21
-127.938
0
LINE
8
BLACK
6
CONTINUOUS
10
167.116
20
-127.938
11
166.995
21
-128.27
0
LINE
8
BLACK
6
CONTINUOUS
10
166.995
20
-128.27
11
166.769
21
-128.54
0
LINE
8
BLACK
6
CONTINUOUS
10
166.769
20
-128.54
11
166.463
21
-128.716
0
LINE
8
BLACK
6
CONTINUOUS
10
166.463
20
-128.716
11
166.116
21
-128.777
0
LINE
8
BLACK
6
CONTINUOUS
10
166.116
20
-128.777
11
165.769
21
-128.716
0
LINE
8
BLACK
6
CONTINUOUS
10
165.769
20
-128.716
11
165.463
21
-128.54
0
LINE
8
BLACK
6
CONTINUOUS
10
165.463
20
-128.54
11
165.237
21
-128.27
0
LINE
8
BLACK
6
CONTINUOUS
10
165.237
20
-128.27
11
165.116
21
-127.938
0
LINE
8
BLACK
6
CONTINUOUS
10
165.116
20
-127.938
11
165.116
21
-127.586
0
LINE
8
BLACK
6
CONTINUOUS
10
165.116
20
-127.586
11
165.237
21
-127.254
0
LINE
8
BLACK
6
CONTINUOUS
10
165.237
20
-127.254
11
165.463
21
-126.984
0
LINE
8
BLACK
6
CONTINUOUS
10
165.463
20
-126.984
11
165.769
21
-126.808
0
LINE
8
BLACK
6
CONTINUOUS
10
165.769
20
-126.808
11
166.116
21
-126.747
0
LINE
8
BLACK
6
CONTINUOUS
10
166.116
20
-126.747
11
166.463
21
-126.808
0
LINE
8
BLACK
6
CONTINUOUS
10
132.069
20
-126.332
11
132.283
21
-126.455
0
LINE
8
BLACK
6
CONTINUOUS
10
132.283
20
-126.455
11
132.442
21
-126.645
0
LINE
8
BLACK
6
CONTINUOUS
10
132.442
20
-126.645
11
132.526
21
-126.877
0
LINE
8
BLACK
6
CONTINUOUS
10
132.526
20
-126.877
11
132.526
21
-127.123
0
LINE
8
BLACK
6
CONTINUOUS
10
132.526
20
-127.123
11
132.442
21
-127.355
0
LINE
8
BLACK
6
CONTINUOUS
10
132.442
20
-127.355
11
132.283
21
-127.545
0
LINE
8
BLACK
6
CONTINUOUS
10
132.283
20
-127.545
11
132.069
21
-127.668
0
LINE
8
BLACK
6
CONTINUOUS
10
132.069
20
-127.668
11
131.887
21
-127.7
0
LINE
8
BLACK
6
CONTINUOUS
10
131.887
20
-127.7
11
131.765
21
-127.7
0
LINE
8
BLACK
6
CONTINUOUS
10
131.765
20
-127.7
11
131.583
21
-127.668
0
LINE
8
BLACK
6
CONTINUOUS
10
131.583
20
-127.668
11
131.369
21
-127.545
0
LINE
8
BLACK
6
CONTINUOUS
10
131.369
20
-127.545
11
131.21
21
-127.355
0
LINE
8
BLACK
6
CONTINUOUS
10
131.21
20
-127.355
11
131.126
21
-127.123
0
LINE
8
BLACK
6
CONTINUOUS
10
131.126
20
-127.123
11
131.126
21
-126.877
0
LINE
8
BLACK
6
CONTINUOUS
10
131.126
20
-126.877
11
131.21
21
-126.645
0
LINE
8
BLACK
6
CONTINUOUS
10
131.21
20
-126.645
11
131.369
21
-126.455
0
LINE
8
BLACK
6
CONTINUOUS
10
131.369
20
-126.455
11
131.583
21
-126.332
0
LINE
8
BLACK
6
CONTINUOUS
10
131.583
20
-126.332
11
131.765
21
-126.3
0
LINE
8
BLACK
6
CONTINUOUS
10
131.765
20
-126.3
11
131.887
21
-126.3
0
LINE
8
BLACK
6
CONTINUOUS
10
131.887
20
-126.3
11
132.069
21
-126.332
0
LINE
8
BLACK
6
CONTINUOUS
10
145.785
20
-126.078
11
145.999
21
-126.201
0
LINE
8
BLACK
6
CONTINUOUS
10
145.999
20
-126.201
11
146.158
21
-126.391
0
LINE
8
BLACK
6
CONTINUOUS
10
146.158
20
-126.391
11
146.242
21
-126.623
0
LINE
8
BLACK
6
CONTINUOUS
10
146.242
20
-126.623
11
146.242
21
-126.869
0
LINE
8
BLACK
6
CONTINUOUS
10
146.242
20
-126.869
11
146.158
21
-127.101
0
LINE
8
BLACK
6
CONTINUOUS
10
146.158
20
-127.101
11
145.999
21
-127.291
0
LINE
8
BLACK
6
CONTINUOUS
10
145.999
20
-127.291
11
145.785
21
-127.414
0
LINE
8
BLACK
6
CONTINUOUS
10
145.785
20
-127.414
11
145.542
21
-127.457
0
LINE
8
BLACK
6
CONTINUOUS
10
145.542
20
-127.457
11
145.299
21
-127.414
0
LINE
8
BLACK
6
CONTINUOUS
10
145.299
20
-127.414
11
145.085
21
-127.291
0
LINE
8
BLACK
6
CONTINUOUS
10
145.085
20
-127.291
11
144.926
21
-127.101
0
LINE
8
BLACK
6
CONTINUOUS
10
144.926
20
-127.101
11
144.842
21
-126.869
0
LINE
8
BLACK
6
CONTINUOUS
10
144.842
20
-126.869
11
144.842
21
-126.623
0
LINE
8
BLACK
6
CONTINUOUS
10
144.842
20
-126.623
11
144.926
21
-126.391
0
LINE
8
BLACK
6
CONTINUOUS
10
144.926
20
-126.391
11
145.085
21
-126.201
0
LINE
8
BLACK
6
CONTINUOUS
10
145.085
20
-126.201
11
145.299
21
-126.078
0
LINE
8
BLACK
6
CONTINUOUS
10
145.299
20
-126.078
11
145.542
21
-126.035
0
LINE
8
BLACK
6
CONTINUOUS
10
145.542
20
-126.035
11
145.785
21
-126.078
0
LINE
8
BLACK
6
CONTINUOUS
10
148.325
20
-126.078
11
148.539
21
-126.201
0
LINE
8
BLACK
6
CONTINUOUS
10
148.539
20
-126.201
11
148.698
21
-126.391
0
LINE
8
BLACK
6
CONTINUOUS
10
148.698
20
-126.391
11
148.782
21
-126.623
0
LINE
8
BLACK
6
CONTINUOUS
10
148.782
20
-126.623
11
148.782
21
-126.869
0
LINE
8
BLACK
6
CONTINUOUS
10
148.782
20
-126.869
11
148.698
21
-127.101
0
LINE
8
BLACK
6
CONTINUOUS
10
148.698
20
-127.101
11
148.539
21
-127.291
0
LINE
8
BLACK
6
CONTINUOUS
10
148.539
20
-127.291
11
148.325
21
-127.414
0
LINE
8
BLACK
6
CONTINUOUS
10
148.325
20
-127.414
11
148.143
21
-127.446
0
LINE
8
BLACK
6
CONTINUOUS
10
148.143
20
-127.446
11
148.021
21
-127.446
0
LINE
8
BLACK
6
CONTINUOUS
10
148.021
20
-127.446
11
147.839
21
-127.414
0
LINE
8
BLACK
6
CONTINUOUS
10
147.839
20
-127.414
11
147.625
21
-127.291
0
LINE
8
BLACK
6
CONTINUOUS
10
147.625
20
-127.291
11
147.466
21
-127.101
0
LINE
8
BLACK
6
CONTINUOUS
10
147.466
20
-127.101
11
147.382
21
-126.869
0
LINE
8
BLACK
6
CONTINUOUS
10
147.382
20
-126.869
11
147.382
21
-126.623
0
LINE
8
BLACK
6
CONTINUOUS
10
147.382
20
-126.623
11
147.466
21
-126.391
0
LINE
8
BLACK
6
CONTINUOUS
10
147.466
20
-126.391
11
147.625
21
-126.201
0
LINE
8
BLACK
6
CONTINUOUS
10
147.625
20
-126.201
11
147.839
21
-126.078
0
LINE
8
BLACK
6
CONTINUOUS
10
147.839
20
-126.078
11
148.021
21
-126.046
0
LINE
8
BLACK
6
CONTINUOUS
10
148.021
20
-126.046
11
148.143
21
-126.046
0
LINE
8
BLACK
6
CONTINUOUS
10
148.143
20
-126.046
11
148.325
21
-126.078
0
LINE
8
BLACK
6
CONTINUOUS
10
173.408
20
-121.743
11
173.79
21
-121.964
0
LINE
8
BLACK
6
CONTINUOUS
10
173.79
20
-121.964
11
174.073
21
-122.301
0
LINE
8
BLACK
6
CONTINUOUS
10
174.073
20
-122.301
11
174.224
21
-122.716
0
LINE
8
BLACK
6
CONTINUOUS
10
174.224
20
-122.716
11
174.224
21
-123.156
0
LINE
8
BLACK
6
CONTINUOUS
10
174.224
20
-123.156
11
174.073
21
-123.571
0
LINE
8
BLACK
6
CONTINUOUS
10
174.073
20
-123.571
11
173.79
21
-123.908
0
LINE
8
BLACK
6
CONTINUOUS
10
173.79
20
-123.908
11
173.408
21
-124.129
0
LINE
8
BLACK
6
CONTINUOUS
10
173.408
20
-124.129
11
172.974
21
-124.205
0
LINE
8
BLACK
6
CONTINUOUS
10
172.974
20
-124.205
11
172.54
21
-124.129
0
LINE
8
BLACK
6
CONTINUOUS
10
172.54
20
-124.129
11
172.283
21
-123.98
0
LINE
8
BLACK
6
CONTINUOUS
10
172.283
20
-123.98
11
170.884
21
-125.379
0
LINE
8
BLACK
6
CONTINUOUS
10
170.884
20
-125.379
11
170.863
21
-125.404
0
LINE
8
BLACK
6
CONTINUOUS
10
170.863
20
-125.404
11
170.834
21
-125.421
0
LINE
8
BLACK
6
CONTINUOUS
10
170.834
20
-125.421
11
170.807
21
-125.44
0
LINE
8
BLACK
6
CONTINUOUS
10
170.807
20
-125.44
11
170.796
21
-125.443
0
LINE
8
BLACK
6
CONTINUOUS
10
170.796
20
-125.443
11
170.787
21
-125.449
0
LINE
8
BLACK
6
CONTINUOUS
10
170.787
20
-125.449
11
170.754
21
-125.454
0
LINE
8
BLACK
6
CONTINUOUS
10
170.754
20
-125.454
11
170.722
21
-125.463
0
LINE
8
BLACK
6
CONTINUOUS
10
170.722
20
-125.463
11
170.689
21
-125.46
0
LINE
8
BLACK
6
CONTINUOUS
10
170.689
20
-125.46
11
140.976
21
-125.46
0
LINE
8
BLACK
6
CONTINUOUS
10
140.976
20
-125.46
11
140.642
21
-125.653
0
LINE
8
BLACK
6
CONTINUOUS
10
140.642
20
-125.653
11
140.208
21
-125.729
0
LINE
8
BLACK
6
CONTINUOUS
10
140.208
20
-125.729
11
139.774
21
-125.653
0
LINE
8
BLACK
6
CONTINUOUS
10
139.774
20
-125.653
11
139.392
21
-125.432
0
LINE
8
BLACK
6
CONTINUOUS
10
139.392
20
-125.432
11
139.109
21
-125.095
0
LINE
8
BLACK
6
CONTINUOUS
10
139.109
20
-125.095
11
138.958
21
-124.68
0
LINE
8
BLACK
6
CONTINUOUS
10
138.958
20
-124.68
11
138.958
21
-124.24
0
LINE
8
BLACK
6
CONTINUOUS
10
138.958
20
-124.24
11
139.109
21
-123.825
0
LINE
8
BLACK
6
CONTINUOUS
10
139.109
20
-123.825
11
139.392
21
-123.488
0
LINE
8
BLACK
6
CONTINUOUS
10
139.392
20
-123.488
11
139.774
21
-123.267
0
LINE
8
BLACK
6
CONTINUOUS
10
139.774
20
-123.267
11
140.208
21
-123.191
0
LINE
8
BLACK
6
CONTINUOUS
10
140.208
20
-123.191
11
140.642
21
-123.267
0
LINE
8
BLACK
6
CONTINUOUS
10
140.642
20
-123.267
11
141.024
21
-123.488
0
LINE
8
BLACK
6
CONTINUOUS
10
141.024
20
-123.488
11
141.307
21
-123.825
0
LINE
8
BLACK
6
CONTINUOUS
10
141.307
20
-123.825
11
141.458
21
-124.24
0
LINE
8
BLACK
6
CONTINUOUS
10
141.458
20
-124.24
11
141.458
21
-124.68
0
LINE
8
BLACK
6
CONTINUOUS
10
141.458
20
-124.68
11
141.356
21
-124.96
0
LINE
8
BLACK
6
CONTINUOUS
10
141.356
20
-124.96
11
170.596
21
-124.96
0
LINE
8
BLACK
6
CONTINUOUS
10
170.596
20
-124.96
11
171.925
21
-123.631
0
LINE
8
BLACK
6
CONTINUOUS
10
171.925
20
-123.631
11
171.875
21
-123.571
0
LINE
8
BLACK
6
CONTINUOUS
10
171.875
20
-123.571
11
171.724
21
-123.156
0
LINE
8
BLACK
6
CONTINUOUS
10
171.724
20
-123.156
11
171.724
21
-122.716
0
LINE
8
BLACK
6
CONTINUOUS
10
171.724
20
-122.716
11
171.875
21
-122.301
0
LINE
8
BLACK
6
CONTINUOUS
10
171.875
20
-122.301
11
172.158
21
-121.964
0
LINE
8
BLACK
6
CONTINUOUS
10
172.158
20
-121.964
11
172.54
21
-121.743
0
LINE
8
BLACK
6
CONTINUOUS
10
172.54
20
-121.743
11
172.974
21
-121.667
0
LINE
8
BLACK
6
CONTINUOUS
10
172.974
20
-121.667
11
173.408
21
-121.743
0
LINE
8
BLACK
6
CONTINUOUS
10
179.111
20
-123.903
11
179.371
21
-124.053
0
LINE
8
BLACK
6
CONTINUOUS
10
179.371
20
-124.053
11
179.563
21
-124.282
0
LINE
8
BLACK
6
CONTINUOUS
10
179.563
20
-124.282
11
179.666
21
-124.564
0
LINE
8
BLACK
6
CONTINUOUS
10
179.666
20
-124.564
11
179.666
21
-124.864
0
LINE
8
BLACK
6
CONTINUOUS
10
179.666
20
-124.864
11
179.563
21
-125.146
0
LINE
8
BLACK
6
CONTINUOUS
10
179.563
20
-125.146
11
179.371
21
-125.375
0
LINE
8
BLACK
6
CONTINUOUS
10
179.371
20
-125.375
11
179.111
21
-125.525
0
LINE
8
BLACK
6
CONTINUOUS
10
179.111
20
-125.525
11
178.89
21
-125.564
0
LINE
8
BLACK
6
CONTINUOUS
10
178.89
20
-125.564
11
178.742
21
-125.564
0
LINE
8
BLACK
6
CONTINUOUS
10
178.742
20
-125.564
11
178.521
21
-125.525
0
LINE
8
BLACK
6
CONTINUOUS
10
178.521
20
-125.525
11
178.261
21
-125.375
0
LINE
8
BLACK
6
CONTINUOUS
10
178.261
20
-125.375
11
178.069
21
-125.146
0
LINE
8
BLACK
6
CONTINUOUS
10
178.069
20
-125.146
11
177.966
21
-124.864
0
LINE
8
BLACK
6
CONTINUOUS
10
177.966
20
-124.864
11
177.966
21
-124.564
0
LINE
8
BLACK
6
CONTINUOUS
10
177.966
20
-124.564
11
178.069
21
-124.282
0
LINE
8
BLACK
6
CONTINUOUS
10
178.069
20
-124.282
11
178.261
21
-124.053
0
LINE
8
BLACK
6
CONTINUOUS
10
178.261
20
-124.053
11
178.521
21
-123.903
0
LINE
8
BLACK
6
CONTINUOUS
10
178.521
20
-123.903
11
178.742
21
-123.864
0
LINE
8
BLACK
6
CONTINUOUS
10
178.742
20
-123.864
11
178.89
21
-123.864
0
LINE
8
BLACK
6
CONTINUOUS
10
178.89
20
-123.864
11
179.111
21
-123.903
0
LINE
8
BLACK
6
CONTINUOUS
10
159.963
20
-122.308
11
160.269
21
-122.484
0
LINE
8
BLACK
6
CONTINUOUS
10
160.269
20
-122.484
11
160.495
21
-122.754
0
LINE
8
BLACK
6
CONTINUOUS
10
160.495
20
-122.754
11
160.616
21
-123.086
0
LINE
8
BLACK
6
CONTINUOUS
10
160.616
20
-123.086
11
160.616
21
-123.438
0
LINE
8
BLACK
6
CONTINUOUS
10
160.616
20
-123.438
11
160.495
21
-123.77
0
LINE
8
BLACK
6
CONTINUOUS
10
160.495
20
-123.77
11
160.269
21
-124.04
0
LINE
8
BLACK
6
CONTINUOUS
10
160.269
20
-124.04
11
159.963
21
-124.216
0
LINE
8
BLACK
6
CONTINUOUS
10
159.963
20
-124.216
11
159.616
21
-124.277
0
LINE
8
BLACK
6
CONTINUOUS
10
159.616
20
-124.277
11
159.269
21
-124.216
0
LINE
8
BLACK
6
CONTINUOUS
10
159.269
20
-124.216
11
158.963
21
-124.04
0
LINE
8
BLACK
6
CONTINUOUS
10
158.963
20
-124.04
11
158.737
21
-123.77
0
LINE
8
BLACK
6
CONTINUOUS
10
158.737
20
-123.77
11
158.616
21
-123.438
0
LINE
8
BLACK
6
CONTINUOUS
10
158.616
20
-123.438
11
158.616
21
-123.086
0
LINE
8
BLACK
6
CONTINUOUS
10
158.616
20
-123.086
11
158.737
21
-122.754
0
LINE
8
BLACK
6
CONTINUOUS
10
158.737
20
-122.754
11
158.963
21
-122.484
0
LINE
8
BLACK
6
CONTINUOUS
10
158.963
20
-122.484
11
159.269
21
-122.308
0
LINE
8
BLACK
6
CONTINUOUS
10
159.269
20
-122.308
11
159.616
21
-122.247
0
LINE
8
BLACK
6
CONTINUOUS
10
159.616
20
-122.247
11
159.963
21
-122.308
0
LINE
8
BLACK
6
CONTINUOUS
10
166.463
20
-122.308
11
166.769
21
-122.484
0
LINE
8
BLACK
6
CONTINUOUS
10
166.769
20
-122.484
11
166.995
21
-122.754
0
LINE
8
BLACK
6
CONTINUOUS
10
166.995
20
-122.754
11
167.116
21
-123.086
0
LINE
8
BLACK
6
CONTINUOUS
10
167.116
20
-123.086
11
167.116
21
-123.438
0
LINE
8
BLACK
6
CONTINUOUS
10
167.116
20
-123.438
11
166.995
21
-123.77
0
LINE
8
BLACK
6
CONTINUOUS
10
166.995
20
-123.77
11
166.769
21
-124.04
0
LINE
8
BLACK
6
CONTINUOUS
10
166.769
20
-124.04
11
166.463
21
-124.216
0
LINE
8
BLACK
6
CONTINUOUS
10
166.463
20
-124.216
11
166.116
21
-124.277
0
LINE
8
BLACK
6
CONTINUOUS
10
166.116
20
-124.277
11
165.769
21
-124.216
0
LINE
8
BLACK
6
CONTINUOUS
10
165.769
20
-124.216
11
165.463
21
-124.04
0
LINE
8
BLACK
6
CONTINUOUS
10
165.463
20
-124.04
11
165.237
21
-123.77
0
LINE
8
BLACK
6
CONTINUOUS
10
165.237
20
-123.77
11
165.116
21
-123.438
0
LINE
8
BLACK
6
CONTINUOUS
10
165.116
20
-123.438
11
165.116
21
-123.086
0
LINE
8
BLACK
6
CONTINUOUS
10
165.116
20
-123.086
11
165.237
21
-122.754
0
LINE
8
BLACK
6
CONTINUOUS
10
165.237
20
-122.754
11
165.463
21
-122.484
0
LINE
8
BLACK
6
CONTINUOUS
10
165.463
20
-122.484
11
165.769
21
-122.308
0
LINE
8
BLACK
6
CONTINUOUS
10
165.769
20
-122.308
11
166.116
21
-122.247
0
LINE
8
BLACK
6
CONTINUOUS
10
166.116
20
-122.247
11
166.463
21
-122.308
0
LINE
8
BLACK
6
CONTINUOUS
10
179.111
20
-121.363
11
179.371
21
-121.513
0
LINE
8
BLACK
6
CONTINUOUS
10
179.371
20
-121.513
11
179.563
21
-121.742
0
LINE
8
BLACK
6
CONTINUOUS
10
179.563
20
-121.742
11
179.666
21
-122.024
0
LINE
8
BLACK
6
CONTINUOUS
10
179.666
20
-122.024
11
179.666
21
-122.324
0
LINE
8
BLACK
6
CONTINUOUS
10
179.666
20
-122.324
11
179.563
21
-122.606
0
LINE
8
BLACK
6
CONTINUOUS
10
179.563
20
-122.606
11
179.371
21
-122.835
0
LINE
8
BLACK
6
CONTINUOUS
10
179.371
20
-122.835
11
179.111
21
-122.985
0
LINE
8
BLACK
6
CONTINUOUS
10
179.111
20
-122.985
11
178.89
21
-123.024
0
LINE
8
BLACK
6
CONTINUOUS
10
178.89
20
-123.024
11
178.742
21
-123.024
0
LINE
8
BLACK
6
CONTINUOUS
10
178.742
20
-123.024
11
178.521
21
-122.985
0
LINE
8
BLACK
6
CONTINUOUS
10
178.521
20
-122.985
11
178.261
21
-122.835
0
LINE
8
BLACK
6
CONTINUOUS
10
178.261
20
-122.835
11
178.069
21
-122.606
0
LINE
8
BLACK
6
CONTINUOUS
10
178.069
20
-122.606
11
177.966
21
-122.324
0
LINE
8
BLACK
6
CONTINUOUS
10
177.966
20
-122.324
11
177.966
21
-122.024
0
LINE
8
BLACK
6
CONTINUOUS
10
177.966
20
-122.024
11
178.069
21
-121.742
0
LINE
8
BLACK
6
CONTINUOUS
10
178.069
20
-121.742
11
178.261
21
-121.513
0
LINE
8
BLACK
6
CONTINUOUS
10
178.261
20
-121.513
11
178.521
21
-121.363
0
LINE
8
BLACK
6
CONTINUOUS
10
178.521
20
-121.363
11
178.742
21
-121.324
0
LINE
8
BLACK
6
CONTINUOUS
10
178.742
20
-121.324
11
178.89
21
-121.324
0
LINE
8
BLACK
6
CONTINUOUS
10
178.89
20
-121.324
11
179.111
21
-121.363
0
LINE
8
BLACK
6
CONTINUOUS
10
125.211
20
-121.506
11
125.425
21
-121.629
0
LINE
8
BLACK
6
CONTINUOUS
10
125.425
20
-121.629
11
125.584
21
-121.819
0
LINE
8
BLACK
6
CONTINUOUS
10
125.584
20
-121.819
11
125.668
21
-122.051
0
LINE
8
BLACK
6
CONTINUOUS
10
125.668
20
-122.051
11
125.668
21
-122.297
0
LINE
8
BLACK
6
CONTINUOUS
10
125.668
20
-122.297
11
125.584
21
-122.529
0
LINE
8
BLACK
6
CONTINUOUS
10
125.584
20
-122.529
11
125.425
21
-122.719
0
LINE
8
BLACK
6
CONTINUOUS
10
125.425
20
-122.719
11
125.211
21
-122.842
0
LINE
8
BLACK
6
CONTINUOUS
10
125.211
20
-122.842
11
124.968
21
-122.885
0
LINE
8
BLACK
6
CONTINUOUS
10
124.968
20
-122.885
11
124.725
21
-122.842
0
LINE
8
BLACK
6
CONTINUOUS
10
124.725
20
-122.842
11
124.511
21
-122.719
0
LINE
8
BLACK
6
CONTINUOUS
10
124.511
20
-122.719
11
124.352
21
-122.529
0
LINE
8
BLACK
6
CONTINUOUS
10
124.352
20
-122.529
11
124.268
21
-122.297
0
LINE
8
BLACK
6
CONTINUOUS
10
124.268
20
-122.297
11
124.268
21
-122.051
0
LINE
8
BLACK
6
CONTINUOUS
10
124.268
20
-122.051
11
124.352
21
-121.819
0
LINE
8
BLACK
6
CONTINUOUS
10
124.352
20
-121.819
11
124.511
21
-121.629
0
LINE
8
BLACK
6
CONTINUOUS
10
124.511
20
-121.629
11
124.725
21
-121.506
0
LINE
8
BLACK
6
CONTINUOUS
10
124.725
20
-121.506
11
124.968
21
-121.463
0
LINE
8
BLACK
6
CONTINUOUS
10
124.968
20
-121.463
11
125.211
21
-121.506
0
LINE
8
BLACK
6
CONTINUOUS
10
143.852
20
-121.754
11
142.152
21
-121.754
0
LINE
8
BLACK
6
CONTINUOUS
10
142.152
20
-121.754
11
142.152
21
-120.054
0
LINE
8
BLACK
6
CONTINUOUS
10
142.152
20
-120.054
11
143.852
21
-120.054
0
LINE
8
BLACK
6
CONTINUOUS
10
143.852
20
-120.054
11
143.852
21
-121.754
0
LINE
8
BLACK
6
CONTINUOUS
10
145.837
20
-120.093
11
146.097
21
-120.243
0
LINE
8
BLACK
6
CONTINUOUS
10
146.097
20
-120.243
11
146.289
21
-120.472
0
LINE
8
BLACK
6
CONTINUOUS
10
146.289
20
-120.472
11
146.392
21
-120.754
0
LINE
8
BLACK
6
CONTINUOUS
10
146.392
20
-120.754
11
146.392
21
-121.054
0
LINE
8
BLACK
6
CONTINUOUS
10
146.392
20
-121.054
11
146.289
21
-121.336
0
LINE
8
BLACK
6
CONTINUOUS
10
146.289
20
-121.336
11
146.097
21
-121.565
0
LINE
8
BLACK
6
CONTINUOUS
10
146.097
20
-121.565
11
145.837
21
-121.715
0
LINE
8
BLACK
6
CONTINUOUS
10
145.837
20
-121.715
11
145.616
21
-121.754
0
LINE
8
BLACK
6
CONTINUOUS
10
145.616
20
-121.754
11
145.468
21
-121.754
0
LINE
8
BLACK
6
CONTINUOUS
10
145.468
20
-121.754
11
145.247
21
-121.715
0
LINE
8
BLACK
6
CONTINUOUS
10
145.247
20
-121.715
11
144.987
21
-121.565
0
LINE
8
BLACK
6
CONTINUOUS
10
144.987
20
-121.565
11
144.795
21
-121.336
0
LINE
8
BLACK
6
CONTINUOUS
10
144.795
20
-121.336
11
144.692
21
-121.054
0
LINE
8
BLACK
6
CONTINUOUS
10
144.692
20
-121.054
11
144.692
21
-120.754
0
LINE
8
BLACK
6
CONTINUOUS
10
144.692
20
-120.754
11
144.795
21
-120.472
0
LINE
8
BLACK
6
CONTINUOUS
10
144.795
20
-120.472
11
144.987
21
-120.243
0
LINE
8
BLACK
6
CONTINUOUS
10
144.987
20
-120.243
11
145.247
21
-120.093
0
LINE
8
BLACK
6
CONTINUOUS
10
145.247
20
-120.093
11
145.468
21
-120.054
0
LINE
8
BLACK
6
CONTINUOUS
10
145.468
20
-120.054
11
145.616
21
-120.054
0
LINE
8
BLACK
6
CONTINUOUS
10
145.616
20
-120.054
11
145.837
21
-120.093
0
LINE
8
BLACK
6
CONTINUOUS
10
148.377
20
-120.093
11
148.637
21
-120.243
0
LINE
8
BLACK
6
CONTINUOUS
10
148.637
20
-120.243
11
148.829
21
-120.472
0
LINE
8
BLACK
6
CONTINUOUS
10
148.829
20
-120.472
11
148.932
21
-120.754
0
LINE
8
BLACK
6
CONTINUOUS
10
148.932
20
-120.754
11
148.932
21
-121.054
0
LINE
8
BLACK
6
CONTINUOUS
10
148.932
20
-121.054
11
148.829
21
-121.336
0
LINE
8
BLACK
6
CONTINUOUS
10
148.829
20
-121.336
11
148.637
21
-121.565
0
LINE
8
BLACK
6
CONTINUOUS
10
148.637
20
-121.565
11
148.377
21
-121.715
0
LINE
8
BLACK
6
CONTINUOUS
10
148.377
20
-121.715
11
148.156
21
-121.754
0
LINE
8
BLACK
6
CONTINUOUS
10
148.156
20
-121.754
11
148.008
21
-121.754
0
LINE
8
BLACK
6
CONTINUOUS
10
148.008
20
-121.754
11
147.787
21
-121.715
0
LINE
8
BLACK
6
CONTINUOUS
10
147.787
20
-121.715
11
147.527
21
-121.565
0
LINE
8
BLACK
6
CONTINUOUS
10
147.527
20
-121.565
11
147.335
21
-121.336
0
LINE
8
BLACK
6
CONTINUOUS
10
147.335
20
-121.336
11
147.232
21
-121.054
0
LINE
8
BLACK
6
CONTINUOUS
10
147.232
20
-121.054
11
147.232
21
-120.754
0
LINE
8
BLACK
6
CONTINUOUS
10
147.232
20
-120.754
11
147.335
21
-120.472
0
LINE
8
BLACK
6
CONTINUOUS
10
147.335
20
-120.472
11
147.527
21
-120.243
0
LINE
8
BLACK
6
CONTINUOUS
10
147.527
20
-120.243
11
147.787
21
-120.093
0
LINE
8
BLACK
6
CONTINUOUS
10
147.787
20
-120.093
11
148.008
21
-120.054
0
LINE
8
BLACK
6
CONTINUOUS
10
148.008
20
-120.054
11
148.156
21
-120.054
0
LINE
8
BLACK
6
CONTINUOUS
10
148.156
20
-120.054
11
148.377
21
-120.093
0
LINE
8
BLACK
6
CONTINUOUS
10
150.917
20
-120.093
11
151.177
21
-120.243
0
LINE
8
BLACK
6
CONTINUOUS
10
151.177
20
-120.243
11
151.369
21
-120.472
0
LINE
8
BLACK
6
CONTINUOUS
10
151.369
20
-120.472
11
151.472
21
-120.754
0
LINE
8
BLACK
6
CONTINUOUS
10
151.472
20
-120.754
11
151.472
21
-121.054
0
LINE
8
BLACK
6
CONTINUOUS
10
151.472
20
-121.054
11
151.369
21
-121.336
0
LINE
8
BLACK
6
CONTINUOUS
10
151.369
20
-121.336
11
151.177
21
-121.565
0
LINE
8
BLACK
6
CONTINUOUS
10
151.177
20
-121.565
11
150.917
21
-121.715
0
LINE
8
BLACK
6
CONTINUOUS
10
150.917
20
-121.715
11
150.696
21
-121.754
0
LINE
8
BLACK
6
CONTINUOUS
10
150.696
20
-121.754
11
150.548
21
-121.754
0
LINE
8
BLACK
6
CONTINUOUS
10
150.548
20
-121.754
11
150.327
21
-121.715
0
LINE
8
BLACK
6
CONTINUOUS
10
150.327
20
-121.715
11
150.067
21
-121.565
0
LINE
8
BLACK
6
CONTINUOUS
10
150.067
20
-121.565
11
149.875
21
-121.336
0
LINE
8
BLACK
6
CONTINUOUS
10
149.875
20
-121.336
11
149.772
21
-121.054
0
LINE
8
BLACK
6
CONTINUOUS
10
149.772
20
-121.054
11
149.772
21
-120.754
0
LINE
8
BLACK
6
CONTINUOUS
10
149.772
20
-120.754
11
149.875
21
-120.472
0
LINE
8
BLACK
6
CONTINUOUS
10
149.875
20
-120.472
11
150.067
21
-120.243
0
LINE
8
BLACK
6
CONTINUOUS
10
150.067
20
-120.243
11
150.327
21
-120.093
0
LINE
8
BLACK
6
CONTINUOUS
10
150.327
20
-120.093
11
150.548
21
-120.054
0
LINE
8
BLACK
6
CONTINUOUS
10
150.548
20
-120.054
11
150.696
21
-120.054
0
LINE
8
BLACK
6
CONTINUOUS
10
150.696
20
-120.054
11
150.917
21
-120.093
0
LINE
8
BLACK
6
CONTINUOUS
10
135.879
20
-120.236
11
136.093
21
-120.359
0
LINE
8
BLACK
6
CONTINUOUS
10
136.093
20
-120.359
11
136.252
21
-120.549
0
LINE
8
BLACK
6
CONTINUOUS
10
136.252
20
-120.549
11
136.336
21
-120.781
0
LINE
8
BLACK
6
CONTINUOUS
10
136.336
20
-120.781
11
136.336
21
-121.027
0
LINE
8
BLACK
6
CONTINUOUS
10
136.336
20
-121.027
11
136.252
21
-121.259
0
LINE
8
BLACK
6
CONTINUOUS
10
136.252
20
-121.259
11
136.093
21
-121.449
0
LINE
8
BLACK
6
CONTINUOUS
10
136.093
20
-121.449
11
135.879
21
-121.572
0
LINE
8
BLACK
6
CONTINUOUS
10
135.879
20
-121.572
11
135.636
21
-121.615
0
LINE
8
BLACK
6
CONTINUOUS
10
135.636
20
-121.615
11
135.393
21
-121.572
0
LINE
8
BLACK
6
CONTINUOUS
10
135.393
20
-121.572
11
135.179
21
-121.449
0
LINE
8
BLACK
6
CONTINUOUS
10
135.179
20
-121.449
11
135.02
21
-121.259
0
LINE
8
BLACK
6
CONTINUOUS
10
135.02
20
-121.259
11
134.936
21
-121.027
0
LINE
8
BLACK
6
CONTINUOUS
10
134.936
20
-121.027
11
134.936
21
-120.781
0
LINE
8
BLACK
6
CONTINUOUS
10
134.936
20
-120.781
11
135.02
21
-120.549
0
LINE
8
BLACK
6
CONTINUOUS
10
135.02
20
-120.549
11
135.179
21
-120.359
0
LINE
8
BLACK
6
CONTINUOUS
10
135.179
20
-120.359
11
135.393
21
-120.236
0
LINE
8
BLACK
6
CONTINUOUS
10
135.393
20
-120.236
11
135.636
21
-120.193
0
LINE
8
BLACK
6
CONTINUOUS
10
135.636
20
-120.193
11
135.879
21
-120.236
0
LINE
8
BLACK
6
CONTINUOUS
10
132.323
20
-120.236
11
132.537
21
-120.359
0
LINE
8
BLACK
6
CONTINUOUS
10
132.537
20
-120.359
11
132.696
21
-120.549
0
LINE
8
BLACK
6
CONTINUOUS
10
132.696
20
-120.549
11
132.78
21
-120.781
0
LINE
8
BLACK
6
CONTINUOUS
10
132.78
20
-120.781
11
132.78
21
-121.027
0
LINE
8
BLACK
6
CONTINUOUS
10
132.78
20
-121.027
11
132.696
21
-121.259
0
LINE
8
BLACK
6
CONTINUOUS
10
132.696
20
-121.259
11
132.537
21
-121.449
0
LINE
8
BLACK
6
CONTINUOUS
10
132.537
20
-121.449
11
132.323
21
-121.572
0
LINE
8
BLACK
6
CONTINUOUS
10
132.323
20
-121.572
11
132.08
21
-121.615
0
LINE
8
BLACK
6
CONTINUOUS
10
132.08
20
-121.615
11
131.837
21
-121.572
0
LINE
8
BLACK
6
CONTINUOUS
10
131.837
20
-121.572
11
131.623
21
-121.449
0
LINE
8
BLACK
6
CONTINUOUS
10
131.623
20
-121.449
11
131.464
21
-121.259
0
LINE
8
BLACK
6
CONTINUOUS
10
131.464
20
-121.259
11
131.38
21
-121.027
0
LINE
8
BLACK
6
CONTINUOUS
10
131.38
20
-121.027
11
131.38
21
-120.781
0
LINE
8
BLACK
6
CONTINUOUS
10
131.38
20
-120.781
11
131.464
21
-120.549
0
LINE
8
BLACK
6
CONTINUOUS
10
131.464
20
-120.549
11
131.623
21
-120.359
0
LINE
8
BLACK
6
CONTINUOUS
10
131.623
20
-120.359
11
131.837
21
-120.236
0
LINE
8
BLACK
6
CONTINUOUS
10
131.837
20
-120.236
11
132.08
21
-120.193
0
LINE
8
BLACK
6
CONTINUOUS
10
132.08
20
-120.193
11
132.323
21
-120.236
0
LINE
8
BLACK
6
CONTINUOUS
10
128.767
20
-120.236
11
128.981
21
-120.359
0
LINE
8
BLACK
6
CONTINUOUS
10
128.981
20
-120.359
11
129.14
21
-120.549
0
LINE
8
BLACK
6
CONTINUOUS
10
129.14
20
-120.549
11
129.224
21
-120.781
0
LINE
8
BLACK
6
CONTINUOUS
10
129.224
20
-120.781
11
129.224
21
-121.027
0
LINE
8
BLACK
6
CONTINUOUS
10
129.224
20
-121.027
11
129.14
21
-121.259
0
LINE
8
BLACK
6
CONTINUOUS
10
129.14
20
-121.259
11
128.981
21
-121.449
0
LINE
8
BLACK
6
CONTINUOUS
10
128.981
20
-121.449
11
128.767
21
-121.572
0
LINE
8
BLACK
6
CONTINUOUS
10
128.767
20
-121.572
11
128.524
21
-121.615
0
LINE
8
BLACK
6
CONTINUOUS
10
128.524
20
-121.615
11
128.281
21
-121.572
0
LINE
8
BLACK
6
CONTINUOUS
10
128.281
20
-121.572
11
128.067
21
-121.449
0
LINE
8
BLACK
6
CONTINUOUS
10
128.067
20
-121.449
11
127.908
21
-121.259
0
LINE
8
BLACK
6
CONTINUOUS
10
127.908
20
-121.259
11
127.824
21
-121.027
0
LINE
8
BLACK
6
CONTINUOUS
10
127.824
20
-121.027
11
127.824
21
-120.781
0
LINE
8
BLACK
6
CONTINUOUS
10
127.824
20
-120.781
11
127.908
21
-120.549
0
LINE
8
BLACK
6
CONTINUOUS
10
127.908
20
-120.549
11
128.067
21
-120.359
0
LINE
8
BLACK
6
CONTINUOUS
10
128.067
20
-120.359
11
128.281
21
-120.236
0
LINE
8
BLACK
6
CONTINUOUS
10
128.281
20
-120.236
11
128.524
21
-120.193
0
LINE
8
BLACK
6
CONTINUOUS
10
128.524
20
-120.193
11
128.767
21
-120.236
0
LINE
8
BLACK
6
CONTINUOUS
10
179.111
20
-118.823
11
179.371
21
-118.973
0
LINE
8
BLACK
6
CONTINUOUS
10
179.371
20
-118.973
11
179.563
21
-119.202
0
LINE
8
BLACK
6
CONTINUOUS
10
179.563
20
-119.202
11
179.666
21
-119.484
0
LINE
8
BLACK
6
CONTINUOUS
10
179.666
20
-119.484
11
179.666
21
-119.784
0
LINE
8
BLACK
6
CONTINUOUS
10
179.666
20
-119.784
11
179.563
21
-120.066
0
LINE
8
BLACK
6
CONTINUOUS
10
179.563
20
-120.066
11
179.371
21
-120.295
0
LINE
8
BLACK
6
CONTINUOUS
10
179.371
20
-120.295
11
179.111
21
-120.445
0
LINE
8
BLACK
6
CONTINUOUS
10
179.111
20
-120.445
11
178.89
21
-120.484
0
LINE
8
BLACK
6
CONTINUOUS
10
178.89
20
-120.484
11
178.742
21
-120.484
0
LINE
8
BLACK
6
CONTINUOUS
10
178.742
20
-120.484
11
178.521
21
-120.445
0
LINE
8
BLACK
6
CONTINUOUS
10
178.521
20
-120.445
11
178.261
21
-120.295
0
LINE
8
BLACK
6
CONTINUOUS
10
178.261
20
-120.295
11
178.069
21
-120.066
0
LINE
8
BLACK
6
CONTINUOUS
10
178.069
20
-120.066
11
177.966
21
-119.784
0
LINE
8
BLACK
6
CONTINUOUS
10
177.966
20
-119.784
11
177.966
21
-119.484
0
LINE
8
BLACK
6
CONTINUOUS
10
177.966
20
-119.484
11
178.069
21
-119.202
0
LINE
8
BLACK
6
CONTINUOUS
10
178.069
20
-119.202
11
178.261
21
-118.973
0
LINE
8
BLACK
6
CONTINUOUS
10
178.261
20
-118.973
11
178.521
21
-118.823
0
LINE
8
BLACK
6
CONTINUOUS
10
178.521
20
-118.823
11
178.742
21
-118.784
0
LINE
8
BLACK
6
CONTINUOUS
10
178.742
20
-118.784
11
178.89
21
-118.784
0
LINE
8
BLACK
6
CONTINUOUS
10
178.89
20
-118.784
11
179.111
21
-118.823
0
LINE
8
BLACK
6
CONTINUOUS
10
125.211
20
-118.966
11
125.425
21
-119.089
0
LINE
8
BLACK
6
CONTINUOUS
10
125.425
20
-119.089
11
125.584
21
-119.279
0
LINE
8
BLACK
6
CONTINUOUS
10
125.584
20
-119.279
11
125.668
21
-119.511
0
LINE
8
BLACK
6
CONTINUOUS
10
125.668
20
-119.511
11
125.668
21
-119.757
0
LINE
8
BLACK
6
CONTINUOUS
10
125.668
20
-119.757
11
125.584
21
-119.989
0
LINE
8
BLACK
6
CONTINUOUS
10
125.584
20
-119.989
11
125.425
21
-120.179
0
LINE
8
BLACK
6
CONTINUOUS
10
125.425
20
-120.179
11
125.211
21
-120.302
0
LINE
8
BLACK
6
CONTINUOUS
10
125.211
20
-120.302
11
125.029
21
-120.334
0
LINE
8
BLACK
6
CONTINUOUS
10
125.029
20
-120.334
11
124.907
21
-120.334
0
LINE
8
BLACK
6
CONTINUOUS
10
124.907
20
-120.334
11
124.725
21
-120.302
0
LINE
8
BLACK
6
CONTINUOUS
10
124.725
20
-120.302
11
124.511
21
-120.179
0
LINE
8
BLACK
6
CONTINUOUS
10
124.511
20
-120.179
11
124.352
21
-119.989
0
LINE
8
BLACK
6
CONTINUOUS
10
124.352
20
-119.989
11
124.268
21
-119.757
0
LINE
8
BLACK
6
CONTINUOUS
10
124.268
20
-119.757
11
124.268
21
-119.511
0
LINE
8
BLACK
6
CONTINUOUS
10
124.268
20
-119.511
11
124.352
21
-119.279
0
LINE
8
BLACK
6
CONTINUOUS
10
124.352
20
-119.279
11
124.511
21
-119.089
0
LINE
8
BLACK
6
CONTINUOUS
10
124.511
20
-119.089
11
124.725
21
-118.966
0
LINE
8
BLACK
6
CONTINUOUS
10
124.725
20
-118.966
11
124.907
21
-118.934
0
LINE
8
BLACK
6
CONTINUOUS
10
124.907
20
-118.934
11
125.029
21
-118.934
0
LINE
8
BLACK
6
CONTINUOUS
10
125.029
20
-118.934
11
125.211
21
-118.966
0
LINE
8
BLACK
6
CONTINUOUS
10
143.297
20
-117.553
11
143.557
21
-117.703
0
LINE
8
BLACK
6
CONTINUOUS
10
143.557
20
-117.703
11
143.749
21
-117.932
0
LINE
8
BLACK
6
CONTINUOUS
10
143.749
20
-117.932
11
143.852
21
-118.214
0
LINE
8
BLACK
6
CONTINUOUS
10
143.852
20
-118.214
11
143.852
21
-118.514
0
LINE
8
BLACK
6
CONTINUOUS
10
143.852
20
-118.514
11
143.749
21
-118.796
0
LINE
8
BLACK
6
CONTINUOUS
10
143.749
20
-118.796
11
143.557
21
-119.025
0
LINE
8
BLACK
6
CONTINUOUS
10
143.557
20
-119.025
11
143.297
21
-119.175
0
LINE
8
BLACK
6
CONTINUOUS
10
143.297
20
-119.175
11
143.076
21
-119.214
0
LINE
8
BLACK
6
CONTINUOUS
10
143.076
20
-119.214
11
142.928
21
-119.214
0
LINE
8
BLACK
6
CONTINUOUS
10
142.928
20
-119.214
11
142.707
21
-119.175
0
LINE
8
BLACK
6
CONTINUOUS
10
142.707
20
-119.175
11
142.447
21
-119.025
0
LINE
8
BLACK
6
CONTINUOUS
10
142.447
20
-119.025
11
142.255
21
-118.796
0
LINE
8
BLACK
6
CONTINUOUS
10
142.255
20
-118.796
11
142.152
21
-118.514
0
LINE
8
BLACK
6
CONTINUOUS
10
142.152
20
-118.514
11
142.152
21
-118.214
0
LINE
8
BLACK
6
CONTINUOUS
10
142.152
20
-118.214
11
142.255
21
-117.932
0
LINE
8
BLACK
6
CONTINUOUS
10
142.255
20
-117.932
11
142.447
21
-117.703
0
LINE
8
BLACK
6
CONTINUOUS
10
142.447
20
-117.703
11
142.707
21
-117.553
0
LINE
8
BLACK
6
CONTINUOUS
10
142.707
20
-117.553
11
142.928
21
-117.514
0
LINE
8
BLACK
6
CONTINUOUS
10
142.928
20
-117.514
11
143.076
21
-117.514
0
LINE
8
BLACK
6
CONTINUOUS
10
143.076
20
-117.514
11
143.297
21
-117.553
0
LINE
8
BLACK
6
CONTINUOUS
10
145.837
20
-117.553
11
146.097
21
-117.703
0
LINE
8
BLACK
6
CONTINUOUS
10
146.097
20
-117.703
11
146.289
21
-117.932
0
LINE
8
BLACK
6
CONTINUOUS
10
146.289
20
-117.932
11
146.392
21
-118.214
0
LINE
8
BLACK
6
CONTINUOUS
10
146.392
20
-118.214
11
146.392
21
-118.514
0
LINE
8
BLACK
6
CONTINUOUS
10
146.392
20
-118.514
11
146.289
21
-118.796
0
LINE
8
BLACK
6
CONTINUOUS
10
146.289
20
-118.796
11
146.097
21
-119.025
0
LINE
8
BLACK
6
CONTINUOUS
10
146.097
20
-119.025
11
145.837
21
-119.175
0
LINE
8
BLACK
6
CONTINUOUS
10
145.837
20
-119.175
11
145.616
21
-119.214
0
LINE
8
BLACK
6
CONTINUOUS
10
145.616
20
-119.214
11
145.468
21
-119.214
0
LINE
8
BLACK
6
CONTINUOUS
10
145.468
20
-119.214
11
145.247
21
-119.175
0
LINE
8
BLACK
6
CONTINUOUS
10
145.247
20
-119.175
11
144.987
21
-119.025
0
LINE
8
BLACK
6
CONTINUOUS
10
144.987
20
-119.025
11
144.795
21
-118.796
0
LINE
8
BLACK
6
CONTINUOUS
10
144.795
20
-118.796
11
144.692
21
-118.514
0
LINE
8
BLACK
6
CONTINUOUS
10
144.692
20
-118.514
11
144.692
21
-118.214
0
LINE
8
BLACK
6
CONTINUOUS
10
144.692
20
-118.214
11
144.795
21
-117.932
0
LINE
8
BLACK
6
CONTINUOUS
10
144.795
20
-117.932
11
144.987
21
-117.703
0
LINE
8
BLACK
6
CONTINUOUS
10
144.987
20
-117.703
11
145.247
21
-117.553
0
LINE
8
BLACK
6
CONTINUOUS
10
145.247
20
-117.553
11
145.468
21
-117.514
0
LINE
8
BLACK
6
CONTINUOUS
10
145.468
20
-117.514
11
145.616
21
-117.514
0
LINE
8
BLACK
6
CONTINUOUS
10
145.616
20
-117.514
11
145.837
21
-117.553
0
LINE
8
BLACK
6
CONTINUOUS
10
150.917
20
-117.553
11
151.177
21
-117.703
0
LINE
8
BLACK
6
CONTINUOUS
10
151.177
20
-117.703
11
151.369
21
-117.932
0
LINE
8
BLACK
6
CONTINUOUS
10
151.369
20
-117.932
11
151.472
21
-118.214
0
LINE
8
BLACK
6
CONTINUOUS
10
151.472
20
-118.214
11
151.472
21
-118.514
0
LINE
8
BLACK
6
CONTINUOUS
10
151.472
20
-118.514
11
151.369
21
-118.796
0
LINE
8
BLACK
6
CONTINUOUS
10
151.369
20
-118.796
11
151.177
21
-119.025
0
LINE
8
BLACK
6
CONTINUOUS
10
151.177
20
-119.025
11
150.917
21
-119.175
0
LINE
8
BLACK
6
CONTINUOUS
10
150.917
20
-119.175
11
150.696
21
-119.214
0
LINE
8
BLACK
6
CONTINUOUS
10
150.696
20
-119.214
11
150.548
21
-119.214
0
LINE
8
BLACK
6
CONTINUOUS
10
150.548
20
-119.214
11
150.327
21
-119.175
0
LINE
8
BLACK
6
CONTINUOUS
10
150.327
20
-119.175
11
150.067
21
-119.025
0
LINE
8
BLACK
6
CONTINUOUS
10
150.067
20
-119.025
11
149.875
21
-118.796
0
LINE
8
BLACK
6
CONTINUOUS
10
149.875
20
-118.796
11
149.772
21
-118.514
0
LINE
8
BLACK
6
CONTINUOUS
10
149.772
20
-118.514
11
149.772
21
-118.214
0
LINE
8
BLACK
6
CONTINUOUS
10
149.772
20
-118.214
11
149.875
21
-117.932
0
LINE
8
BLACK
6
CONTINUOUS
10
149.875
20
-117.932
11
150.067
21
-117.703
0
LINE
8
BLACK
6
CONTINUOUS
10
150.067
20
-117.703
11
150.327
21
-117.553
0
LINE
8
BLACK
6
CONTINUOUS
10
150.327
20
-117.553
11
150.548
21
-117.514
0
LINE
8
BLACK
6
CONTINUOUS
10
150.548
20
-117.514
11
150.696
21
-117.514
0
LINE
8
BLACK
6
CONTINUOUS
10
150.696
20
-117.514
11
150.917
21
-117.553
0
LINE
8
BLACK
6
CONTINUOUS
10
148.377
20
-117.553
11
148.637
21
-117.703
0
LINE
8
BLACK
6
CONTINUOUS
10
148.637
20
-117.703
11
148.829
21
-117.932
0
LINE
8
BLACK
6
CONTINUOUS
10
148.829
20
-117.932
11
148.932
21
-118.214
0
LINE
8
BLACK
6
CONTINUOUS
10
148.932
20
-118.214
11
148.932
21
-118.514
0
LINE
8
BLACK
6
CONTINUOUS
10
148.932
20
-118.514
11
148.829
21
-118.796
0
LINE
8
BLACK
6
CONTINUOUS
10
148.829
20
-118.796
11
148.637
21
-119.025
0
LINE
8
BLACK
6
CONTINUOUS
10
148.637
20
-119.025
11
148.377
21
-119.175
0
LINE
8
BLACK
6
CONTINUOUS
10
148.377
20
-119.175
11
148.156
21
-119.214
0
LINE
8
BLACK
6
CONTINUOUS
10
148.156
20
-119.214
11
148.008
21
-119.214
0
LINE
8
BLACK
6
CONTINUOUS
10
148.008
20
-119.214
11
147.787
21
-119.175
0
LINE
8
BLACK
6
CONTINUOUS
10
147.787
20
-119.175
11
147.527
21
-119.025
0
LINE
8
BLACK
6
CONTINUOUS
10
147.527
20
-119.025
11
147.335
21
-118.796
0
LINE
8
BLACK
6
CONTINUOUS
10
147.335
20
-118.796
11
147.232
21
-118.514
0
LINE
8
BLACK
6
CONTINUOUS
10
147.232
20
-118.514
11
147.232
21
-118.214
0
LINE
8
BLACK
6
CONTINUOUS
10
147.232
20
-118.214
11
147.335
21
-117.932
0
LINE
8
BLACK
6
CONTINUOUS
10
147.335
20
-117.932
11
147.527
21
-117.703
0
LINE
8
BLACK
6
CONTINUOUS
10
147.527
20
-117.703
11
147.787
21
-117.553
0
LINE
8
BLACK
6
CONTINUOUS
10
147.787
20
-117.553
11
148.008
21
-117.514
0
LINE
8
BLACK
6
CONTINUOUS
10
148.008
20
-117.514
11
148.156
21
-117.514
0
LINE
8
BLACK
6
CONTINUOUS
10
148.156
20
-117.514
11
148.377
21
-117.553
0
LINE
8
BLACK
6
CONTINUOUS
10
179.111
20
-116.283
11
179.371
21
-116.433
0
LINE
8
BLACK
6
CONTINUOUS
10
179.371
20
-116.433
11
179.563
21
-116.662
0
LINE
8
BLACK
6
CONTINUOUS
10
179.563
20
-116.662
11
179.666
21
-116.944
0
LINE
8
BLACK
6
CONTINUOUS
10
179.666
20
-116.944
11
179.666
21
-117.244
0
LINE
8
BLACK
6
CONTINUOUS
10
179.666
20
-117.244
11
179.563
21
-117.526
0
LINE
8
BLACK
6
CONTINUOUS
10
179.563
20
-117.526
11
179.371
21
-117.755
0
LINE
8
BLACK
6
CONTINUOUS
10
179.371
20
-117.755
11
179.111
21
-117.905
0
LINE
8
BLACK
6
CONTINUOUS
10
179.111
20
-117.905
11
178.89
21
-117.944
0
LINE
8
BLACK
6
CONTINUOUS
10
178.89
20
-117.944
11
178.742
21
-117.944
0
LINE
8
BLACK
6
CONTINUOUS
10
178.742
20
-117.944
11
178.521
21
-117.905
0
LINE
8
BLACK
6
CONTINUOUS
10
178.521
20
-117.905
11
178.261
21
-117.755
0
LINE
8
BLACK
6
CONTINUOUS
10
178.261
20
-117.755
11
178.069
21
-117.526
0
LINE
8
BLACK
6
CONTINUOUS
10
178.069
20
-117.526
11
177.966
21
-117.244
0
LINE
8
BLACK
6
CONTINUOUS
10
177.966
20
-117.244
11
177.966
21
-116.944
0
LINE
8
BLACK
6
CONTINUOUS
10
177.966
20
-116.944
11
178.069
21
-116.662
0
LINE
8
BLACK
6
CONTINUOUS
10
178.069
20
-116.662
11
178.261
21
-116.433
0
LINE
8
BLACK
6
CONTINUOUS
10
178.261
20
-116.433
11
178.521
21
-116.283
0
LINE
8
BLACK
6
CONTINUOUS
10
178.521
20
-116.283
11
178.742
21
-116.244
0
LINE
8
BLACK
6
CONTINUOUS
10
178.742
20
-116.244
11
178.89
21
-116.244
0
LINE
8
BLACK
6
CONTINUOUS
10
178.89
20
-116.244
11
179.111
21
-116.283
0
LINE
8
BLACK
6
CONTINUOUS
10
128.767
20
-115.156
11
128.981
21
-115.279
0
LINE
8
BLACK
6
CONTINUOUS
10
128.981
20
-115.279
11
129.14
21
-115.469
0
LINE
8
BLACK
6
CONTINUOUS
10
129.14
20
-115.469
11
129.224
21
-115.701
0
LINE
8
BLACK
6
CONTINUOUS
10
129.224
20
-115.701
11
129.224
21
-115.947
0
LINE
8
BLACK
6
CONTINUOUS
10
129.224
20
-115.947
11
129.14
21
-116.179
0
LINE
8
BLACK
6
CONTINUOUS
10
129.14
20
-116.179
11
128.981
21
-116.369
0
LINE
8
BLACK
6
CONTINUOUS
10
128.981
20
-116.369
11
128.767
21
-116.492
0
LINE
8
BLACK
6
CONTINUOUS
10
128.767
20
-116.492
11
128.585
21
-116.524
0
LINE
8
BLACK
6
CONTINUOUS
10
128.585
20
-116.524
11
128.463
21
-116.524
0
LINE
8
BLACK
6
CONTINUOUS
10
128.463
20
-116.524
11
128.281
21
-116.492
0
LINE
8
BLACK
6
CONTINUOUS
10
128.281
20
-116.492
11
128.067
21
-116.369
0
LINE
8
BLACK
6
CONTINUOUS
10
128.067
20
-116.369
11
127.908
21
-116.179
0
LINE
8
BLACK
6
CONTINUOUS
10
127.908
20
-116.179
11
127.824
21
-115.947
0
LINE
8
BLACK
6
CONTINUOUS
10
127.824
20
-115.947
11
127.824
21
-115.701
0
LINE
8
BLACK
6
CONTINUOUS
10
127.824
20
-115.701
11
127.908
21
-115.469
0
LINE
8
BLACK
6
CONTINUOUS
10
127.908
20
-115.469
11
128.067
21
-115.279
0
LINE
8
BLACK
6
CONTINUOUS
10
128.067
20
-115.279
11
128.281
21
-115.156
0
LINE
8
BLACK
6
CONTINUOUS
10
128.281
20
-115.156
11
128.463
21
-115.124
0
LINE
8
BLACK
6
CONTINUOUS
10
128.463
20
-115.124
11
128.585
21
-115.124
0
LINE
8
BLACK
6
CONTINUOUS
10
128.585
20
-115.124
11
128.767
21
-115.156
0
LINE
8
BLACK
6
CONTINUOUS
10
132.323
20
-115.156
11
132.537
21
-115.279
0
LINE
8
BLACK
6
CONTINUOUS
10
132.537
20
-115.279
11
132.696
21
-115.469
0
LINE
8
BLACK
6
CONTINUOUS
10
132.696
20
-115.469
11
132.78
21
-115.701
0
LINE
8
BLACK
6
CONTINUOUS
10
132.78
20
-115.701
11
132.78
21
-115.947
0
LINE
8
BLACK
6
CONTINUOUS
10
132.78
20
-115.947
11
132.696
21
-116.179
0
LINE
8
BLACK
6
CONTINUOUS
10
132.696
20
-116.179
11
132.537
21
-116.369
0
LINE
8
BLACK
6
CONTINUOUS
10
132.537
20
-116.369
11
132.323
21
-116.492
0
LINE
8
BLACK
6
CONTINUOUS
10
132.323
20
-116.492
11
132.141
21
-116.524
0
LINE
8
BLACK
6
CONTINUOUS
10
132.141
20
-116.524
11
132.019
21
-116.524
0
LINE
8
BLACK
6
CONTINUOUS
10
132.019
20
-116.524
11
131.837
21
-116.492
0
LINE
8
BLACK
6
CONTINUOUS
10
131.837
20
-116.492
11
131.623
21
-116.369
0
LINE
8
BLACK
6
CONTINUOUS
10
131.623
20
-116.369
11
131.464
21
-116.179
0
LINE
8
BLACK
6
CONTINUOUS
10
131.464
20
-116.179
11
131.38
21
-115.947
0
LINE
8
BLACK
6
CONTINUOUS
10
131.38
20
-115.947
11
131.38
21
-115.701
0
LINE
8
BLACK
6
CONTINUOUS
10
131.38
20
-115.701
11
131.464
21
-115.469
0
LINE
8
BLACK
6
CONTINUOUS
10
131.464
20
-115.469
11
131.623
21
-115.279
0
LINE
8
BLACK
6
CONTINUOUS
10
131.623
20
-115.279
11
131.837
21
-115.156
0
LINE
8
BLACK
6
CONTINUOUS
10
131.837
20
-115.156
11
132.019
21
-115.124
0
LINE
8
BLACK
6
CONTINUOUS
10
132.019
20
-115.124
11
132.141
21
-115.124
0
LINE
8
BLACK
6
CONTINUOUS
10
132.141
20
-115.124
11
132.323
21
-115.156
0
LINE
8
BLACK
6
CONTINUOUS
10
135.879
20
-115.156
11
136.093
21
-115.279
0
LINE
8
BLACK
6
CONTINUOUS
10
136.093
20
-115.279
11
136.252
21
-115.469
0
LINE
8
BLACK
6
CONTINUOUS
10
136.252
20
-115.469
11
136.336
21
-115.701
0
LINE
8
BLACK
6
CONTINUOUS
10
136.336
20
-115.701
11
136.336
21
-115.947
0
LINE
8
BLACK
6
CONTINUOUS
10
136.336
20
-115.947
11
136.252
21
-116.179
0
LINE
8
BLACK
6
CONTINUOUS
10
136.252
20
-116.179
11
136.093
21
-116.369
0
LINE
8
BLACK
6
CONTINUOUS
10
136.093
20
-116.369
11
135.879
21
-116.492
0
LINE
8
BLACK
6
CONTINUOUS
10
135.879
20
-116.492
11
135.697
21
-116.524
0
LINE
8
BLACK
6
CONTINUOUS
10
135.697
20
-116.524
11
135.575
21
-116.524
0
LINE
8
BLACK
6
CONTINUOUS
10
135.575
20
-116.524
11
135.393
21
-116.492
0
LINE
8
BLACK
6
CONTINUOUS
10
135.393
20
-116.492
11
135.179
21
-116.369
0
LINE
8
BLACK
6
CONTINUOUS
10
135.179
20
-116.369
11
135.02
21
-116.179
0
LINE
8
BLACK
6
CONTINUOUS
10
135.02
20
-116.179
11
134.936
21
-115.947
0
LINE
8
BLACK
6
CONTINUOUS
10
134.936
20
-115.947
11
134.936
21
-115.701
0
LINE
8
BLACK
6
CONTINUOUS
10
134.936
20
-115.701
11
135.02
21
-115.469
0
LINE
8
BLACK
6
CONTINUOUS
10
135.02
20
-115.469
11
135.179
21
-115.279
0
LINE
8
BLACK
6
CONTINUOUS
10
135.179
20
-115.279
11
135.393
21
-115.156
0
LINE
8
BLACK
6
CONTINUOUS
10
135.393
20
-115.156
11
135.575
21
-115.124
0
LINE
8
BLACK
6
CONTINUOUS
10
135.575
20
-115.124
11
135.697
21
-115.124
0
LINE
8
BLACK
6
CONTINUOUS
10
135.697
20
-115.124
11
135.879
21
-115.156
0
LINE
8
BLACK
6
CONTINUOUS
10
159.963
20
-113.854
11
160.269
21
-114.03
0
LINE
8
BLACK
6
CONTINUOUS
10
160.269
20
-114.03
11
160.495
21
-114.3
0
LINE
8
BLACK
6
CONTINUOUS
10
160.495
20
-114.3
11
160.616
21
-114.632
0
LINE
8
BLACK
6
CONTINUOUS
10
160.616
20
-114.632
11
160.616
21
-114.984
0
LINE
8
BLACK
6
CONTINUOUS
10
160.616
20
-114.984
11
160.495
21
-115.316
0
LINE
8
BLACK
6
CONTINUOUS
10
160.495
20
-115.316
11
160.269
21
-115.586
0
LINE
8
BLACK
6
CONTINUOUS
10
160.269
20
-115.586
11
159.963
21
-115.762
0
LINE
8
BLACK
6
CONTINUOUS
10
159.963
20
-115.762
11
159.616
21
-115.823
0
LINE
8
BLACK
6
CONTINUOUS
10
159.616
20
-115.823
11
159.269
21
-115.762
0
LINE
8
BLACK
6
CONTINUOUS
10
159.269
20
-115.762
11
158.963
21
-115.586
0
LINE
8
BLACK
6
CONTINUOUS
10
158.963
20
-115.586
11
158.737
21
-115.316
0
LINE
8
BLACK
6
CONTINUOUS
10
158.737
20
-115.316
11
158.616
21
-114.984
0
LINE
8
BLACK
6
CONTINUOUS
10
158.616
20
-114.984
11
158.616
21
-114.632
0
LINE
8
BLACK
6
CONTINUOUS
10
158.616
20
-114.632
11
158.737
21
-114.3
0
LINE
8
BLACK
6
CONTINUOUS
10
158.737
20
-114.3
11
158.963
21
-114.03
0
LINE
8
BLACK
6
CONTINUOUS
10
158.963
20
-114.03
11
159.269
21
-113.854
0
LINE
8
BLACK
6
CONTINUOUS
10
159.269
20
-113.854
11
159.616
21
-113.793
0
LINE
8
BLACK
6
CONTINUOUS
10
159.616
20
-113.793
11
159.963
21
-113.854
0
LINE
8
BLACK
6
CONTINUOUS
10
166.463
20
-113.854
11
166.769
21
-114.03
0
LINE
8
BLACK
6
CONTINUOUS
10
166.769
20
-114.03
11
166.995
21
-114.3
0
LINE
8
BLACK
6
CONTINUOUS
10
166.995
20
-114.3
11
167.116
21
-114.632
0
LINE
8
BLACK
6
CONTINUOUS
10
167.116
20
-114.632
11
167.116
21
-114.984
0
LINE
8
BLACK
6
CONTINUOUS
10
167.116
20
-114.984
11
166.995
21
-115.316
0
LINE
8
BLACK
6
CONTINUOUS
10
166.995
20
-115.316
11
166.769
21
-115.586
0
LINE
8
BLACK
6
CONTINUOUS
10
166.769
20
-115.586
11
166.463
21
-115.762
0
LINE
8
BLACK
6
CONTINUOUS
10
166.463
20
-115.762
11
166.116
21
-115.823
0
LINE
8
BLACK
6
CONTINUOUS
10
166.116
20
-115.823
11
165.769
21
-115.762
0
LINE
8
BLACK
6
CONTINUOUS
10
165.769
20
-115.762
11
165.463
21
-115.586
0
LINE
8
BLACK
6
CONTINUOUS
10
165.463
20
-115.586
11
165.237
21
-115.316
0
LINE
8
BLACK
6
CONTINUOUS
10
165.237
20
-115.316
11
165.116
21
-114.984
0
LINE
8
BLACK
6
CONTINUOUS
10
165.116
20
-114.984
11
165.116
21
-114.632
0
LINE
8
BLACK
6
CONTINUOUS
10
165.116
20
-114.632
11
165.237
21
-114.3
0
LINE
8
BLACK
6
CONTINUOUS
10
165.237
20
-114.3
11
165.463
21
-114.03
0
LINE
8
BLACK
6
CONTINUOUS
10
165.463
20
-114.03
11
165.769
21
-113.854
0
LINE
8
BLACK
6
CONTINUOUS
10
165.769
20
-113.854
11
166.116
21
-113.793
0
LINE
8
BLACK
6
CONTINUOUS
10
166.116
20
-113.793
11
166.463
21
-113.854
0
LINE
8
BLACK
6
CONTINUOUS
10
179.111
20
-113.743
11
179.371
21
-113.893
0
LINE
8
BLACK
6
CONTINUOUS
10
179.371
20
-113.893
11
179.563
21
-114.122
0
LINE
8
BLACK
6
CONTINUOUS
10
179.563
20
-114.122
11
179.666
21
-114.404
0
LINE
8
BLACK
6
CONTINUOUS
10
179.666
20
-114.404
11
179.666
21
-114.704
0
LINE
8
BLACK
6
CONTINUOUS
10
179.666
20
-114.704
11
179.563
21
-114.986
0
LINE
8
BLACK
6
CONTINUOUS
10
179.563
20
-114.986
11
179.371
21
-115.215
0
LINE
8
BLACK
6
CONTINUOUS
10
179.371
20
-115.215
11
179.111
21
-115.365
0
LINE
8
BLACK
6
CONTINUOUS
10
179.111
20
-115.365
11
178.89
21
-115.404
0
LINE
8
BLACK
6
CONTINUOUS
10
178.89
20
-115.404
11
178.742
21
-115.404
0
LINE
8
BLACK
6
CONTINUOUS
10
178.742
20
-115.404
11
178.521
21
-115.365
0
LINE
8
BLACK
6
CONTINUOUS
10
178.521
20
-115.365
11
178.261
21
-115.215
0
LINE
8
BLACK
6
CONTINUOUS
10
178.261
20
-115.215
11
178.069
21
-114.986
0
LINE
8
BLACK
6
CONTINUOUS
10
178.069
20
-114.986
11
177.966
21
-114.704
0
LINE
8
BLACK
6
CONTINUOUS
10
177.966
20
-114.704
11
177.966
21
-114.404
0
LINE
8
BLACK
6
CONTINUOUS
10
177.966
20
-114.404
11
178.069
21
-114.122
0
LINE
8
BLACK
6
CONTINUOUS
10
178.069
20
-114.122
11
178.261
21
-113.893
0
LINE
8
BLACK
6
CONTINUOUS
10
178.261
20
-113.893
11
178.521
21
-113.743
0
LINE
8
BLACK
6
CONTINUOUS
10
178.521
20
-113.743
11
178.742
21
-113.704
0
LINE
8
BLACK
6
CONTINUOUS
10
178.742
20
-113.704
11
178.89
21
-113.704
0
LINE
8
BLACK
6
CONTINUOUS
10
178.89
20
-113.704
11
179.111
21
-113.743
0
LINE
8
BLACK
6
CONTINUOUS
10
179.666
20
-112.864
11
177.966
21
-112.864
0
LINE
8
BLACK
6
CONTINUOUS
10
177.966
20
-112.864
11
177.966
21
-111.164
0
LINE
8
BLACK
6
CONTINUOUS
10
177.966
20
-111.164
11
179.666
21
-111.164
0
LINE
8
BLACK
6
CONTINUOUS
10
179.666
20
-111.164
11
179.666
21
-112.864
0
LINE
8
BLACK
6
CONTINUOUS
10
117.897
20
-111.203
11
118.157
21
-111.353
0
LINE
8
BLACK
6
CONTINUOUS
10
118.157
20
-111.353
11
118.349
21
-111.582
0
LINE
8
BLACK
6
CONTINUOUS
10
118.349
20
-111.582
11
118.452
21
-111.864
0
LINE
8
BLACK
6
CONTINUOUS
10
118.452
20
-111.864
11
118.452
21
-112.164
0
LINE
8
BLACK
6
CONTINUOUS
10
118.452
20
-112.164
11
118.349
21
-112.446
0
LINE
8
BLACK
6
CONTINUOUS
10
118.349
20
-112.446
11
118.157
21
-112.675
0
LINE
8
BLACK
6
CONTINUOUS
10
118.157
20
-112.675
11
117.897
21
-112.825
0
LINE
8
BLACK
6
CONTINUOUS
10
117.897
20
-112.825
11
117.676
21
-112.864
0
LINE
8
BLACK
6
CONTINUOUS
10
117.676
20
-112.864
11
117.528
21
-112.864
0
LINE
8
BLACK
6
CONTINUOUS
10
117.528
20
-112.864
11
117.307
21
-112.825
0
LINE
8
BLACK
6
CONTINUOUS
10
117.307
20
-112.825
11
117.047
21
-112.675
0
LINE
8
BLACK
6
CONTINUOUS
10
117.047
20
-112.675
11
116.855
21
-112.446
0
LINE
8
BLACK
6
CONTINUOUS
10
116.855
20
-112.446
11
116.752
21
-112.164
0
LINE
8
BLACK
6
CONTINUOUS
10
116.752
20
-112.164
11
116.752
21
-111.864
0
LINE
8
BLACK
6
CONTINUOUS
10
116.752
20
-111.864
11
116.855
21
-111.582
0
LINE
8
BLACK
6
CONTINUOUS
10
116.855
20
-111.582
11
117.047
21
-111.353
0
LINE
8
BLACK
6
CONTINUOUS
10
117.047
20
-111.353
11
117.307
21
-111.203
0
LINE
8
BLACK
6
CONTINUOUS
10
117.307
20
-111.203
11
117.528
21
-111.164
0
LINE
8
BLACK
6
CONTINUOUS
10
117.528
20
-111.164
11
117.676
21
-111.164
0
LINE
8
BLACK
6
CONTINUOUS
10
117.676
20
-111.164
11
117.897
21
-111.203
0
LINE
8
BLACK
6
CONTINUOUS
10
120.992
20
-112.864
11
119.292
21
-112.864
0
LINE
8
BLACK
6
CONTINUOUS
10
119.292
20
-112.864
11
119.292
21
-111.164
0
LINE
8
BLACK
6
CONTINUOUS
10
119.292
20
-111.164
11
120.992
21
-111.164
0
LINE
8
BLACK
6
CONTINUOUS
10
120.992
20
-111.164
11
120.992
21
-112.864
0
LINE
8
BLACK
6
CONTINUOUS
10
159.963
20
-109.354
11
160.269
21
-109.53
0
LINE
8
BLACK
6
CONTINUOUS
10
160.269
20
-109.53
11
160.495
21
-109.8
0
LINE
8
BLACK
6
CONTINUOUS
10
160.495
20
-109.8
11
160.616
21
-110.132
0
LINE
8
BLACK
6
CONTINUOUS
10
160.616
20
-110.132
11
160.616
21
-110.484
0
LINE
8
BLACK
6
CONTINUOUS
10
160.616
20
-110.484
11
160.495
21
-110.816
0
LINE
8
BLACK
6
CONTINUOUS
10
160.495
20
-110.816
11
160.269
21
-111.086
0
LINE
8
BLACK
6
CONTINUOUS
10
160.269
20
-111.086
11
159.963
21
-111.262
0
LINE
8
BLACK
6
CONTINUOUS
10
159.963
20
-111.262
11
159.616
21
-111.323
0
LINE
8
BLACK
6
CONTINUOUS
10
159.616
20
-111.323
11
159.269
21
-111.262
0
LINE
8
BLACK
6
CONTINUOUS
10
159.269
20
-111.262
11
158.963
21
-111.086
0
LINE
8
BLACK
6
CONTINUOUS
10
158.963
20
-111.086
11
158.737
21
-110.816
0
LINE
8
BLACK
6
CONTINUOUS
10
158.737
20
-110.816
11
158.616
21
-110.484
0
LINE
8
BLACK
6
CONTINUOUS
10
158.616
20
-110.484
11
158.616
21
-110.132
0
LINE
8
BLACK
6
CONTINUOUS
10
158.616
20
-110.132
11
158.737
21
-109.8
0
LINE
8
BLACK
6
CONTINUOUS
10
158.737
20
-109.8
11
158.963
21
-109.53
0
LINE
8
BLACK
6
CONTINUOUS
10
158.963
20
-109.53
11
159.269
21
-109.354
0
LINE
8
BLACK
6
CONTINUOUS
10
159.269
20
-109.354
11
159.616
21
-109.293
0
LINE
8
BLACK
6
CONTINUOUS
10
159.616
20
-109.293
11
159.963
21
-109.354
0
LINE
8
BLACK
6
CONTINUOUS
10
166.463
20
-109.354
11
166.769
21
-109.53
0
LINE
8
BLACK
6
CONTINUOUS
10
166.769
20
-109.53
11
166.995
21
-109.8
0
LINE
8
BLACK
6
CONTINUOUS
10
166.995
20
-109.8
11
167.116
21
-110.132
0
LINE
8
BLACK
6
CONTINUOUS
10
167.116
20
-110.132
11
167.116
21
-110.484
0
LINE
8
BLACK
6
CONTINUOUS
10
167.116
20
-110.484
11
166.995
21
-110.816
0
LINE
8
BLACK
6
CONTINUOUS
10
166.995
20
-110.816
11
166.769
21
-111.086
0
LINE
8
BLACK
6
CONTINUOUS
10
166.769
20
-111.086
11
166.463
21
-111.262
0
LINE
8
BLACK
6
CONTINUOUS
10
166.463
20
-111.262
11
166.116
21
-111.323
0
LINE
8
BLACK
6
CONTINUOUS
10
166.116
20
-111.323
11
165.769
21
-111.262
0
LINE
8
BLACK
6
CONTINUOUS
10
165.769
20
-111.262
11
165.463
21
-111.086
0
LINE
8
BLACK
6
CONTINUOUS
10
165.463
20
-111.086
11
165.237
21
-110.816
0
LINE
8
BLACK
6
CONTINUOUS
10
165.237
20
-110.816
11
165.116
21
-110.484
0
LINE
8
BLACK
6
CONTINUOUS
10
165.116
20
-110.484
11
165.116
21
-110.132
0
LINE
8
BLACK
6
CONTINUOUS
10
165.116
20
-110.132
11
165.237
21
-109.8
0
LINE
8
BLACK
6
CONTINUOUS
10
165.237
20
-109.8
11
165.463
21
-109.53
0
LINE
8
BLACK
6
CONTINUOUS
10
165.463
20
-109.53
11
165.769
21
-109.354
0
LINE
8
BLACK
6
CONTINUOUS
10
165.769
20
-109.354
11
166.116
21
-109.293
0
LINE
8
BLACK
6
CONTINUOUS
10
166.116
20
-109.293
11
166.463
21
-109.354
0
LINE
8
BLACK
6
CONTINUOUS
10
126.077
20
-108.012
11
126.383
21
-108.188
0
LINE
8
BLACK
6
CONTINUOUS
10
126.383
20
-108.188
11
126.609
21
-108.458
0
LINE
8
BLACK
6
CONTINUOUS
10
126.609
20
-108.458
11
126.73
21
-108.79
0
LINE
8
BLACK
6
CONTINUOUS
10
126.73
20
-108.79
11
126.73
21
-109.142
0
LINE
8
BLACK
6
CONTINUOUS
10
126.73
20
-109.142
11
126.609
21
-109.474
0
LINE
8
BLACK
6
CONTINUOUS
10
126.609
20
-109.474
11
126.383
21
-109.744
0
LINE
8
BLACK
6
CONTINUOUS
10
126.383
20
-109.744
11
126.077
21
-109.92
0
LINE
8
BLACK
6
CONTINUOUS
10
126.077
20
-109.92
11
125.73
21
-109.981
0
LINE
8
BLACK
6
CONTINUOUS
10
125.73
20
-109.981
11
125.383
21
-109.92
0
LINE
8
BLACK
6
CONTINUOUS
10
125.383
20
-109.92
11
125.077
21
-109.744
0
LINE
8
BLACK
6
CONTINUOUS
10
125.077
20
-109.744
11
124.851
21
-109.474
0
LINE
8
BLACK
6
CONTINUOUS
10
124.851
20
-109.474
11
124.73
21
-109.142
0
LINE
8
BLACK
6
CONTINUOUS
10
124.73
20
-109.142
11
124.73
21
-108.79
0
LINE
8
BLACK
6
CONTINUOUS
10
124.73
20
-108.79
11
124.851
21
-108.458
0
LINE
8
BLACK
6
CONTINUOUS
10
124.851
20
-108.458
11
125.077
21
-108.188
0
LINE
8
BLACK
6
CONTINUOUS
10
125.077
20
-108.188
11
125.383
21
-108.012
0
LINE
8
BLACK
6
CONTINUOUS
10
125.383
20
-108.012
11
125.73
21
-107.951
0
LINE
8
BLACK
6
CONTINUOUS
10
125.73
20
-107.951
11
126.077
21
-108.012
0
LINE
8
BLACK
6
CONTINUOUS
10
129.27
20
-109.966
11
127.27
21
-109.966
0
LINE
8
BLACK
6
CONTINUOUS
10
127.27
20
-109.966
11
127.27
21
-107.966
0
LINE
8
BLACK
6
CONTINUOUS
10
127.27
20
-107.966
11
129.27
21
-107.966
0
LINE
8
BLACK
6
CONTINUOUS
10
129.27
20
-107.966
11
129.27
21
-109.966
0
LINE
8
BLACK
6
CONTINUOUS
10
182.056
20
-100.973
11
182.544
21
-101.255
0
LINE
8
BLACK
6
CONTINUOUS
10
182.544
20
-101.255
11
182.907
21
-101.688
0
LINE
8
BLACK
6
CONTINUOUS
10
182.907
20
-101.688
11
183.1
21
-102.218
0
LINE
8
BLACK
6
CONTINUOUS
10
183.1
20
-102.218
11
183.1
21
-102.782
0
LINE
8
BLACK
6
CONTINUOUS
10
183.1
20
-102.782
11
182.907
21
-103.312
0
LINE
8
BLACK
6
CONTINUOUS
10
182.907
20
-103.312
11
182.544
21
-103.745
0
LINE
8
BLACK
6
CONTINUOUS
10
182.544
20
-103.745
11
182.056
21
-104.027
0
LINE
8
BLACK
6
CONTINUOUS
10
182.056
20
-104.027
11
181.5
21
-104.125
0
LINE
8
BLACK
6
CONTINUOUS
10
181.5
20
-104.125
11
180.944
21
-104.027
0
LINE
8
BLACK
6
CONTINUOUS
10
180.944
20
-104.027
11
180.456
21
-103.745
0
LINE
8
BLACK
6
CONTINUOUS
10
180.456
20
-103.745
11
180.093
21
-103.312
0
LINE
8
BLACK
6
CONTINUOUS
10
180.093
20
-103.312
11
179.9
21
-102.782
0
LINE
8
BLACK
6
CONTINUOUS
10
179.9
20
-102.782
11
179.9
21
-102.218
0
LINE
8
BLACK
6
CONTINUOUS
10
179.9
20
-102.218
11
180.093
21
-101.688
0
LINE
8
BLACK
6
CONTINUOUS
10
180.093
20
-101.688
11
180.456
21
-101.255
0
LINE
8
BLACK
6
CONTINUOUS
10
180.456
20
-101.255
11
180.944
21
-100.973
0
LINE
8
BLACK
6
CONTINUOUS
10
180.944
20
-100.973
11
181.5
21
-100.875
0
LINE
8
BLACK
6
CONTINUOUS
10
181.5
20
-100.875
11
182.056
21
-100.973
0
LINE
8
BLACK
6
CONTINUOUS
10
117.056
20
-100.473
11
117.544
21
-100.755
0
LINE
8
BLACK
6
CONTINUOUS
10
117.544
20
-100.755
11
117.907
21
-101.188
0
LINE
8
BLACK
6
CONTINUOUS
10
117.907
20
-101.188
11
118.1
21
-101.718
0
LINE
8
BLACK
6
CONTINUOUS
10
118.1
20
-101.718
11
118.1
21
-102.282
0
LINE
8
BLACK
6
CONTINUOUS
10
118.1
20
-102.282
11
117.907
21
-102.812
0
LINE
8
BLACK
6
CONTINUOUS
10
117.907
20
-102.812
11
117.544
21
-103.245
0
LINE
8
BLACK
6
CONTINUOUS
10
117.544
20
-103.245
11
117.056
21
-103.527
0
LINE
8
BLACK
6
CONTINUOUS
10
117.056
20
-103.527
11
116.5
21
-103.625
0
LINE
8
BLACK
6
CONTINUOUS
10
116.5
20
-103.625
11
115.944
21
-103.527
0
LINE
8
BLACK
6
CONTINUOUS
10
115.944
20
-103.527
11
115.456
21
-103.245
0
LINE
8
BLACK
6
CONTINUOUS
10
115.456
20
-103.245
11
115.093
21
-102.812
0
LINE
8
BLACK
6
CONTINUOUS
10
115.093
20
-102.812
11
114.9
21
-102.282
0
LINE
8
BLACK
6
CONTINUOUS
10
114.9
20
-102.282
11
114.9
21
-101.718
0
LINE
8
BLACK
6
CONTINUOUS
10
114.9
20
-101.718
11
115.093
21
-101.188
0
LINE
8
BLACK
6
CONTINUOUS
10
115.093
20
-101.188
11
115.456
21
-100.755
0
LINE
8
BLACK
6
CONTINUOUS
10
115.456
20
-100.755
11
115.944
21
-100.473
0
LINE
8
BLACK
6
CONTINUOUS
10
115.944
20
-100.473
11
116.5
21
-100.375
0
LINE
8
BLACK
6
CONTINUOUS
10
116.5
20
-100.375
11
117.056
21
-100.473
0
CIRCLE
8
BLACK
10
140.208
20
-124.46
40
0.5
0
CIRCLE
8
BLACK
10
172.974
20
-122.936
40
0.5
  0
ENDSEC
  0
EOF
