  0
SECTION
  2
HEADER
  9
$ANGBASE
  50
0.0
  9
$ANGDIR
  70
  1
  9
$MEASUREMENT
  70
0
  0
ENDSEC
  0
SECTION
  2
TABLES
  0
TABLE
  2
LTYPE
  70
4
  0
LTYPE
  5
40F
  2
CONTINUOUS
  70
0
  3
Solid line
  72
65
  73
0
  40
0.0
  0
LTYPE
  5
410
  2
DASHDOT
 70
0
  3
Dash Dot ____ _ ____ _
 72
65
 73
4
 40
2.0
 49
1.25
 49
-0.25
 49
0.25
 49
-0.25
  0
LTYPE
  5
411
  2
DASHED
 70
0
  3
Dashed __ __ __ __ __
 72
65
 73
2
 40
0.75
 49
0.5
 49
-0.25
  0
LTYPE
  5
43B
  2
DOTTED
 70
0
  3
Dotted .  .  .  .
 72
65
 73
2
 40
0.2
 49
0.0
 49
-0.2
  0
ENDTAB
  0
TABLE
  2
STYLE
  70
4
  0
STYLE
  2
KICAD
  70
0
  40
0
  41
1
  42
1
  50
0
  71
0
  3
isocp.shx
  0
STYLE
  2
KICADB
  70
0
  40
0
  41
1
  42
1
  50
0
  71
0
  3
isocp.shx
  0
STYLE
  2
KICADI
  70
0
  40
0
  41
1
  42
1
  50
15
  71
0
  3
isocp.shx
  0
STYLE
  2
KICADBI
  70
0
  40
0
  41
1
  42
1
  50
15
  71
0
  3
isocp.shx
  0
ENDTAB
  0
TABLE
  2
LAYER
  70
30
  0
LAYER
  2
BLACK
  70
0
  62
7
  6
CONTINUOUS
  0
LAYER
  2
GRAY1
  70
0
  62
251
  6
CONTINUOUS
  0
LAYER
  2
GRAY2
  70
0
  62
8
  6
CONTINUOUS
  0
LAYER
  2
GRAY3
  70
0
  62
9
  6
CONTINUOUS
  0
LAYER
  2
WHITE
  70
0
  62
7
  6
CONTINUOUS
  0
LAYER
  2
LYELLOW
  70
0
  62
51
  6
CONTINUOUS
  0
LAYER
  2
BLUE1
  70
0
  62
178
  6
CONTINUOUS
  0
LAYER
  2
GREEN1
  70
0
  62
98
  6
CONTINUOUS
  0
LAYER
  2
CYAN1
  70
0
  62
138
  6
CONTINUOUS
  0
LAYER
  2
RED1
  70
0
  62
18
  6
CONTINUOUS
  0
LAYER
  2
MAGENTA1
  70
0
  62
228
  6
CONTINUOUS
  0
LAYER
  2
BROWN1
  70
0
  62
58
  6
CONTINUOUS
  0
LAYER
  2
BLUE2
  70
0
  62
5
  6
CONTINUOUS
  0
LAYER
  2
GREEN2
  70
0
  62
3
  6
CONTINUOUS
  0
LAYER
  2
CYAN2
  70
0
  62
4
  6
CONTINUOUS
  0
LAYER
  2
RED2
  70
0
  62
1
  6
CONTINUOUS
  0
LAYER
  2
MAGENTA2
  70
0
  62
6
  6
CONTINUOUS
  0
LAYER
  2
BROWN2
  70
0
  62
54
  6
CONTINUOUS
  0
LAYER
  2
BLUE3
  70
0
  62
171
  6
CONTINUOUS
  0
LAYER
  2
GREEN3
  70
0
  62
91
  6
CONTINUOUS
  0
LAYER
  2
CYAN3
  70
0
  62
131
  6
CONTINUOUS
  0
LAYER
  2
RED3
  70
0
  62
11
  6
CONTINUOUS
  0
LAYER
  2
MAGENTA3
  70
0
  62
221
  6
CONTINUOUS
  0
LAYER
  2
YELLOW3
  70
0
  62
2
  6
CONTINUOUS
  0
LAYER
  2
BLUE4
  70
0
  62
5
  6
CONTINUOUS
  0
LAYER
  2
GREEN4
  70
0
  62
3
  6
CONTINUOUS
  0
LAYER
  2
CYAN4
  70
0
  62
4
  6
CONTINUOUS
  0
LAYER
  2
RED4
  70
0
  62
1
  6
CONTINUOUS
  0
LAYER
  2
MAGENTA4
  70
0
  62
6
  6
CONTINUOUS
  0
LAYER
  2
YELLOW4
  70
0
  62
2
  6
CONTINUOUS
  0
ENDTAB
  0
ENDSEC
  0
SECTION
  2
ENTITIES
0
LINE
8
BLACK
6
CONTINUOUS
10
182.056
20
-136.473
11
182.544
21
-136.755
0
LINE
8
BLACK
6
CONTINUOUS
10
182.544
20
-136.755
11
182.907
21
-137.188
0
LINE
8
BLACK
6
CONTINUOUS
10
182.907
20
-137.188
11
183.1
21
-137.718
0
LINE
8
BLACK
6
CONTINUOUS
10
183.1
20
-137.718
11
183.1
21
-138.282
0
LINE
8
BLACK
6
CONTINUOUS
10
183.1
20
-138.282
11
182.907
21
-138.812
0
LINE
8
BLACK
6
CONTINUOUS
10
182.907
20
-138.812
11
182.544
21
-139.245
0
LINE
8
BLACK
6
CONTINUOUS
10
182.544
20
-139.245
11
182.056
21
-139.527
0
LINE
8
BLACK
6
CONTINUOUS
10
182.056
20
-139.527
11
181.5
21
-139.625
0
LINE
8
BLACK
6
CONTINUOUS
10
181.5
20
-139.625
11
180.944
21
-139.527
0
LINE
8
BLACK
6
CONTINUOUS
10
180.944
20
-139.527
11
180.456
21
-139.245
0
LINE
8
BLACK
6
CONTINUOUS
10
180.456
20
-139.245
11
180.093
21
-138.812
0
LINE
8
BLACK
6
CONTINUOUS
10
180.093
20
-138.812
11
179.9
21
-138.282
0
LINE
8
BLACK
6
CONTINUOUS
10
179.9
20
-138.282
11
179.9
21
-137.718
0
LINE
8
BLACK
6
CONTINUOUS
10
179.9
20
-137.718
11
180.093
21
-137.188
0
LINE
8
BLACK
6
CONTINUOUS
10
180.093
20
-137.188
11
180.456
21
-136.755
0
LINE
8
BLACK
6
CONTINUOUS
10
180.456
20
-136.755
11
180.944
21
-136.473
0
LINE
8
BLACK
6
CONTINUOUS
10
180.944
20
-136.473
11
181.5
21
-136.375
0
LINE
8
BLACK
6
CONTINUOUS
10
181.5
20
-136.375
11
182.056
21
-136.473
0
LINE
8
BLACK
6
CONTINUOUS
10
117.056
20
-135.973
11
117.544
21
-136.255
0
LINE
8
BLACK
6
CONTINUOUS
10
117.544
20
-136.255
11
117.907
21
-136.688
0
LINE
8
BLACK
6
CONTINUOUS
10
117.907
20
-136.688
11
118.1
21
-137.218
0
LINE
8
BLACK
6
CONTINUOUS
10
118.1
20
-137.218
11
118.1
21
-137.782
0
LINE
8
BLACK
6
CONTINUOUS
10
118.1
20
-137.782
11
117.907
21
-138.312
0
LINE
8
BLACK
6
CONTINUOUS
10
117.907
20
-138.312
11
117.544
21
-138.745
0
LINE
8
BLACK
6
CONTINUOUS
10
117.544
20
-138.745
11
117.056
21
-139.027
0
LINE
8
BLACK
6
CONTINUOUS
10
117.056
20
-139.027
11
116.5
21
-139.125
0
LINE
8
BLACK
6
CONTINUOUS
10
116.5
20
-139.125
11
115.944
21
-139.027
0
LINE
8
BLACK
6
CONTINUOUS
10
115.944
20
-139.027
11
115.456
21
-138.745
0
LINE
8
BLACK
6
CONTINUOUS
10
115.456
20
-138.745
11
115.093
21
-138.312
0
LINE
8
BLACK
6
CONTINUOUS
10
115.093
20
-138.312
11
114.9
21
-137.782
0
LINE
8
BLACK
6
CONTINUOUS
10
114.9
20
-137.782
11
114.9
21
-137.218
0
LINE
8
BLACK
6
CONTINUOUS
10
114.9
20
-137.218
11
115.093
21
-136.688
0
LINE
8
BLACK
6
CONTINUOUS
10
115.093
20
-136.688
11
115.456
21
-136.255
0
LINE
8
BLACK
6
CONTINUOUS
10
115.456
20
-136.255
11
115.944
21
-135.973
0
LINE
8
BLACK
6
CONTINUOUS
10
115.944
20
-135.973
11
116.5
21
-135.875
0
LINE
8
BLACK
6
CONTINUOUS
10
116.5
20
-135.875
11
117.056
21
-135.973
0
LINE
8
BLACK
6
CONTINUOUS
10
145.999
20
-126.201
11
146.158
21
-126.391
0
LINE
8
BLACK
6
CONTINUOUS
10
146.158
20
-126.391
11
146.242
21
-126.623
0
LINE
8
BLACK
6
CONTINUOUS
10
146.242
20
-126.623
11
146.242
21
-126.869
0
LINE
8
BLACK
6
CONTINUOUS
10
146.242
20
-126.869
11
146.158
21
-127.101
0
LINE
8
BLACK
6
CONTINUOUS
10
146.158
20
-127.101
11
145.999
21
-127.291
0
LINE
8
BLACK
6
CONTINUOUS
10
145.999
20
-127.291
11
145.792
21
-127.41
0
LINE
8
BLACK
6
CONTINUOUS
10
145.792
20
-127.41
11
145.792
21
-128.674
0
LINE
8
BLACK
6
CONTINUOUS
10
145.792
20
-128.674
11
148.44
21
-131.322
0
LINE
8
BLACK
6
CONTINUOUS
10
148.44
20
-131.322
11
162.456
21
-131.322
0
LINE
8
BLACK
6
CONTINUOUS
10
162.456
20
-131.322
11
162.818
21
-130.96
0
LINE
8
BLACK
6
CONTINUOUS
10
162.818
20
-130.96
11
162.818
21
-121.77
0
LINE
8
BLACK
6
CONTINUOUS
10
162.818
20
-121.77
11
162.202
21
-121.154
0
LINE
8
BLACK
6
CONTINUOUS
10
162.202
20
-121.154
11
151.436
21
-121.154
0
LINE
8
BLACK
6
CONTINUOUS
10
151.436
20
-121.154
11
151.369
21
-121.336
0
LINE
8
BLACK
6
CONTINUOUS
10
151.369
20
-121.336
11
151.177
21
-121.565
0
LINE
8
BLACK
6
CONTINUOUS
10
151.177
20
-121.565
11
150.917
21
-121.715
0
LINE
8
BLACK
6
CONTINUOUS
10
150.917
20
-121.715
11
150.696
21
-121.754
0
LINE
8
BLACK
6
CONTINUOUS
10
150.696
20
-121.754
11
150.548
21
-121.754
0
LINE
8
BLACK
6
CONTINUOUS
10
150.548
20
-121.754
11
150.327
21
-121.715
0
LINE
8
BLACK
6
CONTINUOUS
10
150.327
20
-121.715
11
150.067
21
-121.565
0
LINE
8
BLACK
6
CONTINUOUS
10
150.067
20
-121.565
11
149.875
21
-121.336
0
LINE
8
BLACK
6
CONTINUOUS
10
149.875
20
-121.336
11
149.772
21
-121.054
0
LINE
8
BLACK
6
CONTINUOUS
10
149.772
20
-121.054
11
149.772
21
-120.754
0
LINE
8
BLACK
6
CONTINUOUS
10
149.772
20
-120.754
11
149.875
21
-120.472
0
LINE
8
BLACK
6
CONTINUOUS
10
149.875
20
-120.472
11
150.067
21
-120.243
0
LINE
8
BLACK
6
CONTINUOUS
10
150.067
20
-120.243
11
150.327
21
-120.093
0
LINE
8
BLACK
6
CONTINUOUS
10
150.327
20
-120.093
11
150.548
21
-120.054
0
LINE
8
BLACK
6
CONTINUOUS
10
150.548
20
-120.054
11
150.696
21
-120.054
0
LINE
8
BLACK
6
CONTINUOUS
10
150.696
20
-120.054
11
150.917
21
-120.093
0
LINE
8
BLACK
6
CONTINUOUS
10
150.917
20
-120.093
11
151.177
21
-120.243
0
LINE
8
BLACK
6
CONTINUOUS
10
151.177
20
-120.243
11
151.369
21
-120.472
0
LINE
8
BLACK
6
CONTINUOUS
10
151.369
20
-120.472
11
151.436
21
-120.654
0
LINE
8
BLACK
6
CONTINUOUS
10
151.436
20
-120.654
11
162.295
21
-120.654
0
LINE
8
BLACK
6
CONTINUOUS
10
162.295
20
-120.654
11
162.328
21
-120.651
0
LINE
8
BLACK
6
CONTINUOUS
10
162.328
20
-120.651
11
162.36
21
-120.66
0
LINE
8
BLACK
6
CONTINUOUS
10
162.36
20
-120.66
11
162.393
21
-120.665
0
LINE
8
BLACK
6
CONTINUOUS
10
162.393
20
-120.665
11
162.402
21
-120.671
0
LINE
8
BLACK
6
CONTINUOUS
10
162.402
20
-120.671
11
162.413
21
-120.674
0
LINE
8
BLACK
6
CONTINUOUS
10
162.413
20
-120.674
11
162.44
21
-120.693
0
LINE
8
BLACK
6
CONTINUOUS
10
162.44
20
-120.693
11
162.469
21
-120.71
0
LINE
8
BLACK
6
CONTINUOUS
10
162.469
20
-120.71
11
162.49
21
-120.735
0
LINE
8
BLACK
6
CONTINUOUS
10
162.49
20
-120.735
11
163.237
21
-121.482
0
LINE
8
BLACK
6
CONTINUOUS
10
163.237
20
-121.482
11
163.262
21
-121.503
0
LINE
8
BLACK
6
CONTINUOUS
10
163.262
20
-121.503
11
163.279
21
-121.532
0
LINE
8
BLACK
6
CONTINUOUS
10
163.279
20
-121.532
11
163.298
21
-121.559
0
LINE
8
BLACK
6
CONTINUOUS
10
163.298
20
-121.559
11
163.301
21
-121.57
0
LINE
8
BLACK
6
CONTINUOUS
10
163.301
20
-121.57
11
163.307
21
-121.579
0
LINE
8
BLACK
6
CONTINUOUS
10
163.307
20
-121.579
11
163.312
21
-121.612
0
LINE
8
BLACK
6
CONTINUOUS
10
163.312
20
-121.612
11
163.321
21
-121.644
0
LINE
8
BLACK
6
CONTINUOUS
10
163.321
20
-121.644
11
163.318
21
-121.677
0
LINE
8
BLACK
6
CONTINUOUS
10
163.318
20
-121.677
11
163.318
21
-131.053
0
LINE
8
BLACK
6
CONTINUOUS
10
163.318
20
-131.053
11
163.321
21
-131.086
0
LINE
8
BLACK
6
CONTINUOUS
10
163.321
20
-131.086
11
163.312
21
-131.118
0
LINE
8
BLACK
6
CONTINUOUS
10
163.312
20
-131.118
11
163.307
21
-131.151
0
LINE
8
BLACK
6
CONTINUOUS
10
163.307
20
-131.151
11
163.301
21
-131.16
0
LINE
8
BLACK
6
CONTINUOUS
10
163.301
20
-131.16
11
163.298
21
-131.171
0
LINE
8
BLACK
6
CONTINUOUS
10
163.298
20
-131.171
11
163.279
21
-131.198
0
LINE
8
BLACK
6
CONTINUOUS
10
163.279
20
-131.198
11
163.262
21
-131.227
0
LINE
8
BLACK
6
CONTINUOUS
10
163.262
20
-131.227
11
163.237
21
-131.248
0
LINE
8
BLACK
6
CONTINUOUS
10
163.237
20
-131.248
11
162.744
21
-131.741
0
LINE
8
BLACK
6
CONTINUOUS
10
162.744
20
-131.741
11
162.723
21
-131.766
0
LINE
8
BLACK
6
CONTINUOUS
10
162.723
20
-131.766
11
162.694
21
-131.783
0
LINE
8
BLACK
6
CONTINUOUS
10
162.694
20
-131.783
11
162.667
21
-131.802
0
LINE
8
BLACK
6
CONTINUOUS
10
162.667
20
-131.802
11
162.656
21
-131.805
0
LINE
8
BLACK
6
CONTINUOUS
10
162.656
20
-131.805
11
162.647
21
-131.811
0
LINE
8
BLACK
6
CONTINUOUS
10
162.647
20
-131.811
11
162.614
21
-131.816
0
LINE
8
BLACK
6
CONTINUOUS
10
162.614
20
-131.816
11
162.582
21
-131.825
0
LINE
8
BLACK
6
CONTINUOUS
10
162.582
20
-131.825
11
162.549
21
-131.822
0
LINE
8
BLACK
6
CONTINUOUS
10
162.549
20
-131.822
11
148.347
21
-131.822
0
LINE
8
BLACK
6
CONTINUOUS
10
148.347
20
-131.822
11
148.314
21
-131.825
0
LINE
8
BLACK
6
CONTINUOUS
10
148.314
20
-131.825
11
148.282
21
-131.816
0
LINE
8
BLACK
6
CONTINUOUS
10
148.282
20
-131.816
11
148.249
21
-131.811
0
LINE
8
BLACK
6
CONTINUOUS
10
148.249
20
-131.811
11
148.24
21
-131.805
0
LINE
8
BLACK
6
CONTINUOUS
10
148.24
20
-131.805
11
148.229
21
-131.802
0
LINE
8
BLACK
6
CONTINUOUS
10
148.229
20
-131.802
11
148.202
21
-131.783
0
LINE
8
BLACK
6
CONTINUOUS
10
148.202
20
-131.783
11
148.173
21
-131.766
0
LINE
8
BLACK
6
CONTINUOUS
10
148.173
20
-131.766
11
148.152
21
-131.741
0
LINE
8
BLACK
6
CONTINUOUS
10
148.152
20
-131.741
11
145.373
21
-128.962
0
LINE
8
BLACK
6
CONTINUOUS
10
145.373
20
-128.962
11
145.348
21
-128.941
0
LINE
8
BLACK
6
CONTINUOUS
10
145.348
20
-128.941
11
145.331
21
-128.912
0
LINE
8
BLACK
6
CONTINUOUS
10
145.331
20
-128.912
11
145.312
21
-128.885
0
LINE
8
BLACK
6
CONTINUOUS
10
145.312
20
-128.885
11
145.309
21
-128.874
0
LINE
8
BLACK
6
CONTINUOUS
10
145.309
20
-128.874
11
145.303
21
-128.865
0
LINE
8
BLACK
6
CONTINUOUS
10
145.303
20
-128.865
11
145.298
21
-128.832
0
LINE
8
BLACK
6
CONTINUOUS
10
145.298
20
-128.832
11
145.289
21
-128.8
0
LINE
8
BLACK
6
CONTINUOUS
10
145.289
20
-128.8
11
145.292
21
-128.767
0
LINE
8
BLACK
6
CONTINUOUS
10
145.292
20
-128.767
11
145.292
21
-127.41
0
LINE
8
BLACK
6
CONTINUOUS
10
145.292
20
-127.41
11
145.254
21
-127.388
0
LINE
8
BLACK
6
CONTINUOUS
10
145.254
20
-127.388
11
142.932
21
-129.709
0
LINE
8
BLACK
6
CONTINUOUS
10
142.932
20
-129.709
11
142.911
21
-129.734
0
LINE
8
BLACK
6
CONTINUOUS
10
142.911
20
-129.734
11
142.882
21
-129.751
0
LINE
8
BLACK
6
CONTINUOUS
10
142.882
20
-129.751
11
142.855
21
-129.77
0
LINE
8
BLACK
6
CONTINUOUS
10
142.855
20
-129.77
11
142.844
21
-129.773
0
LINE
8
BLACK
6
CONTINUOUS
10
142.844
20
-129.773
11
142.835
21
-129.779
0
LINE
8
BLACK
6
CONTINUOUS
10
142.835
20
-129.779
11
142.802
21
-129.784
0
LINE
8
BLACK
6
CONTINUOUS
10
142.802
20
-129.784
11
142.77
21
-129.793
0
LINE
8
BLACK
6
CONTINUOUS
10
142.77
20
-129.793
11
142.737
21
-129.79
0
LINE
8
BLACK
6
CONTINUOUS
10
142.737
20
-129.79
11
132.48
21
-129.79
0
LINE
8
BLACK
6
CONTINUOUS
10
132.48
20
-129.79
11
132.442
21
-129.895
0
LINE
8
BLACK
6
CONTINUOUS
10
132.442
20
-129.895
11
132.283
21
-130.085
0
LINE
8
BLACK
6
CONTINUOUS
10
132.283
20
-130.085
11
132.069
21
-130.208
0
LINE
8
BLACK
6
CONTINUOUS
10
132.069
20
-130.208
11
131.826
21
-130.251
0
LINE
8
BLACK
6
CONTINUOUS
10
131.826
20
-130.251
11
131.583
21
-130.208
0
LINE
8
BLACK
6
CONTINUOUS
10
131.583
20
-130.208
11
131.538
21
-130.182
0
LINE
8
BLACK
6
CONTINUOUS
10
131.538
20
-130.182
11
129.47
21
-132.249
0
LINE
8
BLACK
6
CONTINUOUS
10
129.47
20
-132.249
11
129.449
21
-132.274
0
LINE
8
BLACK
6
CONTINUOUS
10
129.449
20
-132.274
11
129.42
21
-132.291
0
LINE
8
BLACK
6
CONTINUOUS
10
129.42
20
-132.291
11
129.393
21
-132.31
0
LINE
8
BLACK
6
CONTINUOUS
10
129.393
20
-132.31
11
129.382
21
-132.313
0
LINE
8
BLACK
6
CONTINUOUS
10
129.382
20
-132.313
11
129.373
21
-132.319
0
LINE
8
BLACK
6
CONTINUOUS
10
129.373
20
-132.319
11
129.34
21
-132.324
0
LINE
8
BLACK
6
CONTINUOUS
10
129.34
20
-132.324
11
129.308
21
-132.333
0
LINE
8
BLACK
6
CONTINUOUS
10
129.308
20
-132.333
11
129.275
21
-132.33
0
LINE
8
BLACK
6
CONTINUOUS
10
129.275
20
-132.33
11
122.803
21
-132.33
0
LINE
8
BLACK
6
CONTINUOUS
10
122.803
20
-132.33
11
122.77
21
-132.333
0
LINE
8
BLACK
6
CONTINUOUS
10
122.77
20
-132.333
11
122.738
21
-132.324
0
LINE
8
BLACK
6
CONTINUOUS
10
122.738
20
-132.324
11
122.705
21
-132.319
0
LINE
8
BLACK
6
CONTINUOUS
10
122.705
20
-132.319
11
122.695
21
-132.313
0
LINE
8
BLACK
6
CONTINUOUS
10
122.695
20
-132.313
11
122.685
21
-132.31
0
LINE
8
BLACK
6
CONTINUOUS
10
122.685
20
-132.31
11
122.657
21
-132.291
0
LINE
8
BLACK
6
CONTINUOUS
10
122.657
20
-132.291
11
122.629
21
-132.274
0
LINE
8
BLACK
6
CONTINUOUS
10
122.629
20
-132.274
11
122.607
21
-132.249
0
LINE
8
BLACK
6
CONTINUOUS
10
122.607
20
-132.249
11
120.989
21
-130.631
0
LINE
8
BLACK
6
CONTINUOUS
10
120.989
20
-130.631
11
120.964
21
-130.609
0
LINE
8
BLACK
6
CONTINUOUS
10
120.964
20
-130.609
11
120.947
21
-130.581
0
LINE
8
BLACK
6
CONTINUOUS
10
120.947
20
-130.581
11
120.928
21
-130.553
0
LINE
8
BLACK
6
CONTINUOUS
10
120.928
20
-130.553
11
120.925
21
-130.543
0
LINE
8
BLACK
6
CONTINUOUS
10
120.925
20
-130.543
11
120.919
21
-130.533
0
LINE
8
BLACK
6
CONTINUOUS
10
120.919
20
-130.533
11
120.914
21
-130.5
0
LINE
8
BLACK
6
CONTINUOUS
10
120.914
20
-130.5
11
120.905
21
-130.468
0
LINE
8
BLACK
6
CONTINUOUS
10
120.905
20
-130.468
11
120.908
21
-130.435
0
LINE
8
BLACK
6
CONTINUOUS
10
120.908
20
-130.435
11
120.908
21
-130.003
0
LINE
8
BLACK
6
CONTINUOUS
10
120.908
20
-130.003
11
120.811
21
-129.986
0
LINE
8
BLACK
6
CONTINUOUS
10
120.811
20
-129.986
11
120.505
21
-129.81
0
LINE
8
BLACK
6
CONTINUOUS
10
120.505
20
-129.81
11
120.279
21
-129.54
0
LINE
8
BLACK
6
CONTINUOUS
10
120.279
20
-129.54
11
120.158
21
-129.208
0
LINE
8
BLACK
6
CONTINUOUS
10
120.158
20
-129.208
11
120.158
21
-128.856
0
LINE
8
BLACK
6
CONTINUOUS
10
120.158
20
-128.856
11
120.279
21
-128.524
0
LINE
8
BLACK
6
CONTINUOUS
10
120.279
20
-128.524
11
120.505
21
-128.254
0
LINE
8
BLACK
6
CONTINUOUS
10
120.505
20
-128.254
11
120.811
21
-128.078
0
LINE
8
BLACK
6
CONTINUOUS
10
120.811
20
-128.078
11
121.158
21
-128.017
0
LINE
8
BLACK
6
CONTINUOUS
10
121.158
20
-128.017
11
121.505
21
-128.078
0
LINE
8
BLACK
6
CONTINUOUS
10
121.505
20
-128.078
11
121.811
21
-128.254
0
LINE
8
BLACK
6
CONTINUOUS
10
121.811
20
-128.254
11
122.037
21
-128.524
0
LINE
8
BLACK
6
CONTINUOUS
10
122.037
20
-128.524
11
122.158
21
-128.856
0
LINE
8
BLACK
6
CONTINUOUS
10
122.158
20
-128.856
11
122.158
21
-129.208
0
LINE
8
BLACK
6
CONTINUOUS
10
122.158
20
-129.208
11
122.037
21
-129.54
0
LINE
8
BLACK
6
CONTINUOUS
10
122.037
20
-129.54
11
121.811
21
-129.81
0
LINE
8
BLACK
6
CONTINUOUS
10
121.811
20
-129.81
11
121.505
21
-129.986
0
LINE
8
BLACK
6
CONTINUOUS
10
121.505
20
-129.986
11
121.408
21
-130.003
0
LINE
8
BLACK
6
CONTINUOUS
10
121.408
20
-130.003
11
121.408
21
-130.343
0
LINE
8
BLACK
6
CONTINUOUS
10
121.408
20
-130.343
11
122.895
21
-131.83
0
LINE
8
BLACK
6
CONTINUOUS
10
122.895
20
-131.83
11
129.182
21
-131.83
0
LINE
8
BLACK
6
CONTINUOUS
10
129.182
20
-131.83
11
131.186
21
-129.827
0
LINE
8
BLACK
6
CONTINUOUS
10
131.186
20
-129.827
11
131.126
21
-129.663
0
LINE
8
BLACK
6
CONTINUOUS
10
131.126
20
-129.663
11
131.126
21
-129.417
0
LINE
8
BLACK
6
CONTINUOUS
10
131.126
20
-129.417
11
131.21
21
-129.185
0
LINE
8
BLACK
6
CONTINUOUS
10
131.21
20
-129.185
11
131.369
21
-128.995
0
LINE
8
BLACK
6
CONTINUOUS
10
131.369
20
-128.995
11
131.583
21
-128.872
0
LINE
8
BLACK
6
CONTINUOUS
10
131.583
20
-128.872
11
131.826
21
-128.829
0
LINE
8
BLACK
6
CONTINUOUS
10
131.826
20
-128.829
11
132.069
21
-128.872
0
LINE
8
BLACK
6
CONTINUOUS
10
132.069
20
-128.872
11
132.114
21
-128.898
0
LINE
8
BLACK
6
CONTINUOUS
10
132.114
20
-128.898
11
135.386
21
-125.626
0
LINE
8
BLACK
6
CONTINUOUS
10
135.386
20
-125.626
11
135.386
21
-121.568
0
LINE
8
BLACK
6
CONTINUOUS
10
135.386
20
-121.568
11
135.179
21
-121.449
0
LINE
8
BLACK
6
CONTINUOUS
10
135.179
20
-121.449
11
135.02
21
-121.259
0
LINE
8
BLACK
6
CONTINUOUS
10
135.02
20
-121.259
11
134.982
21
-121.154
0
LINE
8
BLACK
6
CONTINUOUS
10
134.982
20
-121.154
11
132.734
21
-121.154
0
LINE
8
BLACK
6
CONTINUOUS
10
132.734
20
-121.154
11
132.696
21
-121.259
0
LINE
8
BLACK
6
CONTINUOUS
10
132.696
20
-121.259
11
132.537
21
-121.449
0
LINE
8
BLACK
6
CONTINUOUS
10
132.537
20
-121.449
11
132.323
21
-121.572
0
LINE
8
BLACK
6
CONTINUOUS
10
132.323
20
-121.572
11
132.08
21
-121.615
0
LINE
8
BLACK
6
CONTINUOUS
10
132.08
20
-121.615
11
131.837
21
-121.572
0
LINE
8
BLACK
6
CONTINUOUS
10
131.837
20
-121.572
11
131.623
21
-121.449
0
LINE
8
BLACK
6
CONTINUOUS
10
131.623
20
-121.449
11
131.464
21
-121.259
0
LINE
8
BLACK
6
CONTINUOUS
10
131.464
20
-121.259
11
131.426
21
-121.154
0
LINE
8
BLACK
6
CONTINUOUS
10
131.426
20
-121.154
11
129.178
21
-121.154
0
LINE
8
BLACK
6
CONTINUOUS
10
129.178
20
-121.154
11
129.14
21
-121.259
0
LINE
8
BLACK
6
CONTINUOUS
10
129.14
20
-121.259
11
128.981
21
-121.449
0
LINE
8
BLACK
6
CONTINUOUS
10
128.981
20
-121.449
11
128.767
21
-121.572
0
LINE
8
BLACK
6
CONTINUOUS
10
128.767
20
-121.572
11
128.524
21
-121.615
0
LINE
8
BLACK
6
CONTINUOUS
10
128.524
20
-121.615
11
128.281
21
-121.572
0
LINE
8
BLACK
6
CONTINUOUS
10
128.281
20
-121.572
11
128.067
21
-121.449
0
LINE
8
BLACK
6
CONTINUOUS
10
128.067
20
-121.449
11
127.908
21
-121.259
0
LINE
8
BLACK
6
CONTINUOUS
10
127.908
20
-121.259
11
127.824
21
-121.027
0
LINE
8
BLACK
6
CONTINUOUS
10
127.824
20
-121.027
11
127.824
21
-120.781
0
LINE
8
BLACK
6
CONTINUOUS
10
127.824
20
-120.781
11
127.908
21
-120.549
0
LINE
8
BLACK
6
CONTINUOUS
10
127.908
20
-120.549
11
128.067
21
-120.359
0
LINE
8
BLACK
6
CONTINUOUS
10
128.067
20
-120.359
11
128.281
21
-120.236
0
LINE
8
BLACK
6
CONTINUOUS
10
128.281
20
-120.236
11
128.524
21
-120.193
0
LINE
8
BLACK
6
CONTINUOUS
10
128.524
20
-120.193
11
128.767
21
-120.236
0
LINE
8
BLACK
6
CONTINUOUS
10
128.767
20
-120.236
11
128.981
21
-120.359
0
LINE
8
BLACK
6
CONTINUOUS
10
128.981
20
-120.359
11
129.14
21
-120.549
0
LINE
8
BLACK
6
CONTINUOUS
10
129.14
20
-120.549
11
129.178
21
-120.654
0
LINE
8
BLACK
6
CONTINUOUS
10
129.178
20
-120.654
11
131.426
21
-120.654
0
LINE
8
BLACK
6
CONTINUOUS
10
131.426
20
-120.654
11
131.464
21
-120.549
0
LINE
8
BLACK
6
CONTINUOUS
10
131.464
20
-120.549
11
131.623
21
-120.359
0
LINE
8
BLACK
6
CONTINUOUS
10
131.623
20
-120.359
11
131.837
21
-120.236
0
LINE
8
BLACK
6
CONTINUOUS
10
131.837
20
-120.236
11
132.08
21
-120.193
0
LINE
8
BLACK
6
CONTINUOUS
10
132.08
20
-120.193
11
132.323
21
-120.236
0
LINE
8
BLACK
6
CONTINUOUS
10
132.323
20
-120.236
11
132.537
21
-120.359
0
LINE
8
BLACK
6
CONTINUOUS
10
132.537
20
-120.359
11
132.696
21
-120.549
0
LINE
8
BLACK
6
CONTINUOUS
10
132.696
20
-120.549
11
132.734
21
-120.654
0
LINE
8
BLACK
6
CONTINUOUS
10
132.734
20
-120.654
11
134.982
21
-120.654
0
LINE
8
BLACK
6
CONTINUOUS
10
134.982
20
-120.654
11
135.02
21
-120.549
0
LINE
8
BLACK
6
CONTINUOUS
10
135.02
20
-120.549
11
135.179
21
-120.359
0
LINE
8
BLACK
6
CONTINUOUS
10
135.179
20
-120.359
11
135.393
21
-120.236
0
LINE
8
BLACK
6
CONTINUOUS
10
135.393
20
-120.236
11
135.636
21
-120.193
0
LINE
8
BLACK
6
CONTINUOUS
10
135.636
20
-120.193
11
135.879
21
-120.236
0
LINE
8
BLACK
6
CONTINUOUS
10
135.879
20
-120.236
11
136.093
21
-120.359
0
LINE
8
BLACK
6
CONTINUOUS
10
136.093
20
-120.359
11
136.252
21
-120.549
0
LINE
8
BLACK
6
CONTINUOUS
10
136.252
20
-120.549
11
136.29
21
-120.654
0
LINE
8
BLACK
6
CONTINUOUS
10
136.29
20
-120.654
11
138.821
21
-120.654
0
LINE
8
BLACK
6
CONTINUOUS
10
138.821
20
-120.654
11
138.821
21
-120.134
0
LINE
8
BLACK
6
CONTINUOUS
10
138.821
20
-120.134
11
140.071
21
-120.134
0
LINE
8
BLACK
6
CONTINUOUS
10
140.071
20
-120.134
11
140.071
21
-121.634
0
LINE
8
BLACK
6
CONTINUOUS
10
140.071
20
-121.634
11
138.821
21
-121.634
0
LINE
8
BLACK
6
CONTINUOUS
10
138.821
20
-121.634
11
138.821
21
-121.154
0
LINE
8
BLACK
6
CONTINUOUS
10
138.821
20
-121.154
11
136.29
21
-121.154
0
LINE
8
BLACK
6
CONTINUOUS
10
136.29
20
-121.154
11
136.252
21
-121.259
0
LINE
8
BLACK
6
CONTINUOUS
10
136.252
20
-121.259
11
136.093
21
-121.449
0
LINE
8
BLACK
6
CONTINUOUS
10
136.093
20
-121.449
11
135.886
21
-121.568
0
LINE
8
BLACK
6
CONTINUOUS
10
135.886
20
-121.568
11
135.886
21
-125.719
0
LINE
8
BLACK
6
CONTINUOUS
10
135.886
20
-125.719
11
135.889
21
-125.752
0
LINE
8
BLACK
6
CONTINUOUS
10
135.889
20
-125.752
11
135.88
21
-125.784
0
LINE
8
BLACK
6
CONTINUOUS
10
135.88
20
-125.784
11
135.875
21
-125.817
0
LINE
8
BLACK
6
CONTINUOUS
10
135.875
20
-125.817
11
135.869
21
-125.826
0
LINE
8
BLACK
6
CONTINUOUS
10
135.869
20
-125.826
11
135.866
21
-125.837
0
LINE
8
BLACK
6
CONTINUOUS
10
135.866
20
-125.837
11
135.847
21
-125.864
0
LINE
8
BLACK
6
CONTINUOUS
10
135.847
20
-125.864
11
135.83
21
-125.893
0
LINE
8
BLACK
6
CONTINUOUS
10
135.83
20
-125.893
11
135.805
21
-125.914
0
LINE
8
BLACK
6
CONTINUOUS
10
135.805
20
-125.914
11
132.466
21
-129.253
0
LINE
8
BLACK
6
CONTINUOUS
10
132.466
20
-129.253
11
132.48
21
-129.29
0
LINE
8
BLACK
6
CONTINUOUS
10
132.48
20
-129.29
11
142.644
21
-129.29
0
LINE
8
BLACK
6
CONTINUOUS
10
142.644
20
-129.29
11
144.902
21
-127.033
0
LINE
8
BLACK
6
CONTINUOUS
10
144.902
20
-127.033
11
144.842
21
-126.869
0
LINE
8
BLACK
6
CONTINUOUS
10
144.842
20
-126.869
11
144.842
21
-126.623
0
LINE
8
BLACK
6
CONTINUOUS
10
144.842
20
-126.623
11
144.926
21
-126.391
0
LINE
8
BLACK
6
CONTINUOUS
10
144.926
20
-126.391
11
145.085
21
-126.201
0
LINE
8
BLACK
6
CONTINUOUS
10
145.085
20
-126.201
11
145.292
21
-126.082
0
LINE
8
BLACK
6
CONTINUOUS
10
145.292
20
-126.082
11
145.292
21
-122.084
0
LINE
8
BLACK
6
CONTINUOUS
10
145.292
20
-122.084
11
145.292
21
-122.084
0
LINE
8
BLACK
6
CONTINUOUS
10
145.292
20
-122.084
11
145.292
21
-121.723
0
LINE
8
BLACK
6
CONTINUOUS
10
145.292
20
-121.723
11
145.247
21
-121.715
0
LINE
8
BLACK
6
CONTINUOUS
10
145.247
20
-121.715
11
144.987
21
-121.565
0
LINE
8
BLACK
6
CONTINUOUS
10
144.987
20
-121.565
11
144.795
21
-121.336
0
LINE
8
BLACK
6
CONTINUOUS
10
144.795
20
-121.336
11
144.692
21
-121.054
0
LINE
8
BLACK
6
CONTINUOUS
10
144.692
20
-121.054
11
144.692
21
-120.754
0
LINE
8
BLACK
6
CONTINUOUS
10
144.692
20
-120.754
11
144.795
21
-120.472
0
LINE
8
BLACK
6
CONTINUOUS
10
144.795
20
-120.472
11
144.987
21
-120.243
0
LINE
8
BLACK
6
CONTINUOUS
10
144.987
20
-120.243
11
145.247
21
-120.093
0
LINE
8
BLACK
6
CONTINUOUS
10
145.247
20
-120.093
11
145.468
21
-120.054
0
LINE
8
BLACK
6
CONTINUOUS
10
145.468
20
-120.054
11
145.616
21
-120.054
0
LINE
8
BLACK
6
CONTINUOUS
10
145.616
20
-120.054
11
145.837
21
-120.093
0
LINE
8
BLACK
6
CONTINUOUS
10
145.837
20
-120.093
11
146.097
21
-120.243
0
LINE
8
BLACK
6
CONTINUOUS
10
146.097
20
-120.243
11
146.289
21
-120.472
0
LINE
8
BLACK
6
CONTINUOUS
10
146.289
20
-120.472
11
146.392
21
-120.754
0
LINE
8
BLACK
6
CONTINUOUS
10
146.392
20
-120.754
11
146.392
21
-121.054
0
LINE
8
BLACK
6
CONTINUOUS
10
146.392
20
-121.054
11
146.289
21
-121.336
0
LINE
8
BLACK
6
CONTINUOUS
10
146.289
20
-121.336
11
146.097
21
-121.565
0
LINE
8
BLACK
6
CONTINUOUS
10
146.097
20
-121.565
11
145.837
21
-121.715
0
LINE
8
BLACK
6
CONTINUOUS
10
145.837
20
-121.715
11
145.792
21
-121.723
0
LINE
8
BLACK
6
CONTINUOUS
10
145.792
20
-121.723
11
145.792
21
-126.082
0
LINE
8
BLACK
6
CONTINUOUS
10
145.792
20
-126.082
11
145.999
21
-126.201
0
LINE
8
BLACK
6
CONTINUOUS
10
165.237
20
-109.8
11
165.463
21
-109.53
0
LINE
8
BLACK
6
CONTINUOUS
10
165.463
20
-109.53
11
165.769
21
-109.354
0
LINE
8
BLACK
6
CONTINUOUS
10
165.769
20
-109.354
11
166.116
21
-109.293
0
LINE
8
BLACK
6
CONTINUOUS
10
166.116
20
-109.293
11
166.463
21
-109.354
0
LINE
8
BLACK
6
CONTINUOUS
10
166.463
20
-109.354
11
166.769
21
-109.53
0
LINE
8
BLACK
6
CONTINUOUS
10
166.769
20
-109.53
11
166.995
21
-109.8
0
LINE
8
BLACK
6
CONTINUOUS
10
166.995
20
-109.8
11
167.116
21
-110.132
0
LINE
8
BLACK
6
CONTINUOUS
10
167.116
20
-110.132
11
167.116
21
-110.484
0
LINE
8
BLACK
6
CONTINUOUS
10
167.116
20
-110.484
11
166.995
21
-110.816
0
LINE
8
BLACK
6
CONTINUOUS
10
166.995
20
-110.816
11
166.987
21
-110.826
0
LINE
8
BLACK
6
CONTINUOUS
10
166.987
20
-110.826
11
167.926
21
-111.764
0
LINE
8
BLACK
6
CONTINUOUS
10
167.926
20
-111.764
11
177.966
21
-111.764
0
LINE
8
BLACK
6
CONTINUOUS
10
177.966
20
-111.764
11
177.966
21
-111.164
0
LINE
8
BLACK
6
CONTINUOUS
10
177.966
20
-111.164
11
179.666
21
-111.164
0
LINE
8
BLACK
6
CONTINUOUS
10
179.666
20
-111.164
11
179.666
21
-111.764
0
LINE
8
BLACK
6
CONTINUOUS
10
179.666
20
-111.764
11
180.155
21
-111.764
0
LINE
8
BLACK
6
CONTINUOUS
10
180.155
20
-111.764
11
180.188
21
-111.761
0
LINE
8
BLACK
6
CONTINUOUS
10
180.188
20
-111.761
11
180.22
21
-111.77
0
LINE
8
BLACK
6
CONTINUOUS
10
180.22
20
-111.77
11
180.253
21
-111.775
0
LINE
8
BLACK
6
CONTINUOUS
10
180.253
20
-111.775
11
180.262
21
-111.781
0
LINE
8
BLACK
6
CONTINUOUS
10
180.262
20
-111.781
11
180.273
21
-111.784
0
LINE
8
BLACK
6
CONTINUOUS
10
180.273
20
-111.784
11
180.3
21
-111.803
0
LINE
8
BLACK
6
CONTINUOUS
10
180.3
20
-111.803
11
180.329
21
-111.82
0
LINE
8
BLACK
6
CONTINUOUS
10
180.329
20
-111.82
11
180.35
21
-111.845
0
LINE
8
BLACK
6
CONTINUOUS
10
180.35
20
-111.845
11
181.605
21
-113.1
0
LINE
8
BLACK
6
CONTINUOUS
10
181.605
20
-113.1
11
181.63
21
-113.121
0
LINE
8
BLACK
6
CONTINUOUS
10
181.63
20
-113.121
11
181.647
21
-113.15
0
LINE
8
BLACK
6
CONTINUOUS
10
181.647
20
-113.15
11
181.666
21
-113.177
0
LINE
8
BLACK
6
CONTINUOUS
10
181.666
20
-113.177
11
181.669
21
-113.188
0
LINE
8
BLACK
6
CONTINUOUS
10
181.669
20
-113.188
11
181.675
21
-113.197
0
LINE
8
BLACK
6
CONTINUOUS
10
181.675
20
-113.197
11
181.68
21
-113.23
0
LINE
8
BLACK
6
CONTINUOUS
10
181.68
20
-113.23
11
181.689
21
-113.262
0
LINE
8
BLACK
6
CONTINUOUS
10
181.689
20
-113.262
11
181.686
21
-113.295
0
LINE
8
BLACK
6
CONTINUOUS
10
181.686
20
-113.295
11
181.686
21
-129.449
0
LINE
8
BLACK
6
CONTINUOUS
10
181.686
20
-129.449
11
181.689
21
-129.482
0
LINE
8
BLACK
6
CONTINUOUS
10
181.689
20
-129.482
11
181.68
21
-129.514
0
LINE
8
BLACK
6
CONTINUOUS
10
181.68
20
-129.514
11
181.675
21
-129.547
0
LINE
8
BLACK
6
CONTINUOUS
10
181.675
20
-129.547
11
181.669
21
-129.556
0
LINE
8
BLACK
6
CONTINUOUS
10
181.669
20
-129.556
11
181.666
21
-129.567
0
LINE
8
BLACK
6
CONTINUOUS
10
181.666
20
-129.567
11
181.647
21
-129.594
0
LINE
8
BLACK
6
CONTINUOUS
10
181.647
20
-129.594
11
181.63
21
-129.623
0
LINE
8
BLACK
6
CONTINUOUS
10
181.63
20
-129.623
11
181.605
21
-129.644
0
LINE
8
BLACK
6
CONTINUOUS
10
181.605
20
-129.644
11
180.778
21
-130.471
0
LINE
8
BLACK
6
CONTINUOUS
10
180.778
20
-130.471
11
180.757
21
-130.496
0
LINE
8
BLACK
6
CONTINUOUS
10
180.757
20
-130.496
11
180.728
21
-130.513
0
LINE
8
BLACK
6
CONTINUOUS
10
180.728
20
-130.513
11
180.701
21
-130.532
0
LINE
8
BLACK
6
CONTINUOUS
10
180.701
20
-130.532
11
180.69
21
-130.535
0
LINE
8
BLACK
6
CONTINUOUS
10
180.69
20
-130.535
11
180.681
21
-130.541
0
LINE
8
BLACK
6
CONTINUOUS
10
180.681
20
-130.541
11
180.648
21
-130.546
0
LINE
8
BLACK
6
CONTINUOUS
10
180.648
20
-130.546
11
180.616
21
-130.555
0
LINE
8
BLACK
6
CONTINUOUS
10
180.616
20
-130.555
11
180.583
21
-130.552
0
LINE
8
BLACK
6
CONTINUOUS
10
180.583
20
-130.552
11
168.667
21
-130.552
0
LINE
8
BLACK
6
CONTINUOUS
10
168.667
20
-130.552
11
168.634
21
-130.555
0
LINE
8
BLACK
6
CONTINUOUS
10
168.634
20
-130.555
11
168.602
21
-130.546
0
LINE
8
BLACK
6
CONTINUOUS
10
168.602
20
-130.546
11
168.569
21
-130.541
0
LINE
8
BLACK
6
CONTINUOUS
10
168.569
20
-130.541
11
168.56
21
-130.535
0
LINE
8
BLACK
6
CONTINUOUS
10
168.56
20
-130.535
11
168.549
21
-130.532
0
LINE
8
BLACK
6
CONTINUOUS
10
168.549
20
-130.532
11
168.522
21
-130.513
0
LINE
8
BLACK
6
CONTINUOUS
10
168.522
20
-130.513
11
168.493
21
-130.496
0
LINE
8
BLACK
6
CONTINUOUS
10
168.493
20
-130.496
11
168.472
21
-130.471
0
LINE
8
BLACK
6
CONTINUOUS
10
168.472
20
-130.471
11
166.624
21
-128.623
0
LINE
8
BLACK
6
CONTINUOUS
10
166.624
20
-128.623
11
166.463
21
-128.716
0
LINE
8
BLACK
6
CONTINUOUS
10
166.463
20
-128.716
11
166.116
21
-128.777
0
LINE
8
BLACK
6
CONTINUOUS
10
166.116
20
-128.777
11
165.769
21
-128.716
0
LINE
8
BLACK
6
CONTINUOUS
10
165.769
20
-128.716
11
165.463
21
-128.54
0
LINE
8
BLACK
6
CONTINUOUS
10
165.463
20
-128.54
11
165.237
21
-128.27
0
LINE
8
BLACK
6
CONTINUOUS
10
165.237
20
-128.27
11
165.116
21
-127.938
0
LINE
8
BLACK
6
CONTINUOUS
10
165.116
20
-127.938
11
165.116
21
-127.586
0
LINE
8
BLACK
6
CONTINUOUS
10
165.116
20
-127.586
11
165.237
21
-127.254
0
LINE
8
BLACK
6
CONTINUOUS
10
165.237
20
-127.254
11
165.463
21
-126.984
0
LINE
8
BLACK
6
CONTINUOUS
10
165.463
20
-126.984
11
165.769
21
-126.808
0
LINE
8
BLACK
6
CONTINUOUS
10
165.769
20
-126.808
11
166.116
21
-126.747
0
LINE
8
BLACK
6
CONTINUOUS
10
166.116
20
-126.747
11
166.463
21
-126.808
0
LINE
8
BLACK
6
CONTINUOUS
10
166.463
20
-126.808
11
166.769
21
-126.984
0
LINE
8
BLACK
6
CONTINUOUS
10
166.769
20
-126.984
11
166.995
21
-127.254
0
LINE
8
BLACK
6
CONTINUOUS
10
166.995
20
-127.254
11
167.116
21
-127.586
0
LINE
8
BLACK
6
CONTINUOUS
10
167.116
20
-127.586
11
167.116
21
-127.938
0
LINE
8
BLACK
6
CONTINUOUS
10
167.116
20
-127.938
11
166.995
21
-128.27
0
LINE
8
BLACK
6
CONTINUOUS
10
166.995
20
-128.27
11
166.987
21
-128.28
0
LINE
8
BLACK
6
CONTINUOUS
10
166.987
20
-128.28
11
168.76
21
-130.052
0
LINE
8
BLACK
6
CONTINUOUS
10
168.76
20
-130.052
11
180.49
21
-130.052
0
LINE
8
BLACK
6
CONTINUOUS
10
180.49
20
-130.052
11
181.186
21
-129.356
0
LINE
8
BLACK
6
CONTINUOUS
10
181.186
20
-129.356
11
181.186
21
-113.388
0
LINE
8
BLACK
6
CONTINUOUS
10
181.186
20
-113.388
11
180.062
21
-112.264
0
LINE
8
BLACK
6
CONTINUOUS
10
180.062
20
-112.264
11
179.666
21
-112.264
0
LINE
8
BLACK
6
CONTINUOUS
10
179.666
20
-112.264
11
179.666
21
-112.864
0
LINE
8
BLACK
6
CONTINUOUS
10
179.666
20
-112.864
11
177.966
21
-112.864
0
LINE
8
BLACK
6
CONTINUOUS
10
177.966
20
-112.864
11
177.966
21
-112.264
0
LINE
8
BLACK
6
CONTINUOUS
10
177.966
20
-112.264
11
167.833
21
-112.264
0
LINE
8
BLACK
6
CONTINUOUS
10
167.833
20
-112.264
11
167.8
21
-112.267
0
LINE
8
BLACK
6
CONTINUOUS
10
167.8
20
-112.267
11
167.768
21
-112.258
0
LINE
8
BLACK
6
CONTINUOUS
10
167.768
20
-112.258
11
167.735
21
-112.253
0
LINE
8
BLACK
6
CONTINUOUS
10
167.735
20
-112.253
11
167.726
21
-112.247
0
LINE
8
BLACK
6
CONTINUOUS
10
167.726
20
-112.247
11
167.715
21
-112.244
0
LINE
8
BLACK
6
CONTINUOUS
10
167.715
20
-112.244
11
167.688
21
-112.225
0
LINE
8
BLACK
6
CONTINUOUS
10
167.688
20
-112.225
11
167.659
21
-112.208
0
LINE
8
BLACK
6
CONTINUOUS
10
167.659
20
-112.208
11
167.638
21
-112.183
0
LINE
8
BLACK
6
CONTINUOUS
10
167.638
20
-112.183
11
166.624
21
-111.169
0
LINE
8
BLACK
6
CONTINUOUS
10
166.624
20
-111.169
11
166.463
21
-111.262
0
LINE
8
BLACK
6
CONTINUOUS
10
166.463
20
-111.262
11
166.116
21
-111.323
0
LINE
8
BLACK
6
CONTINUOUS
10
166.116
20
-111.323
11
165.769
21
-111.262
0
LINE
8
BLACK
6
CONTINUOUS
10
165.769
20
-111.262
11
165.463
21
-111.086
0
LINE
8
BLACK
6
CONTINUOUS
10
165.463
20
-111.086
11
165.237
21
-110.816
0
LINE
8
BLACK
6
CONTINUOUS
10
165.237
20
-110.816
11
165.143
21
-110.558
0
LINE
8
BLACK
6
CONTINUOUS
10
165.143
20
-110.558
11
160.589
21
-110.558
0
LINE
8
BLACK
6
CONTINUOUS
10
160.589
20
-110.558
11
160.495
21
-110.816
0
LINE
8
BLACK
6
CONTINUOUS
10
160.495
20
-110.816
11
160.269
21
-111.086
0
LINE
8
BLACK
6
CONTINUOUS
10
160.269
20
-111.086
11
159.963
21
-111.262
0
LINE
8
BLACK
6
CONTINUOUS
10
159.963
20
-111.262
11
159.616
21
-111.323
0
LINE
8
BLACK
6
CONTINUOUS
10
159.616
20
-111.323
11
159.269
21
-111.262
0
LINE
8
BLACK
6
CONTINUOUS
10
159.269
20
-111.262
11
158.963
21
-111.086
0
LINE
8
BLACK
6
CONTINUOUS
10
158.963
20
-111.086
11
158.737
21
-110.816
0
LINE
8
BLACK
6
CONTINUOUS
10
158.737
20
-110.816
11
158.616
21
-110.484
0
LINE
8
BLACK
6
CONTINUOUS
10
158.616
20
-110.484
11
158.616
21
-110.132
0
LINE
8
BLACK
6
CONTINUOUS
10
158.616
20
-110.132
11
158.737
21
-109.8
0
LINE
8
BLACK
6
CONTINUOUS
10
158.737
20
-109.8
11
158.745
21
-109.79
0
LINE
8
BLACK
6
CONTINUOUS
10
158.745
20
-109.79
11
155.63
21
-106.676
0
LINE
8
BLACK
6
CONTINUOUS
10
155.63
20
-106.676
11
125.98
21
-106.676
0
LINE
8
BLACK
6
CONTINUOUS
10
125.98
20
-106.676
11
125.98
21
-107.995
0
LINE
8
BLACK
6
CONTINUOUS
10
125.98
20
-107.995
11
126.077
21
-108.012
0
LINE
8
BLACK
6
CONTINUOUS
10
126.077
20
-108.012
11
126.383
21
-108.188
0
LINE
8
BLACK
6
CONTINUOUS
10
126.383
20
-108.188
11
126.609
21
-108.458
0
LINE
8
BLACK
6
CONTINUOUS
10
126.609
20
-108.458
11
126.73
21
-108.79
0
LINE
8
BLACK
6
CONTINUOUS
10
126.73
20
-108.79
11
126.73
21
-109.142
0
LINE
8
BLACK
6
CONTINUOUS
10
126.73
20
-109.142
11
126.609
21
-109.474
0
LINE
8
BLACK
6
CONTINUOUS
10
126.609
20
-109.474
11
126.383
21
-109.744
0
LINE
8
BLACK
6
CONTINUOUS
10
126.383
20
-109.744
11
126.077
21
-109.92
0
LINE
8
BLACK
6
CONTINUOUS
10
126.077
20
-109.92
11
125.73
21
-109.981
0
LINE
8
BLACK
6
CONTINUOUS
10
125.73
20
-109.981
11
125.383
21
-109.92
0
LINE
8
BLACK
6
CONTINUOUS
10
125.383
20
-109.92
11
125.077
21
-109.744
0
LINE
8
BLACK
6
CONTINUOUS
10
125.077
20
-109.744
11
124.851
21
-109.474
0
LINE
8
BLACK
6
CONTINUOUS
10
124.851
20
-109.474
11
124.757
21
-109.216
0
LINE
8
BLACK
6
CONTINUOUS
10
124.757
20
-109.216
11
121.944
21
-109.216
0
LINE
8
BLACK
6
CONTINUOUS
10
121.944
20
-109.216
11
120.392
21
-110.768
0
LINE
8
BLACK
6
CONTINUOUS
10
120.392
20
-110.768
11
120.392
21
-111.164
0
LINE
8
BLACK
6
CONTINUOUS
10
120.392
20
-111.164
11
120.992
21
-111.164
0
LINE
8
BLACK
6
CONTINUOUS
10
120.992
20
-111.164
11
120.992
21
-112.864
0
LINE
8
BLACK
6
CONTINUOUS
10
120.992
20
-112.864
11
120.392
21
-112.864
0
LINE
8
BLACK
6
CONTINUOUS
10
120.392
20
-112.864
11
120.392
21
-119.009
0
LINE
8
BLACK
6
CONTINUOUS
10
120.392
20
-119.009
11
120.638
21
-119.009
0
LINE
8
BLACK
6
CONTINUOUS
10
120.638
20
-119.009
11
120.638
21
-119.384
0
LINE
8
BLACK
6
CONTINUOUS
10
120.638
20
-119.384
11
124.314
21
-119.384
0
LINE
8
BLACK
6
CONTINUOUS
10
124.314
20
-119.384
11
124.352
21
-119.279
0
LINE
8
BLACK
6
CONTINUOUS
10
124.352
20
-119.279
11
124.511
21
-119.089
0
LINE
8
BLACK
6
CONTINUOUS
10
124.511
20
-119.089
11
124.725
21
-118.966
0
LINE
8
BLACK
6
CONTINUOUS
10
124.725
20
-118.966
11
124.907
21
-118.934
0
LINE
8
BLACK
6
CONTINUOUS
10
124.907
20
-118.934
11
125.029
21
-118.934
0
LINE
8
BLACK
6
CONTINUOUS
10
125.029
20
-118.934
11
125.211
21
-118.966
0
LINE
8
BLACK
6
CONTINUOUS
10
125.211
20
-118.966
11
125.256
21
-118.992
0
LINE
8
BLACK
6
CONTINUOUS
10
125.256
20
-118.992
11
126.034
21
-118.215
0
LINE
8
BLACK
6
CONTINUOUS
10
126.034
20
-118.215
11
126.055
21
-118.19
0
LINE
8
BLACK
6
CONTINUOUS
10
126.055
20
-118.19
11
126.084
21
-118.173
0
LINE
8
BLACK
6
CONTINUOUS
10
126.084
20
-118.173
11
126.111
21
-118.154
0
LINE
8
BLACK
6
CONTINUOUS
10
126.111
20
-118.154
11
126.122
21
-118.151
0
LINE
8
BLACK
6
CONTINUOUS
10
126.122
20
-118.151
11
126.131
21
-118.145
0
LINE
8
BLACK
6
CONTINUOUS
10
126.131
20
-118.145
11
126.164
21
-118.14
0
LINE
8
BLACK
6
CONTINUOUS
10
126.164
20
-118.14
11
126.196
21
-118.131
0
LINE
8
BLACK
6
CONTINUOUS
10
126.196
20
-118.131
11
126.229
21
-118.134
0
LINE
8
BLACK
6
CONTINUOUS
10
126.229
20
-118.134
11
138.821
21
-118.134
0
LINE
8
BLACK
6
CONTINUOUS
10
138.821
20
-118.134
11
138.821
21
-117.634
0
LINE
8
BLACK
6
CONTINUOUS
10
138.821
20
-117.634
11
140.071
21
-117.634
0
LINE
8
BLACK
6
CONTINUOUS
10
140.071
20
-117.634
11
140.071
21
-118.134
0
LINE
8
BLACK
6
CONTINUOUS
10
140.071
20
-118.134
11
142.181
21
-118.134
0
LINE
8
BLACK
6
CONTINUOUS
10
142.181
20
-118.134
11
142.255
21
-117.932
0
LINE
8
BLACK
6
CONTINUOUS
10
142.255
20
-117.932
11
142.447
21
-117.703
0
LINE
8
BLACK
6
CONTINUOUS
10
142.447
20
-117.703
11
142.707
21
-117.553
0
LINE
8
BLACK
6
CONTINUOUS
10
142.707
20
-117.553
11
142.928
21
-117.514
0
LINE
8
BLACK
6
CONTINUOUS
10
142.928
20
-117.514
11
143.076
21
-117.514
0
LINE
8
BLACK
6
CONTINUOUS
10
143.076
20
-117.514
11
143.297
21
-117.553
0
LINE
8
BLACK
6
CONTINUOUS
10
143.297
20
-117.553
11
143.557
21
-117.703
0
LINE
8
BLACK
6
CONTINUOUS
10
143.557
20
-117.703
11
143.749
21
-117.932
0
LINE
8
BLACK
6
CONTINUOUS
10
143.749
20
-117.932
11
143.852
21
-118.214
0
LINE
8
BLACK
6
CONTINUOUS
10
143.852
20
-118.214
11
143.852
21
-118.514
0
LINE
8
BLACK
6
CONTINUOUS
10
143.852
20
-118.514
11
143.749
21
-118.796
0
LINE
8
BLACK
6
CONTINUOUS
10
143.749
20
-118.796
11
143.557
21
-119.025
0
LINE
8
BLACK
6
CONTINUOUS
10
143.557
20
-119.025
11
143.297
21
-119.175
0
LINE
8
BLACK
6
CONTINUOUS
10
143.297
20
-119.175
11
143.076
21
-119.214
0
LINE
8
BLACK
6
CONTINUOUS
10
143.076
20
-119.214
11
142.928
21
-119.214
0
LINE
8
BLACK
6
CONTINUOUS
10
142.928
20
-119.214
11
142.707
21
-119.175
0
LINE
8
BLACK
6
CONTINUOUS
10
142.707
20
-119.175
11
142.447
21
-119.025
0
LINE
8
BLACK
6
CONTINUOUS
10
142.447
20
-119.025
11
142.255
21
-118.796
0
LINE
8
BLACK
6
CONTINUOUS
10
142.255
20
-118.796
11
142.196
21
-118.634
0
LINE
8
BLACK
6
CONTINUOUS
10
142.196
20
-118.634
11
140.071
21
-118.634
0
LINE
8
BLACK
6
CONTINUOUS
10
140.071
20
-118.634
11
140.071
21
-119.134
0
LINE
8
BLACK
6
CONTINUOUS
10
140.071
20
-119.134
11
138.821
21
-119.134
0
LINE
8
BLACK
6
CONTINUOUS
10
138.821
20
-119.134
11
138.821
21
-118.634
0
LINE
8
BLACK
6
CONTINUOUS
10
138.821
20
-118.634
11
126.322
21
-118.634
0
LINE
8
BLACK
6
CONTINUOUS
10
126.322
20
-118.634
11
125.608
21
-119.347
0
LINE
8
BLACK
6
CONTINUOUS
10
125.608
20
-119.347
11
125.668
21
-119.511
0
LINE
8
BLACK
6
CONTINUOUS
10
125.668
20
-119.511
11
125.668
21
-119.757
0
LINE
8
BLACK
6
CONTINUOUS
10
125.668
20
-119.757
11
125.584
21
-119.989
0
LINE
8
BLACK
6
CONTINUOUS
10
125.584
20
-119.989
11
125.425
21
-120.179
0
LINE
8
BLACK
6
CONTINUOUS
10
125.425
20
-120.179
11
125.211
21
-120.302
0
LINE
8
BLACK
6
CONTINUOUS
10
125.211
20
-120.302
11
125.029
21
-120.334
0
LINE
8
BLACK
6
CONTINUOUS
10
125.029
20
-120.334
11
124.907
21
-120.334
0
LINE
8
BLACK
6
CONTINUOUS
10
124.907
20
-120.334
11
124.725
21
-120.302
0
LINE
8
BLACK
6
CONTINUOUS
10
124.725
20
-120.302
11
124.511
21
-120.179
0
LINE
8
BLACK
6
CONTINUOUS
10
124.511
20
-120.179
11
124.352
21
-119.989
0
LINE
8
BLACK
6
CONTINUOUS
10
124.352
20
-119.989
11
124.314
21
-119.884
0
LINE
8
BLACK
6
CONTINUOUS
10
124.314
20
-119.884
11
120.638
21
-119.884
0
LINE
8
BLACK
6
CONTINUOUS
10
120.638
20
-119.884
11
120.638
21
-120.259
0
LINE
8
BLACK
6
CONTINUOUS
10
120.638
20
-120.259
11
119.138
21
-120.259
0
LINE
8
BLACK
6
CONTINUOUS
10
119.138
20
-120.259
11
119.138
21
-119.009
0
LINE
8
BLACK
6
CONTINUOUS
10
119.138
20
-119.009
11
119.892
21
-119.009
0
LINE
8
BLACK
6
CONTINUOUS
10
119.892
20
-119.009
11
119.892
21
-112.864
0
LINE
8
BLACK
6
CONTINUOUS
10
119.892
20
-112.864
11
119.292
21
-112.864
0
LINE
8
BLACK
6
CONTINUOUS
10
119.292
20
-112.864
11
119.292
21
-111.164
0
LINE
8
BLACK
6
CONTINUOUS
10
119.292
20
-111.164
11
119.892
21
-111.164
0
LINE
8
BLACK
6
CONTINUOUS
10
119.892
20
-111.164
11
119.892
21
-110.675
0
LINE
8
BLACK
6
CONTINUOUS
10
119.892
20
-110.675
11
119.889
21
-110.642
0
LINE
8
BLACK
6
CONTINUOUS
10
119.889
20
-110.642
11
119.898
21
-110.61
0
LINE
8
BLACK
6
CONTINUOUS
10
119.898
20
-110.61
11
119.903
21
-110.577
0
LINE
8
BLACK
6
CONTINUOUS
10
119.903
20
-110.577
11
119.909
21
-110.568
0
LINE
8
BLACK
6
CONTINUOUS
10
119.909
20
-110.568
11
119.912
21
-110.557
0
LINE
8
BLACK
6
CONTINUOUS
10
119.912
20
-110.557
11
119.931
21
-110.53
0
LINE
8
BLACK
6
CONTINUOUS
10
119.931
20
-110.53
11
119.948
21
-110.501
0
LINE
8
BLACK
6
CONTINUOUS
10
119.948
20
-110.501
11
119.973
21
-110.48
0
LINE
8
BLACK
6
CONTINUOUS
10
119.973
20
-110.48
11
121.656
21
-108.797
0
LINE
8
BLACK
6
CONTINUOUS
10
121.656
20
-108.797
11
121.677
21
-108.772
0
LINE
8
BLACK
6
CONTINUOUS
10
121.677
20
-108.772
11
121.706
21
-108.755
0
LINE
8
BLACK
6
CONTINUOUS
10
121.706
20
-108.755
11
121.733
21
-108.736
0
LINE
8
BLACK
6
CONTINUOUS
10
121.733
20
-108.736
11
121.744
21
-108.733
0
LINE
8
BLACK
6
CONTINUOUS
10
121.744
20
-108.733
11
121.753
21
-108.727
0
LINE
8
BLACK
6
CONTINUOUS
10
121.753
20
-108.727
11
121.786
21
-108.722
0
LINE
8
BLACK
6
CONTINUOUS
10
121.786
20
-108.722
11
121.818
21
-108.713
0
LINE
8
BLACK
6
CONTINUOUS
10
121.818
20
-108.713
11
121.851
21
-108.716
0
LINE
8
BLACK
6
CONTINUOUS
10
121.851
20
-108.716
11
124.757
21
-108.716
0
LINE
8
BLACK
6
CONTINUOUS
10
124.757
20
-108.716
11
124.851
21
-108.458
0
LINE
8
BLACK
6
CONTINUOUS
10
124.851
20
-108.458
11
125.077
21
-108.188
0
LINE
8
BLACK
6
CONTINUOUS
10
125.077
20
-108.188
11
125.383
21
-108.012
0
LINE
8
BLACK
6
CONTINUOUS
10
125.383
20
-108.012
11
125.48
21
-107.995
0
LINE
8
BLACK
6
CONTINUOUS
10
125.48
20
-107.995
11
125.48
21
-106.404
0
LINE
8
BLACK
6
CONTINUOUS
10
125.48
20
-106.404
11
125.48
21
-106.382
0
LINE
8
BLACK
6
CONTINUOUS
10
125.48
20
-106.382
11
125.488
21
-106.361
0
LINE
8
BLACK
6
CONTINUOUS
10
125.488
20
-106.361
11
125.491
21
-106.339
0
LINE
8
BLACK
6
CONTINUOUS
10
125.491
20
-106.339
11
125.503
21
-106.32
0
LINE
8
BLACK
6
CONTINUOUS
10
125.503
20
-106.32
11
125.51
21
-106.299
0
LINE
8
BLACK
6
CONTINUOUS
10
125.51
20
-106.299
11
125.524
21
-106.282
0
LINE
8
BLACK
6
CONTINUOUS
10
125.524
20
-106.282
11
125.536
21
-106.263
0
LINE
8
BLACK
6
CONTINUOUS
10
125.536
20
-106.263
11
125.553
21
-106.249
0
LINE
8
BLACK
6
CONTINUOUS
10
125.553
20
-106.249
11
125.567
21
-106.232
0
LINE
8
BLACK
6
CONTINUOUS
10
125.567
20
-106.232
11
125.586
21
-106.22
0
LINE
8
BLACK
6
CONTINUOUS
10
125.586
20
-106.22
11
125.603
21
-106.206
0
LINE
8
BLACK
6
CONTINUOUS
10
125.603
20
-106.206
11
125.624
21
-106.199
0
LINE
8
BLACK
6
CONTINUOUS
10
125.624
20
-106.199
11
125.643
21
-106.187
0
LINE
8
BLACK
6
CONTINUOUS
10
125.643
20
-106.187
11
125.665
21
-106.184
0
LINE
8
BLACK
6
CONTINUOUS
10
125.665
20
-106.184
11
125.686
21
-106.176
0
LINE
8
BLACK
6
CONTINUOUS
10
125.686
20
-106.176
11
125.708
21
-106.176
0
LINE
8
BLACK
6
CONTINUOUS
10
125.708
20
-106.176
11
125.708
21
-106.176
0
LINE
8
BLACK
6
CONTINUOUS
10
125.708
20
-106.176
11
155.723
21
-106.176
0
LINE
8
BLACK
6
CONTINUOUS
10
155.723
20
-106.176
11
155.756
21
-106.173
0
LINE
8
BLACK
6
CONTINUOUS
10
155.756
20
-106.173
11
155.788
21
-106.182
0
LINE
8
BLACK
6
CONTINUOUS
10
155.788
20
-106.182
11
155.821
21
-106.187
0
LINE
8
BLACK
6
CONTINUOUS
10
155.821
20
-106.187
11
155.83
21
-106.193
0
LINE
8
BLACK
6
CONTINUOUS
10
155.83
20
-106.193
11
155.841
21
-106.196
0
LINE
8
BLACK
6
CONTINUOUS
10
155.841
20
-106.196
11
155.868
21
-106.215
0
LINE
8
BLACK
6
CONTINUOUS
10
155.868
20
-106.215
11
155.897
21
-106.232
0
LINE
8
BLACK
6
CONTINUOUS
10
155.897
20
-106.232
11
155.918
21
-106.257
0
LINE
8
BLACK
6
CONTINUOUS
10
155.918
20
-106.257
11
159.108
21
-109.447
0
LINE
8
BLACK
6
CONTINUOUS
10
159.108
20
-109.447
11
159.269
21
-109.354
0
LINE
8
BLACK
6
CONTINUOUS
10
159.269
20
-109.354
11
159.616
21
-109.293
0
LINE
8
BLACK
6
CONTINUOUS
10
159.616
20
-109.293
11
159.963
21
-109.354
0
LINE
8
BLACK
6
CONTINUOUS
10
159.963
20
-109.354
11
160.269
21
-109.53
0
LINE
8
BLACK
6
CONTINUOUS
10
160.269
20
-109.53
11
160.495
21
-109.8
0
LINE
8
BLACK
6
CONTINUOUS
10
160.495
20
-109.8
11
160.589
21
-110.058
0
LINE
8
BLACK
6
CONTINUOUS
10
160.589
20
-110.058
11
165.143
21
-110.058
0
LINE
8
BLACK
6
CONTINUOUS
10
165.143
20
-110.058
11
165.237
21
-109.8
0
LINE
8
BLACK
6
CONTINUOUS
10
117.897
20
-111.203
11
118.157
21
-111.353
0
LINE
8
BLACK
6
CONTINUOUS
10
118.157
20
-111.353
11
118.349
21
-111.582
0
LINE
8
BLACK
6
CONTINUOUS
10
118.349
20
-111.582
11
118.452
21
-111.864
0
LINE
8
BLACK
6
CONTINUOUS
10
118.452
20
-111.864
11
118.452
21
-112.164
0
LINE
8
BLACK
6
CONTINUOUS
10
118.452
20
-112.164
11
118.349
21
-112.446
0
LINE
8
BLACK
6
CONTINUOUS
10
118.349
20
-112.446
11
118.157
21
-112.675
0
LINE
8
BLACK
6
CONTINUOUS
10
118.157
20
-112.675
11
117.897
21
-112.825
0
LINE
8
BLACK
6
CONTINUOUS
10
117.897
20
-112.825
11
117.852
21
-112.833
0
LINE
8
BLACK
6
CONTINUOUS
10
117.852
20
-112.833
11
117.852
21
-119.009
0
LINE
8
BLACK
6
CONTINUOUS
10
117.852
20
-119.009
11
118.138
21
-119.009
0
LINE
8
BLACK
6
CONTINUOUS
10
118.138
20
-119.009
11
118.138
21
-120.259
0
LINE
8
BLACK
6
CONTINUOUS
10
118.138
20
-120.259
11
117.638
21
-120.259
0
LINE
8
BLACK
6
CONTINUOUS
10
117.638
20
-120.259
11
117.638
21
-127.698
0
LINE
8
BLACK
6
CONTINUOUS
10
117.638
20
-127.698
11
118.11
21
-128.171
0
LINE
8
BLACK
6
CONTINUOUS
10
118.11
20
-128.171
11
118.271
21
-128.078
0
LINE
8
BLACK
6
CONTINUOUS
10
118.271
20
-128.078
11
118.618
21
-128.017
0
LINE
8
BLACK
6
CONTINUOUS
10
118.618
20
-128.017
11
118.965
21
-128.078
0
LINE
8
BLACK
6
CONTINUOUS
10
118.965
20
-128.078
11
119.271
21
-128.254
0
LINE
8
BLACK
6
CONTINUOUS
10
119.271
20
-128.254
11
119.497
21
-128.524
0
LINE
8
BLACK
6
CONTINUOUS
10
119.497
20
-128.524
11
119.618
21
-128.856
0
LINE
8
BLACK
6
CONTINUOUS
10
119.618
20
-128.856
11
119.618
21
-129.208
0
LINE
8
BLACK
6
CONTINUOUS
10
119.618
20
-129.208
11
119.497
21
-129.54
0
LINE
8
BLACK
6
CONTINUOUS
10
119.497
20
-129.54
11
119.271
21
-129.81
0
LINE
8
BLACK
6
CONTINUOUS
10
119.271
20
-129.81
11
118.965
21
-129.986
0
LINE
8
BLACK
6
CONTINUOUS
10
118.965
20
-129.986
11
118.618
21
-130.047
0
LINE
8
BLACK
6
CONTINUOUS
10
118.618
20
-130.047
11
118.271
21
-129.986
0
LINE
8
BLACK
6
CONTINUOUS
10
118.271
20
-129.986
11
117.965
21
-129.81
0
LINE
8
BLACK
6
CONTINUOUS
10
117.965
20
-129.81
11
117.739
21
-129.54
0
LINE
8
BLACK
6
CONTINUOUS
10
117.739
20
-129.54
11
117.618
21
-129.208
0
LINE
8
BLACK
6
CONTINUOUS
10
117.618
20
-129.208
11
117.618
21
-128.856
0
LINE
8
BLACK
6
CONTINUOUS
10
117.618
20
-128.856
11
117.739
21
-128.524
0
LINE
8
BLACK
6
CONTINUOUS
10
117.739
20
-128.524
11
117.747
21
-128.514
0
LINE
8
BLACK
6
CONTINUOUS
10
117.747
20
-128.514
11
117.156
21
-127.923
0
LINE
8
BLACK
6
CONTINUOUS
10
117.156
20
-127.923
11
117.156
21
-127.923
0
LINE
8
BLACK
6
CONTINUOUS
10
117.156
20
-127.923
11
117.14
21
-127.908
0
LINE
8
BLACK
6
CONTINUOUS
10
117.14
20
-127.908
11
117.131
21
-127.887
0
LINE
8
BLACK
6
CONTINUOUS
10
117.131
20
-127.887
11
117.118
21
-127.869
0
LINE
8
BLACK
6
CONTINUOUS
10
117.118
20
-127.869
11
117.112
21
-127.848
0
LINE
8
BLACK
6
CONTINUOUS
10
117.112
20
-127.848
11
117.103
21
-127.828
0
LINE
8
BLACK
6
CONTINUOUS
10
117.103
20
-127.828
11
117.101
21
-127.806
0
LINE
8
BLACK
6
CONTINUOUS
10
117.101
20
-127.806
11
117.095
21
-127.784
0
LINE
8
BLACK
6
CONTINUOUS
10
117.095
20
-127.784
11
117.097
21
-127.762
0
LINE
8
BLACK
6
CONTINUOUS
10
117.097
20
-127.762
11
117.095
21
-127.74
0
LINE
8
BLACK
6
CONTINUOUS
10
117.095
20
-127.74
11
117.101
21
-127.718
0
LINE
8
BLACK
6
CONTINUOUS
10
117.101
20
-127.718
11
117.103
21
-127.696
0
LINE
8
BLACK
6
CONTINUOUS
10
117.103
20
-127.696
11
117.112
21
-127.676
0
LINE
8
BLACK
6
CONTINUOUS
10
117.112
20
-127.676
11
117.118
21
-127.655
0
LINE
8
BLACK
6
CONTINUOUS
10
117.118
20
-127.655
11
117.131
21
-127.637
0
LINE
8
BLACK
6
CONTINUOUS
10
117.131
20
-127.637
11
117.138
21
-127.621
0
LINE
8
BLACK
6
CONTINUOUS
10
117.138
20
-127.621
11
117.138
21
-120.259
0
LINE
8
BLACK
6
CONTINUOUS
10
117.138
20
-120.259
11
116.638
21
-120.259
0
LINE
8
BLACK
6
CONTINUOUS
10
116.638
20
-120.259
11
116.638
21
-119.009
0
LINE
8
BLACK
6
CONTINUOUS
10
116.638
20
-119.009
11
117.352
21
-119.009
0
LINE
8
BLACK
6
CONTINUOUS
10
117.352
20
-119.009
11
117.352
21
-112.833
0
LINE
8
BLACK
6
CONTINUOUS
10
117.352
20
-112.833
11
117.307
21
-112.825
0
LINE
8
BLACK
6
CONTINUOUS
10
117.307
20
-112.825
11
117.047
21
-112.675
0
LINE
8
BLACK
6
CONTINUOUS
10
117.047
20
-112.675
11
116.855
21
-112.446
0
LINE
8
BLACK
6
CONTINUOUS
10
116.855
20
-112.446
11
116.752
21
-112.164
0
LINE
8
BLACK
6
CONTINUOUS
10
116.752
20
-112.164
11
116.752
21
-111.864
0
LINE
8
BLACK
6
CONTINUOUS
10
116.752
20
-111.864
11
116.855
21
-111.582
0
LINE
8
BLACK
6
CONTINUOUS
10
116.855
20
-111.582
11
117.047
21
-111.353
0
LINE
8
BLACK
6
CONTINUOUS
10
117.047
20
-111.353
11
117.307
21
-111.203
0
LINE
8
BLACK
6
CONTINUOUS
10
117.307
20
-111.203
11
117.528
21
-111.164
0
LINE
8
BLACK
6
CONTINUOUS
10
117.528
20
-111.164
11
117.676
21
-111.164
0
LINE
8
BLACK
6
CONTINUOUS
10
117.676
20
-111.164
11
117.897
21
-111.203
0
LINE
8
BLACK
6
CONTINUOUS
10
125.211
20
-121.506
11
125.425
21
-121.629
0
LINE
8
BLACK
6
CONTINUOUS
10
125.425
20
-121.629
11
125.584
21
-121.819
0
LINE
8
BLACK
6
CONTINUOUS
10
125.584
20
-121.819
11
125.668
21
-122.051
0
LINE
8
BLACK
6
CONTINUOUS
10
125.668
20
-122.051
11
125.668
21
-122.297
0
LINE
8
BLACK
6
CONTINUOUS
10
125.668
20
-122.297
11
125.584
21
-122.529
0
LINE
8
BLACK
6
CONTINUOUS
10
125.584
20
-122.529
11
125.425
21
-122.719
0
LINE
8
BLACK
6
CONTINUOUS
10
125.425
20
-122.719
11
125.218
21
-122.838
0
LINE
8
BLACK
6
CONTINUOUS
10
125.218
20
-122.838
11
125.218
21
-127.751
0
LINE
8
BLACK
6
CONTINUOUS
10
125.218
20
-127.751
11
125.221
21
-127.784
0
LINE
8
BLACK
6
CONTINUOUS
10
125.221
20
-127.784
11
125.212
21
-127.816
0
LINE
8
BLACK
6
CONTINUOUS
10
125.212
20
-127.816
11
125.207
21
-127.849
0
LINE
8
BLACK
6
CONTINUOUS
10
125.207
20
-127.849
11
125.201
21
-127.858
0
LINE
8
BLACK
6
CONTINUOUS
10
125.201
20
-127.858
11
125.198
21
-127.869
0
LINE
8
BLACK
6
CONTINUOUS
10
125.198
20
-127.869
11
125.179
21
-127.896
0
LINE
8
BLACK
6
CONTINUOUS
10
125.179
20
-127.896
11
125.162
21
-127.925
0
LINE
8
BLACK
6
CONTINUOUS
10
125.162
20
-127.925
11
125.137
21
-127.946
0
LINE
8
BLACK
6
CONTINUOUS
10
125.137
20
-127.946
11
124.698
21
-128.386
0
LINE
8
BLACK
6
CONTINUOUS
10
124.698
20
-128.386
11
124.698
21
-128.782
0
LINE
8
BLACK
6
CONTINUOUS
10
124.698
20
-128.782
11
129.69
21
-128.782
0
LINE
8
BLACK
6
CONTINUOUS
10
129.69
20
-128.782
11
131.186
21
-127.287
0
LINE
8
BLACK
6
CONTINUOUS
10
131.186
20
-127.287
11
131.126
21
-127.123
0
LINE
8
BLACK
6
CONTINUOUS
10
131.126
20
-127.123
11
131.126
21
-126.877
0
LINE
8
BLACK
6
CONTINUOUS
10
131.126
20
-126.877
11
131.21
21
-126.645
0
LINE
8
BLACK
6
CONTINUOUS
10
131.21
20
-126.645
11
131.369
21
-126.455
0
LINE
8
BLACK
6
CONTINUOUS
10
131.369
20
-126.455
11
131.583
21
-126.332
0
LINE
8
BLACK
6
CONTINUOUS
10
131.583
20
-126.332
11
131.765
21
-126.3
0
LINE
8
BLACK
6
CONTINUOUS
10
131.765
20
-126.3
11
131.887
21
-126.3
0
LINE
8
BLACK
6
CONTINUOUS
10
131.887
20
-126.3
11
132.069
21
-126.332
0
LINE
8
BLACK
6
CONTINUOUS
10
132.069
20
-126.332
11
132.283
21
-126.455
0
LINE
8
BLACK
6
CONTINUOUS
10
132.283
20
-126.455
11
132.442
21
-126.645
0
LINE
8
BLACK
6
CONTINUOUS
10
132.442
20
-126.645
11
132.526
21
-126.877
0
LINE
8
BLACK
6
CONTINUOUS
10
132.526
20
-126.877
11
132.526
21
-127.123
0
LINE
8
BLACK
6
CONTINUOUS
10
132.526
20
-127.123
11
132.442
21
-127.355
0
LINE
8
BLACK
6
CONTINUOUS
10
132.442
20
-127.355
11
132.283
21
-127.545
0
LINE
8
BLACK
6
CONTINUOUS
10
132.283
20
-127.545
11
132.069
21
-127.668
0
LINE
8
BLACK
6
CONTINUOUS
10
132.069
20
-127.668
11
131.887
21
-127.7
0
LINE
8
BLACK
6
CONTINUOUS
10
131.887
20
-127.7
11
131.765
21
-127.7
0
LINE
8
BLACK
6
CONTINUOUS
10
131.765
20
-127.7
11
131.583
21
-127.668
0
LINE
8
BLACK
6
CONTINUOUS
10
131.583
20
-127.668
11
131.538
21
-127.642
0
LINE
8
BLACK
6
CONTINUOUS
10
131.538
20
-127.642
11
129.978
21
-129.201
0
LINE
8
BLACK
6
CONTINUOUS
10
129.978
20
-129.201
11
129.957
21
-129.226
0
LINE
8
BLACK
6
CONTINUOUS
10
129.957
20
-129.226
11
129.928
21
-129.243
0
LINE
8
BLACK
6
CONTINUOUS
10
129.928
20
-129.243
11
129.901
21
-129.262
0
LINE
8
BLACK
6
CONTINUOUS
10
129.901
20
-129.262
11
129.89
21
-129.265
0
LINE
8
BLACK
6
CONTINUOUS
10
129.89
20
-129.265
11
129.881
21
-129.271
0
LINE
8
BLACK
6
CONTINUOUS
10
129.881
20
-129.271
11
129.848
21
-129.276
0
LINE
8
BLACK
6
CONTINUOUS
10
129.848
20
-129.276
11
129.816
21
-129.285
0
LINE
8
BLACK
6
CONTINUOUS
10
129.816
20
-129.285
11
129.783
21
-129.282
0
LINE
8
BLACK
6
CONTINUOUS
10
129.783
20
-129.282
11
124.698
21
-129.282
0
LINE
8
BLACK
6
CONTINUOUS
10
124.698
20
-129.282
11
124.698
21
-130.032
0
LINE
8
BLACK
6
CONTINUOUS
10
124.698
20
-130.032
11
122.698
21
-130.032
0
LINE
8
BLACK
6
CONTINUOUS
10
122.698
20
-130.032
11
122.698
21
-128.032
0
LINE
8
BLACK
6
CONTINUOUS
10
122.698
20
-128.032
11
124.344
21
-128.032
0
LINE
8
BLACK
6
CONTINUOUS
10
124.344
20
-128.032
11
124.718
21
-127.658
0
LINE
8
BLACK
6
CONTINUOUS
10
124.718
20
-127.658
11
124.718
21
-122.838
0
LINE
8
BLACK
6
CONTINUOUS
10
124.718
20
-122.838
11
124.511
21
-122.719
0
LINE
8
BLACK
6
CONTINUOUS
10
124.511
20
-122.719
11
124.352
21
-122.529
0
LINE
8
BLACK
6
CONTINUOUS
10
124.352
20
-122.529
11
124.268
21
-122.297
0
LINE
8
BLACK
6
CONTINUOUS
10
124.268
20
-122.297
11
124.268
21
-122.051
0
LINE
8
BLACK
6
CONTINUOUS
10
124.268
20
-122.051
11
124.352
21
-121.819
0
LINE
8
BLACK
6
CONTINUOUS
10
124.352
20
-121.819
11
124.511
21
-121.629
0
LINE
8
BLACK
6
CONTINUOUS
10
124.511
20
-121.629
11
124.725
21
-121.506
0
LINE
8
BLACK
6
CONTINUOUS
10
124.725
20
-121.506
11
124.968
21
-121.463
0
LINE
8
BLACK
6
CONTINUOUS
10
124.968
20
-121.463
11
125.211
21
-121.506
0
LINE
8
BLACK
6
CONTINUOUS
10
159.963
20
-126.808
11
160.269
21
-126.984
0
LINE
8
BLACK
6
CONTINUOUS
10
160.269
20
-126.984
11
160.495
21
-127.254
0
LINE
8
BLACK
6
CONTINUOUS
10
160.495
20
-127.254
11
160.616
21
-127.586
0
LINE
8
BLACK
6
CONTINUOUS
10
160.616
20
-127.586
11
160.616
21
-127.938
0
LINE
8
BLACK
6
CONTINUOUS
10
160.616
20
-127.938
11
160.495
21
-128.27
0
LINE
8
BLACK
6
CONTINUOUS
10
160.495
20
-128.27
11
160.269
21
-128.54
0
LINE
8
BLACK
6
CONTINUOUS
10
160.269
20
-128.54
11
159.963
21
-128.716
0
LINE
8
BLACK
6
CONTINUOUS
10
159.963
20
-128.716
11
159.616
21
-128.777
0
LINE
8
BLACK
6
CONTINUOUS
10
159.616
20
-128.777
11
159.269
21
-128.716
0
LINE
8
BLACK
6
CONTINUOUS
10
159.269
20
-128.716
11
158.963
21
-128.54
0
LINE
8
BLACK
6
CONTINUOUS
10
158.963
20
-128.54
11
158.737
21
-128.27
0
LINE
8
BLACK
6
CONTINUOUS
10
158.737
20
-128.27
11
158.616
21
-127.938
0
LINE
8
BLACK
6
CONTINUOUS
10
158.616
20
-127.938
11
158.616
21
-127.586
0
LINE
8
BLACK
6
CONTINUOUS
10
158.616
20
-127.586
11
158.737
21
-127.254
0
LINE
8
BLACK
6
CONTINUOUS
10
158.737
20
-127.254
11
158.963
21
-126.984
0
LINE
8
BLACK
6
CONTINUOUS
10
158.963
20
-126.984
11
159.269
21
-126.808
0
LINE
8
BLACK
6
CONTINUOUS
10
159.269
20
-126.808
11
159.616
21
-126.747
0
LINE
8
BLACK
6
CONTINUOUS
10
159.616
20
-126.747
11
159.963
21
-126.808
0
LINE
8
BLACK
6
CONTINUOUS
10
148.377
20
-120.093
11
148.637
21
-120.243
0
LINE
8
BLACK
6
CONTINUOUS
10
148.637
20
-120.243
11
148.829
21
-120.472
0
LINE
8
BLACK
6
CONTINUOUS
10
148.829
20
-120.472
11
148.932
21
-120.754
0
LINE
8
BLACK
6
CONTINUOUS
10
148.932
20
-120.754
11
148.932
21
-121.054
0
LINE
8
BLACK
6
CONTINUOUS
10
148.932
20
-121.054
11
148.829
21
-121.336
0
LINE
8
BLACK
6
CONTINUOUS
10
148.829
20
-121.336
11
148.637
21
-121.565
0
LINE
8
BLACK
6
CONTINUOUS
10
148.637
20
-121.565
11
148.377
21
-121.715
0
LINE
8
BLACK
6
CONTINUOUS
10
148.377
20
-121.715
11
148.332
21
-121.723
0
LINE
8
BLACK
6
CONTINUOUS
10
148.332
20
-121.723
11
148.332
21
-126.082
0
LINE
8
BLACK
6
CONTINUOUS
10
148.332
20
-126.082
11
148.37
21
-126.104
0
LINE
8
BLACK
6
CONTINUOUS
10
148.37
20
-126.104
11
151.382
21
-123.093
0
LINE
8
BLACK
6
CONTINUOUS
10
151.382
20
-123.093
11
151.403
21
-123.068
0
LINE
8
BLACK
6
CONTINUOUS
10
151.403
20
-123.068
11
151.432
21
-123.051
0
LINE
8
BLACK
6
CONTINUOUS
10
151.432
20
-123.051
11
151.459
21
-123.032
0
LINE
8
BLACK
6
CONTINUOUS
10
151.459
20
-123.032
11
151.47
21
-123.029
0
LINE
8
BLACK
6
CONTINUOUS
10
151.47
20
-123.029
11
151.479
21
-123.023
0
LINE
8
BLACK
6
CONTINUOUS
10
151.479
20
-123.023
11
151.512
21
-123.018
0
LINE
8
BLACK
6
CONTINUOUS
10
151.512
20
-123.018
11
151.544
21
-123.009
0
LINE
8
BLACK
6
CONTINUOUS
10
151.544
20
-123.009
11
151.577
21
-123.012
0
LINE
8
BLACK
6
CONTINUOUS
10
151.577
20
-123.012
11
158.643
21
-123.012
0
LINE
8
BLACK
6
CONTINUOUS
10
158.643
20
-123.012
11
158.737
21
-122.754
0
LINE
8
BLACK
6
CONTINUOUS
10
158.737
20
-122.754
11
158.963
21
-122.484
0
LINE
8
BLACK
6
CONTINUOUS
10
158.963
20
-122.484
11
159.269
21
-122.308
0
LINE
8
BLACK
6
CONTINUOUS
10
159.269
20
-122.308
11
159.616
21
-122.247
0
LINE
8
BLACK
6
CONTINUOUS
10
159.616
20
-122.247
11
159.963
21
-122.308
0
LINE
8
BLACK
6
CONTINUOUS
10
159.963
20
-122.308
11
160.269
21
-122.484
0
LINE
8
BLACK
6
CONTINUOUS
10
160.269
20
-122.484
11
160.495
21
-122.754
0
LINE
8
BLACK
6
CONTINUOUS
10
160.495
20
-122.754
11
160.616
21
-123.086
0
LINE
8
BLACK
6
CONTINUOUS
10
160.616
20
-123.086
11
160.616
21
-123.438
0
LINE
8
BLACK
6
CONTINUOUS
10
160.616
20
-123.438
11
160.495
21
-123.77
0
LINE
8
BLACK
6
CONTINUOUS
10
160.495
20
-123.77
11
160.269
21
-124.04
0
LINE
8
BLACK
6
CONTINUOUS
10
160.269
20
-124.04
11
159.963
21
-124.216
0
LINE
8
BLACK
6
CONTINUOUS
10
159.963
20
-124.216
11
159.616
21
-124.277
0
LINE
8
BLACK
6
CONTINUOUS
10
159.616
20
-124.277
11
159.269
21
-124.216
0
LINE
8
BLACK
6
CONTINUOUS
10
159.269
20
-124.216
11
158.963
21
-124.04
0
LINE
8
BLACK
6
CONTINUOUS
10
158.963
20
-124.04
11
158.737
21
-123.77
0
LINE
8
BLACK
6
CONTINUOUS
10
158.737
20
-123.77
11
158.643
21
-123.512
0
LINE
8
BLACK
6
CONTINUOUS
10
158.643
20
-123.512
11
151.67
21
-123.512
0
LINE
8
BLACK
6
CONTINUOUS
10
151.67
20
-123.512
11
148.722
21
-126.459
0
LINE
8
BLACK
6
CONTINUOUS
10
148.722
20
-126.459
11
148.782
21
-126.623
0
LINE
8
BLACK
6
CONTINUOUS
10
148.782
20
-126.623
11
148.782
21
-126.869
0
LINE
8
BLACK
6
CONTINUOUS
10
148.782
20
-126.869
11
148.698
21
-127.101
0
LINE
8
BLACK
6
CONTINUOUS
10
148.698
20
-127.101
11
148.539
21
-127.291
0
LINE
8
BLACK
6
CONTINUOUS
10
148.539
20
-127.291
11
148.325
21
-127.414
0
LINE
8
BLACK
6
CONTINUOUS
10
148.325
20
-127.414
11
148.143
21
-127.446
0
LINE
8
BLACK
6
CONTINUOUS
10
148.143
20
-127.446
11
148.021
21
-127.446
0
LINE
8
BLACK
6
CONTINUOUS
10
148.021
20
-127.446
11
147.839
21
-127.414
0
LINE
8
BLACK
6
CONTINUOUS
10
147.839
20
-127.414
11
147.625
21
-127.291
0
LINE
8
BLACK
6
CONTINUOUS
10
147.625
20
-127.291
11
147.466
21
-127.101
0
LINE
8
BLACK
6
CONTINUOUS
10
147.466
20
-127.101
11
147.382
21
-126.869
0
LINE
8
BLACK
6
CONTINUOUS
10
147.382
20
-126.869
11
147.382
21
-126.623
0
LINE
8
BLACK
6
CONTINUOUS
10
147.382
20
-126.623
11
147.466
21
-126.391
0
LINE
8
BLACK
6
CONTINUOUS
10
147.466
20
-126.391
11
147.625
21
-126.201
0
LINE
8
BLACK
6
CONTINUOUS
10
147.625
20
-126.201
11
147.832
21
-126.082
0
LINE
8
BLACK
6
CONTINUOUS
10
147.832
20
-126.082
11
147.832
21
-121.723
0
LINE
8
BLACK
6
CONTINUOUS
10
147.832
20
-121.723
11
147.787
21
-121.715
0
LINE
8
BLACK
6
CONTINUOUS
10
147.787
20
-121.715
11
147.527
21
-121.565
0
LINE
8
BLACK
6
CONTINUOUS
10
147.527
20
-121.565
11
147.335
21
-121.336
0
LINE
8
BLACK
6
CONTINUOUS
10
147.335
20
-121.336
11
147.232
21
-121.054
0
LINE
8
BLACK
6
CONTINUOUS
10
147.232
20
-121.054
11
147.232
21
-120.754
0
LINE
8
BLACK
6
CONTINUOUS
10
147.232
20
-120.754
11
147.335
21
-120.472
0
LINE
8
BLACK
6
CONTINUOUS
10
147.335
20
-120.472
11
147.527
21
-120.243
0
LINE
8
BLACK
6
CONTINUOUS
10
147.527
20
-120.243
11
147.787
21
-120.093
0
LINE
8
BLACK
6
CONTINUOUS
10
147.787
20
-120.093
11
148.008
21
-120.054
0
LINE
8
BLACK
6
CONTINUOUS
10
148.008
20
-120.054
11
148.156
21
-120.054
0
LINE
8
BLACK
6
CONTINUOUS
10
148.156
20
-120.054
11
148.377
21
-120.093
0
LINE
8
BLACK
6
CONTINUOUS
10
143.852
20
-121.754
11
143.252
21
-121.754
0
LINE
8
BLACK
6
CONTINUOUS
10
143.252
20
-121.754
11
143.252
21
-122.243
0
LINE
8
BLACK
6
CONTINUOUS
10
143.252
20
-122.243
11
143.255
21
-122.276
0
LINE
8
BLACK
6
CONTINUOUS
10
143.255
20
-122.276
11
143.246
21
-122.308
0
LINE
8
BLACK
6
CONTINUOUS
10
143.246
20
-122.308
11
143.241
21
-122.341
0
LINE
8
BLACK
6
CONTINUOUS
10
143.241
20
-122.341
11
143.235
21
-122.35
0
LINE
8
BLACK
6
CONTINUOUS
10
143.235
20
-122.35
11
143.232
21
-122.361
0
LINE
8
BLACK
6
CONTINUOUS
10
143.232
20
-122.361
11
143.213
21
-122.388
0
LINE
8
BLACK
6
CONTINUOUS
10
143.213
20
-122.388
11
143.196
21
-122.417
0
LINE
8
BLACK
6
CONTINUOUS
10
143.196
20
-122.417
11
143.171
21
-122.438
0
LINE
8
BLACK
6
CONTINUOUS
10
143.171
20
-122.438
11
141.435
21
-124.175
0
LINE
8
BLACK
6
CONTINUOUS
10
141.435
20
-124.175
11
141.458
21
-124.24
0
LINE
8
BLACK
6
CONTINUOUS
10
141.458
20
-124.24
11
141.458
21
-124.68
0
LINE
8
BLACK
6
CONTINUOUS
10
141.458
20
-124.68
11
141.307
21
-125.095
0
LINE
8
BLACK
6
CONTINUOUS
10
141.307
20
-125.095
11
141.024
21
-125.432
0
LINE
8
BLACK
6
CONTINUOUS
10
141.024
20
-125.432
11
140.642
21
-125.653
0
LINE
8
BLACK
6
CONTINUOUS
10
140.642
20
-125.653
11
140.208
21
-125.729
0
LINE
8
BLACK
6
CONTINUOUS
10
140.208
20
-125.729
11
139.774
21
-125.653
0
LINE
8
BLACK
6
CONTINUOUS
10
139.774
20
-125.653
11
139.392
21
-125.432
0
LINE
8
BLACK
6
CONTINUOUS
10
139.392
20
-125.432
11
139.109
21
-125.095
0
LINE
8
BLACK
6
CONTINUOUS
10
139.109
20
-125.095
11
138.958
21
-124.68
0
LINE
8
BLACK
6
CONTINUOUS
10
138.958
20
-124.68
11
138.958
21
-124.24
0
LINE
8
BLACK
6
CONTINUOUS
10
138.958
20
-124.24
11
139.109
21
-123.825
0
LINE
8
BLACK
6
CONTINUOUS
10
139.109
20
-123.825
11
139.392
21
-123.488
0
LINE
8
BLACK
6
CONTINUOUS
10
139.392
20
-123.488
11
139.774
21
-123.267
0
LINE
8
BLACK
6
CONTINUOUS
10
139.774
20
-123.267
11
140.208
21
-123.191
0
LINE
8
BLACK
6
CONTINUOUS
10
140.208
20
-123.191
11
140.642
21
-123.267
0
LINE
8
BLACK
6
CONTINUOUS
10
140.642
20
-123.267
11
141.024
21
-123.488
0
LINE
8
BLACK
6
CONTINUOUS
10
141.024
20
-123.488
11
141.202
21
-123.7
0
LINE
8
BLACK
6
CONTINUOUS
10
141.202
20
-123.7
11
142.752
21
-122.15
0
LINE
8
BLACK
6
CONTINUOUS
10
142.752
20
-122.15
11
142.752
21
-121.754
0
LINE
8
BLACK
6
CONTINUOUS
10
142.752
20
-121.754
11
142.152
21
-121.754
0
LINE
8
BLACK
6
CONTINUOUS
10
142.152
20
-121.754
11
142.152
21
-120.054
0
LINE
8
BLACK
6
CONTINUOUS
10
142.152
20
-120.054
11
143.852
21
-120.054
0
LINE
8
BLACK
6
CONTINUOUS
10
143.852
20
-120.054
11
143.852
21
-121.754
0
LINE
8
BLACK
6
CONTINUOUS
10
179.111
20
-123.903
11
179.371
21
-124.053
0
LINE
8
BLACK
6
CONTINUOUS
10
179.371
20
-124.053
11
179.563
21
-124.282
0
LINE
8
BLACK
6
CONTINUOUS
10
179.563
20
-124.282
11
179.666
21
-124.564
0
LINE
8
BLACK
6
CONTINUOUS
10
179.666
20
-124.564
11
179.666
21
-124.864
0
LINE
8
BLACK
6
CONTINUOUS
10
179.666
20
-124.864
11
179.563
21
-125.146
0
LINE
8
BLACK
6
CONTINUOUS
10
179.563
20
-125.146
11
179.371
21
-125.375
0
LINE
8
BLACK
6
CONTINUOUS
10
179.371
20
-125.375
11
179.111
21
-125.525
0
LINE
8
BLACK
6
CONTINUOUS
10
179.111
20
-125.525
11
178.89
21
-125.564
0
LINE
8
BLACK
6
CONTINUOUS
10
178.89
20
-125.564
11
178.742
21
-125.564
0
LINE
8
BLACK
6
CONTINUOUS
10
178.742
20
-125.564
11
178.521
21
-125.525
0
LINE
8
BLACK
6
CONTINUOUS
10
178.521
20
-125.525
11
178.261
21
-125.375
0
LINE
8
BLACK
6
CONTINUOUS
10
178.261
20
-125.375
11
178.069
21
-125.146
0
LINE
8
BLACK
6
CONTINUOUS
10
178.069
20
-125.146
11
177.966
21
-124.864
0
LINE
8
BLACK
6
CONTINUOUS
10
177.966
20
-124.864
11
177.966
21
-124.564
0
LINE
8
BLACK
6
CONTINUOUS
10
177.966
20
-124.564
11
178.069
21
-124.282
0
LINE
8
BLACK
6
CONTINUOUS
10
178.069
20
-124.282
11
178.261
21
-124.053
0
LINE
8
BLACK
6
CONTINUOUS
10
178.261
20
-124.053
11
178.521
21
-123.903
0
LINE
8
BLACK
6
CONTINUOUS
10
178.521
20
-123.903
11
178.742
21
-123.864
0
LINE
8
BLACK
6
CONTINUOUS
10
178.742
20
-123.864
11
178.89
21
-123.864
0
LINE
8
BLACK
6
CONTINUOUS
10
178.89
20
-123.864
11
179.111
21
-123.903
0
LINE
8
BLACK
6
CONTINUOUS
10
166.463
20
-122.308
11
166.769
21
-122.484
0
LINE
8
BLACK
6
CONTINUOUS
10
166.769
20
-122.484
11
166.995
21
-122.754
0
LINE
8
BLACK
6
CONTINUOUS
10
166.995
20
-122.754
11
167.116
21
-123.086
0
LINE
8
BLACK
6
CONTINUOUS
10
167.116
20
-123.086
11
167.116
21
-123.438
0
LINE
8
BLACK
6
CONTINUOUS
10
167.116
20
-123.438
11
166.995
21
-123.77
0
LINE
8
BLACK
6
CONTINUOUS
10
166.995
20
-123.77
11
166.769
21
-124.04
0
LINE
8
BLACK
6
CONTINUOUS
10
166.769
20
-124.04
11
166.463
21
-124.216
0
LINE
8
BLACK
6
CONTINUOUS
10
166.463
20
-124.216
11
166.116
21
-124.277
0
LINE
8
BLACK
6
CONTINUOUS
10
166.116
20
-124.277
11
165.769
21
-124.216
0
LINE
8
BLACK
6
CONTINUOUS
10
165.769
20
-124.216
11
165.463
21
-124.04
0
LINE
8
BLACK
6
CONTINUOUS
10
165.463
20
-124.04
11
165.237
21
-123.77
0
LINE
8
BLACK
6
CONTINUOUS
10
165.237
20
-123.77
11
165.116
21
-123.438
0
LINE
8
BLACK
6
CONTINUOUS
10
165.116
20
-123.438
11
165.116
21
-123.086
0
LINE
8
BLACK
6
CONTINUOUS
10
165.116
20
-123.086
11
165.237
21
-122.754
0
LINE
8
BLACK
6
CONTINUOUS
10
165.237
20
-122.754
11
165.463
21
-122.484
0
LINE
8
BLACK
6
CONTINUOUS
10
165.463
20
-122.484
11
165.769
21
-122.308
0
LINE
8
BLACK
6
CONTINUOUS
10
165.769
20
-122.308
11
166.116
21
-122.247
0
LINE
8
BLACK
6
CONTINUOUS
10
166.116
20
-122.247
11
166.463
21
-122.308
0
LINE
8
BLACK
6
CONTINUOUS
10
179.111
20
-121.363
11
179.371
21
-121.513
0
LINE
8
BLACK
6
CONTINUOUS
10
179.371
20
-121.513
11
179.563
21
-121.742
0
LINE
8
BLACK
6
CONTINUOUS
10
179.563
20
-121.742
11
179.666
21
-122.024
0
LINE
8
BLACK
6
CONTINUOUS
10
179.666
20
-122.024
11
179.666
21
-122.324
0
LINE
8
BLACK
6
CONTINUOUS
10
179.666
20
-122.324
11
179.563
21
-122.606
0
LINE
8
BLACK
6
CONTINUOUS
10
179.563
20
-122.606
11
179.371
21
-122.835
0
LINE
8
BLACK
6
CONTINUOUS
10
179.371
20
-122.835
11
179.111
21
-122.985
0
LINE
8
BLACK
6
CONTINUOUS
10
179.111
20
-122.985
11
178.89
21
-123.024
0
LINE
8
BLACK
6
CONTINUOUS
10
178.89
20
-123.024
11
178.742
21
-123.024
0
LINE
8
BLACK
6
CONTINUOUS
10
178.742
20
-123.024
11
178.521
21
-122.985
0
LINE
8
BLACK
6
CONTINUOUS
10
178.521
20
-122.985
11
178.261
21
-122.835
0
LINE
8
BLACK
6
CONTINUOUS
10
178.261
20
-122.835
11
178.069
21
-122.606
0
LINE
8
BLACK
6
CONTINUOUS
10
178.069
20
-122.606
11
178.002
21
-122.424
0
LINE
8
BLACK
6
CONTINUOUS
10
178.002
20
-122.424
11
174.118
21
-122.424
0
LINE
8
BLACK
6
CONTINUOUS
10
174.118
20
-122.424
11
174.224
21
-122.716
0
LINE
8
BLACK
6
CONTINUOUS
10
174.224
20
-122.716
11
174.224
21
-123.156
0
LINE
8
BLACK
6
CONTINUOUS
10
174.224
20
-123.156
11
174.073
21
-123.571
0
LINE
8
BLACK
6
CONTINUOUS
10
174.073
20
-123.571
11
173.79
21
-123.908
0
LINE
8
BLACK
6
CONTINUOUS
10
173.79
20
-123.908
11
173.408
21
-124.129
0
LINE
8
BLACK
6
CONTINUOUS
10
173.408
20
-124.129
11
172.974
21
-124.205
0
LINE
8
BLACK
6
CONTINUOUS
10
172.974
20
-124.205
11
172.54
21
-124.129
0
LINE
8
BLACK
6
CONTINUOUS
10
172.54
20
-124.129
11
172.158
21
-123.908
0
LINE
8
BLACK
6
CONTINUOUS
10
172.158
20
-123.908
11
171.875
21
-123.571
0
LINE
8
BLACK
6
CONTINUOUS
10
171.875
20
-123.571
11
171.724
21
-123.156
0
LINE
8
BLACK
6
CONTINUOUS
10
171.724
20
-123.156
11
171.724
21
-122.716
0
LINE
8
BLACK
6
CONTINUOUS
10
171.724
20
-122.716
11
171.875
21
-122.301
0
LINE
8
BLACK
6
CONTINUOUS
10
171.875
20
-122.301
11
172.158
21
-121.964
0
LINE
8
BLACK
6
CONTINUOUS
10
172.158
20
-121.964
11
172.54
21
-121.743
0
LINE
8
BLACK
6
CONTINUOUS
10
172.54
20
-121.743
11
172.974
21
-121.667
0
LINE
8
BLACK
6
CONTINUOUS
10
172.974
20
-121.667
11
173.408
21
-121.743
0
LINE
8
BLACK
6
CONTINUOUS
10
173.408
20
-121.743
11
173.717
21
-121.921
0
LINE
8
BLACK
6
CONTINUOUS
10
173.717
20
-121.921
11
173.747
21
-121.924
0
LINE
8
BLACK
6
CONTINUOUS
10
173.747
20
-121.924
11
178.002
21
-121.924
0
LINE
8
BLACK
6
CONTINUOUS
10
178.002
20
-121.924
11
178.069
21
-121.742
0
LINE
8
BLACK
6
CONTINUOUS
10
178.069
20
-121.742
11
178.261
21
-121.513
0
LINE
8
BLACK
6
CONTINUOUS
10
178.261
20
-121.513
11
178.521
21
-121.363
0
LINE
8
BLACK
6
CONTINUOUS
10
178.521
20
-121.363
11
178.742
21
-121.324
0
LINE
8
BLACK
6
CONTINUOUS
10
178.742
20
-121.324
11
178.89
21
-121.324
0
LINE
8
BLACK
6
CONTINUOUS
10
178.89
20
-121.324
11
179.111
21
-121.363
0
LINE
8
BLACK
6
CONTINUOUS
10
151.369
20
-118.796
11
151.177
21
-119.025
0
LINE
8
BLACK
6
CONTINUOUS
10
151.177
20
-119.025
11
150.917
21
-119.175
0
LINE
8
BLACK
6
CONTINUOUS
10
150.917
20
-119.175
11
150.696
21
-119.214
0
LINE
8
BLACK
6
CONTINUOUS
10
150.696
20
-119.214
11
150.548
21
-119.214
0
LINE
8
BLACK
6
CONTINUOUS
10
150.548
20
-119.214
11
150.327
21
-119.175
0
LINE
8
BLACK
6
CONTINUOUS
10
150.327
20
-119.175
11
150.067
21
-119.025
0
LINE
8
BLACK
6
CONTINUOUS
10
150.067
20
-119.025
11
149.875
21
-118.796
0
LINE
8
BLACK
6
CONTINUOUS
10
149.875
20
-118.796
11
149.772
21
-118.514
0
LINE
8
BLACK
6
CONTINUOUS
10
149.772
20
-118.514
11
149.772
21
-118.214
0
LINE
8
BLACK
6
CONTINUOUS
10
149.772
20
-118.214
11
149.875
21
-117.932
0
LINE
8
BLACK
6
CONTINUOUS
10
149.875
20
-117.932
11
150.067
21
-117.703
0
LINE
8
BLACK
6
CONTINUOUS
10
150.067
20
-117.703
11
150.327
21
-117.553
0
LINE
8
BLACK
6
CONTINUOUS
10
150.327
20
-117.553
11
150.548
21
-117.514
0
LINE
8
BLACK
6
CONTINUOUS
10
150.548
20
-117.514
11
150.696
21
-117.514
0
LINE
8
BLACK
6
CONTINUOUS
10
150.696
20
-117.514
11
150.917
21
-117.553
0
LINE
8
BLACK
6
CONTINUOUS
10
150.917
20
-117.553
11
151.177
21
-117.703
0
LINE
8
BLACK
6
CONTINUOUS
10
151.177
20
-117.703
11
151.369
21
-117.932
0
LINE
8
BLACK
6
CONTINUOUS
10
151.369
20
-117.932
11
151.436
21
-118.114
0
LINE
8
BLACK
6
CONTINUOUS
10
151.436
20
-118.114
11
173.471
21
-118.114
0
LINE
8
BLACK
6
CONTINUOUS
10
173.471
20
-118.114
11
173.504
21
-118.111
0
LINE
8
BLACK
6
CONTINUOUS
10
173.504
20
-118.111
11
173.536
21
-118.12
0
LINE
8
BLACK
6
CONTINUOUS
10
173.536
20
-118.12
11
173.569
21
-118.125
0
LINE
8
BLACK
6
CONTINUOUS
10
173.569
20
-118.125
11
173.578
21
-118.131
0
LINE
8
BLACK
6
CONTINUOUS
10
173.578
20
-118.131
11
173.589
21
-118.134
0
LINE
8
BLACK
6
CONTINUOUS
10
173.589
20
-118.134
11
173.616
21
-118.153
0
LINE
8
BLACK
6
CONTINUOUS
10
173.616
20
-118.153
11
173.645
21
-118.17
0
LINE
8
BLACK
6
CONTINUOUS
10
173.645
20
-118.17
11
173.666
21
-118.195
0
LINE
8
BLACK
6
CONTINUOUS
10
173.666
20
-118.195
11
174.856
21
-119.384
0
LINE
8
BLACK
6
CONTINUOUS
10
174.856
20
-119.384
11
178.002
21
-119.384
0
LINE
8
BLACK
6
CONTINUOUS
10
178.002
20
-119.384
11
178.069
21
-119.202
0
LINE
8
BLACK
6
CONTINUOUS
10
178.069
20
-119.202
11
178.261
21
-118.973
0
LINE
8
BLACK
6
CONTINUOUS
10
178.261
20
-118.973
11
178.521
21
-118.823
0
LINE
8
BLACK
6
CONTINUOUS
10
178.521
20
-118.823
11
178.742
21
-118.784
0
LINE
8
BLACK
6
CONTINUOUS
10
178.742
20
-118.784
11
178.89
21
-118.784
0
LINE
8
BLACK
6
CONTINUOUS
10
178.89
20
-118.784
11
179.111
21
-118.823
0
LINE
8
BLACK
6
CONTINUOUS
10
179.111
20
-118.823
11
179.371
21
-118.973
0
LINE
8
BLACK
6
CONTINUOUS
10
179.371
20
-118.973
11
179.563
21
-119.202
0
LINE
8
BLACK
6
CONTINUOUS
10
179.563
20
-119.202
11
179.666
21
-119.484
0
LINE
8
BLACK
6
CONTINUOUS
10
179.666
20
-119.484
11
179.666
21
-119.784
0
LINE
8
BLACK
6
CONTINUOUS
10
179.666
20
-119.784
11
179.563
21
-120.066
0
LINE
8
BLACK
6
CONTINUOUS
10
179.563
20
-120.066
11
179.371
21
-120.295
0
LINE
8
BLACK
6
CONTINUOUS
10
179.371
20
-120.295
11
179.111
21
-120.445
0
LINE
8
BLACK
6
CONTINUOUS
10
179.111
20
-120.445
11
178.89
21
-120.484
0
LINE
8
BLACK
6
CONTINUOUS
10
178.89
20
-120.484
11
178.742
21
-120.484
0
LINE
8
BLACK
6
CONTINUOUS
10
178.742
20
-120.484
11
178.521
21
-120.445
0
LINE
8
BLACK
6
CONTINUOUS
10
178.521
20
-120.445
11
178.261
21
-120.295
0
LINE
8
BLACK
6
CONTINUOUS
10
178.261
20
-120.295
11
178.069
21
-120.066
0
LINE
8
BLACK
6
CONTINUOUS
10
178.069
20
-120.066
11
178.002
21
-119.884
0
LINE
8
BLACK
6
CONTINUOUS
10
178.002
20
-119.884
11
174.763
21
-119.884
0
LINE
8
BLACK
6
CONTINUOUS
10
174.763
20
-119.884
11
174.73
21
-119.887
0
LINE
8
BLACK
6
CONTINUOUS
10
174.73
20
-119.887
11
174.698
21
-119.878
0
LINE
8
BLACK
6
CONTINUOUS
10
174.698
20
-119.878
11
174.665
21
-119.873
0
LINE
8
BLACK
6
CONTINUOUS
10
174.665
20
-119.873
11
174.656
21
-119.867
0
LINE
8
BLACK
6
CONTINUOUS
10
174.656
20
-119.867
11
174.645
21
-119.864
0
LINE
8
BLACK
6
CONTINUOUS
10
174.645
20
-119.864
11
174.618
21
-119.845
0
LINE
8
BLACK
6
CONTINUOUS
10
174.618
20
-119.845
11
174.589
21
-119.828
0
LINE
8
BLACK
6
CONTINUOUS
10
174.589
20
-119.828
11
174.568
21
-119.803
0
LINE
8
BLACK
6
CONTINUOUS
10
174.568
20
-119.803
11
173.378
21
-118.614
0
LINE
8
BLACK
6
CONTINUOUS
10
173.378
20
-118.614
11
151.436
21
-118.614
0
LINE
8
BLACK
6
CONTINUOUS
10
151.436
20
-118.614
11
151.369
21
-118.796
0
LINE
8
BLACK
6
CONTINUOUS
10
135.879
20
-115.156
11
136.093
21
-115.279
0
LINE
8
BLACK
6
CONTINUOUS
10
136.093
20
-115.279
11
136.252
21
-115.469
0
LINE
8
BLACK
6
CONTINUOUS
10
136.252
20
-115.469
11
136.29
21
-115.574
0
LINE
8
BLACK
6
CONTINUOUS
10
136.29
20
-115.574
11
144.515
21
-115.574
0
LINE
8
BLACK
6
CONTINUOUS
10
144.515
20
-115.574
11
144.548
21
-115.571
0
LINE
8
BLACK
6
CONTINUOUS
10
144.548
20
-115.571
11
144.58
21
-115.58
0
LINE
8
BLACK
6
CONTINUOUS
10
144.58
20
-115.58
11
144.613
21
-115.585
0
LINE
8
BLACK
6
CONTINUOUS
10
144.613
20
-115.585
11
144.622
21
-115.591
0
LINE
8
BLACK
6
CONTINUOUS
10
144.622
20
-115.591
11
144.633
21
-115.594
0
LINE
8
BLACK
6
CONTINUOUS
10
144.633
20
-115.594
11
144.66
21
-115.613
0
LINE
8
BLACK
6
CONTINUOUS
10
144.66
20
-115.613
11
144.689
21
-115.63
0
LINE
8
BLACK
6
CONTINUOUS
10
144.689
20
-115.63
11
144.71
21
-115.655
0
LINE
8
BLACK
6
CONTINUOUS
10
144.71
20
-115.655
11
145.711
21
-116.656
0
LINE
8
BLACK
6
CONTINUOUS
10
145.711
20
-116.656
11
145.736
21
-116.677
0
LINE
8
BLACK
6
CONTINUOUS
10
145.736
20
-116.677
11
145.753
21
-116.706
0
LINE
8
BLACK
6
CONTINUOUS
10
145.753
20
-116.706
11
145.772
21
-116.733
0
LINE
8
BLACK
6
CONTINUOUS
10
145.772
20
-116.733
11
145.775
21
-116.744
0
LINE
8
BLACK
6
CONTINUOUS
10
145.775
20
-116.744
11
145.781
21
-116.753
0
LINE
8
BLACK
6
CONTINUOUS
10
145.781
20
-116.753
11
145.786
21
-116.786
0
LINE
8
BLACK
6
CONTINUOUS
10
145.786
20
-116.786
11
145.795
21
-116.818
0
LINE
8
BLACK
6
CONTINUOUS
10
145.795
20
-116.818
11
145.792
21
-116.851
0
LINE
8
BLACK
6
CONTINUOUS
10
145.792
20
-116.851
11
145.792
21
-117.545
0
LINE
8
BLACK
6
CONTINUOUS
10
145.792
20
-117.545
11
145.837
21
-117.553
0
LINE
8
BLACK
6
CONTINUOUS
10
145.837
20
-117.553
11
146.097
21
-117.703
0
LINE
8
BLACK
6
CONTINUOUS
10
146.097
20
-117.703
11
146.289
21
-117.932
0
LINE
8
BLACK
6
CONTINUOUS
10
146.289
20
-117.932
11
146.392
21
-118.214
0
LINE
8
BLACK
6
CONTINUOUS
10
146.392
20
-118.214
11
146.392
21
-118.514
0
LINE
8
BLACK
6
CONTINUOUS
10
146.392
20
-118.514
11
146.289
21
-118.796
0
LINE
8
BLACK
6
CONTINUOUS
10
146.289
20
-118.796
11
146.097
21
-119.025
0
LINE
8
BLACK
6
CONTINUOUS
10
146.097
20
-119.025
11
145.837
21
-119.175
0
LINE
8
BLACK
6
CONTINUOUS
10
145.837
20
-119.175
11
145.616
21
-119.214
0
LINE
8
BLACK
6
CONTINUOUS
10
145.616
20
-119.214
11
145.468
21
-119.214
0
LINE
8
BLACK
6
CONTINUOUS
10
145.468
20
-119.214
11
145.247
21
-119.175
0
LINE
8
BLACK
6
CONTINUOUS
10
145.247
20
-119.175
11
144.987
21
-119.025
0
LINE
8
BLACK
6
CONTINUOUS
10
144.987
20
-119.025
11
144.795
21
-118.796
0
LINE
8
BLACK
6
CONTINUOUS
10
144.795
20
-118.796
11
144.692
21
-118.514
0
LINE
8
BLACK
6
CONTINUOUS
10
144.692
20
-118.514
11
144.692
21
-118.214
0
LINE
8
BLACK
6
CONTINUOUS
10
144.692
20
-118.214
11
144.795
21
-117.932
0
LINE
8
BLACK
6
CONTINUOUS
10
144.795
20
-117.932
11
144.987
21
-117.703
0
LINE
8
BLACK
6
CONTINUOUS
10
144.987
20
-117.703
11
145.247
21
-117.553
0
LINE
8
BLACK
6
CONTINUOUS
10
145.247
20
-117.553
11
145.292
21
-117.545
0
LINE
8
BLACK
6
CONTINUOUS
10
145.292
20
-117.545
11
145.292
21
-116.944
0
LINE
8
BLACK
6
CONTINUOUS
10
145.292
20
-116.944
11
144.422
21
-116.074
0
LINE
8
BLACK
6
CONTINUOUS
10
144.422
20
-116.074
11
136.29
21
-116.074
0
LINE
8
BLACK
6
CONTINUOUS
10
136.29
20
-116.074
11
136.252
21
-116.179
0
LINE
8
BLACK
6
CONTINUOUS
10
136.252
20
-116.179
11
136.093
21
-116.369
0
LINE
8
BLACK
6
CONTINUOUS
10
136.093
20
-116.369
11
135.879
21
-116.492
0
LINE
8
BLACK
6
CONTINUOUS
10
135.879
20
-116.492
11
135.697
21
-116.524
0
LINE
8
BLACK
6
CONTINUOUS
10
135.697
20
-116.524
11
135.575
21
-116.524
0
LINE
8
BLACK
6
CONTINUOUS
10
135.575
20
-116.524
11
135.393
21
-116.492
0
LINE
8
BLACK
6
CONTINUOUS
10
135.393
20
-116.492
11
135.179
21
-116.369
0
LINE
8
BLACK
6
CONTINUOUS
10
135.179
20
-116.369
11
135.02
21
-116.179
0
LINE
8
BLACK
6
CONTINUOUS
10
135.02
20
-116.179
11
134.936
21
-115.947
0
LINE
8
BLACK
6
CONTINUOUS
10
134.936
20
-115.947
11
134.936
21
-115.701
0
LINE
8
BLACK
6
CONTINUOUS
10
134.936
20
-115.701
11
135.02
21
-115.469
0
LINE
8
BLACK
6
CONTINUOUS
10
135.02
20
-115.469
11
135.179
21
-115.279
0
LINE
8
BLACK
6
CONTINUOUS
10
135.179
20
-115.279
11
135.393
21
-115.156
0
LINE
8
BLACK
6
CONTINUOUS
10
135.393
20
-115.156
11
135.575
21
-115.124
0
LINE
8
BLACK
6
CONTINUOUS
10
135.575
20
-115.124
11
135.697
21
-115.124
0
LINE
8
BLACK
6
CONTINUOUS
10
135.697
20
-115.124
11
135.879
21
-115.156
0
LINE
8
BLACK
6
CONTINUOUS
10
165.237
20
-114.3
11
165.463
21
-114.03
0
LINE
8
BLACK
6
CONTINUOUS
10
165.463
20
-114.03
11
165.769
21
-113.854
0
LINE
8
BLACK
6
CONTINUOUS
10
165.769
20
-113.854
11
166.116
21
-113.793
0
LINE
8
BLACK
6
CONTINUOUS
10
166.116
20
-113.793
11
166.463
21
-113.854
0
LINE
8
BLACK
6
CONTINUOUS
10
166.463
20
-113.854
11
166.769
21
-114.03
0
LINE
8
BLACK
6
CONTINUOUS
10
166.769
20
-114.03
11
166.995
21
-114.3
0
LINE
8
BLACK
6
CONTINUOUS
10
166.995
20
-114.3
11
167.116
21
-114.632
0
LINE
8
BLACK
6
CONTINUOUS
10
167.116
20
-114.632
11
167.116
21
-114.984
0
LINE
8
BLACK
6
CONTINUOUS
10
167.116
20
-114.984
11
166.995
21
-115.316
0
LINE
8
BLACK
6
CONTINUOUS
10
166.995
20
-115.316
11
166.769
21
-115.586
0
LINE
8
BLACK
6
CONTINUOUS
10
166.769
20
-115.586
11
166.463
21
-115.762
0
LINE
8
BLACK
6
CONTINUOUS
10
166.463
20
-115.762
11
166.116
21
-115.823
0
LINE
8
BLACK
6
CONTINUOUS
10
166.116
20
-115.823
11
165.769
21
-115.762
0
LINE
8
BLACK
6
CONTINUOUS
10
165.769
20
-115.762
11
165.463
21
-115.586
0
LINE
8
BLACK
6
CONTINUOUS
10
165.463
20
-115.586
11
165.237
21
-115.316
0
LINE
8
BLACK
6
CONTINUOUS
10
165.237
20
-115.316
11
165.143
21
-115.058
0
LINE
8
BLACK
6
CONTINUOUS
10
165.143
20
-115.058
11
160.589
21
-115.058
0
LINE
8
BLACK
6
CONTINUOUS
10
160.589
20
-115.058
11
160.495
21
-115.316
0
LINE
8
BLACK
6
CONTINUOUS
10
160.495
20
-115.316
11
160.269
21
-115.586
0
LINE
8
BLACK
6
CONTINUOUS
10
160.269
20
-115.586
11
159.963
21
-115.762
0
LINE
8
BLACK
6
CONTINUOUS
10
159.963
20
-115.762
11
159.616
21
-115.823
0
LINE
8
BLACK
6
CONTINUOUS
10
159.616
20
-115.823
11
159.269
21
-115.762
0
LINE
8
BLACK
6
CONTINUOUS
10
159.269
20
-115.762
11
158.963
21
-115.586
0
LINE
8
BLACK
6
CONTINUOUS
10
158.963
20
-115.586
11
158.737
21
-115.316
0
LINE
8
BLACK
6
CONTINUOUS
10
158.737
20
-115.316
11
158.643
21
-115.058
0
LINE
8
BLACK
6
CONTINUOUS
10
158.643
20
-115.058
11
149.456
21
-115.058
0
LINE
8
BLACK
6
CONTINUOUS
10
149.456
20
-115.058
11
148.332
21
-116.182
0
LINE
8
BLACK
6
CONTINUOUS
10
148.332
20
-116.182
11
148.332
21
-117.545
0
LINE
8
BLACK
6
CONTINUOUS
10
148.332
20
-117.545
11
148.377
21
-117.553
0
LINE
8
BLACK
6
CONTINUOUS
10
148.377
20
-117.553
11
148.637
21
-117.703
0
LINE
8
BLACK
6
CONTINUOUS
10
148.637
20
-117.703
11
148.829
21
-117.932
0
LINE
8
BLACK
6
CONTINUOUS
10
148.829
20
-117.932
11
148.932
21
-118.214
0
LINE
8
BLACK
6
CONTINUOUS
10
148.932
20
-118.214
11
148.932
21
-118.514
0
LINE
8
BLACK
6
CONTINUOUS
10
148.932
20
-118.514
11
148.829
21
-118.796
0
LINE
8
BLACK
6
CONTINUOUS
10
148.829
20
-118.796
11
148.637
21
-119.025
0
LINE
8
BLACK
6
CONTINUOUS
10
148.637
20
-119.025
11
148.377
21
-119.175
0
LINE
8
BLACK
6
CONTINUOUS
10
148.377
20
-119.175
11
148.156
21
-119.214
0
LINE
8
BLACK
6
CONTINUOUS
10
148.156
20
-119.214
11
148.008
21
-119.214
0
LINE
8
BLACK
6
CONTINUOUS
10
148.008
20
-119.214
11
147.787
21
-119.175
0
LINE
8
BLACK
6
CONTINUOUS
10
147.787
20
-119.175
11
147.527
21
-119.025
0
LINE
8
BLACK
6
CONTINUOUS
10
147.527
20
-119.025
11
147.335
21
-118.796
0
LINE
8
BLACK
6
CONTINUOUS
10
147.335
20
-118.796
11
147.232
21
-118.514
0
LINE
8
BLACK
6
CONTINUOUS
10
147.232
20
-118.514
11
147.232
21
-118.214
0
LINE
8
BLACK
6
CONTINUOUS
10
147.232
20
-118.214
11
147.335
21
-117.932
0
LINE
8
BLACK
6
CONTINUOUS
10
147.335
20
-117.932
11
147.527
21
-117.703
0
LINE
8
BLACK
6
CONTINUOUS
10
147.527
20
-117.703
11
147.787
21
-117.553
0
LINE
8
BLACK
6
CONTINUOUS
10
147.787
20
-117.553
11
147.832
21
-117.545
0
LINE
8
BLACK
6
CONTINUOUS
10
147.832
20
-117.545
11
147.832
21
-116.182
0
LINE
8
BLACK
6
CONTINUOUS
10
147.832
20
-116.182
11
145.184
21
-113.534
0
LINE
8
BLACK
6
CONTINUOUS
10
145.184
20
-113.534
11
134.724
21
-113.534
0
LINE
8
BLACK
6
CONTINUOUS
10
134.724
20
-113.534
11
132.72
21
-115.537
0
LINE
8
BLACK
6
CONTINUOUS
10
132.72
20
-115.537
11
132.78
21
-115.701
0
LINE
8
BLACK
6
CONTINUOUS
10
132.78
20
-115.701
11
132.78
21
-115.947
0
LINE
8
BLACK
6
CONTINUOUS
10
132.78
20
-115.947
11
132.696
21
-116.179
0
LINE
8
BLACK
6
CONTINUOUS
10
132.696
20
-116.179
11
132.537
21
-116.369
0
LINE
8
BLACK
6
CONTINUOUS
10
132.537
20
-116.369
11
132.323
21
-116.492
0
LINE
8
BLACK
6
CONTINUOUS
10
132.323
20
-116.492
11
132.141
21
-116.524
0
LINE
8
BLACK
6
CONTINUOUS
10
132.141
20
-116.524
11
132.019
21
-116.524
0
LINE
8
BLACK
6
CONTINUOUS
10
132.019
20
-116.524
11
131.837
21
-116.492
0
LINE
8
BLACK
6
CONTINUOUS
10
131.837
20
-116.492
11
131.623
21
-116.369
0
LINE
8
BLACK
6
CONTINUOUS
10
131.623
20
-116.369
11
131.464
21
-116.179
0
LINE
8
BLACK
6
CONTINUOUS
10
131.464
20
-116.179
11
131.38
21
-115.947
0
LINE
8
BLACK
6
CONTINUOUS
10
131.38
20
-115.947
11
131.38
21
-115.701
0
LINE
8
BLACK
6
CONTINUOUS
10
131.38
20
-115.701
11
131.464
21
-115.469
0
LINE
8
BLACK
6
CONTINUOUS
10
131.464
20
-115.469
11
131.623
21
-115.279
0
LINE
8
BLACK
6
CONTINUOUS
10
131.623
20
-115.279
11
131.837
21
-115.156
0
LINE
8
BLACK
6
CONTINUOUS
10
131.837
20
-115.156
11
132.019
21
-115.124
0
LINE
8
BLACK
6
CONTINUOUS
10
132.019
20
-115.124
11
132.141
21
-115.124
0
LINE
8
BLACK
6
CONTINUOUS
10
132.141
20
-115.124
11
132.323
21
-115.156
0
LINE
8
BLACK
6
CONTINUOUS
10
132.323
20
-115.156
11
132.368
21
-115.182
0
LINE
8
BLACK
6
CONTINUOUS
10
132.368
20
-115.182
11
134.436
21
-113.115
0
LINE
8
BLACK
6
CONTINUOUS
10
134.436
20
-113.115
11
134.457
21
-113.09
0
LINE
8
BLACK
6
CONTINUOUS
10
134.457
20
-113.09
11
134.486
21
-113.073
0
LINE
8
BLACK
6
CONTINUOUS
10
134.486
20
-113.073
11
134.513
21
-113.054
0
LINE
8
BLACK
6
CONTINUOUS
10
134.513
20
-113.054
11
134.524
21
-113.051
0
LINE
8
BLACK
6
CONTINUOUS
10
134.524
20
-113.051
11
134.533
21
-113.045
0
LINE
8
BLACK
6
CONTINUOUS
10
134.533
20
-113.045
11
134.566
21
-113.04
0
LINE
8
BLACK
6
CONTINUOUS
10
134.566
20
-113.04
11
134.598
21
-113.031
0
LINE
8
BLACK
6
CONTINUOUS
10
134.598
20
-113.031
11
134.631
21
-113.034
0
LINE
8
BLACK
6
CONTINUOUS
10
134.631
20
-113.034
11
145.277
21
-113.034
0
LINE
8
BLACK
6
CONTINUOUS
10
145.277
20
-113.034
11
145.31
21
-113.031
0
LINE
8
BLACK
6
CONTINUOUS
10
145.31
20
-113.031
11
145.342
21
-113.04
0
LINE
8
BLACK
6
CONTINUOUS
10
145.342
20
-113.04
11
145.375
21
-113.045
0
LINE
8
BLACK
6
CONTINUOUS
10
145.375
20
-113.045
11
145.384
21
-113.051
0
LINE
8
BLACK
6
CONTINUOUS
10
145.384
20
-113.051
11
145.395
21
-113.054
0
LINE
8
BLACK
6
CONTINUOUS
10
145.395
20
-113.054
11
145.422
21
-113.073
0
LINE
8
BLACK
6
CONTINUOUS
10
145.422
20
-113.073
11
145.451
21
-113.09
0
LINE
8
BLACK
6
CONTINUOUS
10
145.451
20
-113.09
11
145.472
21
-113.115
0
LINE
8
BLACK
6
CONTINUOUS
10
145.472
20
-113.115
11
148.082
21
-115.724
0
LINE
8
BLACK
6
CONTINUOUS
10
148.082
20
-115.724
11
149.168
21
-114.639
0
LINE
8
BLACK
6
CONTINUOUS
10
149.168
20
-114.639
11
149.189
21
-114.614
0
LINE
8
BLACK
6
CONTINUOUS
10
149.189
20
-114.614
11
149.218
21
-114.597
0
LINE
8
BLACK
6
CONTINUOUS
10
149.218
20
-114.597
11
149.245
21
-114.578
0
LINE
8
BLACK
6
CONTINUOUS
10
149.245
20
-114.578
11
149.256
21
-114.575
0
LINE
8
BLACK
6
CONTINUOUS
10
149.256
20
-114.575
11
149.265
21
-114.569
0
LINE
8
BLACK
6
CONTINUOUS
10
149.265
20
-114.569
11
149.298
21
-114.564
0
LINE
8
BLACK
6
CONTINUOUS
10
149.298
20
-114.564
11
149.33
21
-114.555
0
LINE
8
BLACK
6
CONTINUOUS
10
149.33
20
-114.555
11
149.363
21
-114.558
0
LINE
8
BLACK
6
CONTINUOUS
10
149.363
20
-114.558
11
158.643
21
-114.558
0
LINE
8
BLACK
6
CONTINUOUS
10
158.643
20
-114.558
11
158.737
21
-114.3
0
LINE
8
BLACK
6
CONTINUOUS
10
158.737
20
-114.3
11
158.963
21
-114.03
0
LINE
8
BLACK
6
CONTINUOUS
10
158.963
20
-114.03
11
159.269
21
-113.854
0
LINE
8
BLACK
6
CONTINUOUS
10
159.269
20
-113.854
11
159.616
21
-113.793
0
LINE
8
BLACK
6
CONTINUOUS
10
159.616
20
-113.793
11
159.963
21
-113.854
0
LINE
8
BLACK
6
CONTINUOUS
10
159.963
20
-113.854
11
160.269
21
-114.03
0
LINE
8
BLACK
6
CONTINUOUS
10
160.269
20
-114.03
11
160.495
21
-114.3
0
LINE
8
BLACK
6
CONTINUOUS
10
160.495
20
-114.3
11
160.589
21
-114.558
0
LINE
8
BLACK
6
CONTINUOUS
10
160.589
20
-114.558
11
165.143
21
-114.558
0
LINE
8
BLACK
6
CONTINUOUS
10
165.143
20
-114.558
11
165.237
21
-114.3
0
LINE
8
BLACK
6
CONTINUOUS
10
179.111
20
-116.283
11
179.371
21
-116.433
0
LINE
8
BLACK
6
CONTINUOUS
10
179.371
20
-116.433
11
179.563
21
-116.662
0
LINE
8
BLACK
6
CONTINUOUS
10
179.563
20
-116.662
11
179.666
21
-116.944
0
LINE
8
BLACK
6
CONTINUOUS
10
179.666
20
-116.944
11
179.666
21
-117.244
0
LINE
8
BLACK
6
CONTINUOUS
10
179.666
20
-117.244
11
179.563
21
-117.526
0
LINE
8
BLACK
6
CONTINUOUS
10
179.563
20
-117.526
11
179.371
21
-117.755
0
LINE
8
BLACK
6
CONTINUOUS
10
179.371
20
-117.755
11
179.111
21
-117.905
0
LINE
8
BLACK
6
CONTINUOUS
10
179.111
20
-117.905
11
178.89
21
-117.944
0
LINE
8
BLACK
6
CONTINUOUS
10
178.89
20
-117.944
11
178.742
21
-117.944
0
LINE
8
BLACK
6
CONTINUOUS
10
178.742
20
-117.944
11
178.521
21
-117.905
0
LINE
8
BLACK
6
CONTINUOUS
10
178.521
20
-117.905
11
178.261
21
-117.755
0
LINE
8
BLACK
6
CONTINUOUS
10
178.261
20
-117.755
11
178.069
21
-117.526
0
LINE
8
BLACK
6
CONTINUOUS
10
178.069
20
-117.526
11
177.966
21
-117.244
0
LINE
8
BLACK
6
CONTINUOUS
10
177.966
20
-117.244
11
177.966
21
-116.944
0
LINE
8
BLACK
6
CONTINUOUS
10
177.966
20
-116.944
11
178.069
21
-116.662
0
LINE
8
BLACK
6
CONTINUOUS
10
178.069
20
-116.662
11
178.261
21
-116.433
0
LINE
8
BLACK
6
CONTINUOUS
10
178.261
20
-116.433
11
178.521
21
-116.283
0
LINE
8
BLACK
6
CONTINUOUS
10
178.521
20
-116.283
11
178.742
21
-116.244
0
LINE
8
BLACK
6
CONTINUOUS
10
178.742
20
-116.244
11
178.89
21
-116.244
0
LINE
8
BLACK
6
CONTINUOUS
10
178.89
20
-116.244
11
179.111
21
-116.283
0
LINE
8
BLACK
6
CONTINUOUS
10
129.27
20
-109.966
11
128.774
21
-109.966
0
LINE
8
BLACK
6
CONTINUOUS
10
128.774
20
-109.966
11
128.774
21
-115.16
0
LINE
8
BLACK
6
CONTINUOUS
10
128.774
20
-115.16
11
128.981
21
-115.279
0
LINE
8
BLACK
6
CONTINUOUS
10
128.981
20
-115.279
11
129.14
21
-115.469
0
LINE
8
BLACK
6
CONTINUOUS
10
129.14
20
-115.469
11
129.224
21
-115.701
0
LINE
8
BLACK
6
CONTINUOUS
10
129.224
20
-115.701
11
129.224
21
-115.947
0
LINE
8
BLACK
6
CONTINUOUS
10
129.224
20
-115.947
11
129.14
21
-116.179
0
LINE
8
BLACK
6
CONTINUOUS
10
129.14
20
-116.179
11
128.981
21
-116.369
0
LINE
8
BLACK
6
CONTINUOUS
10
128.981
20
-116.369
11
128.767
21
-116.492
0
LINE
8
BLACK
6
CONTINUOUS
10
128.767
20
-116.492
11
128.585
21
-116.524
0
LINE
8
BLACK
6
CONTINUOUS
10
128.585
20
-116.524
11
128.463
21
-116.524
0
LINE
8
BLACK
6
CONTINUOUS
10
128.463
20
-116.524
11
128.281
21
-116.492
0
LINE
8
BLACK
6
CONTINUOUS
10
128.281
20
-116.492
11
128.067
21
-116.369
0
LINE
8
BLACK
6
CONTINUOUS
10
128.067
20
-116.369
11
127.908
21
-116.179
0
LINE
8
BLACK
6
CONTINUOUS
10
127.908
20
-116.179
11
127.824
21
-115.947
0
LINE
8
BLACK
6
CONTINUOUS
10
127.824
20
-115.947
11
127.824
21
-115.701
0
LINE
8
BLACK
6
CONTINUOUS
10
127.824
20
-115.701
11
127.908
21
-115.469
0
LINE
8
BLACK
6
CONTINUOUS
10
127.908
20
-115.469
11
128.067
21
-115.279
0
LINE
8
BLACK
6
CONTINUOUS
10
128.067
20
-115.279
11
128.274
21
-115.16
0
LINE
8
BLACK
6
CONTINUOUS
10
128.274
20
-115.16
11
128.274
21
-109.966
0
LINE
8
BLACK
6
CONTINUOUS
10
128.274
20
-109.966
11
127.27
21
-109.966
0
LINE
8
BLACK
6
CONTINUOUS
10
127.27
20
-109.966
11
127.27
21
-107.966
0
LINE
8
BLACK
6
CONTINUOUS
10
127.27
20
-107.966
11
129.27
21
-107.966
0
LINE
8
BLACK
6
CONTINUOUS
10
129.27
20
-107.966
11
129.27
21
-109.966
0
LINE
8
BLACK
6
CONTINUOUS
10
179.111
20
-113.743
11
179.371
21
-113.893
0
LINE
8
BLACK
6
CONTINUOUS
10
179.371
20
-113.893
11
179.563
21
-114.122
0
LINE
8
BLACK
6
CONTINUOUS
10
179.563
20
-114.122
11
179.666
21
-114.404
0
LINE
8
BLACK
6
CONTINUOUS
10
179.666
20
-114.404
11
179.666
21
-114.704
0
LINE
8
BLACK
6
CONTINUOUS
10
179.666
20
-114.704
11
179.563
21
-114.986
0
LINE
8
BLACK
6
CONTINUOUS
10
179.563
20
-114.986
11
179.371
21
-115.215
0
LINE
8
BLACK
6
CONTINUOUS
10
179.371
20
-115.215
11
179.111
21
-115.365
0
LINE
8
BLACK
6
CONTINUOUS
10
179.111
20
-115.365
11
178.89
21
-115.404
0
LINE
8
BLACK
6
CONTINUOUS
10
178.89
20
-115.404
11
178.742
21
-115.404
0
LINE
8
BLACK
6
CONTINUOUS
10
178.742
20
-115.404
11
178.521
21
-115.365
0
LINE
8
BLACK
6
CONTINUOUS
10
178.521
20
-115.365
11
178.261
21
-115.215
0
LINE
8
BLACK
6
CONTINUOUS
10
178.261
20
-115.215
11
178.069
21
-114.986
0
LINE
8
BLACK
6
CONTINUOUS
10
178.069
20
-114.986
11
177.966
21
-114.704
0
LINE
8
BLACK
6
CONTINUOUS
10
177.966
20
-114.704
11
177.966
21
-114.404
0
LINE
8
BLACK
6
CONTINUOUS
10
177.966
20
-114.404
11
178.069
21
-114.122
0
LINE
8
BLACK
6
CONTINUOUS
10
178.069
20
-114.122
11
178.261
21
-113.893
0
LINE
8
BLACK
6
CONTINUOUS
10
178.261
20
-113.893
11
178.521
21
-113.743
0
LINE
8
BLACK
6
CONTINUOUS
10
178.521
20
-113.743
11
178.742
21
-113.704
0
LINE
8
BLACK
6
CONTINUOUS
10
178.742
20
-113.704
11
178.89
21
-113.704
0
LINE
8
BLACK
6
CONTINUOUS
10
178.89
20
-113.704
11
179.111
21
-113.743
0
LINE
8
BLACK
6
CONTINUOUS
10
182.056
20
-100.973
11
182.544
21
-101.255
0
LINE
8
BLACK
6
CONTINUOUS
10
182.544
20
-101.255
11
182.907
21
-101.688
0
LINE
8
BLACK
6
CONTINUOUS
10
182.907
20
-101.688
11
183.1
21
-102.218
0
LINE
8
BLACK
6
CONTINUOUS
10
183.1
20
-102.218
11
183.1
21
-102.782
0
LINE
8
BLACK
6
CONTINUOUS
10
183.1
20
-102.782
11
182.907
21
-103.312
0
LINE
8
BLACK
6
CONTINUOUS
10
182.907
20
-103.312
11
182.544
21
-103.745
0
LINE
8
BLACK
6
CONTINUOUS
10
182.544
20
-103.745
11
182.056
21
-104.027
0
LINE
8
BLACK
6
CONTINUOUS
10
182.056
20
-104.027
11
181.5
21
-104.125
0
LINE
8
BLACK
6
CONTINUOUS
10
181.5
20
-104.125
11
180.944
21
-104.027
0
LINE
8
BLACK
6
CONTINUOUS
10
180.944
20
-104.027
11
180.456
21
-103.745
0
LINE
8
BLACK
6
CONTINUOUS
10
180.456
20
-103.745
11
180.093
21
-103.312
0
LINE
8
BLACK
6
CONTINUOUS
10
180.093
20
-103.312
11
179.9
21
-102.782
0
LINE
8
BLACK
6
CONTINUOUS
10
179.9
20
-102.782
11
179.9
21
-102.218
0
LINE
8
BLACK
6
CONTINUOUS
10
179.9
20
-102.218
11
180.093
21
-101.688
0
LINE
8
BLACK
6
CONTINUOUS
10
180.093
20
-101.688
11
180.456
21
-101.255
0
LINE
8
BLACK
6
CONTINUOUS
10
180.456
20
-101.255
11
180.944
21
-100.973
0
LINE
8
BLACK
6
CONTINUOUS
10
180.944
20
-100.973
11
181.5
21
-100.875
0
LINE
8
BLACK
6
CONTINUOUS
10
181.5
20
-100.875
11
182.056
21
-100.973
0
LINE
8
BLACK
6
CONTINUOUS
10
117.056
20
-100.473
11
117.544
21
-100.755
0
LINE
8
BLACK
6
CONTINUOUS
10
117.544
20
-100.755
11
117.907
21
-101.188
0
LINE
8
BLACK
6
CONTINUOUS
10
117.907
20
-101.188
11
118.1
21
-101.718
0
LINE
8
BLACK
6
CONTINUOUS
10
118.1
20
-101.718
11
118.1
21
-102.282
0
LINE
8
BLACK
6
CONTINUOUS
10
118.1
20
-102.282
11
117.907
21
-102.812
0
LINE
8
BLACK
6
CONTINUOUS
10
117.907
20
-102.812
11
117.544
21
-103.245
0
LINE
8
BLACK
6
CONTINUOUS
10
117.544
20
-103.245
11
117.056
21
-103.527
0
LINE
8
BLACK
6
CONTINUOUS
10
117.056
20
-103.527
11
116.5
21
-103.625
0
LINE
8
BLACK
6
CONTINUOUS
10
116.5
20
-103.625
11
115.944
21
-103.527
0
LINE
8
BLACK
6
CONTINUOUS
10
115.944
20
-103.527
11
115.456
21
-103.245
0
LINE
8
BLACK
6
CONTINUOUS
10
115.456
20
-103.245
11
115.093
21
-102.812
0
LINE
8
BLACK
6
CONTINUOUS
10
115.093
20
-102.812
11
114.9
21
-102.282
0
LINE
8
BLACK
6
CONTINUOUS
10
114.9
20
-102.282
11
114.9
21
-101.718
0
LINE
8
BLACK
6
CONTINUOUS
10
114.9
20
-101.718
11
115.093
21
-101.188
0
LINE
8
BLACK
6
CONTINUOUS
10
115.093
20
-101.188
11
115.456
21
-100.755
0
LINE
8
BLACK
6
CONTINUOUS
10
115.456
20
-100.755
11
115.944
21
-100.473
0
LINE
8
BLACK
6
CONTINUOUS
10
115.944
20
-100.473
11
116.5
21
-100.375
0
LINE
8
BLACK
6
CONTINUOUS
10
116.5
20
-100.375
11
117.056
21
-100.473
0
CIRCLE
8
BLACK
10
140.208
20
-124.46
40
0.5
0
CIRCLE
8
BLACK
10
172.974
20
-122.936
40
0.5
  0
ENDSEC
  0
EOF
