  0
SECTION
  2
HEADER
  9
$ANGBASE
  50
0.0
  9
$ANGDIR
  70
  1
  9
$MEASUREMENT
  70
0
  0
ENDSEC
  0
SECTION
  2
TABLES
  0
TABLE
  2
LTYPE
  70
4
  0
LTYPE
  5
40F
  2
CONTINUOUS
  70
0
  3
Solid line
  72
65
  73
0
  40
0.0
  0
LTYPE
  5
410
  2
DASHDOT
 70
0
  3
Dash Dot ____ _ ____ _
 72
65
 73
4
 40
2.0
 49
1.25
 49
-0.25
 49
0.25
 49
-0.25
  0
LTYPE
  5
411
  2
DASHED
 70
0
  3
Dashed __ __ __ __ __
 72
65
 73
2
 40
0.75
 49
0.5
 49
-0.25
  0
LTYPE
  5
43B
  2
DOTTED
 70
0
  3
Dotted .  .  .  .
 72
65
 73
2
 40
0.2
 49
0.0
 49
-0.2
  0
ENDTAB
  0
TABLE
  2
STYLE
  70
4
  0
STYLE
  2
KICAD
  70
0
  40
0
  41
1
  42
1
  50
0
  71
0
  3
isocp.shx
  0
STYLE
  2
KICADB
  70
0
  40
0
  41
1
  42
1
  50
0
  71
0
  3
isocp.shx
  0
STYLE
  2
KICADI
  70
0
  40
0
  41
1
  42
1
  50
15
  71
0
  3
isocp.shx
  0
STYLE
  2
KICADBI
  70
0
  40
0
  41
1
  42
1
  50
15
  71
0
  3
isocp.shx
  0
ENDTAB
  0
TABLE
  2
LAYER
  70
30
  0
LAYER
  2
BLACK
  70
0
  62
7
  6
CONTINUOUS
  0
LAYER
  2
GRAY1
  70
0
  62
251
  6
CONTINUOUS
  0
LAYER
  2
GRAY2
  70
0
  62
8
  6
CONTINUOUS
  0
LAYER
  2
GRAY3
  70
0
  62
9
  6
CONTINUOUS
  0
LAYER
  2
WHITE
  70
0
  62
7
  6
CONTINUOUS
  0
LAYER
  2
LYELLOW
  70
0
  62
51
  6
CONTINUOUS
  0
LAYER
  2
BLUE1
  70
0
  62
178
  6
CONTINUOUS
  0
LAYER
  2
GREEN1
  70
0
  62
98
  6
CONTINUOUS
  0
LAYER
  2
CYAN1
  70
0
  62
138
  6
CONTINUOUS
  0
LAYER
  2
RED1
  70
0
  62
18
  6
CONTINUOUS
  0
LAYER
  2
MAGENTA1
  70
0
  62
228
  6
CONTINUOUS
  0
LAYER
  2
BROWN1
  70
0
  62
58
  6
CONTINUOUS
  0
LAYER
  2
BLUE2
  70
0
  62
5
  6
CONTINUOUS
  0
LAYER
  2
GREEN2
  70
0
  62
3
  6
CONTINUOUS
  0
LAYER
  2
CYAN2
  70
0
  62
4
  6
CONTINUOUS
  0
LAYER
  2
RED2
  70
0
  62
1
  6
CONTINUOUS
  0
LAYER
  2
MAGENTA2
  70
0
  62
6
  6
CONTINUOUS
  0
LAYER
  2
BROWN2
  70
0
  62
54
  6
CONTINUOUS
  0
LAYER
  2
BLUE3
  70
0
  62
171
  6
CONTINUOUS
  0
LAYER
  2
GREEN3
  70
0
  62
91
  6
CONTINUOUS
  0
LAYER
  2
CYAN3
  70
0
  62
131
  6
CONTINUOUS
  0
LAYER
  2
RED3
  70
0
  62
11
  6
CONTINUOUS
  0
LAYER
  2
MAGENTA3
  70
0
  62
221
  6
CONTINUOUS
  0
LAYER
  2
YELLOW3
  70
0
  62
2
  6
CONTINUOUS
  0
LAYER
  2
BLUE4
  70
0
  62
5
  6
CONTINUOUS
  0
LAYER
  2
GREEN4
  70
0
  62
3
  6
CONTINUOUS
  0
LAYER
  2
CYAN4
  70
0
  62
4
  6
CONTINUOUS
  0
LAYER
  2
RED4
  70
0
  62
1
  6
CONTINUOUS
  0
LAYER
  2
MAGENTA4
  70
0
  62
6
  6
CONTINUOUS
  0
LAYER
  2
YELLOW4
  70
0
  62
2
  6
CONTINUOUS
  0
ENDTAB
  0
ENDSEC
  0
SECTION
  2
ENTITIES
0
LINE
8
BLACK
6
CONTINUOUS
10
182.125
20
-136.282
11
182.675
21
-136.6
0
LINE
8
BLACK
6
CONTINUOUS
10
182.675
20
-136.6
11
183.083
21
-137.086
0
LINE
8
BLACK
6
CONTINUOUS
10
183.083
20
-137.086
11
183.3
21
-137.683
0
LINE
8
BLACK
6
CONTINUOUS
10
183.3
20
-137.683
11
183.3
21
-138.317
0
LINE
8
BLACK
6
CONTINUOUS
10
183.3
20
-138.317
11
183.083
21
-138.914
0
LINE
8
BLACK
6
CONTINUOUS
10
183.083
20
-138.914
11
182.675
21
-139.4
0
LINE
8
BLACK
6
CONTINUOUS
10
182.675
20
-139.4
11
182.125
21
-139.718
0
LINE
8
BLACK
6
CONTINUOUS
10
182.125
20
-139.718
11
181.5
21
-139.828
0
LINE
8
BLACK
6
CONTINUOUS
10
181.5
20
-139.828
11
180.875
21
-139.718
0
LINE
8
BLACK
6
CONTINUOUS
10
180.875
20
-139.718
11
180.325
21
-139.4
0
LINE
8
BLACK
6
CONTINUOUS
10
180.325
20
-139.4
11
179.917
21
-138.914
0
LINE
8
BLACK
6
CONTINUOUS
10
179.917
20
-138.914
11
179.7
21
-138.317
0
LINE
8
BLACK
6
CONTINUOUS
10
179.7
20
-138.317
11
179.7
21
-137.683
0
LINE
8
BLACK
6
CONTINUOUS
10
179.7
20
-137.683
11
179.917
21
-137.086
0
LINE
8
BLACK
6
CONTINUOUS
10
179.917
20
-137.086
11
180.325
21
-136.6
0
LINE
8
BLACK
6
CONTINUOUS
10
180.325
20
-136.6
11
180.875
21
-136.282
0
LINE
8
BLACK
6
CONTINUOUS
10
180.875
20
-136.282
11
181.5
21
-136.172
0
LINE
8
BLACK
6
CONTINUOUS
10
181.5
20
-136.172
11
182.125
21
-136.282
0
LINE
8
BLACK
6
CONTINUOUS
10
117.125
20
-135.782
11
117.675
21
-136.1
0
LINE
8
BLACK
6
CONTINUOUS
10
117.675
20
-136.1
11
118.083
21
-136.586
0
LINE
8
BLACK
6
CONTINUOUS
10
118.083
20
-136.586
11
118.3
21
-137.183
0
LINE
8
BLACK
6
CONTINUOUS
10
118.3
20
-137.183
11
118.3
21
-137.817
0
LINE
8
BLACK
6
CONTINUOUS
10
118.3
20
-137.817
11
118.083
21
-138.414
0
LINE
8
BLACK
6
CONTINUOUS
10
118.083
20
-138.414
11
117.675
21
-138.9
0
LINE
8
BLACK
6
CONTINUOUS
10
117.675
20
-138.9
11
117.125
21
-139.218
0
LINE
8
BLACK
6
CONTINUOUS
10
117.125
20
-139.218
11
116.5
21
-139.328
0
LINE
8
BLACK
6
CONTINUOUS
10
116.5
20
-139.328
11
115.875
21
-139.218
0
LINE
8
BLACK
6
CONTINUOUS
10
115.875
20
-139.218
11
115.325
21
-138.9
0
LINE
8
BLACK
6
CONTINUOUS
10
115.325
20
-138.9
11
114.917
21
-138.414
0
LINE
8
BLACK
6
CONTINUOUS
10
114.917
20
-138.414
11
114.7
21
-137.817
0
LINE
8
BLACK
6
CONTINUOUS
10
114.7
20
-137.817
11
114.7
21
-137.183
0
LINE
8
BLACK
6
CONTINUOUS
10
114.7
20
-137.183
11
114.917
21
-136.586
0
LINE
8
BLACK
6
CONTINUOUS
10
114.917
20
-136.586
11
115.325
21
-136.1
0
LINE
8
BLACK
6
CONTINUOUS
10
115.325
20
-136.1
11
115.875
21
-135.782
0
LINE
8
BLACK
6
CONTINUOUS
10
115.875
20
-135.782
11
116.5
21
-135.672
0
LINE
8
BLACK
6
CONTINUOUS
10
116.5
20
-135.672
11
117.125
21
-135.782
0
LINE
8
BLACK
6
CONTINUOUS
10
132.139
20
-128.681
11
132.413
21
-128.84
0
LINE
8
BLACK
6
CONTINUOUS
10
132.413
20
-128.84
11
132.617
21
-129.083
0
LINE
8
BLACK
6
CONTINUOUS
10
132.617
20
-129.083
11
132.726
21
-129.381
0
LINE
8
BLACK
6
CONTINUOUS
10
132.726
20
-129.381
11
132.726
21
-129.699
0
LINE
8
BLACK
6
CONTINUOUS
10
132.726
20
-129.699
11
132.617
21
-129.997
0
LINE
8
BLACK
6
CONTINUOUS
10
132.617
20
-129.997
11
132.413
21
-130.24
0
LINE
8
BLACK
6
CONTINUOUS
10
132.413
20
-130.24
11
132.139
21
-130.399
0
LINE
8
BLACK
6
CONTINUOUS
10
132.139
20
-130.399
11
131.826
21
-130.454
0
LINE
8
BLACK
6
CONTINUOUS
10
131.826
20
-130.454
11
131.513
21
-130.399
0
LINE
8
BLACK
6
CONTINUOUS
10
131.513
20
-130.399
11
131.239
21
-130.24
0
LINE
8
BLACK
6
CONTINUOUS
10
131.239
20
-130.24
11
131.035
21
-129.997
0
LINE
8
BLACK
6
CONTINUOUS
10
131.035
20
-129.997
11
130.926
21
-129.699
0
LINE
8
BLACK
6
CONTINUOUS
10
130.926
20
-129.699
11
130.926
21
-129.381
0
LINE
8
BLACK
6
CONTINUOUS
10
130.926
20
-129.381
11
131.035
21
-129.083
0
LINE
8
BLACK
6
CONTINUOUS
10
131.035
20
-129.083
11
131.239
21
-128.84
0
LINE
8
BLACK
6
CONTINUOUS
10
131.239
20
-128.84
11
131.513
21
-128.681
0
LINE
8
BLACK
6
CONTINUOUS
10
131.513
20
-128.681
11
131.826
21
-128.626
0
LINE
8
BLACK
6
CONTINUOUS
10
131.826
20
-128.626
11
132.139
21
-128.681
0
LINE
8
BLACK
6
CONTINUOUS
10
121.575
20
-127.887
11
121.941
21
-128.099
0
LINE
8
BLACK
6
CONTINUOUS
10
121.941
20
-128.099
11
122.213
21
-128.423
0
LINE
8
BLACK
6
CONTINUOUS
10
122.213
20
-128.423
11
122.358
21
-128.82
0
LINE
8
BLACK
6
CONTINUOUS
10
122.358
20
-128.82
11
122.358
21
-129.244
0
LINE
8
BLACK
6
CONTINUOUS
10
122.358
20
-129.244
11
122.213
21
-129.641
0
LINE
8
BLACK
6
CONTINUOUS
10
122.213
20
-129.641
11
121.941
21
-129.965
0
LINE
8
BLACK
6
CONTINUOUS
10
121.941
20
-129.965
11
121.575
21
-130.177
0
LINE
8
BLACK
6
CONTINUOUS
10
121.575
20
-130.177
11
121.158
21
-130.251
0
LINE
8
BLACK
6
CONTINUOUS
10
121.158
20
-130.251
11
120.741
21
-130.177
0
LINE
8
BLACK
6
CONTINUOUS
10
120.741
20
-130.177
11
120.375
21
-129.965
0
LINE
8
BLACK
6
CONTINUOUS
10
120.375
20
-129.965
11
120.103
21
-129.641
0
LINE
8
BLACK
6
CONTINUOUS
10
120.103
20
-129.641
11
119.958
21
-129.244
0
LINE
8
BLACK
6
CONTINUOUS
10
119.958
20
-129.244
11
119.958
21
-128.82
0
LINE
8
BLACK
6
CONTINUOUS
10
119.958
20
-128.82
11
120.103
21
-128.423
0
LINE
8
BLACK
6
CONTINUOUS
10
120.103
20
-128.423
11
120.375
21
-128.099
0
LINE
8
BLACK
6
CONTINUOUS
10
120.375
20
-128.099
11
120.741
21
-127.887
0
LINE
8
BLACK
6
CONTINUOUS
10
120.741
20
-127.887
11
121.158
21
-127.813
0
LINE
8
BLACK
6
CONTINUOUS
10
121.158
20
-127.813
11
121.575
21
-127.887
0
LINE
8
BLACK
6
CONTINUOUS
10
119.035
20
-127.887
11
119.401
21
-128.099
0
LINE
8
BLACK
6
CONTINUOUS
10
119.401
20
-128.099
11
119.673
21
-128.423
0
LINE
8
BLACK
6
CONTINUOUS
10
119.673
20
-128.423
11
119.818
21
-128.82
0
LINE
8
BLACK
6
CONTINUOUS
10
119.818
20
-128.82
11
119.818
21
-129.244
0
LINE
8
BLACK
6
CONTINUOUS
10
119.818
20
-129.244
11
119.673
21
-129.641
0
LINE
8
BLACK
6
CONTINUOUS
10
119.673
20
-129.641
11
119.401
21
-129.965
0
LINE
8
BLACK
6
CONTINUOUS
10
119.401
20
-129.965
11
119.035
21
-130.177
0
LINE
8
BLACK
6
CONTINUOUS
10
119.035
20
-130.177
11
118.618
21
-130.251
0
LINE
8
BLACK
6
CONTINUOUS
10
118.618
20
-130.251
11
118.201
21
-130.177
0
LINE
8
BLACK
6
CONTINUOUS
10
118.201
20
-130.177
11
117.835
21
-129.965
0
LINE
8
BLACK
6
CONTINUOUS
10
117.835
20
-129.965
11
117.563
21
-129.641
0
LINE
8
BLACK
6
CONTINUOUS
10
117.563
20
-129.641
11
117.418
21
-129.244
0
LINE
8
BLACK
6
CONTINUOUS
10
117.418
20
-129.244
11
117.418
21
-128.82
0
LINE
8
BLACK
6
CONTINUOUS
10
117.418
20
-128.82
11
117.563
21
-128.423
0
LINE
8
BLACK
6
CONTINUOUS
10
117.563
20
-128.423
11
117.835
21
-128.099
0
LINE
8
BLACK
6
CONTINUOUS
10
117.835
20
-128.099
11
118.201
21
-127.887
0
LINE
8
BLACK
6
CONTINUOUS
10
118.201
20
-127.887
11
118.618
21
-127.813
0
LINE
8
BLACK
6
CONTINUOUS
10
118.618
20
-127.813
11
119.035
21
-127.887
0
LINE
8
BLACK
6
CONTINUOUS
10
124.898
20
-130.232
11
122.498
21
-130.232
0
LINE
8
BLACK
6
CONTINUOUS
10
122.498
20
-130.232
11
122.498
21
-127.832
0
LINE
8
BLACK
6
CONTINUOUS
10
122.498
20
-127.832
11
124.898
21
-127.832
0
LINE
8
BLACK
6
CONTINUOUS
10
124.898
20
-127.832
11
124.898
21
-130.232
0
LINE
8
BLACK
6
CONTINUOUS
10
160.033
20
-126.617
11
160.399
21
-126.829
0
LINE
8
BLACK
6
CONTINUOUS
10
160.399
20
-126.829
11
160.671
21
-127.153
0
LINE
8
BLACK
6
CONTINUOUS
10
160.671
20
-127.153
11
160.816
21
-127.55
0
LINE
8
BLACK
6
CONTINUOUS
10
160.816
20
-127.55
11
160.816
21
-127.974
0
LINE
8
BLACK
6
CONTINUOUS
10
160.816
20
-127.974
11
160.671
21
-128.371
0
LINE
8
BLACK
6
CONTINUOUS
10
160.671
20
-128.371
11
160.399
21
-128.695
0
LINE
8
BLACK
6
CONTINUOUS
10
160.399
20
-128.695
11
160.033
21
-128.907
0
LINE
8
BLACK
6
CONTINUOUS
10
160.033
20
-128.907
11
159.616
21
-128.981
0
LINE
8
BLACK
6
CONTINUOUS
10
159.616
20
-128.981
11
159.199
21
-128.907
0
LINE
8
BLACK
6
CONTINUOUS
10
159.199
20
-128.907
11
158.833
21
-128.695
0
LINE
8
BLACK
6
CONTINUOUS
10
158.833
20
-128.695
11
158.561
21
-128.371
0
LINE
8
BLACK
6
CONTINUOUS
10
158.561
20
-128.371
11
158.416
21
-127.974
0
LINE
8
BLACK
6
CONTINUOUS
10
158.416
20
-127.974
11
158.416
21
-127.55
0
LINE
8
BLACK
6
CONTINUOUS
10
158.416
20
-127.55
11
158.561
21
-127.153
0
LINE
8
BLACK
6
CONTINUOUS
10
158.561
20
-127.153
11
158.833
21
-126.829
0
LINE
8
BLACK
6
CONTINUOUS
10
158.833
20
-126.829
11
159.199
21
-126.617
0
LINE
8
BLACK
6
CONTINUOUS
10
159.199
20
-126.617
11
159.616
21
-126.543
0
LINE
8
BLACK
6
CONTINUOUS
10
159.616
20
-126.543
11
160.033
21
-126.617
0
LINE
8
BLACK
6
CONTINUOUS
10
166.533
20
-126.617
11
166.899
21
-126.829
0
LINE
8
BLACK
6
CONTINUOUS
10
166.899
20
-126.829
11
167.171
21
-127.153
0
LINE
8
BLACK
6
CONTINUOUS
10
167.171
20
-127.153
11
167.316
21
-127.55
0
LINE
8
BLACK
6
CONTINUOUS
10
167.316
20
-127.55
11
167.316
21
-127.974
0
LINE
8
BLACK
6
CONTINUOUS
10
167.316
20
-127.974
11
167.171
21
-128.371
0
LINE
8
BLACK
6
CONTINUOUS
10
167.171
20
-128.371
11
166.899
21
-128.695
0
LINE
8
BLACK
6
CONTINUOUS
10
166.899
20
-128.695
11
166.533
21
-128.907
0
LINE
8
BLACK
6
CONTINUOUS
10
166.533
20
-128.907
11
166.116
21
-128.981
0
LINE
8
BLACK
6
CONTINUOUS
10
166.116
20
-128.981
11
165.699
21
-128.907
0
LINE
8
BLACK
6
CONTINUOUS
10
165.699
20
-128.907
11
165.333
21
-128.695
0
LINE
8
BLACK
6
CONTINUOUS
10
165.333
20
-128.695
11
165.061
21
-128.371
0
LINE
8
BLACK
6
CONTINUOUS
10
165.061
20
-128.371
11
164.916
21
-127.974
0
LINE
8
BLACK
6
CONTINUOUS
10
164.916
20
-127.974
11
164.916
21
-127.55
0
LINE
8
BLACK
6
CONTINUOUS
10
164.916
20
-127.55
11
165.061
21
-127.153
0
LINE
8
BLACK
6
CONTINUOUS
10
165.061
20
-127.153
11
165.333
21
-126.829
0
LINE
8
BLACK
6
CONTINUOUS
10
165.333
20
-126.829
11
165.699
21
-126.617
0
LINE
8
BLACK
6
CONTINUOUS
10
165.699
20
-126.617
11
166.116
21
-126.543
0
LINE
8
BLACK
6
CONTINUOUS
10
166.116
20
-126.543
11
166.533
21
-126.617
0
LINE
8
BLACK
6
CONTINUOUS
10
132.139
20
-126.141
11
132.413
21
-126.3
0
LINE
8
BLACK
6
CONTINUOUS
10
132.413
20
-126.3
11
132.617
21
-126.543
0
LINE
8
BLACK
6
CONTINUOUS
10
132.617
20
-126.543
11
132.726
21
-126.841
0
LINE
8
BLACK
6
CONTINUOUS
10
132.726
20
-126.841
11
132.726
21
-127.159
0
LINE
8
BLACK
6
CONTINUOUS
10
132.726
20
-127.159
11
132.617
21
-127.457
0
LINE
8
BLACK
6
CONTINUOUS
10
132.617
20
-127.457
11
132.413
21
-127.7
0
LINE
8
BLACK
6
CONTINUOUS
10
132.413
20
-127.7
11
132.139
21
-127.859
0
LINE
8
BLACK
6
CONTINUOUS
10
132.139
20
-127.859
11
131.905
21
-127.9
0
LINE
8
BLACK
6
CONTINUOUS
10
131.905
20
-127.9
11
131.747
21
-127.9
0
LINE
8
BLACK
6
CONTINUOUS
10
131.747
20
-127.9
11
131.513
21
-127.859
0
LINE
8
BLACK
6
CONTINUOUS
10
131.513
20
-127.859
11
131.239
21
-127.7
0
LINE
8
BLACK
6
CONTINUOUS
10
131.239
20
-127.7
11
131.035
21
-127.457
0
LINE
8
BLACK
6
CONTINUOUS
10
131.035
20
-127.457
11
130.926
21
-127.159
0
LINE
8
BLACK
6
CONTINUOUS
10
130.926
20
-127.159
11
130.926
21
-126.841
0
LINE
8
BLACK
6
CONTINUOUS
10
130.926
20
-126.841
11
131.035
21
-126.543
0
LINE
8
BLACK
6
CONTINUOUS
10
131.035
20
-126.543
11
131.239
21
-126.3
0
LINE
8
BLACK
6
CONTINUOUS
10
131.239
20
-126.3
11
131.513
21
-126.141
0
LINE
8
BLACK
6
CONTINUOUS
10
131.513
20
-126.141
11
131.747
21
-126.1
0
LINE
8
BLACK
6
CONTINUOUS
10
131.747
20
-126.1
11
131.905
21
-126.1
0
LINE
8
BLACK
6
CONTINUOUS
10
131.905
20
-126.1
11
132.139
21
-126.141
0
LINE
8
BLACK
6
CONTINUOUS
10
145.855
20
-125.887
11
146.129
21
-126.046
0
LINE
8
BLACK
6
CONTINUOUS
10
146.129
20
-126.046
11
146.333
21
-126.289
0
LINE
8
BLACK
6
CONTINUOUS
10
146.333
20
-126.289
11
146.442
21
-126.587
0
LINE
8
BLACK
6
CONTINUOUS
10
146.442
20
-126.587
11
146.442
21
-126.905
0
LINE
8
BLACK
6
CONTINUOUS
10
146.442
20
-126.905
11
146.333
21
-127.203
0
LINE
8
BLACK
6
CONTINUOUS
10
146.333
20
-127.203
11
146.129
21
-127.446
0
LINE
8
BLACK
6
CONTINUOUS
10
146.129
20
-127.446
11
145.855
21
-127.605
0
LINE
8
BLACK
6
CONTINUOUS
10
145.855
20
-127.605
11
145.542
21
-127.66
0
LINE
8
BLACK
6
CONTINUOUS
10
145.542
20
-127.66
11
145.229
21
-127.605
0
LINE
8
BLACK
6
CONTINUOUS
10
145.229
20
-127.605
11
144.955
21
-127.446
0
LINE
8
BLACK
6
CONTINUOUS
10
144.955
20
-127.446
11
144.751
21
-127.203
0
LINE
8
BLACK
6
CONTINUOUS
10
144.751
20
-127.203
11
144.642
21
-126.905
0
LINE
8
BLACK
6
CONTINUOUS
10
144.642
20
-126.905
11
144.642
21
-126.587
0
LINE
8
BLACK
6
CONTINUOUS
10
144.642
20
-126.587
11
144.751
21
-126.289
0
LINE
8
BLACK
6
CONTINUOUS
10
144.751
20
-126.289
11
144.955
21
-126.046
0
LINE
8
BLACK
6
CONTINUOUS
10
144.955
20
-126.046
11
145.229
21
-125.887
0
LINE
8
BLACK
6
CONTINUOUS
10
145.229
20
-125.887
11
145.542
21
-125.832
0
LINE
8
BLACK
6
CONTINUOUS
10
145.542
20
-125.832
11
145.855
21
-125.887
0
LINE
8
BLACK
6
CONTINUOUS
10
148.395
20
-125.887
11
148.669
21
-126.046
0
LINE
8
BLACK
6
CONTINUOUS
10
148.669
20
-126.046
11
148.873
21
-126.289
0
LINE
8
BLACK
6
CONTINUOUS
10
148.873
20
-126.289
11
148.982
21
-126.587
0
LINE
8
BLACK
6
CONTINUOUS
10
148.982
20
-126.587
11
148.982
21
-126.905
0
LINE
8
BLACK
6
CONTINUOUS
10
148.982
20
-126.905
11
148.873
21
-127.203
0
LINE
8
BLACK
6
CONTINUOUS
10
148.873
20
-127.203
11
148.669
21
-127.446
0
LINE
8
BLACK
6
CONTINUOUS
10
148.669
20
-127.446
11
148.395
21
-127.605
0
LINE
8
BLACK
6
CONTINUOUS
10
148.395
20
-127.605
11
148.161
21
-127.646
0
LINE
8
BLACK
6
CONTINUOUS
10
148.161
20
-127.646
11
148.003
21
-127.646
0
LINE
8
BLACK
6
CONTINUOUS
10
148.003
20
-127.646
11
147.769
21
-127.605
0
LINE
8
BLACK
6
CONTINUOUS
10
147.769
20
-127.605
11
147.495
21
-127.446
0
LINE
8
BLACK
6
CONTINUOUS
10
147.495
20
-127.446
11
147.291
21
-127.203
0
LINE
8
BLACK
6
CONTINUOUS
10
147.291
20
-127.203
11
147.182
21
-126.905
0
LINE
8
BLACK
6
CONTINUOUS
10
147.182
20
-126.905
11
147.182
21
-126.587
0
LINE
8
BLACK
6
CONTINUOUS
10
147.182
20
-126.587
11
147.291
21
-126.289
0
LINE
8
BLACK
6
CONTINUOUS
10
147.291
20
-126.289
11
147.495
21
-126.046
0
LINE
8
BLACK
6
CONTINUOUS
10
147.495
20
-126.046
11
147.769
21
-125.887
0
LINE
8
BLACK
6
CONTINUOUS
10
147.769
20
-125.887
11
148.003
21
-125.846
0
LINE
8
BLACK
6
CONTINUOUS
10
148.003
20
-125.846
11
148.161
21
-125.846
0
LINE
8
BLACK
6
CONTINUOUS
10
148.161
20
-125.846
11
148.395
21
-125.887
0
LINE
8
BLACK
6
CONTINUOUS
10
179.181
20
-123.712
11
179.501
21
-123.897
0
LINE
8
BLACK
6
CONTINUOUS
10
179.501
20
-123.897
11
179.739
21
-124.181
0
LINE
8
BLACK
6
CONTINUOUS
10
179.739
20
-124.181
11
179.866
21
-124.529
0
LINE
8
BLACK
6
CONTINUOUS
10
179.866
20
-124.529
11
179.866
21
-124.899
0
LINE
8
BLACK
6
CONTINUOUS
10
179.866
20
-124.899
11
179.739
21
-125.247
0
LINE
8
BLACK
6
CONTINUOUS
10
179.739
20
-125.247
11
179.501
21
-125.531
0
LINE
8
BLACK
6
CONTINUOUS
10
179.501
20
-125.531
11
179.181
21
-125.716
0
LINE
8
BLACK
6
CONTINUOUS
10
179.181
20
-125.716
11
178.908
21
-125.764
0
LINE
8
BLACK
6
CONTINUOUS
10
178.908
20
-125.764
11
178.724
21
-125.764
0
LINE
8
BLACK
6
CONTINUOUS
10
178.724
20
-125.764
11
178.451
21
-125.716
0
LINE
8
BLACK
6
CONTINUOUS
10
178.451
20
-125.716
11
178.131
21
-125.531
0
LINE
8
BLACK
6
CONTINUOUS
10
178.131
20
-125.531
11
177.893
21
-125.247
0
LINE
8
BLACK
6
CONTINUOUS
10
177.893
20
-125.247
11
177.766
21
-124.899
0
LINE
8
BLACK
6
CONTINUOUS
10
177.766
20
-124.899
11
177.766
21
-124.529
0
LINE
8
BLACK
6
CONTINUOUS
10
177.766
20
-124.529
11
177.893
21
-124.181
0
LINE
8
BLACK
6
CONTINUOUS
10
177.893
20
-124.181
11
178.131
21
-123.897
0
LINE
8
BLACK
6
CONTINUOUS
10
178.131
20
-123.897
11
178.451
21
-123.712
0
LINE
8
BLACK
6
CONTINUOUS
10
178.451
20
-123.712
11
178.724
21
-123.664
0
LINE
8
BLACK
6
CONTINUOUS
10
178.724
20
-123.664
11
178.908
21
-123.664
0
LINE
8
BLACK
6
CONTINUOUS
10
178.908
20
-123.664
11
179.181
21
-123.712
0
LINE
8
BLACK
6
CONTINUOUS
10
166.533
20
-122.117
11
166.899
21
-122.329
0
LINE
8
BLACK
6
CONTINUOUS
10
166.899
20
-122.329
11
167.171
21
-122.653
0
LINE
8
BLACK
6
CONTINUOUS
10
167.171
20
-122.653
11
167.316
21
-123.05
0
LINE
8
BLACK
6
CONTINUOUS
10
167.316
20
-123.05
11
167.316
21
-123.474
0
LINE
8
BLACK
6
CONTINUOUS
10
167.316
20
-123.474
11
167.171
21
-123.871
0
LINE
8
BLACK
6
CONTINUOUS
10
167.171
20
-123.871
11
166.899
21
-124.195
0
LINE
8
BLACK
6
CONTINUOUS
10
166.899
20
-124.195
11
166.533
21
-124.407
0
LINE
8
BLACK
6
CONTINUOUS
10
166.533
20
-124.407
11
166.116
21
-124.481
0
LINE
8
BLACK
6
CONTINUOUS
10
166.116
20
-124.481
11
165.699
21
-124.407
0
LINE
8
BLACK
6
CONTINUOUS
10
165.699
20
-124.407
11
165.333
21
-124.195
0
LINE
8
BLACK
6
CONTINUOUS
10
165.333
20
-124.195
11
165.061
21
-123.871
0
LINE
8
BLACK
6
CONTINUOUS
10
165.061
20
-123.871
11
164.916
21
-123.474
0
LINE
8
BLACK
6
CONTINUOUS
10
164.916
20
-123.474
11
164.916
21
-123.05
0
LINE
8
BLACK
6
CONTINUOUS
10
164.916
20
-123.05
11
165.061
21
-122.653
0
LINE
8
BLACK
6
CONTINUOUS
10
165.061
20
-122.653
11
165.333
21
-122.329
0
LINE
8
BLACK
6
CONTINUOUS
10
165.333
20
-122.329
11
165.699
21
-122.117
0
LINE
8
BLACK
6
CONTINUOUS
10
165.699
20
-122.117
11
166.116
21
-122.043
0
LINE
8
BLACK
6
CONTINUOUS
10
166.116
20
-122.043
11
166.533
21
-122.117
0
LINE
8
BLACK
6
CONTINUOUS
10
160.033
20
-122.117
11
160.399
21
-122.329
0
LINE
8
BLACK
6
CONTINUOUS
10
160.399
20
-122.329
11
160.671
21
-122.653
0
LINE
8
BLACK
6
CONTINUOUS
10
160.671
20
-122.653
11
160.816
21
-123.05
0
LINE
8
BLACK
6
CONTINUOUS
10
160.816
20
-123.05
11
160.816
21
-123.474
0
LINE
8
BLACK
6
CONTINUOUS
10
160.816
20
-123.474
11
160.671
21
-123.871
0
LINE
8
BLACK
6
CONTINUOUS
10
160.671
20
-123.871
11
160.399
21
-124.195
0
LINE
8
BLACK
6
CONTINUOUS
10
160.399
20
-124.195
11
160.033
21
-124.407
0
LINE
8
BLACK
6
CONTINUOUS
10
160.033
20
-124.407
11
159.616
21
-124.481
0
LINE
8
BLACK
6
CONTINUOUS
10
159.616
20
-124.481
11
159.199
21
-124.407
0
LINE
8
BLACK
6
CONTINUOUS
10
159.199
20
-124.407
11
158.833
21
-124.195
0
LINE
8
BLACK
6
CONTINUOUS
10
158.833
20
-124.195
11
158.561
21
-123.871
0
LINE
8
BLACK
6
CONTINUOUS
10
158.561
20
-123.871
11
158.416
21
-123.474
0
LINE
8
BLACK
6
CONTINUOUS
10
158.416
20
-123.474
11
158.416
21
-123.05
0
LINE
8
BLACK
6
CONTINUOUS
10
158.416
20
-123.05
11
158.561
21
-122.653
0
LINE
8
BLACK
6
CONTINUOUS
10
158.561
20
-122.653
11
158.833
21
-122.329
0
LINE
8
BLACK
6
CONTINUOUS
10
158.833
20
-122.329
11
159.199
21
-122.117
0
LINE
8
BLACK
6
CONTINUOUS
10
159.199
20
-122.117
11
159.616
21
-122.043
0
LINE
8
BLACK
6
CONTINUOUS
10
159.616
20
-122.043
11
160.033
21
-122.117
0
LINE
8
BLACK
6
CONTINUOUS
10
179.181
20
-121.172
11
179.501
21
-121.357
0
LINE
8
BLACK
6
CONTINUOUS
10
179.501
20
-121.357
11
179.739
21
-121.641
0
LINE
8
BLACK
6
CONTINUOUS
10
179.739
20
-121.641
11
179.866
21
-121.989
0
LINE
8
BLACK
6
CONTINUOUS
10
179.866
20
-121.989
11
179.866
21
-122.359
0
LINE
8
BLACK
6
CONTINUOUS
10
179.866
20
-122.359
11
179.739
21
-122.707
0
LINE
8
BLACK
6
CONTINUOUS
10
179.739
20
-122.707
11
179.501
21
-122.991
0
LINE
8
BLACK
6
CONTINUOUS
10
179.501
20
-122.991
11
179.181
21
-123.176
0
LINE
8
BLACK
6
CONTINUOUS
10
179.181
20
-123.176
11
178.908
21
-123.224
0
LINE
8
BLACK
6
CONTINUOUS
10
178.908
20
-123.224
11
178.724
21
-123.224
0
LINE
8
BLACK
6
CONTINUOUS
10
178.724
20
-123.224
11
178.451
21
-123.176
0
LINE
8
BLACK
6
CONTINUOUS
10
178.451
20
-123.176
11
178.131
21
-122.991
0
LINE
8
BLACK
6
CONTINUOUS
10
178.131
20
-122.991
11
177.893
21
-122.707
0
LINE
8
BLACK
6
CONTINUOUS
10
177.893
20
-122.707
11
177.766
21
-122.359
0
LINE
8
BLACK
6
CONTINUOUS
10
177.766
20
-122.359
11
177.766
21
-121.989
0
LINE
8
BLACK
6
CONTINUOUS
10
177.766
20
-121.989
11
177.893
21
-121.641
0
LINE
8
BLACK
6
CONTINUOUS
10
177.893
20
-121.641
11
178.131
21
-121.357
0
LINE
8
BLACK
6
CONTINUOUS
10
178.131
20
-121.357
11
178.451
21
-121.172
0
LINE
8
BLACK
6
CONTINUOUS
10
178.451
20
-121.172
11
178.724
21
-121.124
0
LINE
8
BLACK
6
CONTINUOUS
10
178.724
20
-121.124
11
178.908
21
-121.124
0
LINE
8
BLACK
6
CONTINUOUS
10
178.908
20
-121.124
11
179.181
21
-121.172
0
LINE
8
BLACK
6
CONTINUOUS
10
125.281
20
-121.315
11
125.555
21
-121.474
0
LINE
8
BLACK
6
CONTINUOUS
10
125.555
20
-121.474
11
125.759
21
-121.717
0
LINE
8
BLACK
6
CONTINUOUS
10
125.759
20
-121.717
11
125.868
21
-122.015
0
LINE
8
BLACK
6
CONTINUOUS
10
125.868
20
-122.015
11
125.868
21
-122.333
0
LINE
8
BLACK
6
CONTINUOUS
10
125.868
20
-122.333
11
125.759
21
-122.631
0
LINE
8
BLACK
6
CONTINUOUS
10
125.759
20
-122.631
11
125.555
21
-122.874
0
LINE
8
BLACK
6
CONTINUOUS
10
125.555
20
-122.874
11
125.281
21
-123.033
0
LINE
8
BLACK
6
CONTINUOUS
10
125.281
20
-123.033
11
124.968
21
-123.088
0
LINE
8
BLACK
6
CONTINUOUS
10
124.968
20
-123.088
11
124.655
21
-123.033
0
LINE
8
BLACK
6
CONTINUOUS
10
124.655
20
-123.033
11
124.381
21
-122.874
0
LINE
8
BLACK
6
CONTINUOUS
10
124.381
20
-122.874
11
124.177
21
-122.631
0
LINE
8
BLACK
6
CONTINUOUS
10
124.177
20
-122.631
11
124.068
21
-122.333
0
LINE
8
BLACK
6
CONTINUOUS
10
124.068
20
-122.333
11
124.068
21
-122.015
0
LINE
8
BLACK
6
CONTINUOUS
10
124.068
20
-122.015
11
124.177
21
-121.717
0
LINE
8
BLACK
6
CONTINUOUS
10
124.177
20
-121.717
11
124.381
21
-121.474
0
LINE
8
BLACK
6
CONTINUOUS
10
124.381
20
-121.474
11
124.655
21
-121.315
0
LINE
8
BLACK
6
CONTINUOUS
10
124.655
20
-121.315
11
124.968
21
-121.26
0
LINE
8
BLACK
6
CONTINUOUS
10
124.968
20
-121.26
11
125.281
21
-121.315
0
LINE
8
BLACK
6
CONTINUOUS
10
145.907
20
-119.902
11
146.227
21
-120.087
0
LINE
8
BLACK
6
CONTINUOUS
10
146.227
20
-120.087
11
146.465
21
-120.371
0
LINE
8
BLACK
6
CONTINUOUS
10
146.465
20
-120.371
11
146.592
21
-120.719
0
LINE
8
BLACK
6
CONTINUOUS
10
146.592
20
-120.719
11
146.592
21
-121.089
0
LINE
8
BLACK
6
CONTINUOUS
10
146.592
20
-121.089
11
146.465
21
-121.437
0
LINE
8
BLACK
6
CONTINUOUS
10
146.465
20
-121.437
11
146.227
21
-121.721
0
LINE
8
BLACK
6
CONTINUOUS
10
146.227
20
-121.721
11
145.907
21
-121.906
0
LINE
8
BLACK
6
CONTINUOUS
10
145.907
20
-121.906
11
145.634
21
-121.954
0
LINE
8
BLACK
6
CONTINUOUS
10
145.634
20
-121.954
11
145.45
21
-121.954
0
LINE
8
BLACK
6
CONTINUOUS
10
145.45
20
-121.954
11
145.177
21
-121.906
0
LINE
8
BLACK
6
CONTINUOUS
10
145.177
20
-121.906
11
144.857
21
-121.721
0
LINE
8
BLACK
6
CONTINUOUS
10
144.857
20
-121.721
11
144.619
21
-121.437
0
LINE
8
BLACK
6
CONTINUOUS
10
144.619
20
-121.437
11
144.492
21
-121.089
0
LINE
8
BLACK
6
CONTINUOUS
10
144.492
20
-121.089
11
144.492
21
-120.719
0
LINE
8
BLACK
6
CONTINUOUS
10
144.492
20
-120.719
11
144.619
21
-120.371
0
LINE
8
BLACK
6
CONTINUOUS
10
144.619
20
-120.371
11
144.857
21
-120.087
0
LINE
8
BLACK
6
CONTINUOUS
10
144.857
20
-120.087
11
145.177
21
-119.902
0
LINE
8
BLACK
6
CONTINUOUS
10
145.177
20
-119.902
11
145.45
21
-119.854
0
LINE
8
BLACK
6
CONTINUOUS
10
145.45
20
-119.854
11
145.634
21
-119.854
0
LINE
8
BLACK
6
CONTINUOUS
10
145.634
20
-119.854
11
145.907
21
-119.902
0
LINE
8
BLACK
6
CONTINUOUS
10
144.052
20
-121.954
11
141.952
21
-121.954
0
LINE
8
BLACK
6
CONTINUOUS
10
141.952
20
-121.954
11
141.952
21
-119.854
0
LINE
8
BLACK
6
CONTINUOUS
10
141.952
20
-119.854
11
144.052
21
-119.854
0
LINE
8
BLACK
6
CONTINUOUS
10
144.052
20
-119.854
11
144.052
21
-121.954
0
LINE
8
BLACK
6
CONTINUOUS
10
148.447
20
-119.902
11
148.767
21
-120.087
0
LINE
8
BLACK
6
CONTINUOUS
10
148.767
20
-120.087
11
149.005
21
-120.371
0
LINE
8
BLACK
6
CONTINUOUS
10
149.005
20
-120.371
11
149.132
21
-120.719
0
LINE
8
BLACK
6
CONTINUOUS
10
149.132
20
-120.719
11
149.132
21
-121.089
0
LINE
8
BLACK
6
CONTINUOUS
10
149.132
20
-121.089
11
149.005
21
-121.437
0
LINE
8
BLACK
6
CONTINUOUS
10
149.005
20
-121.437
11
148.767
21
-121.721
0
LINE
8
BLACK
6
CONTINUOUS
10
148.767
20
-121.721
11
148.447
21
-121.906
0
LINE
8
BLACK
6
CONTINUOUS
10
148.447
20
-121.906
11
148.174
21
-121.954
0
LINE
8
BLACK
6
CONTINUOUS
10
148.174
20
-121.954
11
147.99
21
-121.954
0
LINE
8
BLACK
6
CONTINUOUS
10
147.99
20
-121.954
11
147.717
21
-121.906
0
LINE
8
BLACK
6
CONTINUOUS
10
147.717
20
-121.906
11
147.397
21
-121.721
0
LINE
8
BLACK
6
CONTINUOUS
10
147.397
20
-121.721
11
147.159
21
-121.437
0
LINE
8
BLACK
6
CONTINUOUS
10
147.159
20
-121.437
11
147.032
21
-121.089
0
LINE
8
BLACK
6
CONTINUOUS
10
147.032
20
-121.089
11
147.032
21
-120.719
0
LINE
8
BLACK
6
CONTINUOUS
10
147.032
20
-120.719
11
147.159
21
-120.371
0
LINE
8
BLACK
6
CONTINUOUS
10
147.159
20
-120.371
11
147.397
21
-120.087
0
LINE
8
BLACK
6
CONTINUOUS
10
147.397
20
-120.087
11
147.717
21
-119.902
0
LINE
8
BLACK
6
CONTINUOUS
10
147.717
20
-119.902
11
147.99
21
-119.854
0
LINE
8
BLACK
6
CONTINUOUS
10
147.99
20
-119.854
11
148.174
21
-119.854
0
LINE
8
BLACK
6
CONTINUOUS
10
148.174
20
-119.854
11
148.447
21
-119.902
0
LINE
8
BLACK
6
CONTINUOUS
10
150.987
20
-119.902
11
151.307
21
-120.087
0
LINE
8
BLACK
6
CONTINUOUS
10
151.307
20
-120.087
11
151.545
21
-120.371
0
LINE
8
BLACK
6
CONTINUOUS
10
151.545
20
-120.371
11
151.672
21
-120.719
0
LINE
8
BLACK
6
CONTINUOUS
10
151.672
20
-120.719
11
151.672
21
-121.089
0
LINE
8
BLACK
6
CONTINUOUS
10
151.672
20
-121.089
11
151.545
21
-121.437
0
LINE
8
BLACK
6
CONTINUOUS
10
151.545
20
-121.437
11
151.307
21
-121.721
0
LINE
8
BLACK
6
CONTINUOUS
10
151.307
20
-121.721
11
150.987
21
-121.906
0
LINE
8
BLACK
6
CONTINUOUS
10
150.987
20
-121.906
11
150.714
21
-121.954
0
LINE
8
BLACK
6
CONTINUOUS
10
150.714
20
-121.954
11
150.53
21
-121.954
0
LINE
8
BLACK
6
CONTINUOUS
10
150.53
20
-121.954
11
150.257
21
-121.906
0
LINE
8
BLACK
6
CONTINUOUS
10
150.257
20
-121.906
11
149.937
21
-121.721
0
LINE
8
BLACK
6
CONTINUOUS
10
149.937
20
-121.721
11
149.699
21
-121.437
0
LINE
8
BLACK
6
CONTINUOUS
10
149.699
20
-121.437
11
149.572
21
-121.089
0
LINE
8
BLACK
6
CONTINUOUS
10
149.572
20
-121.089
11
149.572
21
-120.719
0
LINE
8
BLACK
6
CONTINUOUS
10
149.572
20
-120.719
11
149.699
21
-120.371
0
LINE
8
BLACK
6
CONTINUOUS
10
149.699
20
-120.371
11
149.937
21
-120.087
0
LINE
8
BLACK
6
CONTINUOUS
10
149.937
20
-120.087
11
150.257
21
-119.902
0
LINE
8
BLACK
6
CONTINUOUS
10
150.257
20
-119.902
11
150.53
21
-119.854
0
LINE
8
BLACK
6
CONTINUOUS
10
150.53
20
-119.854
11
150.714
21
-119.854
0
LINE
8
BLACK
6
CONTINUOUS
10
150.714
20
-119.854
11
150.987
21
-119.902
0
LINE
8
BLACK
6
CONTINUOUS
10
140.271
20
-121.834
11
138.621
21
-121.834
0
LINE
8
BLACK
6
CONTINUOUS
10
138.621
20
-121.834
11
138.621
21
-119.934
0
LINE
8
BLACK
6
CONTINUOUS
10
138.621
20
-119.934
11
140.271
21
-119.934
0
LINE
8
BLACK
6
CONTINUOUS
10
140.271
20
-119.934
11
140.271
21
-121.834
0
LINE
8
BLACK
6
CONTINUOUS
10
135.949
20
-120.045
11
136.223
21
-120.204
0
LINE
8
BLACK
6
CONTINUOUS
10
136.223
20
-120.204
11
136.427
21
-120.447
0
LINE
8
BLACK
6
CONTINUOUS
10
136.427
20
-120.447
11
136.536
21
-120.745
0
LINE
8
BLACK
6
CONTINUOUS
10
136.536
20
-120.745
11
136.536
21
-121.063
0
LINE
8
BLACK
6
CONTINUOUS
10
136.536
20
-121.063
11
136.427
21
-121.361
0
LINE
8
BLACK
6
CONTINUOUS
10
136.427
20
-121.361
11
136.223
21
-121.604
0
LINE
8
BLACK
6
CONTINUOUS
10
136.223
20
-121.604
11
135.949
21
-121.763
0
LINE
8
BLACK
6
CONTINUOUS
10
135.949
20
-121.763
11
135.636
21
-121.818
0
LINE
8
BLACK
6
CONTINUOUS
10
135.636
20
-121.818
11
135.323
21
-121.763
0
LINE
8
BLACK
6
CONTINUOUS
10
135.323
20
-121.763
11
135.049
21
-121.604
0
LINE
8
BLACK
6
CONTINUOUS
10
135.049
20
-121.604
11
134.845
21
-121.361
0
LINE
8
BLACK
6
CONTINUOUS
10
134.845
20
-121.361
11
134.736
21
-121.063
0
LINE
8
BLACK
6
CONTINUOUS
10
134.736
20
-121.063
11
134.736
21
-120.745
0
LINE
8
BLACK
6
CONTINUOUS
10
134.736
20
-120.745
11
134.845
21
-120.447
0
LINE
8
BLACK
6
CONTINUOUS
10
134.845
20
-120.447
11
135.049
21
-120.204
0
LINE
8
BLACK
6
CONTINUOUS
10
135.049
20
-120.204
11
135.323
21
-120.045
0
LINE
8
BLACK
6
CONTINUOUS
10
135.323
20
-120.045
11
135.636
21
-119.99
0
LINE
8
BLACK
6
CONTINUOUS
10
135.636
20
-119.99
11
135.949
21
-120.045
0
LINE
8
BLACK
6
CONTINUOUS
10
132.393
20
-120.045
11
132.667
21
-120.204
0
LINE
8
BLACK
6
CONTINUOUS
10
132.667
20
-120.204
11
132.871
21
-120.447
0
LINE
8
BLACK
6
CONTINUOUS
10
132.871
20
-120.447
11
132.98
21
-120.745
0
LINE
8
BLACK
6
CONTINUOUS
10
132.98
20
-120.745
11
132.98
21
-121.063
0
LINE
8
BLACK
6
CONTINUOUS
10
132.98
20
-121.063
11
132.871
21
-121.361
0
LINE
8
BLACK
6
CONTINUOUS
10
132.871
20
-121.361
11
132.667
21
-121.604
0
LINE
8
BLACK
6
CONTINUOUS
10
132.667
20
-121.604
11
132.393
21
-121.763
0
LINE
8
BLACK
6
CONTINUOUS
10
132.393
20
-121.763
11
132.08
21
-121.818
0
LINE
8
BLACK
6
CONTINUOUS
10
132.08
20
-121.818
11
131.767
21
-121.763
0
LINE
8
BLACK
6
CONTINUOUS
10
131.767
20
-121.763
11
131.493
21
-121.604
0
LINE
8
BLACK
6
CONTINUOUS
10
131.493
20
-121.604
11
131.289
21
-121.361
0
LINE
8
BLACK
6
CONTINUOUS
10
131.289
20
-121.361
11
131.18
21
-121.063
0
LINE
8
BLACK
6
CONTINUOUS
10
131.18
20
-121.063
11
131.18
21
-120.745
0
LINE
8
BLACK
6
CONTINUOUS
10
131.18
20
-120.745
11
131.289
21
-120.447
0
LINE
8
BLACK
6
CONTINUOUS
10
131.289
20
-120.447
11
131.493
21
-120.204
0
LINE
8
BLACK
6
CONTINUOUS
10
131.493
20
-120.204
11
131.767
21
-120.045
0
LINE
8
BLACK
6
CONTINUOUS
10
131.767
20
-120.045
11
132.08
21
-119.99
0
LINE
8
BLACK
6
CONTINUOUS
10
132.08
20
-119.99
11
132.393
21
-120.045
0
LINE
8
BLACK
6
CONTINUOUS
10
128.837
20
-120.045
11
129.111
21
-120.204
0
LINE
8
BLACK
6
CONTINUOUS
10
129.111
20
-120.204
11
129.315
21
-120.447
0
LINE
8
BLACK
6
CONTINUOUS
10
129.315
20
-120.447
11
129.424
21
-120.745
0
LINE
8
BLACK
6
CONTINUOUS
10
129.424
20
-120.745
11
129.424
21
-121.063
0
LINE
8
BLACK
6
CONTINUOUS
10
129.424
20
-121.063
11
129.315
21
-121.361
0
LINE
8
BLACK
6
CONTINUOUS
10
129.315
20
-121.361
11
129.111
21
-121.604
0
LINE
8
BLACK
6
CONTINUOUS
10
129.111
20
-121.604
11
128.837
21
-121.763
0
LINE
8
BLACK
6
CONTINUOUS
10
128.837
20
-121.763
11
128.524
21
-121.818
0
LINE
8
BLACK
6
CONTINUOUS
10
128.524
20
-121.818
11
128.211
21
-121.763
0
LINE
8
BLACK
6
CONTINUOUS
10
128.211
20
-121.763
11
127.937
21
-121.604
0
LINE
8
BLACK
6
CONTINUOUS
10
127.937
20
-121.604
11
127.733
21
-121.361
0
LINE
8
BLACK
6
CONTINUOUS
10
127.733
20
-121.361
11
127.624
21
-121.063
0
LINE
8
BLACK
6
CONTINUOUS
10
127.624
20
-121.063
11
127.624
21
-120.745
0
LINE
8
BLACK
6
CONTINUOUS
10
127.624
20
-120.745
11
127.733
21
-120.447
0
LINE
8
BLACK
6
CONTINUOUS
10
127.733
20
-120.447
11
127.937
21
-120.204
0
LINE
8
BLACK
6
CONTINUOUS
10
127.937
20
-120.204
11
128.211
21
-120.045
0
LINE
8
BLACK
6
CONTINUOUS
10
128.211
20
-120.045
11
128.524
21
-119.99
0
LINE
8
BLACK
6
CONTINUOUS
10
128.524
20
-119.99
11
128.837
21
-120.045
0
LINE
8
BLACK
6
CONTINUOUS
10
179.181
20
-118.632
11
179.501
21
-118.817
0
LINE
8
BLACK
6
CONTINUOUS
10
179.501
20
-118.817
11
179.739
21
-119.101
0
LINE
8
BLACK
6
CONTINUOUS
10
179.739
20
-119.101
11
179.866
21
-119.449
0
LINE
8
BLACK
6
CONTINUOUS
10
179.866
20
-119.449
11
179.866
21
-119.819
0
LINE
8
BLACK
6
CONTINUOUS
10
179.866
20
-119.819
11
179.739
21
-120.167
0
LINE
8
BLACK
6
CONTINUOUS
10
179.739
20
-120.167
11
179.501
21
-120.451
0
LINE
8
BLACK
6
CONTINUOUS
10
179.501
20
-120.451
11
179.181
21
-120.636
0
LINE
8
BLACK
6
CONTINUOUS
10
179.181
20
-120.636
11
178.908
21
-120.684
0
LINE
8
BLACK
6
CONTINUOUS
10
178.908
20
-120.684
11
178.724
21
-120.684
0
LINE
8
BLACK
6
CONTINUOUS
10
178.724
20
-120.684
11
178.451
21
-120.636
0
LINE
8
BLACK
6
CONTINUOUS
10
178.451
20
-120.636
11
178.131
21
-120.451
0
LINE
8
BLACK
6
CONTINUOUS
10
178.131
20
-120.451
11
177.893
21
-120.167
0
LINE
8
BLACK
6
CONTINUOUS
10
177.893
20
-120.167
11
177.766
21
-119.819
0
LINE
8
BLACK
6
CONTINUOUS
10
177.766
20
-119.819
11
177.766
21
-119.449
0
LINE
8
BLACK
6
CONTINUOUS
10
177.766
20
-119.449
11
177.893
21
-119.101
0
LINE
8
BLACK
6
CONTINUOUS
10
177.893
20
-119.101
11
178.131
21
-118.817
0
LINE
8
BLACK
6
CONTINUOUS
10
178.131
20
-118.817
11
178.451
21
-118.632
0
LINE
8
BLACK
6
CONTINUOUS
10
178.451
20
-118.632
11
178.724
21
-118.584
0
LINE
8
BLACK
6
CONTINUOUS
10
178.724
20
-118.584
11
178.908
21
-118.584
0
LINE
8
BLACK
6
CONTINUOUS
10
178.908
20
-118.584
11
179.181
21
-118.632
0
LINE
8
BLACK
6
CONTINUOUS
10
125.281
20
-118.775
11
125.555
21
-118.934
0
LINE
8
BLACK
6
CONTINUOUS
10
125.555
20
-118.934
11
125.759
21
-119.177
0
LINE
8
BLACK
6
CONTINUOUS
10
125.759
20
-119.177
11
125.868
21
-119.475
0
LINE
8
BLACK
6
CONTINUOUS
10
125.868
20
-119.475
11
125.868
21
-119.793
0
LINE
8
BLACK
6
CONTINUOUS
10
125.868
20
-119.793
11
125.759
21
-120.091
0
LINE
8
BLACK
6
CONTINUOUS
10
125.759
20
-120.091
11
125.555
21
-120.334
0
LINE
8
BLACK
6
CONTINUOUS
10
125.555
20
-120.334
11
125.281
21
-120.493
0
LINE
8
BLACK
6
CONTINUOUS
10
125.281
20
-120.493
11
125.047
21
-120.534
0
LINE
8
BLACK
6
CONTINUOUS
10
125.047
20
-120.534
11
124.889
21
-120.534
0
LINE
8
BLACK
6
CONTINUOUS
10
124.889
20
-120.534
11
124.655
21
-120.493
0
LINE
8
BLACK
6
CONTINUOUS
10
124.655
20
-120.493
11
124.381
21
-120.334
0
LINE
8
BLACK
6
CONTINUOUS
10
124.381
20
-120.334
11
124.177
21
-120.091
0
LINE
8
BLACK
6
CONTINUOUS
10
124.177
20
-120.091
11
124.068
21
-119.793
0
LINE
8
BLACK
6
CONTINUOUS
10
124.068
20
-119.793
11
124.068
21
-119.475
0
LINE
8
BLACK
6
CONTINUOUS
10
124.068
20
-119.475
11
124.177
21
-119.177
0
LINE
8
BLACK
6
CONTINUOUS
10
124.177
20
-119.177
11
124.381
21
-118.934
0
LINE
8
BLACK
6
CONTINUOUS
10
124.381
20
-118.934
11
124.655
21
-118.775
0
LINE
8
BLACK
6
CONTINUOUS
10
124.655
20
-118.775
11
124.889
21
-118.734
0
LINE
8
BLACK
6
CONTINUOUS
10
124.889
20
-118.734
11
125.047
21
-118.734
0
LINE
8
BLACK
6
CONTINUOUS
10
125.047
20
-118.734
11
125.281
21
-118.775
0
LINE
8
BLACK
6
CONTINUOUS
10
120.838
20
-120.459
11
118.938
21
-120.459
0
LINE
8
BLACK
6
CONTINUOUS
10
118.938
20
-120.459
11
118.938
21
-118.809
0
LINE
8
BLACK
6
CONTINUOUS
10
118.938
20
-118.809
11
120.838
21
-118.809
0
LINE
8
BLACK
6
CONTINUOUS
10
120.838
20
-118.809
11
120.838
21
-120.459
0
LINE
8
BLACK
6
CONTINUOUS
10
118.338
20
-120.459
11
116.438
21
-120.459
0
LINE
8
BLACK
6
CONTINUOUS
10
116.438
20
-120.459
11
116.438
21
-118.809
0
LINE
8
BLACK
6
CONTINUOUS
10
116.438
20
-118.809
11
118.338
21
-118.809
0
LINE
8
BLACK
6
CONTINUOUS
10
118.338
20
-118.809
11
118.338
21
-120.459
0
LINE
8
BLACK
6
CONTINUOUS
10
143.367
20
-117.362
11
143.687
21
-117.547
0
LINE
8
BLACK
6
CONTINUOUS
10
143.687
20
-117.547
11
143.925
21
-117.831
0
LINE
8
BLACK
6
CONTINUOUS
10
143.925
20
-117.831
11
144.052
21
-118.179
0
LINE
8
BLACK
6
CONTINUOUS
10
144.052
20
-118.179
11
144.052
21
-118.549
0
LINE
8
BLACK
6
CONTINUOUS
10
144.052
20
-118.549
11
143.925
21
-118.897
0
LINE
8
BLACK
6
CONTINUOUS
10
143.925
20
-118.897
11
143.687
21
-119.181
0
LINE
8
BLACK
6
CONTINUOUS
10
143.687
20
-119.181
11
143.367
21
-119.366
0
LINE
8
BLACK
6
CONTINUOUS
10
143.367
20
-119.366
11
143.094
21
-119.414
0
LINE
8
BLACK
6
CONTINUOUS
10
143.094
20
-119.414
11
142.91
21
-119.414
0
LINE
8
BLACK
6
CONTINUOUS
10
142.91
20
-119.414
11
142.637
21
-119.366
0
LINE
8
BLACK
6
CONTINUOUS
10
142.637
20
-119.366
11
142.317
21
-119.181
0
LINE
8
BLACK
6
CONTINUOUS
10
142.317
20
-119.181
11
142.079
21
-118.897
0
LINE
8
BLACK
6
CONTINUOUS
10
142.079
20
-118.897
11
141.952
21
-118.549
0
LINE
8
BLACK
6
CONTINUOUS
10
141.952
20
-118.549
11
141.952
21
-118.179
0
LINE
8
BLACK
6
CONTINUOUS
10
141.952
20
-118.179
11
142.079
21
-117.831
0
LINE
8
BLACK
6
CONTINUOUS
10
142.079
20
-117.831
11
142.317
21
-117.547
0
LINE
8
BLACK
6
CONTINUOUS
10
142.317
20
-117.547
11
142.637
21
-117.362
0
LINE
8
BLACK
6
CONTINUOUS
10
142.637
20
-117.362
11
142.91
21
-117.314
0
LINE
8
BLACK
6
CONTINUOUS
10
142.91
20
-117.314
11
143.094
21
-117.314
0
LINE
8
BLACK
6
CONTINUOUS
10
143.094
20
-117.314
11
143.367
21
-117.362
0
LINE
8
BLACK
6
CONTINUOUS
10
145.907
20
-117.362
11
146.227
21
-117.547
0
LINE
8
BLACK
6
CONTINUOUS
10
146.227
20
-117.547
11
146.465
21
-117.831
0
LINE
8
BLACK
6
CONTINUOUS
10
146.465
20
-117.831
11
146.592
21
-118.179
0
LINE
8
BLACK
6
CONTINUOUS
10
146.592
20
-118.179
11
146.592
21
-118.549
0
LINE
8
BLACK
6
CONTINUOUS
10
146.592
20
-118.549
11
146.465
21
-118.897
0
LINE
8
BLACK
6
CONTINUOUS
10
146.465
20
-118.897
11
146.227
21
-119.181
0
LINE
8
BLACK
6
CONTINUOUS
10
146.227
20
-119.181
11
145.907
21
-119.366
0
LINE
8
BLACK
6
CONTINUOUS
10
145.907
20
-119.366
11
145.634
21
-119.414
0
LINE
8
BLACK
6
CONTINUOUS
10
145.634
20
-119.414
11
145.45
21
-119.414
0
LINE
8
BLACK
6
CONTINUOUS
10
145.45
20
-119.414
11
145.177
21
-119.366
0
LINE
8
BLACK
6
CONTINUOUS
10
145.177
20
-119.366
11
144.857
21
-119.181
0
LINE
8
BLACK
6
CONTINUOUS
10
144.857
20
-119.181
11
144.619
21
-118.897
0
LINE
8
BLACK
6
CONTINUOUS
10
144.619
20
-118.897
11
144.492
21
-118.549
0
LINE
8
BLACK
6
CONTINUOUS
10
144.492
20
-118.549
11
144.492
21
-118.179
0
LINE
8
BLACK
6
CONTINUOUS
10
144.492
20
-118.179
11
144.619
21
-117.831
0
LINE
8
BLACK
6
CONTINUOUS
10
144.619
20
-117.831
11
144.857
21
-117.547
0
LINE
8
BLACK
6
CONTINUOUS
10
144.857
20
-117.547
11
145.177
21
-117.362
0
LINE
8
BLACK
6
CONTINUOUS
10
145.177
20
-117.362
11
145.45
21
-117.314
0
LINE
8
BLACK
6
CONTINUOUS
10
145.45
20
-117.314
11
145.634
21
-117.314
0
LINE
8
BLACK
6
CONTINUOUS
10
145.634
20
-117.314
11
145.907
21
-117.362
0
LINE
8
BLACK
6
CONTINUOUS
10
150.987
20
-117.362
11
151.307
21
-117.547
0
LINE
8
BLACK
6
CONTINUOUS
10
151.307
20
-117.547
11
151.545
21
-117.831
0
LINE
8
BLACK
6
CONTINUOUS
10
151.545
20
-117.831
11
151.672
21
-118.179
0
LINE
8
BLACK
6
CONTINUOUS
10
151.672
20
-118.179
11
151.672
21
-118.549
0
LINE
8
BLACK
6
CONTINUOUS
10
151.672
20
-118.549
11
151.545
21
-118.897
0
LINE
8
BLACK
6
CONTINUOUS
10
151.545
20
-118.897
11
151.307
21
-119.181
0
LINE
8
BLACK
6
CONTINUOUS
10
151.307
20
-119.181
11
150.987
21
-119.366
0
LINE
8
BLACK
6
CONTINUOUS
10
150.987
20
-119.366
11
150.714
21
-119.414
0
LINE
8
BLACK
6
CONTINUOUS
10
150.714
20
-119.414
11
150.53
21
-119.414
0
LINE
8
BLACK
6
CONTINUOUS
10
150.53
20
-119.414
11
150.257
21
-119.366
0
LINE
8
BLACK
6
CONTINUOUS
10
150.257
20
-119.366
11
149.937
21
-119.181
0
LINE
8
BLACK
6
CONTINUOUS
10
149.937
20
-119.181
11
149.699
21
-118.897
0
LINE
8
BLACK
6
CONTINUOUS
10
149.699
20
-118.897
11
149.572
21
-118.549
0
LINE
8
BLACK
6
CONTINUOUS
10
149.572
20
-118.549
11
149.572
21
-118.179
0
LINE
8
BLACK
6
CONTINUOUS
10
149.572
20
-118.179
11
149.699
21
-117.831
0
LINE
8
BLACK
6
CONTINUOUS
10
149.699
20
-117.831
11
149.937
21
-117.547
0
LINE
8
BLACK
6
CONTINUOUS
10
149.937
20
-117.547
11
150.257
21
-117.362
0
LINE
8
BLACK
6
CONTINUOUS
10
150.257
20
-117.362
11
150.53
21
-117.314
0
LINE
8
BLACK
6
CONTINUOUS
10
150.53
20
-117.314
11
150.714
21
-117.314
0
LINE
8
BLACK
6
CONTINUOUS
10
150.714
20
-117.314
11
150.987
21
-117.362
0
LINE
8
BLACK
6
CONTINUOUS
10
148.447
20
-117.362
11
148.767
21
-117.547
0
LINE
8
BLACK
6
CONTINUOUS
10
148.767
20
-117.547
11
149.005
21
-117.831
0
LINE
8
BLACK
6
CONTINUOUS
10
149.005
20
-117.831
11
149.132
21
-118.179
0
LINE
8
BLACK
6
CONTINUOUS
10
149.132
20
-118.179
11
149.132
21
-118.549
0
LINE
8
BLACK
6
CONTINUOUS
10
149.132
20
-118.549
11
149.005
21
-118.897
0
LINE
8
BLACK
6
CONTINUOUS
10
149.005
20
-118.897
11
148.767
21
-119.181
0
LINE
8
BLACK
6
CONTINUOUS
10
148.767
20
-119.181
11
148.447
21
-119.366
0
LINE
8
BLACK
6
CONTINUOUS
10
148.447
20
-119.366
11
148.174
21
-119.414
0
LINE
8
BLACK
6
CONTINUOUS
10
148.174
20
-119.414
11
147.99
21
-119.414
0
LINE
8
BLACK
6
CONTINUOUS
10
147.99
20
-119.414
11
147.717
21
-119.366
0
LINE
8
BLACK
6
CONTINUOUS
10
147.717
20
-119.366
11
147.397
21
-119.181
0
LINE
8
BLACK
6
CONTINUOUS
10
147.397
20
-119.181
11
147.159
21
-118.897
0
LINE
8
BLACK
6
CONTINUOUS
10
147.159
20
-118.897
11
147.032
21
-118.549
0
LINE
8
BLACK
6
CONTINUOUS
10
147.032
20
-118.549
11
147.032
21
-118.179
0
LINE
8
BLACK
6
CONTINUOUS
10
147.032
20
-118.179
11
147.159
21
-117.831
0
LINE
8
BLACK
6
CONTINUOUS
10
147.159
20
-117.831
11
147.397
21
-117.547
0
LINE
8
BLACK
6
CONTINUOUS
10
147.397
20
-117.547
11
147.717
21
-117.362
0
LINE
8
BLACK
6
CONTINUOUS
10
147.717
20
-117.362
11
147.99
21
-117.314
0
LINE
8
BLACK
6
CONTINUOUS
10
147.99
20
-117.314
11
148.174
21
-117.314
0
LINE
8
BLACK
6
CONTINUOUS
10
148.174
20
-117.314
11
148.447
21
-117.362
0
LINE
8
BLACK
6
CONTINUOUS
10
140.271
20
-119.334
11
138.621
21
-119.334
0
LINE
8
BLACK
6
CONTINUOUS
10
138.621
20
-119.334
11
138.621
21
-117.434
0
LINE
8
BLACK
6
CONTINUOUS
10
138.621
20
-117.434
11
140.271
21
-117.434
0
LINE
8
BLACK
6
CONTINUOUS
10
140.271
20
-117.434
11
140.271
21
-119.334
0
LINE
8
BLACK
6
CONTINUOUS
10
179.181
20
-116.092
11
179.501
21
-116.277
0
LINE
8
BLACK
6
CONTINUOUS
10
179.501
20
-116.277
11
179.739
21
-116.561
0
LINE
8
BLACK
6
CONTINUOUS
10
179.739
20
-116.561
11
179.866
21
-116.909
0
LINE
8
BLACK
6
CONTINUOUS
10
179.866
20
-116.909
11
179.866
21
-117.279
0
LINE
8
BLACK
6
CONTINUOUS
10
179.866
20
-117.279
11
179.739
21
-117.627
0
LINE
8
BLACK
6
CONTINUOUS
10
179.739
20
-117.627
11
179.501
21
-117.911
0
LINE
8
BLACK
6
CONTINUOUS
10
179.501
20
-117.911
11
179.181
21
-118.096
0
LINE
8
BLACK
6
CONTINUOUS
10
179.181
20
-118.096
11
178.908
21
-118.144
0
LINE
8
BLACK
6
CONTINUOUS
10
178.908
20
-118.144
11
178.724
21
-118.144
0
LINE
8
BLACK
6
CONTINUOUS
10
178.724
20
-118.144
11
178.451
21
-118.096
0
LINE
8
BLACK
6
CONTINUOUS
10
178.451
20
-118.096
11
178.131
21
-117.911
0
LINE
8
BLACK
6
CONTINUOUS
10
178.131
20
-117.911
11
177.893
21
-117.627
0
LINE
8
BLACK
6
CONTINUOUS
10
177.893
20
-117.627
11
177.766
21
-117.279
0
LINE
8
BLACK
6
CONTINUOUS
10
177.766
20
-117.279
11
177.766
21
-116.909
0
LINE
8
BLACK
6
CONTINUOUS
10
177.766
20
-116.909
11
177.893
21
-116.561
0
LINE
8
BLACK
6
CONTINUOUS
10
177.893
20
-116.561
11
178.131
21
-116.277
0
LINE
8
BLACK
6
CONTINUOUS
10
178.131
20
-116.277
11
178.451
21
-116.092
0
LINE
8
BLACK
6
CONTINUOUS
10
178.451
20
-116.092
11
178.724
21
-116.044
0
LINE
8
BLACK
6
CONTINUOUS
10
178.724
20
-116.044
11
178.908
21
-116.044
0
LINE
8
BLACK
6
CONTINUOUS
10
178.908
20
-116.044
11
179.181
21
-116.092
0
LINE
8
BLACK
6
CONTINUOUS
10
128.837
20
-114.965
11
129.111
21
-115.124
0
LINE
8
BLACK
6
CONTINUOUS
10
129.111
20
-115.124
11
129.315
21
-115.367
0
LINE
8
BLACK
6
CONTINUOUS
10
129.315
20
-115.367
11
129.424
21
-115.665
0
LINE
8
BLACK
6
CONTINUOUS
10
129.424
20
-115.665
11
129.424
21
-115.983
0
LINE
8
BLACK
6
CONTINUOUS
10
129.424
20
-115.983
11
129.315
21
-116.281
0
LINE
8
BLACK
6
CONTINUOUS
10
129.315
20
-116.281
11
129.111
21
-116.524
0
LINE
8
BLACK
6
CONTINUOUS
10
129.111
20
-116.524
11
128.837
21
-116.683
0
LINE
8
BLACK
6
CONTINUOUS
10
128.837
20
-116.683
11
128.603
21
-116.724
0
LINE
8
BLACK
6
CONTINUOUS
10
128.603
20
-116.724
11
128.445
21
-116.724
0
LINE
8
BLACK
6
CONTINUOUS
10
128.445
20
-116.724
11
128.211
21
-116.683
0
LINE
8
BLACK
6
CONTINUOUS
10
128.211
20
-116.683
11
127.937
21
-116.524
0
LINE
8
BLACK
6
CONTINUOUS
10
127.937
20
-116.524
11
127.733
21
-116.281
0
LINE
8
BLACK
6
CONTINUOUS
10
127.733
20
-116.281
11
127.624
21
-115.983
0
LINE
8
BLACK
6
CONTINUOUS
10
127.624
20
-115.983
11
127.624
21
-115.665
0
LINE
8
BLACK
6
CONTINUOUS
10
127.624
20
-115.665
11
127.733
21
-115.367
0
LINE
8
BLACK
6
CONTINUOUS
10
127.733
20
-115.367
11
127.937
21
-115.124
0
LINE
8
BLACK
6
CONTINUOUS
10
127.937
20
-115.124
11
128.211
21
-114.965
0
LINE
8
BLACK
6
CONTINUOUS
10
128.211
20
-114.965
11
128.445
21
-114.924
0
LINE
8
BLACK
6
CONTINUOUS
10
128.445
20
-114.924
11
128.603
21
-114.924
0
LINE
8
BLACK
6
CONTINUOUS
10
128.603
20
-114.924
11
128.837
21
-114.965
0
LINE
8
BLACK
6
CONTINUOUS
10
132.393
20
-114.965
11
132.667
21
-115.124
0
LINE
8
BLACK
6
CONTINUOUS
10
132.667
20
-115.124
11
132.871
21
-115.367
0
LINE
8
BLACK
6
CONTINUOUS
10
132.871
20
-115.367
11
132.98
21
-115.665
0
LINE
8
BLACK
6
CONTINUOUS
10
132.98
20
-115.665
11
132.98
21
-115.983
0
LINE
8
BLACK
6
CONTINUOUS
10
132.98
20
-115.983
11
132.871
21
-116.281
0
LINE
8
BLACK
6
CONTINUOUS
10
132.871
20
-116.281
11
132.667
21
-116.524
0
LINE
8
BLACK
6
CONTINUOUS
10
132.667
20
-116.524
11
132.393
21
-116.683
0
LINE
8
BLACK
6
CONTINUOUS
10
132.393
20
-116.683
11
132.159
21
-116.724
0
LINE
8
BLACK
6
CONTINUOUS
10
132.159
20
-116.724
11
132.001
21
-116.724
0
LINE
8
BLACK
6
CONTINUOUS
10
132.001
20
-116.724
11
131.767
21
-116.683
0
LINE
8
BLACK
6
CONTINUOUS
10
131.767
20
-116.683
11
131.493
21
-116.524
0
LINE
8
BLACK
6
CONTINUOUS
10
131.493
20
-116.524
11
131.289
21
-116.281
0
LINE
8
BLACK
6
CONTINUOUS
10
131.289
20
-116.281
11
131.18
21
-115.983
0
LINE
8
BLACK
6
CONTINUOUS
10
131.18
20
-115.983
11
131.18
21
-115.665
0
LINE
8
BLACK
6
CONTINUOUS
10
131.18
20
-115.665
11
131.289
21
-115.367
0
LINE
8
BLACK
6
CONTINUOUS
10
131.289
20
-115.367
11
131.493
21
-115.124
0
LINE
8
BLACK
6
CONTINUOUS
10
131.493
20
-115.124
11
131.767
21
-114.965
0
LINE
8
BLACK
6
CONTINUOUS
10
131.767
20
-114.965
11
132.001
21
-114.924
0
LINE
8
BLACK
6
CONTINUOUS
10
132.001
20
-114.924
11
132.159
21
-114.924
0
LINE
8
BLACK
6
CONTINUOUS
10
132.159
20
-114.924
11
132.393
21
-114.965
0
LINE
8
BLACK
6
CONTINUOUS
10
135.949
20
-114.965
11
136.223
21
-115.124
0
LINE
8
BLACK
6
CONTINUOUS
10
136.223
20
-115.124
11
136.427
21
-115.367
0
LINE
8
BLACK
6
CONTINUOUS
10
136.427
20
-115.367
11
136.536
21
-115.665
0
LINE
8
BLACK
6
CONTINUOUS
10
136.536
20
-115.665
11
136.536
21
-115.983
0
LINE
8
BLACK
6
CONTINUOUS
10
136.536
20
-115.983
11
136.427
21
-116.281
0
LINE
8
BLACK
6
CONTINUOUS
10
136.427
20
-116.281
11
136.223
21
-116.524
0
LINE
8
BLACK
6
CONTINUOUS
10
136.223
20
-116.524
11
135.949
21
-116.683
0
LINE
8
BLACK
6
CONTINUOUS
10
135.949
20
-116.683
11
135.715
21
-116.724
0
LINE
8
BLACK
6
CONTINUOUS
10
135.715
20
-116.724
11
135.557
21
-116.724
0
LINE
8
BLACK
6
CONTINUOUS
10
135.557
20
-116.724
11
135.323
21
-116.683
0
LINE
8
BLACK
6
CONTINUOUS
10
135.323
20
-116.683
11
135.049
21
-116.524
0
LINE
8
BLACK
6
CONTINUOUS
10
135.049
20
-116.524
11
134.845
21
-116.281
0
LINE
8
BLACK
6
CONTINUOUS
10
134.845
20
-116.281
11
134.736
21
-115.983
0
LINE
8
BLACK
6
CONTINUOUS
10
134.736
20
-115.983
11
134.736
21
-115.665
0
LINE
8
BLACK
6
CONTINUOUS
10
134.736
20
-115.665
11
134.845
21
-115.367
0
LINE
8
BLACK
6
CONTINUOUS
10
134.845
20
-115.367
11
135.049
21
-115.124
0
LINE
8
BLACK
6
CONTINUOUS
10
135.049
20
-115.124
11
135.323
21
-114.965
0
LINE
8
BLACK
6
CONTINUOUS
10
135.323
20
-114.965
11
135.557
21
-114.924
0
LINE
8
BLACK
6
CONTINUOUS
10
135.557
20
-114.924
11
135.715
21
-114.924
0
LINE
8
BLACK
6
CONTINUOUS
10
135.715
20
-114.924
11
135.949
21
-114.965
0
LINE
8
BLACK
6
CONTINUOUS
10
160.033
20
-113.663
11
160.399
21
-113.875
0
LINE
8
BLACK
6
CONTINUOUS
10
160.399
20
-113.875
11
160.671
21
-114.199
0
LINE
8
BLACK
6
CONTINUOUS
10
160.671
20
-114.199
11
160.816
21
-114.596
0
LINE
8
BLACK
6
CONTINUOUS
10
160.816
20
-114.596
11
160.816
21
-115.02
0
LINE
8
BLACK
6
CONTINUOUS
10
160.816
20
-115.02
11
160.671
21
-115.417
0
LINE
8
BLACK
6
CONTINUOUS
10
160.671
20
-115.417
11
160.399
21
-115.741
0
LINE
8
BLACK
6
CONTINUOUS
10
160.399
20
-115.741
11
160.033
21
-115.953
0
LINE
8
BLACK
6
CONTINUOUS
10
160.033
20
-115.953
11
159.616
21
-116.027
0
LINE
8
BLACK
6
CONTINUOUS
10
159.616
20
-116.027
11
159.199
21
-115.953
0
LINE
8
BLACK
6
CONTINUOUS
10
159.199
20
-115.953
11
158.833
21
-115.741
0
LINE
8
BLACK
6
CONTINUOUS
10
158.833
20
-115.741
11
158.561
21
-115.417
0
LINE
8
BLACK
6
CONTINUOUS
10
158.561
20
-115.417
11
158.416
21
-115.02
0
LINE
8
BLACK
6
CONTINUOUS
10
158.416
20
-115.02
11
158.416
21
-114.596
0
LINE
8
BLACK
6
CONTINUOUS
10
158.416
20
-114.596
11
158.561
21
-114.199
0
LINE
8
BLACK
6
CONTINUOUS
10
158.561
20
-114.199
11
158.833
21
-113.875
0
LINE
8
BLACK
6
CONTINUOUS
10
158.833
20
-113.875
11
159.199
21
-113.663
0
LINE
8
BLACK
6
CONTINUOUS
10
159.199
20
-113.663
11
159.616
21
-113.589
0
LINE
8
BLACK
6
CONTINUOUS
10
159.616
20
-113.589
11
160.033
21
-113.663
0
LINE
8
BLACK
6
CONTINUOUS
10
166.533
20
-113.663
11
166.899
21
-113.875
0
LINE
8
BLACK
6
CONTINUOUS
10
166.899
20
-113.875
11
167.171
21
-114.199
0
LINE
8
BLACK
6
CONTINUOUS
10
167.171
20
-114.199
11
167.316
21
-114.596
0
LINE
8
BLACK
6
CONTINUOUS
10
167.316
20
-114.596
11
167.316
21
-115.02
0
LINE
8
BLACK
6
CONTINUOUS
10
167.316
20
-115.02
11
167.171
21
-115.417
0
LINE
8
BLACK
6
CONTINUOUS
10
167.171
20
-115.417
11
166.899
21
-115.741
0
LINE
8
BLACK
6
CONTINUOUS
10
166.899
20
-115.741
11
166.533
21
-115.953
0
LINE
8
BLACK
6
CONTINUOUS
10
166.533
20
-115.953
11
166.116
21
-116.027
0
LINE
8
BLACK
6
CONTINUOUS
10
166.116
20
-116.027
11
165.699
21
-115.953
0
LINE
8
BLACK
6
CONTINUOUS
10
165.699
20
-115.953
11
165.333
21
-115.741
0
LINE
8
BLACK
6
CONTINUOUS
10
165.333
20
-115.741
11
165.061
21
-115.417
0
LINE
8
BLACK
6
CONTINUOUS
10
165.061
20
-115.417
11
164.916
21
-115.02
0
LINE
8
BLACK
6
CONTINUOUS
10
164.916
20
-115.02
11
164.916
21
-114.596
0
LINE
8
BLACK
6
CONTINUOUS
10
164.916
20
-114.596
11
165.061
21
-114.199
0
LINE
8
BLACK
6
CONTINUOUS
10
165.061
20
-114.199
11
165.333
21
-113.875
0
LINE
8
BLACK
6
CONTINUOUS
10
165.333
20
-113.875
11
165.699
21
-113.663
0
LINE
8
BLACK
6
CONTINUOUS
10
165.699
20
-113.663
11
166.116
21
-113.589
0
LINE
8
BLACK
6
CONTINUOUS
10
166.116
20
-113.589
11
166.533
21
-113.663
0
LINE
8
BLACK
6
CONTINUOUS
10
179.181
20
-113.552
11
179.501
21
-113.737
0
LINE
8
BLACK
6
CONTINUOUS
10
179.501
20
-113.737
11
179.739
21
-114.021
0
LINE
8
BLACK
6
CONTINUOUS
10
179.739
20
-114.021
11
179.866
21
-114.369
0
LINE
8
BLACK
6
CONTINUOUS
10
179.866
20
-114.369
11
179.866
21
-114.739
0
LINE
8
BLACK
6
CONTINUOUS
10
179.866
20
-114.739
11
179.739
21
-115.087
0
LINE
8
BLACK
6
CONTINUOUS
10
179.739
20
-115.087
11
179.501
21
-115.371
0
LINE
8
BLACK
6
CONTINUOUS
10
179.501
20
-115.371
11
179.181
21
-115.556
0
LINE
8
BLACK
6
CONTINUOUS
10
179.181
20
-115.556
11
178.908
21
-115.604
0
LINE
8
BLACK
6
CONTINUOUS
10
178.908
20
-115.604
11
178.724
21
-115.604
0
LINE
8
BLACK
6
CONTINUOUS
10
178.724
20
-115.604
11
178.451
21
-115.556
0
LINE
8
BLACK
6
CONTINUOUS
10
178.451
20
-115.556
11
178.131
21
-115.371
0
LINE
8
BLACK
6
CONTINUOUS
10
178.131
20
-115.371
11
177.893
21
-115.087
0
LINE
8
BLACK
6
CONTINUOUS
10
177.893
20
-115.087
11
177.766
21
-114.739
0
LINE
8
BLACK
6
CONTINUOUS
10
177.766
20
-114.739
11
177.766
21
-114.369
0
LINE
8
BLACK
6
CONTINUOUS
10
177.766
20
-114.369
11
177.893
21
-114.021
0
LINE
8
BLACK
6
CONTINUOUS
10
177.893
20
-114.021
11
178.131
21
-113.737
0
LINE
8
BLACK
6
CONTINUOUS
10
178.131
20
-113.737
11
178.451
21
-113.552
0
LINE
8
BLACK
6
CONTINUOUS
10
178.451
20
-113.552
11
178.724
21
-113.504
0
LINE
8
BLACK
6
CONTINUOUS
10
178.724
20
-113.504
11
178.908
21
-113.504
0
LINE
8
BLACK
6
CONTINUOUS
10
178.908
20
-113.504
11
179.181
21
-113.552
0
LINE
8
BLACK
6
CONTINUOUS
10
179.866
20
-113.064
11
177.766
21
-113.064
0
LINE
8
BLACK
6
CONTINUOUS
10
177.766
20
-113.064
11
177.766
21
-110.964
0
LINE
8
BLACK
6
CONTINUOUS
10
177.766
20
-110.964
11
179.866
21
-110.964
0
LINE
8
BLACK
6
CONTINUOUS
10
179.866
20
-110.964
11
179.866
21
-113.064
0
LINE
8
BLACK
6
CONTINUOUS
10
117.967
20
-111.012
11
118.287
21
-111.197
0
LINE
8
BLACK
6
CONTINUOUS
10
118.287
20
-111.197
11
118.525
21
-111.481
0
LINE
8
BLACK
6
CONTINUOUS
10
118.525
20
-111.481
11
118.652
21
-111.829
0
LINE
8
BLACK
6
CONTINUOUS
10
118.652
20
-111.829
11
118.652
21
-112.199
0
LINE
8
BLACK
6
CONTINUOUS
10
118.652
20
-112.199
11
118.525
21
-112.547
0
LINE
8
BLACK
6
CONTINUOUS
10
118.525
20
-112.547
11
118.287
21
-112.831
0
LINE
8
BLACK
6
CONTINUOUS
10
118.287
20
-112.831
11
117.967
21
-113.016
0
LINE
8
BLACK
6
CONTINUOUS
10
117.967
20
-113.016
11
117.694
21
-113.064
0
LINE
8
BLACK
6
CONTINUOUS
10
117.694
20
-113.064
11
117.51
21
-113.064
0
LINE
8
BLACK
6
CONTINUOUS
10
117.51
20
-113.064
11
117.237
21
-113.016
0
LINE
8
BLACK
6
CONTINUOUS
10
117.237
20
-113.016
11
116.917
21
-112.831
0
LINE
8
BLACK
6
CONTINUOUS
10
116.917
20
-112.831
11
116.679
21
-112.547
0
LINE
8
BLACK
6
CONTINUOUS
10
116.679
20
-112.547
11
116.552
21
-112.199
0
LINE
8
BLACK
6
CONTINUOUS
10
116.552
20
-112.199
11
116.552
21
-111.829
0
LINE
8
BLACK
6
CONTINUOUS
10
116.552
20
-111.829
11
116.679
21
-111.481
0
LINE
8
BLACK
6
CONTINUOUS
10
116.679
20
-111.481
11
116.917
21
-111.197
0
LINE
8
BLACK
6
CONTINUOUS
10
116.917
20
-111.197
11
117.237
21
-111.012
0
LINE
8
BLACK
6
CONTINUOUS
10
117.237
20
-111.012
11
117.51
21
-110.964
0
LINE
8
BLACK
6
CONTINUOUS
10
117.51
20
-110.964
11
117.694
21
-110.964
0
LINE
8
BLACK
6
CONTINUOUS
10
117.694
20
-110.964
11
117.967
21
-111.012
0
LINE
8
BLACK
6
CONTINUOUS
10
121.192
20
-113.064
11
119.092
21
-113.064
0
LINE
8
BLACK
6
CONTINUOUS
10
119.092
20
-113.064
11
119.092
21
-110.964
0
LINE
8
BLACK
6
CONTINUOUS
10
119.092
20
-110.964
11
121.192
21
-110.964
0
LINE
8
BLACK
6
CONTINUOUS
10
121.192
20
-110.964
11
121.192
21
-113.064
0
LINE
8
BLACK
6
CONTINUOUS
10
160.033
20
-109.163
11
160.399
21
-109.375
0
LINE
8
BLACK
6
CONTINUOUS
10
160.399
20
-109.375
11
160.671
21
-109.699
0
LINE
8
BLACK
6
CONTINUOUS
10
160.671
20
-109.699
11
160.816
21
-110.096
0
LINE
8
BLACK
6
CONTINUOUS
10
160.816
20
-110.096
11
160.816
21
-110.52
0
LINE
8
BLACK
6
CONTINUOUS
10
160.816
20
-110.52
11
160.671
21
-110.917
0
LINE
8
BLACK
6
CONTINUOUS
10
160.671
20
-110.917
11
160.399
21
-111.241
0
LINE
8
BLACK
6
CONTINUOUS
10
160.399
20
-111.241
11
160.033
21
-111.453
0
LINE
8
BLACK
6
CONTINUOUS
10
160.033
20
-111.453
11
159.616
21
-111.527
0
LINE
8
BLACK
6
CONTINUOUS
10
159.616
20
-111.527
11
159.199
21
-111.453
0
LINE
8
BLACK
6
CONTINUOUS
10
159.199
20
-111.453
11
158.833
21
-111.241
0
LINE
8
BLACK
6
CONTINUOUS
10
158.833
20
-111.241
11
158.561
21
-110.917
0
LINE
8
BLACK
6
CONTINUOUS
10
158.561
20
-110.917
11
158.416
21
-110.52
0
LINE
8
BLACK
6
CONTINUOUS
10
158.416
20
-110.52
11
158.416
21
-110.096
0
LINE
8
BLACK
6
CONTINUOUS
10
158.416
20
-110.096
11
158.561
21
-109.699
0
LINE
8
BLACK
6
CONTINUOUS
10
158.561
20
-109.699
11
158.833
21
-109.375
0
LINE
8
BLACK
6
CONTINUOUS
10
158.833
20
-109.375
11
159.199
21
-109.163
0
LINE
8
BLACK
6
CONTINUOUS
10
159.199
20
-109.163
11
159.616
21
-109.089
0
LINE
8
BLACK
6
CONTINUOUS
10
159.616
20
-109.089
11
160.033
21
-109.163
0
LINE
8
BLACK
6
CONTINUOUS
10
166.533
20
-109.163
11
166.899
21
-109.375
0
LINE
8
BLACK
6
CONTINUOUS
10
166.899
20
-109.375
11
167.171
21
-109.699
0
LINE
8
BLACK
6
CONTINUOUS
10
167.171
20
-109.699
11
167.316
21
-110.096
0
LINE
8
BLACK
6
CONTINUOUS
10
167.316
20
-110.096
11
167.316
21
-110.52
0
LINE
8
BLACK
6
CONTINUOUS
10
167.316
20
-110.52
11
167.171
21
-110.917
0
LINE
8
BLACK
6
CONTINUOUS
10
167.171
20
-110.917
11
166.899
21
-111.241
0
LINE
8
BLACK
6
CONTINUOUS
10
166.899
20
-111.241
11
166.533
21
-111.453
0
LINE
8
BLACK
6
CONTINUOUS
10
166.533
20
-111.453
11
166.116
21
-111.527
0
LINE
8
BLACK
6
CONTINUOUS
10
166.116
20
-111.527
11
165.699
21
-111.453
0
LINE
8
BLACK
6
CONTINUOUS
10
165.699
20
-111.453
11
165.333
21
-111.241
0
LINE
8
BLACK
6
CONTINUOUS
10
165.333
20
-111.241
11
165.061
21
-110.917
0
LINE
8
BLACK
6
CONTINUOUS
10
165.061
20
-110.917
11
164.916
21
-110.52
0
LINE
8
BLACK
6
CONTINUOUS
10
164.916
20
-110.52
11
164.916
21
-110.096
0
LINE
8
BLACK
6
CONTINUOUS
10
164.916
20
-110.096
11
165.061
21
-109.699
0
LINE
8
BLACK
6
CONTINUOUS
10
165.061
20
-109.699
11
165.333
21
-109.375
0
LINE
8
BLACK
6
CONTINUOUS
10
165.333
20
-109.375
11
165.699
21
-109.163
0
LINE
8
BLACK
6
CONTINUOUS
10
165.699
20
-109.163
11
166.116
21
-109.089
0
LINE
8
BLACK
6
CONTINUOUS
10
166.116
20
-109.089
11
166.533
21
-109.163
0
LINE
8
BLACK
6
CONTINUOUS
10
126.147
20
-107.821
11
126.513
21
-108.033
0
LINE
8
BLACK
6
CONTINUOUS
10
126.513
20
-108.033
11
126.785
21
-108.357
0
LINE
8
BLACK
6
CONTINUOUS
10
126.785
20
-108.357
11
126.93
21
-108.754
0
LINE
8
BLACK
6
CONTINUOUS
10
126.93
20
-108.754
11
126.93
21
-109.178
0
LINE
8
BLACK
6
CONTINUOUS
10
126.93
20
-109.178
11
126.785
21
-109.575
0
LINE
8
BLACK
6
CONTINUOUS
10
126.785
20
-109.575
11
126.513
21
-109.899
0
LINE
8
BLACK
6
CONTINUOUS
10
126.513
20
-109.899
11
126.147
21
-110.111
0
LINE
8
BLACK
6
CONTINUOUS
10
126.147
20
-110.111
11
125.73
21
-110.185
0
LINE
8
BLACK
6
CONTINUOUS
10
125.73
20
-110.185
11
125.313
21
-110.111
0
LINE
8
BLACK
6
CONTINUOUS
10
125.313
20
-110.111
11
124.947
21
-109.899
0
LINE
8
BLACK
6
CONTINUOUS
10
124.947
20
-109.899
11
124.675
21
-109.575
0
LINE
8
BLACK
6
CONTINUOUS
10
124.675
20
-109.575
11
124.53
21
-109.178
0
LINE
8
BLACK
6
CONTINUOUS
10
124.53
20
-109.178
11
124.53
21
-108.754
0
LINE
8
BLACK
6
CONTINUOUS
10
124.53
20
-108.754
11
124.675
21
-108.357
0
LINE
8
BLACK
6
CONTINUOUS
10
124.675
20
-108.357
11
124.947
21
-108.033
0
LINE
8
BLACK
6
CONTINUOUS
10
124.947
20
-108.033
11
125.313
21
-107.821
0
LINE
8
BLACK
6
CONTINUOUS
10
125.313
20
-107.821
11
125.73
21
-107.747
0
LINE
8
BLACK
6
CONTINUOUS
10
125.73
20
-107.747
11
126.147
21
-107.821
0
LINE
8
BLACK
6
CONTINUOUS
10
129.47
20
-110.166
11
127.07
21
-110.166
0
LINE
8
BLACK
6
CONTINUOUS
10
127.07
20
-110.166
11
127.07
21
-107.766
0
LINE
8
BLACK
6
CONTINUOUS
10
127.07
20
-107.766
11
129.47
21
-107.766
0
LINE
8
BLACK
6
CONTINUOUS
10
129.47
20
-107.766
11
129.47
21
-110.166
0
LINE
8
BLACK
6
CONTINUOUS
10
182.125
20
-100.782
11
182.675
21
-101.1
0
LINE
8
BLACK
6
CONTINUOUS
10
182.675
20
-101.1
11
183.083
21
-101.586
0
LINE
8
BLACK
6
CONTINUOUS
10
183.083
20
-101.586
11
183.3
21
-102.183
0
LINE
8
BLACK
6
CONTINUOUS
10
183.3
20
-102.183
11
183.3
21
-102.817
0
LINE
8
BLACK
6
CONTINUOUS
10
183.3
20
-102.817
11
183.083
21
-103.414
0
LINE
8
BLACK
6
CONTINUOUS
10
183.083
20
-103.414
11
182.675
21
-103.9
0
LINE
8
BLACK
6
CONTINUOUS
10
182.675
20
-103.9
11
182.125
21
-104.218
0
LINE
8
BLACK
6
CONTINUOUS
10
182.125
20
-104.218
11
181.5
21
-104.328
0
LINE
8
BLACK
6
CONTINUOUS
10
181.5
20
-104.328
11
180.875
21
-104.218
0
LINE
8
BLACK
6
CONTINUOUS
10
180.875
20
-104.218
11
180.325
21
-103.9
0
LINE
8
BLACK
6
CONTINUOUS
10
180.325
20
-103.9
11
179.917
21
-103.414
0
LINE
8
BLACK
6
CONTINUOUS
10
179.917
20
-103.414
11
179.7
21
-102.817
0
LINE
8
BLACK
6
CONTINUOUS
10
179.7
20
-102.817
11
179.7
21
-102.183
0
LINE
8
BLACK
6
CONTINUOUS
10
179.7
20
-102.183
11
179.917
21
-101.586
0
LINE
8
BLACK
6
CONTINUOUS
10
179.917
20
-101.586
11
180.325
21
-101.1
0
LINE
8
BLACK
6
CONTINUOUS
10
180.325
20
-101.1
11
180.875
21
-100.782
0
LINE
8
BLACK
6
CONTINUOUS
10
180.875
20
-100.782
11
181.5
21
-100.672
0
LINE
8
BLACK
6
CONTINUOUS
10
181.5
20
-100.672
11
182.125
21
-100.782
0
LINE
8
BLACK
6
CONTINUOUS
10
117.125
20
-100.282
11
117.675
21
-100.6
0
LINE
8
BLACK
6
CONTINUOUS
10
117.675
20
-100.6
11
118.083
21
-101.086
0
LINE
8
BLACK
6
CONTINUOUS
10
118.083
20
-101.086
11
118.3
21
-101.683
0
LINE
8
BLACK
6
CONTINUOUS
10
118.3
20
-101.683
11
118.3
21
-102.317
0
LINE
8
BLACK
6
CONTINUOUS
10
118.3
20
-102.317
11
118.083
21
-102.914
0
LINE
8
BLACK
6
CONTINUOUS
10
118.083
20
-102.914
11
117.675
21
-103.4
0
LINE
8
BLACK
6
CONTINUOUS
10
117.675
20
-103.4
11
117.125
21
-103.718
0
LINE
8
BLACK
6
CONTINUOUS
10
117.125
20
-103.718
11
116.5
21
-103.828
0
LINE
8
BLACK
6
CONTINUOUS
10
116.5
20
-103.828
11
115.875
21
-103.718
0
LINE
8
BLACK
6
CONTINUOUS
10
115.875
20
-103.718
11
115.325
21
-103.4
0
LINE
8
BLACK
6
CONTINUOUS
10
115.325
20
-103.4
11
114.917
21
-102.914
0
LINE
8
BLACK
6
CONTINUOUS
10
114.917
20
-102.914
11
114.7
21
-102.317
0
LINE
8
BLACK
6
CONTINUOUS
10
114.7
20
-102.317
11
114.7
21
-101.683
0
LINE
8
BLACK
6
CONTINUOUS
10
114.7
20
-101.683
11
114.917
21
-101.086
0
LINE
8
BLACK
6
CONTINUOUS
10
114.917
20
-101.086
11
115.325
21
-100.6
0
LINE
8
BLACK
6
CONTINUOUS
10
115.325
20
-100.6
11
115.875
21
-100.282
0
LINE
8
BLACK
6
CONTINUOUS
10
115.875
20
-100.282
11
116.5
21
-100.172
0
LINE
8
BLACK
6
CONTINUOUS
10
116.5
20
-100.172
11
117.125
21
-100.282
  0
ENDSEC
  0
EOF
